%TF.GenerationSoftware,KiCad,Pcbnew,8.0.2*%
%TF.CreationDate,2024-08-10T10:20:34+02:00*%
%TF.ProjectId,ir-blaster,69722d62-6c61-4737-9465-722e6b696361,rev?*%
%TF.SameCoordinates,Original*%
%TF.FileFunction,Drillmap*%
%TF.FilePolarity,Positive*%
%FSLAX45Y45*%
G04 Gerber Fmt 4.5, Leading zero omitted, Abs format (unit mm)*
G04 Created by KiCad (PCBNEW 8.0.2) date 2024-08-10 10:20:34*
%MOMM*%
%LPD*%
G01*
G04 APERTURE LIST*
%ADD10C,0.250000*%
%ADD11C,0.050000*%
%ADD12C,0.200000*%
%ADD13C,0.100000*%
%ADD14C,0.127000*%
G04 APERTURE END LIST*
D10*
X8791000Y-3976000D02*
X8791000Y-4576000D01*
X7591000Y-3276000D02*
X5391000Y-3276000D01*
X5291000Y-5176000D02*
X5291000Y-3376000D01*
X7791000Y-5576000D02*
G75*
G02*
X7691000Y-5476000I0J100000D01*
G01*
X7791000Y-2976000D02*
G75*
G02*
X8791000Y-3976000I0J-1000000D01*
G01*
D11*
X5927000Y-4298000D02*
G75*
G02*
X5627000Y-4298000I-150000J0D01*
G01*
X5627000Y-4298000D02*
G75*
G02*
X5927000Y-4298000I150000J0D01*
G01*
D10*
X7691000Y-3076000D02*
X7691000Y-3176000D01*
X5391000Y-5276000D02*
G75*
G02*
X5291000Y-5176000I0J100000D01*
G01*
X7591000Y-5276000D02*
G75*
G02*
X7691000Y-5376000I0J-100000D01*
G01*
X7691000Y-3176000D02*
G75*
G02*
X7591000Y-3276000I-100000J0D01*
G01*
X7691000Y-5476000D02*
X7691000Y-5376000D01*
X5291000Y-3376000D02*
G75*
G02*
X5391000Y-3276000I100000J0D01*
G01*
X7591000Y-5276000D02*
X5391000Y-5276000D01*
X8791000Y-4576000D02*
G75*
G02*
X7791000Y-5576000I-1000000J0D01*
G01*
X7691000Y-3076000D02*
G75*
G02*
X7791000Y-2976000I100000J0D01*
G01*
D12*
D13*
X6600000Y-4587000D02*
X6630000Y-4617000D01*
X6630000Y-4587000D02*
X6600000Y-4617000D01*
X8086844Y-5231156D02*
G75*
G02*
X7996844Y-5231156I-45000J0D01*
G01*
X7996844Y-5231156D02*
G75*
G02*
X8086844Y-5231156I45000J0D01*
G01*
X8157000Y-3210000D02*
G75*
G02*
X8067000Y-3210000I-45000J0D01*
G01*
X8067000Y-3210000D02*
G75*
G02*
X8157000Y-3210000I45000J0D01*
G01*
X8266449Y-5051551D02*
G75*
G02*
X8176449Y-5051551I-45000J0D01*
G01*
X8176449Y-5051551D02*
G75*
G02*
X8266449Y-5051551I45000J0D01*
G01*
X8336605Y-3389605D02*
G75*
G02*
X8246605Y-3389605I-45000J0D01*
G01*
X8246605Y-3389605D02*
G75*
G02*
X8336605Y-3389605I45000J0D01*
G01*
X8541000Y-4131500D02*
G75*
G02*
X8451000Y-4131500I-45000J0D01*
G01*
X8451000Y-4131500D02*
G75*
G02*
X8541000Y-4131500I45000J0D01*
G01*
X8541000Y-4385500D02*
G75*
G02*
X8451000Y-4385500I-45000J0D01*
G01*
X8451000Y-4385500D02*
G75*
G02*
X8541000Y-4385500I45000J0D01*
G01*
X5587500Y-3731500D02*
X5587500Y-3831500D01*
X5537500Y-3781500D02*
X5637500Y-3781500D01*
X5841500Y-3731500D02*
X5841500Y-3831500D01*
X5791500Y-3781500D02*
X5891500Y-3781500D01*
X8004500Y-3856500D02*
X8004500Y-3956500D01*
X7954500Y-3906500D02*
X8054500Y-3906500D01*
X8004500Y-4110500D02*
X8004500Y-4210500D01*
X7954500Y-4160500D02*
X8054500Y-4160500D01*
X8004500Y-4364500D02*
X8004500Y-4464500D01*
X7954500Y-4414500D02*
X8054500Y-4414500D01*
D14*
X5639902Y-3553902D02*
X5639902Y-3464098D01*
X5550098Y-3464098D01*
X5550098Y-3553902D01*
X5639902Y-3553902D01*
X5639902Y-5077902D02*
X5639902Y-4988098D01*
X5550098Y-4988098D01*
X5550098Y-5077902D01*
X5639902Y-5077902D01*
X5893902Y-3553902D02*
X5893902Y-3464098D01*
X5804098Y-3464098D01*
X5804098Y-3553902D01*
X5893902Y-3553902D01*
X5893902Y-5077902D02*
X5893902Y-4988098D01*
X5804098Y-4988098D01*
X5804098Y-5077902D01*
X5893902Y-5077902D01*
X6147902Y-3553902D02*
X6147902Y-3464098D01*
X6058098Y-3464098D01*
X6058098Y-3553902D01*
X6147902Y-3553902D01*
X6147902Y-5077902D02*
X6147902Y-4988098D01*
X6058098Y-4988098D01*
X6058098Y-5077902D01*
X6147902Y-5077902D01*
X6401902Y-3553902D02*
X6401902Y-3464098D01*
X6312098Y-3464098D01*
X6312098Y-3553902D01*
X6401902Y-3553902D01*
X6401902Y-5077902D02*
X6401902Y-4988098D01*
X6312098Y-4988098D01*
X6312098Y-5077902D01*
X6401902Y-5077902D01*
X6655902Y-3553902D02*
X6655902Y-3464098D01*
X6566098Y-3464098D01*
X6566098Y-3553902D01*
X6655902Y-3553902D01*
X6655902Y-5077902D02*
X6655902Y-4988098D01*
X6566098Y-4988098D01*
X6566098Y-5077902D01*
X6655902Y-5077902D01*
X6909902Y-3553902D02*
X6909902Y-3464098D01*
X6820098Y-3464098D01*
X6820098Y-3553902D01*
X6909902Y-3553902D01*
X6909902Y-5077902D02*
X6909902Y-4988098D01*
X6820098Y-4988098D01*
X6820098Y-5077902D01*
X6909902Y-5077902D01*
X7163902Y-3553902D02*
X7163902Y-3464098D01*
X7074098Y-3464098D01*
X7074098Y-3553902D01*
X7163902Y-3553902D01*
X7163902Y-5077902D02*
X7163902Y-4988098D01*
X7074098Y-4988098D01*
X7074098Y-5077902D01*
X7163902Y-5077902D01*
X7417902Y-3553902D02*
X7417902Y-3464098D01*
X7328098Y-3464098D01*
X7328098Y-3553902D01*
X7417902Y-3553902D01*
X7417902Y-5077902D02*
X7417902Y-4988098D01*
X7328098Y-4988098D01*
X7328098Y-5077902D01*
X7417902Y-5077902D01*
D12*
X5539277Y-5899984D02*
X5539277Y-5699984D01*
X5539277Y-5699984D02*
X5586896Y-5699984D01*
X5586896Y-5699984D02*
X5615467Y-5709508D01*
X5615467Y-5709508D02*
X5634515Y-5728555D01*
X5634515Y-5728555D02*
X5644039Y-5747603D01*
X5644039Y-5747603D02*
X5653562Y-5785698D01*
X5653562Y-5785698D02*
X5653562Y-5814269D01*
X5653562Y-5814269D02*
X5644039Y-5852365D01*
X5644039Y-5852365D02*
X5634515Y-5871412D01*
X5634515Y-5871412D02*
X5615467Y-5890460D01*
X5615467Y-5890460D02*
X5586896Y-5899984D01*
X5586896Y-5899984D02*
X5539277Y-5899984D01*
X5739277Y-5899984D02*
X5739277Y-5766650D01*
X5739277Y-5804746D02*
X5748801Y-5785698D01*
X5748801Y-5785698D02*
X5758324Y-5776174D01*
X5758324Y-5776174D02*
X5777372Y-5766650D01*
X5777372Y-5766650D02*
X5796420Y-5766650D01*
X5863086Y-5899984D02*
X5863086Y-5766650D01*
X5863086Y-5699984D02*
X5853562Y-5709508D01*
X5853562Y-5709508D02*
X5863086Y-5719031D01*
X5863086Y-5719031D02*
X5872610Y-5709508D01*
X5872610Y-5709508D02*
X5863086Y-5699984D01*
X5863086Y-5699984D02*
X5863086Y-5719031D01*
X5986896Y-5899984D02*
X5967848Y-5890460D01*
X5967848Y-5890460D02*
X5958324Y-5871412D01*
X5958324Y-5871412D02*
X5958324Y-5699984D01*
X6091658Y-5899984D02*
X6072610Y-5890460D01*
X6072610Y-5890460D02*
X6063086Y-5871412D01*
X6063086Y-5871412D02*
X6063086Y-5699984D01*
X6320229Y-5899984D02*
X6320229Y-5699984D01*
X6320229Y-5699984D02*
X6386896Y-5842841D01*
X6386896Y-5842841D02*
X6453562Y-5699984D01*
X6453562Y-5699984D02*
X6453562Y-5899984D01*
X6634515Y-5899984D02*
X6634515Y-5795222D01*
X6634515Y-5795222D02*
X6624991Y-5776174D01*
X6624991Y-5776174D02*
X6605943Y-5766650D01*
X6605943Y-5766650D02*
X6567848Y-5766650D01*
X6567848Y-5766650D02*
X6548801Y-5776174D01*
X6634515Y-5890460D02*
X6615467Y-5899984D01*
X6615467Y-5899984D02*
X6567848Y-5899984D01*
X6567848Y-5899984D02*
X6548801Y-5890460D01*
X6548801Y-5890460D02*
X6539277Y-5871412D01*
X6539277Y-5871412D02*
X6539277Y-5852365D01*
X6539277Y-5852365D02*
X6548801Y-5833317D01*
X6548801Y-5833317D02*
X6567848Y-5823793D01*
X6567848Y-5823793D02*
X6615467Y-5823793D01*
X6615467Y-5823793D02*
X6634515Y-5814269D01*
X6729753Y-5766650D02*
X6729753Y-5966650D01*
X6729753Y-5776174D02*
X6748801Y-5766650D01*
X6748801Y-5766650D02*
X6786896Y-5766650D01*
X6786896Y-5766650D02*
X6805943Y-5776174D01*
X6805943Y-5776174D02*
X6815467Y-5785698D01*
X6815467Y-5785698D02*
X6824991Y-5804746D01*
X6824991Y-5804746D02*
X6824991Y-5861888D01*
X6824991Y-5861888D02*
X6815467Y-5880936D01*
X6815467Y-5880936D02*
X6805943Y-5890460D01*
X6805943Y-5890460D02*
X6786896Y-5899984D01*
X6786896Y-5899984D02*
X6748801Y-5899984D01*
X6748801Y-5899984D02*
X6729753Y-5890460D01*
X6910705Y-5880936D02*
X6920229Y-5890460D01*
X6920229Y-5890460D02*
X6910705Y-5899984D01*
X6910705Y-5899984D02*
X6901182Y-5890460D01*
X6901182Y-5890460D02*
X6910705Y-5880936D01*
X6910705Y-5880936D02*
X6910705Y-5899984D01*
X6910705Y-5776174D02*
X6920229Y-5785698D01*
X6920229Y-5785698D02*
X6910705Y-5795222D01*
X6910705Y-5795222D02*
X6901182Y-5785698D01*
X6901182Y-5785698D02*
X6910705Y-5776174D01*
X6910705Y-5776174D02*
X6910705Y-5795222D01*
D13*
X5248500Y-6213500D02*
X5278500Y-6243500D01*
X5278500Y-6213500D02*
X5248500Y-6243500D01*
D12*
X5577372Y-6119984D02*
X5596420Y-6119984D01*
X5596420Y-6119984D02*
X5615467Y-6129508D01*
X5615467Y-6129508D02*
X5624991Y-6139031D01*
X5624991Y-6139031D02*
X5634515Y-6158079D01*
X5634515Y-6158079D02*
X5644039Y-6196174D01*
X5644039Y-6196174D02*
X5644039Y-6243793D01*
X5644039Y-6243793D02*
X5634515Y-6281888D01*
X5634515Y-6281888D02*
X5624991Y-6300936D01*
X5624991Y-6300936D02*
X5615467Y-6310460D01*
X5615467Y-6310460D02*
X5596420Y-6319984D01*
X5596420Y-6319984D02*
X5577372Y-6319984D01*
X5577372Y-6319984D02*
X5558324Y-6310460D01*
X5558324Y-6310460D02*
X5548801Y-6300936D01*
X5548801Y-6300936D02*
X5539277Y-6281888D01*
X5539277Y-6281888D02*
X5529753Y-6243793D01*
X5529753Y-6243793D02*
X5529753Y-6196174D01*
X5529753Y-6196174D02*
X5539277Y-6158079D01*
X5539277Y-6158079D02*
X5548801Y-6139031D01*
X5548801Y-6139031D02*
X5558324Y-6129508D01*
X5558324Y-6129508D02*
X5577372Y-6119984D01*
X5729753Y-6300936D02*
X5739277Y-6310460D01*
X5739277Y-6310460D02*
X5729753Y-6319984D01*
X5729753Y-6319984D02*
X5720229Y-6310460D01*
X5720229Y-6310460D02*
X5729753Y-6300936D01*
X5729753Y-6300936D02*
X5729753Y-6319984D01*
X5805943Y-6119984D02*
X5929753Y-6119984D01*
X5929753Y-6119984D02*
X5863086Y-6196174D01*
X5863086Y-6196174D02*
X5891658Y-6196174D01*
X5891658Y-6196174D02*
X5910705Y-6205698D01*
X5910705Y-6205698D02*
X5920229Y-6215222D01*
X5920229Y-6215222D02*
X5929753Y-6234269D01*
X5929753Y-6234269D02*
X5929753Y-6281888D01*
X5929753Y-6281888D02*
X5920229Y-6300936D01*
X5920229Y-6300936D02*
X5910705Y-6310460D01*
X5910705Y-6310460D02*
X5891658Y-6319984D01*
X5891658Y-6319984D02*
X5834515Y-6319984D01*
X5834515Y-6319984D02*
X5815467Y-6310460D01*
X5815467Y-6310460D02*
X5805943Y-6300936D01*
X6053562Y-6119984D02*
X6072610Y-6119984D01*
X6072610Y-6119984D02*
X6091658Y-6129508D01*
X6091658Y-6129508D02*
X6101182Y-6139031D01*
X6101182Y-6139031D02*
X6110705Y-6158079D01*
X6110705Y-6158079D02*
X6120229Y-6196174D01*
X6120229Y-6196174D02*
X6120229Y-6243793D01*
X6120229Y-6243793D02*
X6110705Y-6281888D01*
X6110705Y-6281888D02*
X6101182Y-6300936D01*
X6101182Y-6300936D02*
X6091658Y-6310460D01*
X6091658Y-6310460D02*
X6072610Y-6319984D01*
X6072610Y-6319984D02*
X6053562Y-6319984D01*
X6053562Y-6319984D02*
X6034515Y-6310460D01*
X6034515Y-6310460D02*
X6024991Y-6300936D01*
X6024991Y-6300936D02*
X6015467Y-6281888D01*
X6015467Y-6281888D02*
X6005943Y-6243793D01*
X6005943Y-6243793D02*
X6005943Y-6196174D01*
X6005943Y-6196174D02*
X6015467Y-6158079D01*
X6015467Y-6158079D02*
X6024991Y-6139031D01*
X6024991Y-6139031D02*
X6034515Y-6129508D01*
X6034515Y-6129508D02*
X6053562Y-6119984D01*
X6244039Y-6119984D02*
X6263086Y-6119984D01*
X6263086Y-6119984D02*
X6282134Y-6129508D01*
X6282134Y-6129508D02*
X6291658Y-6139031D01*
X6291658Y-6139031D02*
X6301182Y-6158079D01*
X6301182Y-6158079D02*
X6310705Y-6196174D01*
X6310705Y-6196174D02*
X6310705Y-6243793D01*
X6310705Y-6243793D02*
X6301182Y-6281888D01*
X6301182Y-6281888D02*
X6291658Y-6300936D01*
X6291658Y-6300936D02*
X6282134Y-6310460D01*
X6282134Y-6310460D02*
X6263086Y-6319984D01*
X6263086Y-6319984D02*
X6244039Y-6319984D01*
X6244039Y-6319984D02*
X6224991Y-6310460D01*
X6224991Y-6310460D02*
X6215467Y-6300936D01*
X6215467Y-6300936D02*
X6205943Y-6281888D01*
X6205943Y-6281888D02*
X6196420Y-6243793D01*
X6196420Y-6243793D02*
X6196420Y-6196174D01*
X6196420Y-6196174D02*
X6205943Y-6158079D01*
X6205943Y-6158079D02*
X6215467Y-6139031D01*
X6215467Y-6139031D02*
X6224991Y-6129508D01*
X6224991Y-6129508D02*
X6244039Y-6119984D01*
X6396420Y-6319984D02*
X6396420Y-6186650D01*
X6396420Y-6205698D02*
X6405943Y-6196174D01*
X6405943Y-6196174D02*
X6424991Y-6186650D01*
X6424991Y-6186650D02*
X6453563Y-6186650D01*
X6453563Y-6186650D02*
X6472610Y-6196174D01*
X6472610Y-6196174D02*
X6482134Y-6215222D01*
X6482134Y-6215222D02*
X6482134Y-6319984D01*
X6482134Y-6215222D02*
X6491658Y-6196174D01*
X6491658Y-6196174D02*
X6510705Y-6186650D01*
X6510705Y-6186650D02*
X6539277Y-6186650D01*
X6539277Y-6186650D02*
X6558324Y-6196174D01*
X6558324Y-6196174D02*
X6567848Y-6215222D01*
X6567848Y-6215222D02*
X6567848Y-6319984D01*
X6663086Y-6319984D02*
X6663086Y-6186650D01*
X6663086Y-6205698D02*
X6672610Y-6196174D01*
X6672610Y-6196174D02*
X6691658Y-6186650D01*
X6691658Y-6186650D02*
X6720229Y-6186650D01*
X6720229Y-6186650D02*
X6739277Y-6196174D01*
X6739277Y-6196174D02*
X6748801Y-6215222D01*
X6748801Y-6215222D02*
X6748801Y-6319984D01*
X6748801Y-6215222D02*
X6758324Y-6196174D01*
X6758324Y-6196174D02*
X6777372Y-6186650D01*
X6777372Y-6186650D02*
X6805943Y-6186650D01*
X6805943Y-6186650D02*
X6824991Y-6196174D01*
X6824991Y-6196174D02*
X6834515Y-6215222D01*
X6834515Y-6215222D02*
X6834515Y-6319984D01*
X7224991Y-6110460D02*
X7053563Y-6367603D01*
X7482134Y-6119984D02*
X7501182Y-6119984D01*
X7501182Y-6119984D02*
X7520229Y-6129508D01*
X7520229Y-6129508D02*
X7529753Y-6139031D01*
X7529753Y-6139031D02*
X7539277Y-6158079D01*
X7539277Y-6158079D02*
X7548801Y-6196174D01*
X7548801Y-6196174D02*
X7548801Y-6243793D01*
X7548801Y-6243793D02*
X7539277Y-6281888D01*
X7539277Y-6281888D02*
X7529753Y-6300936D01*
X7529753Y-6300936D02*
X7520229Y-6310460D01*
X7520229Y-6310460D02*
X7501182Y-6319984D01*
X7501182Y-6319984D02*
X7482134Y-6319984D01*
X7482134Y-6319984D02*
X7463086Y-6310460D01*
X7463086Y-6310460D02*
X7453563Y-6300936D01*
X7453563Y-6300936D02*
X7444039Y-6281888D01*
X7444039Y-6281888D02*
X7434515Y-6243793D01*
X7434515Y-6243793D02*
X7434515Y-6196174D01*
X7434515Y-6196174D02*
X7444039Y-6158079D01*
X7444039Y-6158079D02*
X7453563Y-6139031D01*
X7453563Y-6139031D02*
X7463086Y-6129508D01*
X7463086Y-6129508D02*
X7482134Y-6119984D01*
X7634515Y-6300936D02*
X7644039Y-6310460D01*
X7644039Y-6310460D02*
X7634515Y-6319984D01*
X7634515Y-6319984D02*
X7624991Y-6310460D01*
X7624991Y-6310460D02*
X7634515Y-6300936D01*
X7634515Y-6300936D02*
X7634515Y-6319984D01*
X7767848Y-6119984D02*
X7786896Y-6119984D01*
X7786896Y-6119984D02*
X7805944Y-6129508D01*
X7805944Y-6129508D02*
X7815467Y-6139031D01*
X7815467Y-6139031D02*
X7824991Y-6158079D01*
X7824991Y-6158079D02*
X7834515Y-6196174D01*
X7834515Y-6196174D02*
X7834515Y-6243793D01*
X7834515Y-6243793D02*
X7824991Y-6281888D01*
X7824991Y-6281888D02*
X7815467Y-6300936D01*
X7815467Y-6300936D02*
X7805944Y-6310460D01*
X7805944Y-6310460D02*
X7786896Y-6319984D01*
X7786896Y-6319984D02*
X7767848Y-6319984D01*
X7767848Y-6319984D02*
X7748801Y-6310460D01*
X7748801Y-6310460D02*
X7739277Y-6300936D01*
X7739277Y-6300936D02*
X7729753Y-6281888D01*
X7729753Y-6281888D02*
X7720229Y-6243793D01*
X7720229Y-6243793D02*
X7720229Y-6196174D01*
X7720229Y-6196174D02*
X7729753Y-6158079D01*
X7729753Y-6158079D02*
X7739277Y-6139031D01*
X7739277Y-6139031D02*
X7748801Y-6129508D01*
X7748801Y-6129508D02*
X7767848Y-6119984D01*
X8024991Y-6319984D02*
X7910706Y-6319984D01*
X7967848Y-6319984D02*
X7967848Y-6119984D01*
X7967848Y-6119984D02*
X7948801Y-6148555D01*
X7948801Y-6148555D02*
X7929753Y-6167603D01*
X7929753Y-6167603D02*
X7910706Y-6177127D01*
X8215467Y-6319984D02*
X8101182Y-6319984D01*
X8158325Y-6319984D02*
X8158325Y-6119984D01*
X8158325Y-6119984D02*
X8139277Y-6148555D01*
X8139277Y-6148555D02*
X8120229Y-6167603D01*
X8120229Y-6167603D02*
X8101182Y-6177127D01*
X8329753Y-6205698D02*
X8310706Y-6196174D01*
X8310706Y-6196174D02*
X8301182Y-6186650D01*
X8301182Y-6186650D02*
X8291658Y-6167603D01*
X8291658Y-6167603D02*
X8291658Y-6158079D01*
X8291658Y-6158079D02*
X8301182Y-6139031D01*
X8301182Y-6139031D02*
X8310706Y-6129508D01*
X8310706Y-6129508D02*
X8329753Y-6119984D01*
X8329753Y-6119984D02*
X8367848Y-6119984D01*
X8367848Y-6119984D02*
X8386896Y-6129508D01*
X8386896Y-6129508D02*
X8396420Y-6139031D01*
X8396420Y-6139031D02*
X8405944Y-6158079D01*
X8405944Y-6158079D02*
X8405944Y-6167603D01*
X8405944Y-6167603D02*
X8396420Y-6186650D01*
X8396420Y-6186650D02*
X8386896Y-6196174D01*
X8386896Y-6196174D02*
X8367848Y-6205698D01*
X8367848Y-6205698D02*
X8329753Y-6205698D01*
X8329753Y-6205698D02*
X8310706Y-6215222D01*
X8310706Y-6215222D02*
X8301182Y-6224746D01*
X8301182Y-6224746D02*
X8291658Y-6243793D01*
X8291658Y-6243793D02*
X8291658Y-6281888D01*
X8291658Y-6281888D02*
X8301182Y-6300936D01*
X8301182Y-6300936D02*
X8310706Y-6310460D01*
X8310706Y-6310460D02*
X8329753Y-6319984D01*
X8329753Y-6319984D02*
X8367848Y-6319984D01*
X8367848Y-6319984D02*
X8386896Y-6310460D01*
X8386896Y-6310460D02*
X8396420Y-6300936D01*
X8396420Y-6300936D02*
X8405944Y-6281888D01*
X8405944Y-6281888D02*
X8405944Y-6243793D01*
X8405944Y-6243793D02*
X8396420Y-6224746D01*
X8396420Y-6224746D02*
X8386896Y-6215222D01*
X8386896Y-6215222D02*
X8367848Y-6205698D01*
X8482134Y-6119984D02*
X8482134Y-6158079D01*
X8558325Y-6119984D02*
X8558325Y-6158079D01*
X8853563Y-6396174D02*
X8844039Y-6386650D01*
X8844039Y-6386650D02*
X8824991Y-6358079D01*
X8824991Y-6358079D02*
X8815468Y-6339031D01*
X8815468Y-6339031D02*
X8805944Y-6310460D01*
X8805944Y-6310460D02*
X8796420Y-6262841D01*
X8796420Y-6262841D02*
X8796420Y-6224746D01*
X8796420Y-6224746D02*
X8805944Y-6177127D01*
X8805944Y-6177127D02*
X8815468Y-6148555D01*
X8815468Y-6148555D02*
X8824991Y-6129508D01*
X8824991Y-6129508D02*
X8844039Y-6100936D01*
X8844039Y-6100936D02*
X8853563Y-6091412D01*
X9034515Y-6319984D02*
X8920230Y-6319984D01*
X8977372Y-6319984D02*
X8977372Y-6119984D01*
X8977372Y-6119984D02*
X8958325Y-6148555D01*
X8958325Y-6148555D02*
X8939277Y-6167603D01*
X8939277Y-6167603D02*
X8920230Y-6177127D01*
X9272611Y-6319984D02*
X9272611Y-6119984D01*
X9358325Y-6319984D02*
X9358325Y-6215222D01*
X9358325Y-6215222D02*
X9348801Y-6196174D01*
X9348801Y-6196174D02*
X9329753Y-6186650D01*
X9329753Y-6186650D02*
X9301182Y-6186650D01*
X9301182Y-6186650D02*
X9282134Y-6196174D01*
X9282134Y-6196174D02*
X9272611Y-6205698D01*
X9482134Y-6319984D02*
X9463087Y-6310460D01*
X9463087Y-6310460D02*
X9453563Y-6300936D01*
X9453563Y-6300936D02*
X9444039Y-6281888D01*
X9444039Y-6281888D02*
X9444039Y-6224746D01*
X9444039Y-6224746D02*
X9453563Y-6205698D01*
X9453563Y-6205698D02*
X9463087Y-6196174D01*
X9463087Y-6196174D02*
X9482134Y-6186650D01*
X9482134Y-6186650D02*
X9510706Y-6186650D01*
X9510706Y-6186650D02*
X9529753Y-6196174D01*
X9529753Y-6196174D02*
X9539277Y-6205698D01*
X9539277Y-6205698D02*
X9548801Y-6224746D01*
X9548801Y-6224746D02*
X9548801Y-6281888D01*
X9548801Y-6281888D02*
X9539277Y-6300936D01*
X9539277Y-6300936D02*
X9529753Y-6310460D01*
X9529753Y-6310460D02*
X9510706Y-6319984D01*
X9510706Y-6319984D02*
X9482134Y-6319984D01*
X9663087Y-6319984D02*
X9644039Y-6310460D01*
X9644039Y-6310460D02*
X9634515Y-6291412D01*
X9634515Y-6291412D02*
X9634515Y-6119984D01*
X9815468Y-6310460D02*
X9796420Y-6319984D01*
X9796420Y-6319984D02*
X9758325Y-6319984D01*
X9758325Y-6319984D02*
X9739277Y-6310460D01*
X9739277Y-6310460D02*
X9729753Y-6291412D01*
X9729753Y-6291412D02*
X9729753Y-6215222D01*
X9729753Y-6215222D02*
X9739277Y-6196174D01*
X9739277Y-6196174D02*
X9758325Y-6186650D01*
X9758325Y-6186650D02*
X9796420Y-6186650D01*
X9796420Y-6186650D02*
X9815468Y-6196174D01*
X9815468Y-6196174D02*
X9824992Y-6215222D01*
X9824992Y-6215222D02*
X9824992Y-6234269D01*
X9824992Y-6234269D02*
X9729753Y-6253317D01*
X9891658Y-6396174D02*
X9901182Y-6386650D01*
X9901182Y-6386650D02*
X9920230Y-6358079D01*
X9920230Y-6358079D02*
X9929753Y-6339031D01*
X9929753Y-6339031D02*
X9939277Y-6310460D01*
X9939277Y-6310460D02*
X9948801Y-6262841D01*
X9948801Y-6262841D02*
X9948801Y-6224746D01*
X9948801Y-6224746D02*
X9939277Y-6177127D01*
X9939277Y-6177127D02*
X9929753Y-6148555D01*
X9929753Y-6148555D02*
X9920230Y-6129508D01*
X9920230Y-6129508D02*
X9901182Y-6100936D01*
X9901182Y-6100936D02*
X9891658Y-6091412D01*
D13*
X5278500Y-6492500D02*
G75*
G02*
X5188500Y-6492500I-45000J0D01*
G01*
X5188500Y-6492500D02*
G75*
G02*
X5278500Y-6492500I45000J0D01*
G01*
D12*
X5577372Y-6383984D02*
X5596420Y-6383984D01*
X5596420Y-6383984D02*
X5615467Y-6393508D01*
X5615467Y-6393508D02*
X5624991Y-6403031D01*
X5624991Y-6403031D02*
X5634515Y-6422079D01*
X5634515Y-6422079D02*
X5644039Y-6460174D01*
X5644039Y-6460174D02*
X5644039Y-6507793D01*
X5644039Y-6507793D02*
X5634515Y-6545888D01*
X5634515Y-6545888D02*
X5624991Y-6564936D01*
X5624991Y-6564936D02*
X5615467Y-6574460D01*
X5615467Y-6574460D02*
X5596420Y-6583984D01*
X5596420Y-6583984D02*
X5577372Y-6583984D01*
X5577372Y-6583984D02*
X5558324Y-6574460D01*
X5558324Y-6574460D02*
X5548801Y-6564936D01*
X5548801Y-6564936D02*
X5539277Y-6545888D01*
X5539277Y-6545888D02*
X5529753Y-6507793D01*
X5529753Y-6507793D02*
X5529753Y-6460174D01*
X5529753Y-6460174D02*
X5539277Y-6422079D01*
X5539277Y-6422079D02*
X5548801Y-6403031D01*
X5548801Y-6403031D02*
X5558324Y-6393508D01*
X5558324Y-6393508D02*
X5577372Y-6383984D01*
X5729753Y-6564936D02*
X5739277Y-6574460D01*
X5739277Y-6574460D02*
X5729753Y-6583984D01*
X5729753Y-6583984D02*
X5720229Y-6574460D01*
X5720229Y-6574460D02*
X5729753Y-6564936D01*
X5729753Y-6564936D02*
X5729753Y-6583984D01*
X5834515Y-6583984D02*
X5872610Y-6583984D01*
X5872610Y-6583984D02*
X5891658Y-6574460D01*
X5891658Y-6574460D02*
X5901182Y-6564936D01*
X5901182Y-6564936D02*
X5920229Y-6536365D01*
X5920229Y-6536365D02*
X5929753Y-6498269D01*
X5929753Y-6498269D02*
X5929753Y-6422079D01*
X5929753Y-6422079D02*
X5920229Y-6403031D01*
X5920229Y-6403031D02*
X5910705Y-6393508D01*
X5910705Y-6393508D02*
X5891658Y-6383984D01*
X5891658Y-6383984D02*
X5853562Y-6383984D01*
X5853562Y-6383984D02*
X5834515Y-6393508D01*
X5834515Y-6393508D02*
X5824991Y-6403031D01*
X5824991Y-6403031D02*
X5815467Y-6422079D01*
X5815467Y-6422079D02*
X5815467Y-6469698D01*
X5815467Y-6469698D02*
X5824991Y-6488746D01*
X5824991Y-6488746D02*
X5834515Y-6498269D01*
X5834515Y-6498269D02*
X5853562Y-6507793D01*
X5853562Y-6507793D02*
X5891658Y-6507793D01*
X5891658Y-6507793D02*
X5910705Y-6498269D01*
X5910705Y-6498269D02*
X5920229Y-6488746D01*
X5920229Y-6488746D02*
X5929753Y-6469698D01*
X6053562Y-6383984D02*
X6072610Y-6383984D01*
X6072610Y-6383984D02*
X6091658Y-6393508D01*
X6091658Y-6393508D02*
X6101182Y-6403031D01*
X6101182Y-6403031D02*
X6110705Y-6422079D01*
X6110705Y-6422079D02*
X6120229Y-6460174D01*
X6120229Y-6460174D02*
X6120229Y-6507793D01*
X6120229Y-6507793D02*
X6110705Y-6545888D01*
X6110705Y-6545888D02*
X6101182Y-6564936D01*
X6101182Y-6564936D02*
X6091658Y-6574460D01*
X6091658Y-6574460D02*
X6072610Y-6583984D01*
X6072610Y-6583984D02*
X6053562Y-6583984D01*
X6053562Y-6583984D02*
X6034515Y-6574460D01*
X6034515Y-6574460D02*
X6024991Y-6564936D01*
X6024991Y-6564936D02*
X6015467Y-6545888D01*
X6015467Y-6545888D02*
X6005943Y-6507793D01*
X6005943Y-6507793D02*
X6005943Y-6460174D01*
X6005943Y-6460174D02*
X6015467Y-6422079D01*
X6015467Y-6422079D02*
X6024991Y-6403031D01*
X6024991Y-6403031D02*
X6034515Y-6393508D01*
X6034515Y-6393508D02*
X6053562Y-6383984D01*
X6244039Y-6383984D02*
X6263086Y-6383984D01*
X6263086Y-6383984D02*
X6282134Y-6393508D01*
X6282134Y-6393508D02*
X6291658Y-6403031D01*
X6291658Y-6403031D02*
X6301182Y-6422079D01*
X6301182Y-6422079D02*
X6310705Y-6460174D01*
X6310705Y-6460174D02*
X6310705Y-6507793D01*
X6310705Y-6507793D02*
X6301182Y-6545888D01*
X6301182Y-6545888D02*
X6291658Y-6564936D01*
X6291658Y-6564936D02*
X6282134Y-6574460D01*
X6282134Y-6574460D02*
X6263086Y-6583984D01*
X6263086Y-6583984D02*
X6244039Y-6583984D01*
X6244039Y-6583984D02*
X6224991Y-6574460D01*
X6224991Y-6574460D02*
X6215467Y-6564936D01*
X6215467Y-6564936D02*
X6205943Y-6545888D01*
X6205943Y-6545888D02*
X6196420Y-6507793D01*
X6196420Y-6507793D02*
X6196420Y-6460174D01*
X6196420Y-6460174D02*
X6205943Y-6422079D01*
X6205943Y-6422079D02*
X6215467Y-6403031D01*
X6215467Y-6403031D02*
X6224991Y-6393508D01*
X6224991Y-6393508D02*
X6244039Y-6383984D01*
X6396420Y-6583984D02*
X6396420Y-6450650D01*
X6396420Y-6469698D02*
X6405943Y-6460174D01*
X6405943Y-6460174D02*
X6424991Y-6450650D01*
X6424991Y-6450650D02*
X6453563Y-6450650D01*
X6453563Y-6450650D02*
X6472610Y-6460174D01*
X6472610Y-6460174D02*
X6482134Y-6479222D01*
X6482134Y-6479222D02*
X6482134Y-6583984D01*
X6482134Y-6479222D02*
X6491658Y-6460174D01*
X6491658Y-6460174D02*
X6510705Y-6450650D01*
X6510705Y-6450650D02*
X6539277Y-6450650D01*
X6539277Y-6450650D02*
X6558324Y-6460174D01*
X6558324Y-6460174D02*
X6567848Y-6479222D01*
X6567848Y-6479222D02*
X6567848Y-6583984D01*
X6663086Y-6583984D02*
X6663086Y-6450650D01*
X6663086Y-6469698D02*
X6672610Y-6460174D01*
X6672610Y-6460174D02*
X6691658Y-6450650D01*
X6691658Y-6450650D02*
X6720229Y-6450650D01*
X6720229Y-6450650D02*
X6739277Y-6460174D01*
X6739277Y-6460174D02*
X6748801Y-6479222D01*
X6748801Y-6479222D02*
X6748801Y-6583984D01*
X6748801Y-6479222D02*
X6758324Y-6460174D01*
X6758324Y-6460174D02*
X6777372Y-6450650D01*
X6777372Y-6450650D02*
X6805943Y-6450650D01*
X6805943Y-6450650D02*
X6824991Y-6460174D01*
X6824991Y-6460174D02*
X6834515Y-6479222D01*
X6834515Y-6479222D02*
X6834515Y-6583984D01*
X7224991Y-6374460D02*
X7053563Y-6631603D01*
X7482134Y-6383984D02*
X7501182Y-6383984D01*
X7501182Y-6383984D02*
X7520229Y-6393508D01*
X7520229Y-6393508D02*
X7529753Y-6403031D01*
X7529753Y-6403031D02*
X7539277Y-6422079D01*
X7539277Y-6422079D02*
X7548801Y-6460174D01*
X7548801Y-6460174D02*
X7548801Y-6507793D01*
X7548801Y-6507793D02*
X7539277Y-6545888D01*
X7539277Y-6545888D02*
X7529753Y-6564936D01*
X7529753Y-6564936D02*
X7520229Y-6574460D01*
X7520229Y-6574460D02*
X7501182Y-6583984D01*
X7501182Y-6583984D02*
X7482134Y-6583984D01*
X7482134Y-6583984D02*
X7463086Y-6574460D01*
X7463086Y-6574460D02*
X7453563Y-6564936D01*
X7453563Y-6564936D02*
X7444039Y-6545888D01*
X7444039Y-6545888D02*
X7434515Y-6507793D01*
X7434515Y-6507793D02*
X7434515Y-6460174D01*
X7434515Y-6460174D02*
X7444039Y-6422079D01*
X7444039Y-6422079D02*
X7453563Y-6403031D01*
X7453563Y-6403031D02*
X7463086Y-6393508D01*
X7463086Y-6393508D02*
X7482134Y-6383984D01*
X7634515Y-6564936D02*
X7644039Y-6574460D01*
X7644039Y-6574460D02*
X7634515Y-6583984D01*
X7634515Y-6583984D02*
X7624991Y-6574460D01*
X7624991Y-6574460D02*
X7634515Y-6564936D01*
X7634515Y-6564936D02*
X7634515Y-6583984D01*
X7767848Y-6383984D02*
X7786896Y-6383984D01*
X7786896Y-6383984D02*
X7805944Y-6393508D01*
X7805944Y-6393508D02*
X7815467Y-6403031D01*
X7815467Y-6403031D02*
X7824991Y-6422079D01*
X7824991Y-6422079D02*
X7834515Y-6460174D01*
X7834515Y-6460174D02*
X7834515Y-6507793D01*
X7834515Y-6507793D02*
X7824991Y-6545888D01*
X7824991Y-6545888D02*
X7815467Y-6564936D01*
X7815467Y-6564936D02*
X7805944Y-6574460D01*
X7805944Y-6574460D02*
X7786896Y-6583984D01*
X7786896Y-6583984D02*
X7767848Y-6583984D01*
X7767848Y-6583984D02*
X7748801Y-6574460D01*
X7748801Y-6574460D02*
X7739277Y-6564936D01*
X7739277Y-6564936D02*
X7729753Y-6545888D01*
X7729753Y-6545888D02*
X7720229Y-6507793D01*
X7720229Y-6507793D02*
X7720229Y-6460174D01*
X7720229Y-6460174D02*
X7729753Y-6422079D01*
X7729753Y-6422079D02*
X7739277Y-6403031D01*
X7739277Y-6403031D02*
X7748801Y-6393508D01*
X7748801Y-6393508D02*
X7767848Y-6383984D01*
X7901182Y-6383984D02*
X8024991Y-6383984D01*
X8024991Y-6383984D02*
X7958325Y-6460174D01*
X7958325Y-6460174D02*
X7986896Y-6460174D01*
X7986896Y-6460174D02*
X8005944Y-6469698D01*
X8005944Y-6469698D02*
X8015467Y-6479222D01*
X8015467Y-6479222D02*
X8024991Y-6498269D01*
X8024991Y-6498269D02*
X8024991Y-6545888D01*
X8024991Y-6545888D02*
X8015467Y-6564936D01*
X8015467Y-6564936D02*
X8005944Y-6574460D01*
X8005944Y-6574460D02*
X7986896Y-6583984D01*
X7986896Y-6583984D02*
X7929753Y-6583984D01*
X7929753Y-6583984D02*
X7910706Y-6574460D01*
X7910706Y-6574460D02*
X7901182Y-6564936D01*
X8205944Y-6383984D02*
X8110706Y-6383984D01*
X8110706Y-6383984D02*
X8101182Y-6479222D01*
X8101182Y-6479222D02*
X8110706Y-6469698D01*
X8110706Y-6469698D02*
X8129753Y-6460174D01*
X8129753Y-6460174D02*
X8177372Y-6460174D01*
X8177372Y-6460174D02*
X8196420Y-6469698D01*
X8196420Y-6469698D02*
X8205944Y-6479222D01*
X8205944Y-6479222D02*
X8215467Y-6498269D01*
X8215467Y-6498269D02*
X8215467Y-6545888D01*
X8215467Y-6545888D02*
X8205944Y-6564936D01*
X8205944Y-6564936D02*
X8196420Y-6574460D01*
X8196420Y-6574460D02*
X8177372Y-6583984D01*
X8177372Y-6583984D02*
X8129753Y-6583984D01*
X8129753Y-6583984D02*
X8110706Y-6574460D01*
X8110706Y-6574460D02*
X8101182Y-6564936D01*
X8386896Y-6450650D02*
X8386896Y-6583984D01*
X8339277Y-6374460D02*
X8291658Y-6517317D01*
X8291658Y-6517317D02*
X8415468Y-6517317D01*
X8482134Y-6383984D02*
X8482134Y-6422079D01*
X8558325Y-6383984D02*
X8558325Y-6422079D01*
X8853563Y-6660174D02*
X8844039Y-6650650D01*
X8844039Y-6650650D02*
X8824991Y-6622079D01*
X8824991Y-6622079D02*
X8815468Y-6603031D01*
X8815468Y-6603031D02*
X8805944Y-6574460D01*
X8805944Y-6574460D02*
X8796420Y-6526841D01*
X8796420Y-6526841D02*
X8796420Y-6488746D01*
X8796420Y-6488746D02*
X8805944Y-6441127D01*
X8805944Y-6441127D02*
X8815468Y-6412555D01*
X8815468Y-6412555D02*
X8824991Y-6393508D01*
X8824991Y-6393508D02*
X8844039Y-6364936D01*
X8844039Y-6364936D02*
X8853563Y-6355412D01*
X9015468Y-6383984D02*
X8977372Y-6383984D01*
X8977372Y-6383984D02*
X8958325Y-6393508D01*
X8958325Y-6393508D02*
X8948801Y-6403031D01*
X8948801Y-6403031D02*
X8929753Y-6431603D01*
X8929753Y-6431603D02*
X8920230Y-6469698D01*
X8920230Y-6469698D02*
X8920230Y-6545888D01*
X8920230Y-6545888D02*
X8929753Y-6564936D01*
X8929753Y-6564936D02*
X8939277Y-6574460D01*
X8939277Y-6574460D02*
X8958325Y-6583984D01*
X8958325Y-6583984D02*
X8996420Y-6583984D01*
X8996420Y-6583984D02*
X9015468Y-6574460D01*
X9015468Y-6574460D02*
X9024991Y-6564936D01*
X9024991Y-6564936D02*
X9034515Y-6545888D01*
X9034515Y-6545888D02*
X9034515Y-6498269D01*
X9034515Y-6498269D02*
X9024991Y-6479222D01*
X9024991Y-6479222D02*
X9015468Y-6469698D01*
X9015468Y-6469698D02*
X8996420Y-6460174D01*
X8996420Y-6460174D02*
X8958325Y-6460174D01*
X8958325Y-6460174D02*
X8939277Y-6469698D01*
X8939277Y-6469698D02*
X8929753Y-6479222D01*
X8929753Y-6479222D02*
X8920230Y-6498269D01*
X9272611Y-6583984D02*
X9272611Y-6383984D01*
X9358325Y-6583984D02*
X9358325Y-6479222D01*
X9358325Y-6479222D02*
X9348801Y-6460174D01*
X9348801Y-6460174D02*
X9329753Y-6450650D01*
X9329753Y-6450650D02*
X9301182Y-6450650D01*
X9301182Y-6450650D02*
X9282134Y-6460174D01*
X9282134Y-6460174D02*
X9272611Y-6469698D01*
X9482134Y-6583984D02*
X9463087Y-6574460D01*
X9463087Y-6574460D02*
X9453563Y-6564936D01*
X9453563Y-6564936D02*
X9444039Y-6545888D01*
X9444039Y-6545888D02*
X9444039Y-6488746D01*
X9444039Y-6488746D02*
X9453563Y-6469698D01*
X9453563Y-6469698D02*
X9463087Y-6460174D01*
X9463087Y-6460174D02*
X9482134Y-6450650D01*
X9482134Y-6450650D02*
X9510706Y-6450650D01*
X9510706Y-6450650D02*
X9529753Y-6460174D01*
X9529753Y-6460174D02*
X9539277Y-6469698D01*
X9539277Y-6469698D02*
X9548801Y-6488746D01*
X9548801Y-6488746D02*
X9548801Y-6545888D01*
X9548801Y-6545888D02*
X9539277Y-6564936D01*
X9539277Y-6564936D02*
X9529753Y-6574460D01*
X9529753Y-6574460D02*
X9510706Y-6583984D01*
X9510706Y-6583984D02*
X9482134Y-6583984D01*
X9663087Y-6583984D02*
X9644039Y-6574460D01*
X9644039Y-6574460D02*
X9634515Y-6555412D01*
X9634515Y-6555412D02*
X9634515Y-6383984D01*
X9815468Y-6574460D02*
X9796420Y-6583984D01*
X9796420Y-6583984D02*
X9758325Y-6583984D01*
X9758325Y-6583984D02*
X9739277Y-6574460D01*
X9739277Y-6574460D02*
X9729753Y-6555412D01*
X9729753Y-6555412D02*
X9729753Y-6479222D01*
X9729753Y-6479222D02*
X9739277Y-6460174D01*
X9739277Y-6460174D02*
X9758325Y-6450650D01*
X9758325Y-6450650D02*
X9796420Y-6450650D01*
X9796420Y-6450650D02*
X9815468Y-6460174D01*
X9815468Y-6460174D02*
X9824992Y-6479222D01*
X9824992Y-6479222D02*
X9824992Y-6498269D01*
X9824992Y-6498269D02*
X9729753Y-6517317D01*
X9901182Y-6574460D02*
X9920230Y-6583984D01*
X9920230Y-6583984D02*
X9958325Y-6583984D01*
X9958325Y-6583984D02*
X9977373Y-6574460D01*
X9977373Y-6574460D02*
X9986896Y-6555412D01*
X9986896Y-6555412D02*
X9986896Y-6545888D01*
X9986896Y-6545888D02*
X9977373Y-6526841D01*
X9977373Y-6526841D02*
X9958325Y-6517317D01*
X9958325Y-6517317D02*
X9929753Y-6517317D01*
X9929753Y-6517317D02*
X9910706Y-6507793D01*
X9910706Y-6507793D02*
X9901182Y-6488746D01*
X9901182Y-6488746D02*
X9901182Y-6479222D01*
X9901182Y-6479222D02*
X9910706Y-6460174D01*
X9910706Y-6460174D02*
X9929753Y-6450650D01*
X9929753Y-6450650D02*
X9958325Y-6450650D01*
X9958325Y-6450650D02*
X9977373Y-6460174D01*
X10053563Y-6660174D02*
X10063087Y-6650650D01*
X10063087Y-6650650D02*
X10082134Y-6622079D01*
X10082134Y-6622079D02*
X10091658Y-6603031D01*
X10091658Y-6603031D02*
X10101182Y-6574460D01*
X10101182Y-6574460D02*
X10110706Y-6526841D01*
X10110706Y-6526841D02*
X10110706Y-6488746D01*
X10110706Y-6488746D02*
X10101182Y-6441127D01*
X10101182Y-6441127D02*
X10091658Y-6412555D01*
X10091658Y-6412555D02*
X10082134Y-6393508D01*
X10082134Y-6393508D02*
X10063087Y-6364936D01*
X10063087Y-6364936D02*
X10053563Y-6355412D01*
D13*
X5228500Y-6706500D02*
X5228500Y-6806500D01*
X5178500Y-6756500D02*
X5278500Y-6756500D01*
D12*
X5644039Y-6847984D02*
X5529753Y-6847984D01*
X5586896Y-6847984D02*
X5586896Y-6647984D01*
X5586896Y-6647984D02*
X5567848Y-6676555D01*
X5567848Y-6676555D02*
X5548801Y-6695603D01*
X5548801Y-6695603D02*
X5529753Y-6705127D01*
X5729753Y-6828936D02*
X5739277Y-6838460D01*
X5739277Y-6838460D02*
X5729753Y-6847984D01*
X5729753Y-6847984D02*
X5720229Y-6838460D01*
X5720229Y-6838460D02*
X5729753Y-6828936D01*
X5729753Y-6828936D02*
X5729753Y-6847984D01*
X5863086Y-6647984D02*
X5882134Y-6647984D01*
X5882134Y-6647984D02*
X5901182Y-6657508D01*
X5901182Y-6657508D02*
X5910705Y-6667031D01*
X5910705Y-6667031D02*
X5920229Y-6686079D01*
X5920229Y-6686079D02*
X5929753Y-6724174D01*
X5929753Y-6724174D02*
X5929753Y-6771793D01*
X5929753Y-6771793D02*
X5920229Y-6809888D01*
X5920229Y-6809888D02*
X5910705Y-6828936D01*
X5910705Y-6828936D02*
X5901182Y-6838460D01*
X5901182Y-6838460D02*
X5882134Y-6847984D01*
X5882134Y-6847984D02*
X5863086Y-6847984D01*
X5863086Y-6847984D02*
X5844039Y-6838460D01*
X5844039Y-6838460D02*
X5834515Y-6828936D01*
X5834515Y-6828936D02*
X5824991Y-6809888D01*
X5824991Y-6809888D02*
X5815467Y-6771793D01*
X5815467Y-6771793D02*
X5815467Y-6724174D01*
X5815467Y-6724174D02*
X5824991Y-6686079D01*
X5824991Y-6686079D02*
X5834515Y-6667031D01*
X5834515Y-6667031D02*
X5844039Y-6657508D01*
X5844039Y-6657508D02*
X5863086Y-6647984D01*
X6053562Y-6647984D02*
X6072610Y-6647984D01*
X6072610Y-6647984D02*
X6091658Y-6657508D01*
X6091658Y-6657508D02*
X6101182Y-6667031D01*
X6101182Y-6667031D02*
X6110705Y-6686079D01*
X6110705Y-6686079D02*
X6120229Y-6724174D01*
X6120229Y-6724174D02*
X6120229Y-6771793D01*
X6120229Y-6771793D02*
X6110705Y-6809888D01*
X6110705Y-6809888D02*
X6101182Y-6828936D01*
X6101182Y-6828936D02*
X6091658Y-6838460D01*
X6091658Y-6838460D02*
X6072610Y-6847984D01*
X6072610Y-6847984D02*
X6053562Y-6847984D01*
X6053562Y-6847984D02*
X6034515Y-6838460D01*
X6034515Y-6838460D02*
X6024991Y-6828936D01*
X6024991Y-6828936D02*
X6015467Y-6809888D01*
X6015467Y-6809888D02*
X6005943Y-6771793D01*
X6005943Y-6771793D02*
X6005943Y-6724174D01*
X6005943Y-6724174D02*
X6015467Y-6686079D01*
X6015467Y-6686079D02*
X6024991Y-6667031D01*
X6024991Y-6667031D02*
X6034515Y-6657508D01*
X6034515Y-6657508D02*
X6053562Y-6647984D01*
X6244039Y-6647984D02*
X6263086Y-6647984D01*
X6263086Y-6647984D02*
X6282134Y-6657508D01*
X6282134Y-6657508D02*
X6291658Y-6667031D01*
X6291658Y-6667031D02*
X6301182Y-6686079D01*
X6301182Y-6686079D02*
X6310705Y-6724174D01*
X6310705Y-6724174D02*
X6310705Y-6771793D01*
X6310705Y-6771793D02*
X6301182Y-6809888D01*
X6301182Y-6809888D02*
X6291658Y-6828936D01*
X6291658Y-6828936D02*
X6282134Y-6838460D01*
X6282134Y-6838460D02*
X6263086Y-6847984D01*
X6263086Y-6847984D02*
X6244039Y-6847984D01*
X6244039Y-6847984D02*
X6224991Y-6838460D01*
X6224991Y-6838460D02*
X6215467Y-6828936D01*
X6215467Y-6828936D02*
X6205943Y-6809888D01*
X6205943Y-6809888D02*
X6196420Y-6771793D01*
X6196420Y-6771793D02*
X6196420Y-6724174D01*
X6196420Y-6724174D02*
X6205943Y-6686079D01*
X6205943Y-6686079D02*
X6215467Y-6667031D01*
X6215467Y-6667031D02*
X6224991Y-6657508D01*
X6224991Y-6657508D02*
X6244039Y-6647984D01*
X6396420Y-6847984D02*
X6396420Y-6714650D01*
X6396420Y-6733698D02*
X6405943Y-6724174D01*
X6405943Y-6724174D02*
X6424991Y-6714650D01*
X6424991Y-6714650D02*
X6453563Y-6714650D01*
X6453563Y-6714650D02*
X6472610Y-6724174D01*
X6472610Y-6724174D02*
X6482134Y-6743222D01*
X6482134Y-6743222D02*
X6482134Y-6847984D01*
X6482134Y-6743222D02*
X6491658Y-6724174D01*
X6491658Y-6724174D02*
X6510705Y-6714650D01*
X6510705Y-6714650D02*
X6539277Y-6714650D01*
X6539277Y-6714650D02*
X6558324Y-6724174D01*
X6558324Y-6724174D02*
X6567848Y-6743222D01*
X6567848Y-6743222D02*
X6567848Y-6847984D01*
X6663086Y-6847984D02*
X6663086Y-6714650D01*
X6663086Y-6733698D02*
X6672610Y-6724174D01*
X6672610Y-6724174D02*
X6691658Y-6714650D01*
X6691658Y-6714650D02*
X6720229Y-6714650D01*
X6720229Y-6714650D02*
X6739277Y-6724174D01*
X6739277Y-6724174D02*
X6748801Y-6743222D01*
X6748801Y-6743222D02*
X6748801Y-6847984D01*
X6748801Y-6743222D02*
X6758324Y-6724174D01*
X6758324Y-6724174D02*
X6777372Y-6714650D01*
X6777372Y-6714650D02*
X6805943Y-6714650D01*
X6805943Y-6714650D02*
X6824991Y-6724174D01*
X6824991Y-6724174D02*
X6834515Y-6743222D01*
X6834515Y-6743222D02*
X6834515Y-6847984D01*
X7224991Y-6638460D02*
X7053563Y-6895603D01*
X7482134Y-6647984D02*
X7501182Y-6647984D01*
X7501182Y-6647984D02*
X7520229Y-6657508D01*
X7520229Y-6657508D02*
X7529753Y-6667031D01*
X7529753Y-6667031D02*
X7539277Y-6686079D01*
X7539277Y-6686079D02*
X7548801Y-6724174D01*
X7548801Y-6724174D02*
X7548801Y-6771793D01*
X7548801Y-6771793D02*
X7539277Y-6809888D01*
X7539277Y-6809888D02*
X7529753Y-6828936D01*
X7529753Y-6828936D02*
X7520229Y-6838460D01*
X7520229Y-6838460D02*
X7501182Y-6847984D01*
X7501182Y-6847984D02*
X7482134Y-6847984D01*
X7482134Y-6847984D02*
X7463086Y-6838460D01*
X7463086Y-6838460D02*
X7453563Y-6828936D01*
X7453563Y-6828936D02*
X7444039Y-6809888D01*
X7444039Y-6809888D02*
X7434515Y-6771793D01*
X7434515Y-6771793D02*
X7434515Y-6724174D01*
X7434515Y-6724174D02*
X7444039Y-6686079D01*
X7444039Y-6686079D02*
X7453563Y-6667031D01*
X7453563Y-6667031D02*
X7463086Y-6657508D01*
X7463086Y-6657508D02*
X7482134Y-6647984D01*
X7634515Y-6828936D02*
X7644039Y-6838460D01*
X7644039Y-6838460D02*
X7634515Y-6847984D01*
X7634515Y-6847984D02*
X7624991Y-6838460D01*
X7624991Y-6838460D02*
X7634515Y-6828936D01*
X7634515Y-6828936D02*
X7634515Y-6847984D01*
X7767848Y-6647984D02*
X7786896Y-6647984D01*
X7786896Y-6647984D02*
X7805944Y-6657508D01*
X7805944Y-6657508D02*
X7815467Y-6667031D01*
X7815467Y-6667031D02*
X7824991Y-6686079D01*
X7824991Y-6686079D02*
X7834515Y-6724174D01*
X7834515Y-6724174D02*
X7834515Y-6771793D01*
X7834515Y-6771793D02*
X7824991Y-6809888D01*
X7824991Y-6809888D02*
X7815467Y-6828936D01*
X7815467Y-6828936D02*
X7805944Y-6838460D01*
X7805944Y-6838460D02*
X7786896Y-6847984D01*
X7786896Y-6847984D02*
X7767848Y-6847984D01*
X7767848Y-6847984D02*
X7748801Y-6838460D01*
X7748801Y-6838460D02*
X7739277Y-6828936D01*
X7739277Y-6828936D02*
X7729753Y-6809888D01*
X7729753Y-6809888D02*
X7720229Y-6771793D01*
X7720229Y-6771793D02*
X7720229Y-6724174D01*
X7720229Y-6724174D02*
X7729753Y-6686079D01*
X7729753Y-6686079D02*
X7739277Y-6667031D01*
X7739277Y-6667031D02*
X7748801Y-6657508D01*
X7748801Y-6657508D02*
X7767848Y-6647984D01*
X7901182Y-6647984D02*
X8024991Y-6647984D01*
X8024991Y-6647984D02*
X7958325Y-6724174D01*
X7958325Y-6724174D02*
X7986896Y-6724174D01*
X7986896Y-6724174D02*
X8005944Y-6733698D01*
X8005944Y-6733698D02*
X8015467Y-6743222D01*
X8015467Y-6743222D02*
X8024991Y-6762269D01*
X8024991Y-6762269D02*
X8024991Y-6809888D01*
X8024991Y-6809888D02*
X8015467Y-6828936D01*
X8015467Y-6828936D02*
X8005944Y-6838460D01*
X8005944Y-6838460D02*
X7986896Y-6847984D01*
X7986896Y-6847984D02*
X7929753Y-6847984D01*
X7929753Y-6847984D02*
X7910706Y-6838460D01*
X7910706Y-6838460D02*
X7901182Y-6828936D01*
X8120229Y-6847984D02*
X8158325Y-6847984D01*
X8158325Y-6847984D02*
X8177372Y-6838460D01*
X8177372Y-6838460D02*
X8186896Y-6828936D01*
X8186896Y-6828936D02*
X8205944Y-6800365D01*
X8205944Y-6800365D02*
X8215467Y-6762269D01*
X8215467Y-6762269D02*
X8215467Y-6686079D01*
X8215467Y-6686079D02*
X8205944Y-6667031D01*
X8205944Y-6667031D02*
X8196420Y-6657508D01*
X8196420Y-6657508D02*
X8177372Y-6647984D01*
X8177372Y-6647984D02*
X8139277Y-6647984D01*
X8139277Y-6647984D02*
X8120229Y-6657508D01*
X8120229Y-6657508D02*
X8110706Y-6667031D01*
X8110706Y-6667031D02*
X8101182Y-6686079D01*
X8101182Y-6686079D02*
X8101182Y-6733698D01*
X8101182Y-6733698D02*
X8110706Y-6752746D01*
X8110706Y-6752746D02*
X8120229Y-6762269D01*
X8120229Y-6762269D02*
X8139277Y-6771793D01*
X8139277Y-6771793D02*
X8177372Y-6771793D01*
X8177372Y-6771793D02*
X8196420Y-6762269D01*
X8196420Y-6762269D02*
X8205944Y-6752746D01*
X8205944Y-6752746D02*
X8215467Y-6733698D01*
X8386896Y-6714650D02*
X8386896Y-6847984D01*
X8339277Y-6638460D02*
X8291658Y-6781317D01*
X8291658Y-6781317D02*
X8415468Y-6781317D01*
X8482134Y-6647984D02*
X8482134Y-6686079D01*
X8558325Y-6647984D02*
X8558325Y-6686079D01*
X8853563Y-6924174D02*
X8844039Y-6914650D01*
X8844039Y-6914650D02*
X8824991Y-6886079D01*
X8824991Y-6886079D02*
X8815468Y-6867031D01*
X8815468Y-6867031D02*
X8805944Y-6838460D01*
X8805944Y-6838460D02*
X8796420Y-6790841D01*
X8796420Y-6790841D02*
X8796420Y-6752746D01*
X8796420Y-6752746D02*
X8805944Y-6705127D01*
X8805944Y-6705127D02*
X8815468Y-6676555D01*
X8815468Y-6676555D02*
X8824991Y-6657508D01*
X8824991Y-6657508D02*
X8844039Y-6628936D01*
X8844039Y-6628936D02*
X8853563Y-6619412D01*
X9024991Y-6647984D02*
X8929753Y-6647984D01*
X8929753Y-6647984D02*
X8920230Y-6743222D01*
X8920230Y-6743222D02*
X8929753Y-6733698D01*
X8929753Y-6733698D02*
X8948801Y-6724174D01*
X8948801Y-6724174D02*
X8996420Y-6724174D01*
X8996420Y-6724174D02*
X9015468Y-6733698D01*
X9015468Y-6733698D02*
X9024991Y-6743222D01*
X9024991Y-6743222D02*
X9034515Y-6762269D01*
X9034515Y-6762269D02*
X9034515Y-6809888D01*
X9034515Y-6809888D02*
X9024991Y-6828936D01*
X9024991Y-6828936D02*
X9015468Y-6838460D01*
X9015468Y-6838460D02*
X8996420Y-6847984D01*
X8996420Y-6847984D02*
X8948801Y-6847984D01*
X8948801Y-6847984D02*
X8929753Y-6838460D01*
X8929753Y-6838460D02*
X8920230Y-6828936D01*
X9272611Y-6847984D02*
X9272611Y-6647984D01*
X9358325Y-6847984D02*
X9358325Y-6743222D01*
X9358325Y-6743222D02*
X9348801Y-6724174D01*
X9348801Y-6724174D02*
X9329753Y-6714650D01*
X9329753Y-6714650D02*
X9301182Y-6714650D01*
X9301182Y-6714650D02*
X9282134Y-6724174D01*
X9282134Y-6724174D02*
X9272611Y-6733698D01*
X9482134Y-6847984D02*
X9463087Y-6838460D01*
X9463087Y-6838460D02*
X9453563Y-6828936D01*
X9453563Y-6828936D02*
X9444039Y-6809888D01*
X9444039Y-6809888D02*
X9444039Y-6752746D01*
X9444039Y-6752746D02*
X9453563Y-6733698D01*
X9453563Y-6733698D02*
X9463087Y-6724174D01*
X9463087Y-6724174D02*
X9482134Y-6714650D01*
X9482134Y-6714650D02*
X9510706Y-6714650D01*
X9510706Y-6714650D02*
X9529753Y-6724174D01*
X9529753Y-6724174D02*
X9539277Y-6733698D01*
X9539277Y-6733698D02*
X9548801Y-6752746D01*
X9548801Y-6752746D02*
X9548801Y-6809888D01*
X9548801Y-6809888D02*
X9539277Y-6828936D01*
X9539277Y-6828936D02*
X9529753Y-6838460D01*
X9529753Y-6838460D02*
X9510706Y-6847984D01*
X9510706Y-6847984D02*
X9482134Y-6847984D01*
X9663087Y-6847984D02*
X9644039Y-6838460D01*
X9644039Y-6838460D02*
X9634515Y-6819412D01*
X9634515Y-6819412D02*
X9634515Y-6647984D01*
X9815468Y-6838460D02*
X9796420Y-6847984D01*
X9796420Y-6847984D02*
X9758325Y-6847984D01*
X9758325Y-6847984D02*
X9739277Y-6838460D01*
X9739277Y-6838460D02*
X9729753Y-6819412D01*
X9729753Y-6819412D02*
X9729753Y-6743222D01*
X9729753Y-6743222D02*
X9739277Y-6724174D01*
X9739277Y-6724174D02*
X9758325Y-6714650D01*
X9758325Y-6714650D02*
X9796420Y-6714650D01*
X9796420Y-6714650D02*
X9815468Y-6724174D01*
X9815468Y-6724174D02*
X9824992Y-6743222D01*
X9824992Y-6743222D02*
X9824992Y-6762269D01*
X9824992Y-6762269D02*
X9729753Y-6781317D01*
X9901182Y-6838460D02*
X9920230Y-6847984D01*
X9920230Y-6847984D02*
X9958325Y-6847984D01*
X9958325Y-6847984D02*
X9977373Y-6838460D01*
X9977373Y-6838460D02*
X9986896Y-6819412D01*
X9986896Y-6819412D02*
X9986896Y-6809888D01*
X9986896Y-6809888D02*
X9977373Y-6790841D01*
X9977373Y-6790841D02*
X9958325Y-6781317D01*
X9958325Y-6781317D02*
X9929753Y-6781317D01*
X9929753Y-6781317D02*
X9910706Y-6771793D01*
X9910706Y-6771793D02*
X9901182Y-6752746D01*
X9901182Y-6752746D02*
X9901182Y-6743222D01*
X9901182Y-6743222D02*
X9910706Y-6724174D01*
X9910706Y-6724174D02*
X9929753Y-6714650D01*
X9929753Y-6714650D02*
X9958325Y-6714650D01*
X9958325Y-6714650D02*
X9977373Y-6724174D01*
X10053563Y-6924174D02*
X10063087Y-6914650D01*
X10063087Y-6914650D02*
X10082134Y-6886079D01*
X10082134Y-6886079D02*
X10091658Y-6867031D01*
X10091658Y-6867031D02*
X10101182Y-6838460D01*
X10101182Y-6838460D02*
X10110706Y-6790841D01*
X10110706Y-6790841D02*
X10110706Y-6752746D01*
X10110706Y-6752746D02*
X10101182Y-6705127D01*
X10101182Y-6705127D02*
X10091658Y-6676555D01*
X10091658Y-6676555D02*
X10082134Y-6657508D01*
X10082134Y-6657508D02*
X10063087Y-6628936D01*
X10063087Y-6628936D02*
X10053563Y-6619412D01*
D14*
X5259902Y-7065402D02*
X5259902Y-6975598D01*
X5170098Y-6975598D01*
X5170098Y-7065402D01*
X5259902Y-7065402D01*
D12*
X5644039Y-7111984D02*
X5529753Y-7111984D01*
X5586896Y-7111984D02*
X5586896Y-6911984D01*
X5586896Y-6911984D02*
X5567848Y-6940555D01*
X5567848Y-6940555D02*
X5548801Y-6959603D01*
X5548801Y-6959603D02*
X5529753Y-6969127D01*
X5729753Y-7092936D02*
X5739277Y-7102460D01*
X5739277Y-7102460D02*
X5729753Y-7111984D01*
X5729753Y-7111984D02*
X5720229Y-7102460D01*
X5720229Y-7102460D02*
X5729753Y-7092936D01*
X5729753Y-7092936D02*
X5729753Y-7111984D01*
X5815467Y-6931031D02*
X5824991Y-6921508D01*
X5824991Y-6921508D02*
X5844039Y-6911984D01*
X5844039Y-6911984D02*
X5891658Y-6911984D01*
X5891658Y-6911984D02*
X5910705Y-6921508D01*
X5910705Y-6921508D02*
X5920229Y-6931031D01*
X5920229Y-6931031D02*
X5929753Y-6950079D01*
X5929753Y-6950079D02*
X5929753Y-6969127D01*
X5929753Y-6969127D02*
X5920229Y-6997698D01*
X5920229Y-6997698D02*
X5805943Y-7111984D01*
X5805943Y-7111984D02*
X5929753Y-7111984D01*
X5996420Y-6911984D02*
X6129753Y-6911984D01*
X6129753Y-6911984D02*
X6044039Y-7111984D01*
X6244039Y-6911984D02*
X6263086Y-6911984D01*
X6263086Y-6911984D02*
X6282134Y-6921508D01*
X6282134Y-6921508D02*
X6291658Y-6931031D01*
X6291658Y-6931031D02*
X6301182Y-6950079D01*
X6301182Y-6950079D02*
X6310705Y-6988174D01*
X6310705Y-6988174D02*
X6310705Y-7035793D01*
X6310705Y-7035793D02*
X6301182Y-7073888D01*
X6301182Y-7073888D02*
X6291658Y-7092936D01*
X6291658Y-7092936D02*
X6282134Y-7102460D01*
X6282134Y-7102460D02*
X6263086Y-7111984D01*
X6263086Y-7111984D02*
X6244039Y-7111984D01*
X6244039Y-7111984D02*
X6224991Y-7102460D01*
X6224991Y-7102460D02*
X6215467Y-7092936D01*
X6215467Y-7092936D02*
X6205943Y-7073888D01*
X6205943Y-7073888D02*
X6196420Y-7035793D01*
X6196420Y-7035793D02*
X6196420Y-6988174D01*
X6196420Y-6988174D02*
X6205943Y-6950079D01*
X6205943Y-6950079D02*
X6215467Y-6931031D01*
X6215467Y-6931031D02*
X6224991Y-6921508D01*
X6224991Y-6921508D02*
X6244039Y-6911984D01*
X6396420Y-7111984D02*
X6396420Y-6978650D01*
X6396420Y-6997698D02*
X6405943Y-6988174D01*
X6405943Y-6988174D02*
X6424991Y-6978650D01*
X6424991Y-6978650D02*
X6453563Y-6978650D01*
X6453563Y-6978650D02*
X6472610Y-6988174D01*
X6472610Y-6988174D02*
X6482134Y-7007222D01*
X6482134Y-7007222D02*
X6482134Y-7111984D01*
X6482134Y-7007222D02*
X6491658Y-6988174D01*
X6491658Y-6988174D02*
X6510705Y-6978650D01*
X6510705Y-6978650D02*
X6539277Y-6978650D01*
X6539277Y-6978650D02*
X6558324Y-6988174D01*
X6558324Y-6988174D02*
X6567848Y-7007222D01*
X6567848Y-7007222D02*
X6567848Y-7111984D01*
X6663086Y-7111984D02*
X6663086Y-6978650D01*
X6663086Y-6997698D02*
X6672610Y-6988174D01*
X6672610Y-6988174D02*
X6691658Y-6978650D01*
X6691658Y-6978650D02*
X6720229Y-6978650D01*
X6720229Y-6978650D02*
X6739277Y-6988174D01*
X6739277Y-6988174D02*
X6748801Y-7007222D01*
X6748801Y-7007222D02*
X6748801Y-7111984D01*
X6748801Y-7007222D02*
X6758324Y-6988174D01*
X6758324Y-6988174D02*
X6777372Y-6978650D01*
X6777372Y-6978650D02*
X6805943Y-6978650D01*
X6805943Y-6978650D02*
X6824991Y-6988174D01*
X6824991Y-6988174D02*
X6834515Y-7007222D01*
X6834515Y-7007222D02*
X6834515Y-7111984D01*
X7224991Y-6902460D02*
X7053563Y-7159603D01*
X7482134Y-6911984D02*
X7501182Y-6911984D01*
X7501182Y-6911984D02*
X7520229Y-6921508D01*
X7520229Y-6921508D02*
X7529753Y-6931031D01*
X7529753Y-6931031D02*
X7539277Y-6950079D01*
X7539277Y-6950079D02*
X7548801Y-6988174D01*
X7548801Y-6988174D02*
X7548801Y-7035793D01*
X7548801Y-7035793D02*
X7539277Y-7073888D01*
X7539277Y-7073888D02*
X7529753Y-7092936D01*
X7529753Y-7092936D02*
X7520229Y-7102460D01*
X7520229Y-7102460D02*
X7501182Y-7111984D01*
X7501182Y-7111984D02*
X7482134Y-7111984D01*
X7482134Y-7111984D02*
X7463086Y-7102460D01*
X7463086Y-7102460D02*
X7453563Y-7092936D01*
X7453563Y-7092936D02*
X7444039Y-7073888D01*
X7444039Y-7073888D02*
X7434515Y-7035793D01*
X7434515Y-7035793D02*
X7434515Y-6988174D01*
X7434515Y-6988174D02*
X7444039Y-6950079D01*
X7444039Y-6950079D02*
X7453563Y-6931031D01*
X7453563Y-6931031D02*
X7463086Y-6921508D01*
X7463086Y-6921508D02*
X7482134Y-6911984D01*
X7634515Y-7092936D02*
X7644039Y-7102460D01*
X7644039Y-7102460D02*
X7634515Y-7111984D01*
X7634515Y-7111984D02*
X7624991Y-7102460D01*
X7624991Y-7102460D02*
X7634515Y-7092936D01*
X7634515Y-7092936D02*
X7634515Y-7111984D01*
X7767848Y-6911984D02*
X7786896Y-6911984D01*
X7786896Y-6911984D02*
X7805944Y-6921508D01*
X7805944Y-6921508D02*
X7815467Y-6931031D01*
X7815467Y-6931031D02*
X7824991Y-6950079D01*
X7824991Y-6950079D02*
X7834515Y-6988174D01*
X7834515Y-6988174D02*
X7834515Y-7035793D01*
X7834515Y-7035793D02*
X7824991Y-7073888D01*
X7824991Y-7073888D02*
X7815467Y-7092936D01*
X7815467Y-7092936D02*
X7805944Y-7102460D01*
X7805944Y-7102460D02*
X7786896Y-7111984D01*
X7786896Y-7111984D02*
X7767848Y-7111984D01*
X7767848Y-7111984D02*
X7748801Y-7102460D01*
X7748801Y-7102460D02*
X7739277Y-7092936D01*
X7739277Y-7092936D02*
X7729753Y-7073888D01*
X7729753Y-7073888D02*
X7720229Y-7035793D01*
X7720229Y-7035793D02*
X7720229Y-6988174D01*
X7720229Y-6988174D02*
X7729753Y-6950079D01*
X7729753Y-6950079D02*
X7739277Y-6931031D01*
X7739277Y-6931031D02*
X7748801Y-6921508D01*
X7748801Y-6921508D02*
X7767848Y-6911984D01*
X8015467Y-6911984D02*
X7920229Y-6911984D01*
X7920229Y-6911984D02*
X7910706Y-7007222D01*
X7910706Y-7007222D02*
X7920229Y-6997698D01*
X7920229Y-6997698D02*
X7939277Y-6988174D01*
X7939277Y-6988174D02*
X7986896Y-6988174D01*
X7986896Y-6988174D02*
X8005944Y-6997698D01*
X8005944Y-6997698D02*
X8015467Y-7007222D01*
X8015467Y-7007222D02*
X8024991Y-7026269D01*
X8024991Y-7026269D02*
X8024991Y-7073888D01*
X8024991Y-7073888D02*
X8015467Y-7092936D01*
X8015467Y-7092936D02*
X8005944Y-7102460D01*
X8005944Y-7102460D02*
X7986896Y-7111984D01*
X7986896Y-7111984D02*
X7939277Y-7111984D01*
X7939277Y-7111984D02*
X7920229Y-7102460D01*
X7920229Y-7102460D02*
X7910706Y-7092936D01*
X8148801Y-6911984D02*
X8167848Y-6911984D01*
X8167848Y-6911984D02*
X8186896Y-6921508D01*
X8186896Y-6921508D02*
X8196420Y-6931031D01*
X8196420Y-6931031D02*
X8205944Y-6950079D01*
X8205944Y-6950079D02*
X8215467Y-6988174D01*
X8215467Y-6988174D02*
X8215467Y-7035793D01*
X8215467Y-7035793D02*
X8205944Y-7073888D01*
X8205944Y-7073888D02*
X8196420Y-7092936D01*
X8196420Y-7092936D02*
X8186896Y-7102460D01*
X8186896Y-7102460D02*
X8167848Y-7111984D01*
X8167848Y-7111984D02*
X8148801Y-7111984D01*
X8148801Y-7111984D02*
X8129753Y-7102460D01*
X8129753Y-7102460D02*
X8120229Y-7092936D01*
X8120229Y-7092936D02*
X8110706Y-7073888D01*
X8110706Y-7073888D02*
X8101182Y-7035793D01*
X8101182Y-7035793D02*
X8101182Y-6988174D01*
X8101182Y-6988174D02*
X8110706Y-6950079D01*
X8110706Y-6950079D02*
X8120229Y-6931031D01*
X8120229Y-6931031D02*
X8129753Y-6921508D01*
X8129753Y-6921508D02*
X8148801Y-6911984D01*
X8339277Y-6911984D02*
X8358325Y-6911984D01*
X8358325Y-6911984D02*
X8377372Y-6921508D01*
X8377372Y-6921508D02*
X8386896Y-6931031D01*
X8386896Y-6931031D02*
X8396420Y-6950079D01*
X8396420Y-6950079D02*
X8405944Y-6988174D01*
X8405944Y-6988174D02*
X8405944Y-7035793D01*
X8405944Y-7035793D02*
X8396420Y-7073888D01*
X8396420Y-7073888D02*
X8386896Y-7092936D01*
X8386896Y-7092936D02*
X8377372Y-7102460D01*
X8377372Y-7102460D02*
X8358325Y-7111984D01*
X8358325Y-7111984D02*
X8339277Y-7111984D01*
X8339277Y-7111984D02*
X8320229Y-7102460D01*
X8320229Y-7102460D02*
X8310706Y-7092936D01*
X8310706Y-7092936D02*
X8301182Y-7073888D01*
X8301182Y-7073888D02*
X8291658Y-7035793D01*
X8291658Y-7035793D02*
X8291658Y-6988174D01*
X8291658Y-6988174D02*
X8301182Y-6950079D01*
X8301182Y-6950079D02*
X8310706Y-6931031D01*
X8310706Y-6931031D02*
X8320229Y-6921508D01*
X8320229Y-6921508D02*
X8339277Y-6911984D01*
X8482134Y-6911984D02*
X8482134Y-6950079D01*
X8558325Y-6911984D02*
X8558325Y-6950079D01*
X8853563Y-7188174D02*
X8844039Y-7178650D01*
X8844039Y-7178650D02*
X8824991Y-7150079D01*
X8824991Y-7150079D02*
X8815468Y-7131031D01*
X8815468Y-7131031D02*
X8805944Y-7102460D01*
X8805944Y-7102460D02*
X8796420Y-7054841D01*
X8796420Y-7054841D02*
X8796420Y-7016746D01*
X8796420Y-7016746D02*
X8805944Y-6969127D01*
X8805944Y-6969127D02*
X8815468Y-6940555D01*
X8815468Y-6940555D02*
X8824991Y-6921508D01*
X8824991Y-6921508D02*
X8844039Y-6892936D01*
X8844039Y-6892936D02*
X8853563Y-6883412D01*
X9034515Y-7111984D02*
X8920230Y-7111984D01*
X8977372Y-7111984D02*
X8977372Y-6911984D01*
X8977372Y-6911984D02*
X8958325Y-6940555D01*
X8958325Y-6940555D02*
X8939277Y-6959603D01*
X8939277Y-6959603D02*
X8920230Y-6969127D01*
X9205944Y-6911984D02*
X9167849Y-6911984D01*
X9167849Y-6911984D02*
X9148801Y-6921508D01*
X9148801Y-6921508D02*
X9139277Y-6931031D01*
X9139277Y-6931031D02*
X9120230Y-6959603D01*
X9120230Y-6959603D02*
X9110706Y-6997698D01*
X9110706Y-6997698D02*
X9110706Y-7073888D01*
X9110706Y-7073888D02*
X9120230Y-7092936D01*
X9120230Y-7092936D02*
X9129753Y-7102460D01*
X9129753Y-7102460D02*
X9148801Y-7111984D01*
X9148801Y-7111984D02*
X9186896Y-7111984D01*
X9186896Y-7111984D02*
X9205944Y-7102460D01*
X9205944Y-7102460D02*
X9215468Y-7092936D01*
X9215468Y-7092936D02*
X9224991Y-7073888D01*
X9224991Y-7073888D02*
X9224991Y-7026269D01*
X9224991Y-7026269D02*
X9215468Y-7007222D01*
X9215468Y-7007222D02*
X9205944Y-6997698D01*
X9205944Y-6997698D02*
X9186896Y-6988174D01*
X9186896Y-6988174D02*
X9148801Y-6988174D01*
X9148801Y-6988174D02*
X9129753Y-6997698D01*
X9129753Y-6997698D02*
X9120230Y-7007222D01*
X9120230Y-7007222D02*
X9110706Y-7026269D01*
X9463087Y-7111984D02*
X9463087Y-6911984D01*
X9548801Y-7111984D02*
X9548801Y-7007222D01*
X9548801Y-7007222D02*
X9539277Y-6988174D01*
X9539277Y-6988174D02*
X9520230Y-6978650D01*
X9520230Y-6978650D02*
X9491658Y-6978650D01*
X9491658Y-6978650D02*
X9472611Y-6988174D01*
X9472611Y-6988174D02*
X9463087Y-6997698D01*
X9672611Y-7111984D02*
X9653563Y-7102460D01*
X9653563Y-7102460D02*
X9644039Y-7092936D01*
X9644039Y-7092936D02*
X9634515Y-7073888D01*
X9634515Y-7073888D02*
X9634515Y-7016746D01*
X9634515Y-7016746D02*
X9644039Y-6997698D01*
X9644039Y-6997698D02*
X9653563Y-6988174D01*
X9653563Y-6988174D02*
X9672611Y-6978650D01*
X9672611Y-6978650D02*
X9701182Y-6978650D01*
X9701182Y-6978650D02*
X9720230Y-6988174D01*
X9720230Y-6988174D02*
X9729753Y-6997698D01*
X9729753Y-6997698D02*
X9739277Y-7016746D01*
X9739277Y-7016746D02*
X9739277Y-7073888D01*
X9739277Y-7073888D02*
X9729753Y-7092936D01*
X9729753Y-7092936D02*
X9720230Y-7102460D01*
X9720230Y-7102460D02*
X9701182Y-7111984D01*
X9701182Y-7111984D02*
X9672611Y-7111984D01*
X9853563Y-7111984D02*
X9834515Y-7102460D01*
X9834515Y-7102460D02*
X9824992Y-7083412D01*
X9824992Y-7083412D02*
X9824992Y-6911984D01*
X10005944Y-7102460D02*
X9986896Y-7111984D01*
X9986896Y-7111984D02*
X9948801Y-7111984D01*
X9948801Y-7111984D02*
X9929753Y-7102460D01*
X9929753Y-7102460D02*
X9920230Y-7083412D01*
X9920230Y-7083412D02*
X9920230Y-7007222D01*
X9920230Y-7007222D02*
X9929753Y-6988174D01*
X9929753Y-6988174D02*
X9948801Y-6978650D01*
X9948801Y-6978650D02*
X9986896Y-6978650D01*
X9986896Y-6978650D02*
X10005944Y-6988174D01*
X10005944Y-6988174D02*
X10015468Y-7007222D01*
X10015468Y-7007222D02*
X10015468Y-7026269D01*
X10015468Y-7026269D02*
X9920230Y-7045317D01*
X10091658Y-7102460D02*
X10110706Y-7111984D01*
X10110706Y-7111984D02*
X10148801Y-7111984D01*
X10148801Y-7111984D02*
X10167849Y-7102460D01*
X10167849Y-7102460D02*
X10177373Y-7083412D01*
X10177373Y-7083412D02*
X10177373Y-7073888D01*
X10177373Y-7073888D02*
X10167849Y-7054841D01*
X10167849Y-7054841D02*
X10148801Y-7045317D01*
X10148801Y-7045317D02*
X10120230Y-7045317D01*
X10120230Y-7045317D02*
X10101182Y-7035793D01*
X10101182Y-7035793D02*
X10091658Y-7016746D01*
X10091658Y-7016746D02*
X10091658Y-7007222D01*
X10091658Y-7007222D02*
X10101182Y-6988174D01*
X10101182Y-6988174D02*
X10120230Y-6978650D01*
X10120230Y-6978650D02*
X10148801Y-6978650D01*
X10148801Y-6978650D02*
X10167849Y-6988174D01*
X10244039Y-7188174D02*
X10253563Y-7178650D01*
X10253563Y-7178650D02*
X10272611Y-7150079D01*
X10272611Y-7150079D02*
X10282134Y-7131031D01*
X10282134Y-7131031D02*
X10291658Y-7102460D01*
X10291658Y-7102460D02*
X10301182Y-7054841D01*
X10301182Y-7054841D02*
X10301182Y-7016746D01*
X10301182Y-7016746D02*
X10291658Y-6969127D01*
X10291658Y-6969127D02*
X10282134Y-6940555D01*
X10282134Y-6940555D02*
X10272611Y-6921508D01*
X10272611Y-6921508D02*
X10253563Y-6892936D01*
X10253563Y-6892936D02*
X10244039Y-6883412D01*
M02*
