%TF.GenerationSoftware,KiCad,Pcbnew,8.0.2*%
%TF.CreationDate,2024-08-04T11:24:19+02:00*%
%TF.ProjectId,ir-blaster,69722d62-6c61-4737-9465-722e6b696361,rev?*%
%TF.SameCoordinates,Original*%
%TF.FileFunction,Copper,L1,Top*%
%TF.FilePolarity,Positive*%
%FSLAX46Y46*%
G04 Gerber Fmt 4.6, Leading zero omitted, Abs format (unit mm)*
G04 Created by KiCad (PCBNEW 8.0.2) date 2024-08-04 11:24:19*
%MOMM*%
%LPD*%
G01*
G04 APERTURE LIST*
G04 Aperture macros list*
%AMRoundRect*
0 Rectangle with rounded corners*
0 $1 Rounding radius*
0 $2 $3 $4 $5 $6 $7 $8 $9 X,Y pos of 4 corners*
0 Add a 4 corners polygon primitive as box body*
4,1,4,$2,$3,$4,$5,$6,$7,$8,$9,$2,$3,0*
0 Add four circle primitives for the rounded corners*
1,1,$1+$1,$2,$3*
1,1,$1+$1,$4,$5*
1,1,$1+$1,$6,$7*
1,1,$1+$1,$8,$9*
0 Add four rect primitives between the rounded corners*
20,1,$1+$1,$2,$3,$4,$5,0*
20,1,$1+$1,$4,$5,$6,$7,0*
20,1,$1+$1,$6,$7,$8,$9,0*
20,1,$1+$1,$8,$9,$2,$3,0*%
%AMRotRect*
0 Rectangle, with rotation*
0 The origin of the aperture is its center*
0 $1 length*
0 $2 width*
0 $3 Rotation angle, in degrees counterclockwise*
0 Add horizontal line*
21,1,$1,$2,0,0,$3*%
G04 Aperture macros list end*
%TA.AperFunction,SMDPad,CuDef*%
%ADD10R,1.400000X0.400000*%
%TD*%
%TA.AperFunction,SMDPad,CuDef*%
%ADD11R,1.900000X2.300000*%
%TD*%
%TA.AperFunction,SMDPad,CuDef*%
%ADD12R,1.900000X1.800000*%
%TD*%
%TA.AperFunction,SMDPad,CuDef*%
%ADD13RoundRect,0.250000X0.475000X-0.337500X0.475000X0.337500X-0.475000X0.337500X-0.475000X-0.337500X0*%
%TD*%
%TA.AperFunction,SMDPad,CuDef*%
%ADD14RoundRect,0.250000X-0.450000X0.325000X-0.450000X-0.325000X0.450000X-0.325000X0.450000X0.325000X0*%
%TD*%
%TA.AperFunction,ComponentPad*%
%ADD15R,2.000000X2.000000*%
%TD*%
%TA.AperFunction,ComponentPad*%
%ADD16C,2.000000*%
%TD*%
%TA.AperFunction,SMDPad,CuDef*%
%ADD17RoundRect,0.250000X0.450000X-0.350000X0.450000X0.350000X-0.450000X0.350000X-0.450000X-0.350000X0*%
%TD*%
%TA.AperFunction,SMDPad,CuDef*%
%ADD18RoundRect,0.250000X0.350000X0.450000X-0.350000X0.450000X-0.350000X-0.450000X0.350000X-0.450000X0*%
%TD*%
%TA.AperFunction,SMDPad,CuDef*%
%ADD19RoundRect,0.250000X-0.350000X-0.450000X0.350000X-0.450000X0.350000X0.450000X-0.350000X0.450000X0*%
%TD*%
%TA.AperFunction,SMDPad,CuDef*%
%ADD20RoundRect,0.150000X-0.587500X-0.150000X0.587500X-0.150000X0.587500X0.150000X-0.587500X0.150000X0*%
%TD*%
%TA.AperFunction,ComponentPad*%
%ADD21R,1.700000X1.700000*%
%TD*%
%TA.AperFunction,ComponentPad*%
%ADD22O,1.700000X1.700000*%
%TD*%
%TA.AperFunction,SMDPad,CuDef*%
%ADD23RoundRect,0.250000X-0.650000X1.000000X-0.650000X-1.000000X0.650000X-1.000000X0.650000X1.000000X0*%
%TD*%
%TA.AperFunction,ComponentPad*%
%ADD24RotRect,1.800000X1.800000X45.000000*%
%TD*%
%TA.AperFunction,ComponentPad*%
%ADD25C,1.800000*%
%TD*%
%TA.AperFunction,ComponentPad*%
%ADD26R,1.800000X1.800000*%
%TD*%
%TA.AperFunction,ComponentPad*%
%ADD27RotRect,1.800000X1.800000X135.000000*%
%TD*%
%TA.AperFunction,ViaPad*%
%ADD28C,0.500000*%
%TD*%
%TA.AperFunction,Conductor*%
%ADD29C,0.600000*%
%TD*%
%TA.AperFunction,Conductor*%
%ADD30C,0.300000*%
%TD*%
G04 APERTURE END LIST*
D10*
%TO.P,J1,1,VBUS*%
%TO.N,5V*%
X42300000Y-43025000D03*
%TO.P,J1,2,D-*%
%TO.N,unconnected-(J1-D--Pad2)*%
X42300000Y-43675000D03*
%TO.P,J1,3,D+*%
%TO.N,unconnected-(J1-D+-Pad3)*%
X42300000Y-44325000D03*
%TO.P,J1,4,ID*%
%TO.N,unconnected-(J1-ID-Pad4)*%
X42300000Y-44975000D03*
%TO.P,J1,5,GND*%
%TO.N,GND*%
X42300000Y-45625000D03*
D11*
%TO.P,J1,6,Shield*%
X39450000Y-40575000D03*
D12*
X39450000Y-43175000D03*
X39450000Y-45475000D03*
D11*
X39450000Y-48075000D03*
%TD*%
D13*
%TO.P,C1,1*%
%TO.N,5V*%
X49560000Y-40725000D03*
%TO.P,C1,2*%
%TO.N,GND*%
X49560000Y-38650000D03*
%TD*%
D14*
%TO.P,D5,1,K*%
%TO.N,GND*%
X38780000Y-50767500D03*
%TO.P,D5,2,A*%
%TO.N,Net-(D5-A)*%
X38780000Y-52817500D03*
%TD*%
D15*
%TO.P,U1,1,3V3*%
%TO.N,3.3V*%
X52727500Y-35495000D03*
D16*
%TO.P,U1,2,GND*%
%TO.N,GND*%
X52727500Y-38035000D03*
%TO.P,U1,3,D15*%
%TO.N,unconnected-(U1-D15-Pad3)*%
X52727500Y-40575000D03*
%TO.P,U1,4,D2*%
%TO.N,Net-(J2-Pin_2)*%
X52727500Y-43115000D03*
%TO.P,U1,5,D4*%
%TO.N,Net-(U1-D4)*%
X52727500Y-45655000D03*
%TO.P,U1,6,RX2*%
%TO.N,unconnected-(U1-RX2-Pad6)*%
X52727500Y-48195000D03*
%TO.P,U1,7,TX2*%
%TO.N,unconnected-(U1-TX2-Pad7)*%
X52727500Y-50735000D03*
%TO.P,U1,8,D5*%
%TO.N,unconnected-(U1-D5-Pad8)*%
X52727500Y-53275000D03*
%TO.P,U1,9,D18*%
%TO.N,unconnected-(U1-D18-Pad9)*%
X52727500Y-55815000D03*
%TO.P,U1,10,D19*%
%TO.N,unconnected-(U1-D19-Pad10)*%
X52727500Y-58355000D03*
%TO.P,U1,11,D21*%
%TO.N,unconnected-(U1-D21-Pad11)*%
X52727500Y-60895000D03*
%TO.P,U1,12,RX0*%
%TO.N,unconnected-(U1-RX0-Pad12)*%
X52727500Y-63435000D03*
%TO.P,U1,13,TX0*%
%TO.N,unconnected-(U1-TX0-Pad13)*%
X52727500Y-65975000D03*
%TO.P,U1,14,D22*%
%TO.N,/IR_OUT*%
X52727500Y-68515000D03*
%TO.P,U1,15,D23*%
%TO.N,unconnected-(U1-D23-Pad15)*%
X52727500Y-71055000D03*
%TO.P,U1,16,EN*%
%TO.N,unconnected-(U1-EN-Pad16)*%
X78127500Y-71055000D03*
%TO.P,U1,17,VP*%
%TO.N,unconnected-(U1-VP-Pad17)*%
X78127500Y-68515000D03*
%TO.P,U1,18,VN*%
%TO.N,unconnected-(U1-VN-Pad18)*%
X78127500Y-65975000D03*
%TO.P,U1,19,D34*%
%TO.N,unconnected-(U1-D34-Pad19)*%
X78127500Y-63435000D03*
%TO.P,U1,20,D35*%
%TO.N,unconnected-(U1-D35-Pad20)*%
X78127500Y-60895000D03*
%TO.P,U1,21,D32*%
%TO.N,unconnected-(U1-D32-Pad21)*%
X78127500Y-58355000D03*
%TO.P,U1,22,D33*%
%TO.N,unconnected-(U1-D33-Pad22)*%
X78127500Y-55815000D03*
%TO.P,U1,23,D25*%
%TO.N,unconnected-(U1-D25-Pad23)*%
X78127500Y-53275000D03*
%TO.P,U1,24,D26*%
%TO.N,unconnected-(U1-D26-Pad24)*%
X78127500Y-50735000D03*
%TO.P,U1,25,D27*%
%TO.N,unconnected-(U1-D27-Pad25)*%
X78127500Y-48195000D03*
%TO.P,U1,26,D14*%
%TO.N,unconnected-(U1-D14-Pad26)*%
X78127500Y-45655000D03*
%TO.P,U1,27,D12*%
%TO.N,unconnected-(U1-D12-Pad27)*%
X78127500Y-43115000D03*
%TO.P,U1,28,D13*%
%TO.N,unconnected-(U1-D13-Pad28)*%
X78127500Y-40575000D03*
%TO.P,U1,29,GND*%
%TO.N,GND*%
X78127500Y-38035000D03*
%TO.P,U1,30,VIN*%
%TO.N,5V*%
X78127500Y-35495000D03*
%TD*%
D17*
%TO.P,R9,1*%
%TO.N,Net-(D5-A)*%
X48050000Y-47600000D03*
%TO.P,R9,2*%
%TO.N,Net-(U1-D4)*%
X48050000Y-45600000D03*
%TD*%
%TO.P,R8,1*%
%TO.N,Net-(J2-Pin_2)*%
X52380000Y-32700000D03*
%TO.P,R8,2*%
%TO.N,3.3V*%
X52380000Y-30700000D03*
%TD*%
D18*
%TO.P,R7,2*%
%TO.N,5V*%
X62150000Y-34370000D03*
%TO.P,R7,1*%
%TO.N,Net-(R6-Pad2)*%
X64150000Y-34370000D03*
%TD*%
%TO.P,R6,2*%
%TO.N,Net-(R6-Pad2)*%
X66600000Y-34370000D03*
%TO.P,R6,1*%
%TO.N,Net-(R3-Pad2)*%
X68600000Y-34370000D03*
%TD*%
D19*
%TO.P,R5,1*%
%TO.N,Net-(D3-A)*%
X83790000Y-66100000D03*
%TO.P,R5,2*%
%TO.N,Net-(R3-Pad2)*%
X85790000Y-66100000D03*
%TD*%
D18*
%TO.P,R4,1*%
%TO.N,Net-(D2-A)*%
X86270000Y-47730000D03*
%TO.P,R4,2*%
%TO.N,Net-(R3-Pad2)*%
X84270000Y-47730000D03*
%TD*%
%TO.P,R3,1*%
%TO.N,Net-(D1-A)*%
X83390000Y-35910000D03*
%TO.P,R3,2*%
%TO.N,Net-(R3-Pad2)*%
X81390000Y-35910000D03*
%TD*%
%TO.P,R2,1*%
%TO.N,GND*%
X83830000Y-58790000D03*
%TO.P,R2,2*%
%TO.N,/IR_OUT*%
X81830000Y-58790000D03*
%TD*%
D17*
%TO.P,R1,1*%
%TO.N,/IR_OUT*%
X81630000Y-56590000D03*
%TO.P,R1,2*%
%TO.N,Net-(Q1-G)*%
X81630000Y-54590000D03*
%TD*%
D20*
%TO.P,Q1,3,D*%
%TO.N,Net-(D1-K)*%
X85905000Y-55690000D03*
%TO.P,Q1,2,S*%
%TO.N,GND*%
X84030000Y-56640000D03*
%TO.P,Q1,1,G*%
%TO.N,Net-(Q1-G)*%
X84030000Y-54740000D03*
%TD*%
D21*
%TO.P,J2,1,Pin_1*%
%TO.N,GND*%
X47470000Y-35120000D03*
D22*
%TO.P,J2,2,Pin_2*%
%TO.N,Net-(J2-Pin_2)*%
X47470000Y-32580000D03*
%TO.P,J2,3,Pin_3*%
%TO.N,3.3V*%
X47470000Y-30040000D03*
%TD*%
D23*
%TO.P,D4,1,A1*%
%TO.N,GND*%
X46650000Y-38700000D03*
%TO.P,D4,2,A2*%
%TO.N,5V*%
X46650000Y-42700000D03*
%TD*%
D24*
%TO.P,D3,1,K*%
%TO.N,Net-(D1-K)*%
X82840000Y-71610000D03*
D25*
%TO.P,D3,2,A*%
%TO.N,Net-(D3-A)*%
X84636051Y-69813949D03*
%TD*%
D26*
%TO.P,D2,1,K*%
%TO.N,Net-(D1-K)*%
X90610000Y-50490000D03*
D25*
%TO.P,D2,2,A*%
%TO.N,Net-(D2-A)*%
X90610000Y-47950000D03*
%TD*%
%TO.P,D1,2,A*%
%TO.N,Net-(D1-A)*%
X82493949Y-30383949D03*
D27*
%TO.P,D1,1,K*%
%TO.N,Net-(D1-K)*%
X84290000Y-32180000D03*
%TD*%
D28*
%TO.N,GND*%
X83810000Y-59980000D03*
X77470000Y-30860000D03*
%TO.N,Net-(D1-K)*%
X87090000Y-55690000D03*
%TO.N,5V*%
X57230000Y-32790000D03*
X57230000Y-32790000D03*
X49450000Y-42580000D03*
%TD*%
D29*
%TO.N,GND*%
X83830000Y-59960000D02*
X83810000Y-59980000D01*
X83830000Y-58790000D02*
X83830000Y-59960000D01*
X46650000Y-38700000D02*
X46650000Y-35940000D01*
X46650000Y-35940000D02*
X47470000Y-35120000D01*
X50020000Y-38650000D02*
X50670000Y-38000000D01*
X49560000Y-38650000D02*
X50020000Y-38650000D01*
X50670000Y-38000000D02*
X50705000Y-38035000D01*
X50705000Y-38035000D02*
X52727500Y-38035000D01*
X46650000Y-38700000D02*
X49510000Y-38700000D01*
X49510000Y-38700000D02*
X49560000Y-38650000D01*
%TO.N,5V*%
X49560000Y-40725000D02*
X49560000Y-42470000D01*
X49560000Y-42470000D02*
X49450000Y-42580000D01*
D30*
%TO.N,/IR_OUT*%
X81830000Y-58790000D02*
X81830000Y-70500000D01*
X81830000Y-70500000D02*
X79825000Y-72505000D01*
X79825000Y-72505000D02*
X76929632Y-72505000D01*
X76929632Y-72505000D02*
X72939632Y-68515000D01*
X72939632Y-68515000D02*
X52727500Y-68515000D01*
D29*
%TO.N,Net-(D5-A)*%
X38780000Y-52817500D02*
X42832500Y-52817500D01*
X42832500Y-52817500D02*
X48050000Y-47600000D01*
D30*
%TO.N,GND*%
X43700000Y-46950000D02*
X43700000Y-46260000D01*
X42600000Y-48050000D02*
X43700000Y-46950000D01*
X43700000Y-46260000D02*
X43090000Y-45650000D01*
X43090000Y-45650000D02*
X42650000Y-45650000D01*
D29*
%TO.N,Net-(R3-Pad2)*%
X84270000Y-47730000D02*
X84270000Y-50190000D01*
X84270000Y-50190000D02*
X87990000Y-53910000D01*
X87990000Y-53910000D02*
X87990000Y-63900000D01*
X87990000Y-63900000D02*
X85790000Y-66100000D01*
%TO.N,Net-(D1-K)*%
X85905000Y-55690000D02*
X87090000Y-55690000D01*
%TO.N,/IR_OUT*%
X81630000Y-56590000D02*
X81630000Y-58590000D01*
X81630000Y-58590000D02*
X81830000Y-58790000D01*
%TO.N,5V*%
X46650000Y-42700000D02*
X42800000Y-42700000D01*
X42800000Y-42700000D02*
X42650000Y-42850000D01*
%TO.N,Net-(D3-A)*%
X84636051Y-69813949D02*
X84636051Y-69146051D01*
X84636051Y-69146051D02*
X83790000Y-68300000D01*
X83790000Y-68300000D02*
X83790000Y-66100000D01*
%TO.N,Net-(D1-A)*%
X83390000Y-35910000D02*
X83390000Y-35210000D01*
X83390000Y-35210000D02*
X81593949Y-33413949D01*
X81593949Y-33413949D02*
X81593949Y-31283949D01*
X81593949Y-31283949D02*
X82493949Y-30383949D01*
%TO.N,Net-(D2-A)*%
X86270000Y-47730000D02*
X90390000Y-47730000D01*
X90390000Y-47730000D02*
X90610000Y-47950000D01*
%TO.N,Net-(Q1-G)*%
X84030000Y-54740000D02*
X81780000Y-54740000D01*
X81780000Y-54740000D02*
X81630000Y-54590000D01*
%TO.N,GND*%
X83830000Y-58790000D02*
X83830000Y-56840000D01*
X83830000Y-56840000D02*
X84030000Y-56640000D01*
%TO.N,/IR_OUT*%
X81830000Y-58450000D02*
X81850000Y-58430000D01*
X81830000Y-58790000D02*
X81830000Y-58450000D01*
%TO.N,Net-(D1-K)*%
X84290000Y-32180000D02*
X86480000Y-34370000D01*
X86480000Y-34370000D02*
X86480000Y-34380000D01*
X86480000Y-34380000D02*
X88030000Y-35930000D01*
X88030000Y-35930000D02*
X88030000Y-42660000D01*
X88030000Y-42660000D02*
X92110000Y-46740000D01*
X92110000Y-46740000D02*
X92110000Y-48990000D01*
X92110000Y-48990000D02*
X90610000Y-50490000D01*
%TO.N,Net-(R3-Pad2)*%
X81390000Y-35910000D02*
X81390000Y-44850000D01*
X81390000Y-44850000D02*
X84270000Y-47730000D01*
%TO.N,Net-(R6-Pad2)*%
X64150000Y-34370000D02*
X66600000Y-34370000D01*
%TO.N,Net-(R3-Pad2)*%
X78450000Y-32970000D02*
X70870000Y-32970000D01*
X81390000Y-35910000D02*
X78450000Y-32970000D01*
X70870000Y-32970000D02*
X69470000Y-34370000D01*
X69470000Y-34370000D02*
X68600000Y-34370000D01*
%TO.N,5V*%
X46650000Y-42700000D02*
X49330000Y-42700000D01*
X49330000Y-42700000D02*
X49450000Y-42580000D01*
X57230000Y-32790000D02*
X60570000Y-32790000D01*
X60570000Y-32790000D02*
X62150000Y-34370000D01*
%TO.N,Net-(J2-Pin_2)*%
X52380000Y-32700000D02*
X47590000Y-32700000D01*
X47590000Y-32700000D02*
X47470000Y-32580000D01*
%TO.N,3.3V*%
X53870000Y-34352500D02*
X53870000Y-31410000D01*
X53870000Y-31410000D02*
X53160000Y-30700000D01*
X53160000Y-30700000D02*
X52380000Y-30700000D01*
X52727500Y-35495000D02*
X53870000Y-34352500D01*
X47470000Y-30040000D02*
X51720000Y-30040000D01*
X51720000Y-30040000D02*
X52380000Y-30700000D01*
%TD*%
%TA.AperFunction,Conductor*%
%TO.N,GND*%
G36*
X78252728Y-25480581D02*
G01*
X78716091Y-25497358D01*
X78725013Y-25498005D01*
X79183741Y-25548009D01*
X79192567Y-25549296D01*
X79646459Y-25632344D01*
X79655208Y-25634273D01*
X80101920Y-25749934D01*
X80110490Y-25752488D01*
X80547623Y-25900139D01*
X80556015Y-25903316D01*
X80981342Y-26082201D01*
X80989472Y-26085972D01*
X81245302Y-26216089D01*
X81400740Y-26295146D01*
X81408587Y-26299501D01*
X81803673Y-26537886D01*
X81811152Y-26542777D01*
X82117237Y-26759123D01*
X82187940Y-26809097D01*
X82195076Y-26814538D01*
X82551620Y-27107413D01*
X82558343Y-27113356D01*
X82893579Y-27432018D01*
X82898223Y-27436673D01*
X83366275Y-27931399D01*
X83673700Y-28256343D01*
X83676511Y-28259417D01*
X83728966Y-28318740D01*
X84424698Y-29105576D01*
X84427411Y-29108750D01*
X85146698Y-29979637D01*
X85149302Y-29982901D01*
X85838830Y-30877476D01*
X85841323Y-30880825D01*
X86500363Y-31798137D01*
X86502741Y-31801568D01*
X87110867Y-32711153D01*
X87130515Y-32740540D01*
X87132769Y-32744038D01*
X87210263Y-32868846D01*
X87728572Y-33703614D01*
X87730715Y-33707198D01*
X88293873Y-34686291D01*
X88295893Y-34689944D01*
X88330827Y-34755707D01*
X88344893Y-34824146D01*
X88319725Y-34889326D01*
X88263314Y-34930551D01*
X88193570Y-34934734D01*
X88133638Y-34901560D01*
X87130562Y-33898484D01*
X87115141Y-33879694D01*
X87101787Y-33859708D01*
X87101784Y-33859705D01*
X85934022Y-32691944D01*
X85900537Y-32630621D01*
X85905521Y-32560929D01*
X85934020Y-32516584D01*
X85950549Y-32500056D01*
X85988169Y-32453373D01*
X86047957Y-32322457D01*
X86068439Y-32180000D01*
X86047957Y-32037543D01*
X85988169Y-31906627D01*
X85950550Y-31859944D01*
X85950545Y-31859939D01*
X85950541Y-31859934D01*
X84610063Y-30519458D01*
X84610056Y-30519451D01*
X84563373Y-30481831D01*
X84466357Y-30437525D01*
X84432455Y-30422042D01*
X84432457Y-30422042D01*
X84290000Y-30401561D01*
X84147545Y-30422042D01*
X84071859Y-30456607D01*
X84002701Y-30466550D01*
X83939145Y-30437525D01*
X83901371Y-30378746D01*
X83896772Y-30354057D01*
X83880083Y-30152644D01*
X83856604Y-30059928D01*
X83823106Y-29927648D01*
X83729873Y-29715100D01*
X83602932Y-29520801D01*
X83602929Y-29520798D01*
X83602928Y-29520796D01*
X83445733Y-29350036D01*
X83445728Y-29350032D01*
X83445726Y-29350030D01*
X83262583Y-29207484D01*
X83262577Y-29207480D01*
X83058453Y-29097013D01*
X83058444Y-29097010D01*
X82838933Y-29021651D01*
X82667231Y-28992999D01*
X82609998Y-28983449D01*
X82377900Y-28983449D01*
X82332113Y-28991089D01*
X82148964Y-29021651D01*
X81929453Y-29097010D01*
X81929444Y-29097013D01*
X81725320Y-29207480D01*
X81725314Y-29207484D01*
X81542171Y-29350030D01*
X81542168Y-29350033D01*
X81384965Y-29520801D01*
X81258024Y-29715100D01*
X81164791Y-29927648D01*
X81107815Y-30152640D01*
X81107813Y-30152651D01*
X81088649Y-30383942D01*
X81088649Y-30383944D01*
X81088649Y-30383949D01*
X81104810Y-30578985D01*
X81090728Y-30647420D01*
X81068914Y-30676905D01*
X80972162Y-30773656D01*
X80972159Y-30773660D01*
X80884558Y-30904763D01*
X80884551Y-30904776D01*
X80824213Y-31050447D01*
X80824210Y-31050459D01*
X80793449Y-31205102D01*
X80793449Y-33492795D01*
X80824210Y-33647438D01*
X80824213Y-33647450D01*
X80884551Y-33793121D01*
X80884558Y-33793134D01*
X80972159Y-33924237D01*
X80972162Y-33924241D01*
X81545741Y-34497819D01*
X81579226Y-34559142D01*
X81574242Y-34628833D01*
X81532371Y-34684767D01*
X81466906Y-34709184D01*
X81458060Y-34709500D01*
X81372940Y-34709500D01*
X81305901Y-34689815D01*
X81285259Y-34673181D01*
X78960292Y-32348213D01*
X78960288Y-32348210D01*
X78829185Y-32260609D01*
X78829172Y-32260602D01*
X78683501Y-32200264D01*
X78683489Y-32200261D01*
X78528845Y-32169500D01*
X78528842Y-32169500D01*
X70948842Y-32169500D01*
X70791158Y-32169500D01*
X70791155Y-32169500D01*
X70636510Y-32200261D01*
X70636498Y-32200264D01*
X70490827Y-32260602D01*
X70490814Y-32260609D01*
X70359711Y-32348210D01*
X70359707Y-32348213D01*
X69464467Y-33243453D01*
X69403144Y-33276938D01*
X69333452Y-33271954D01*
X69311693Y-33261313D01*
X69269334Y-33235186D01*
X69102797Y-33180001D01*
X69102795Y-33180000D01*
X69000010Y-33169500D01*
X68199998Y-33169500D01*
X68199980Y-33169501D01*
X68097203Y-33180000D01*
X68097200Y-33180001D01*
X67930668Y-33235185D01*
X67930663Y-33235187D01*
X67781342Y-33327289D01*
X67687681Y-33420951D01*
X67626358Y-33454436D01*
X67556666Y-33449452D01*
X67512319Y-33420951D01*
X67418657Y-33327289D01*
X67418656Y-33327288D01*
X67311691Y-33261312D01*
X67269336Y-33235187D01*
X67269331Y-33235185D01*
X67267862Y-33234698D01*
X67102797Y-33180001D01*
X67102795Y-33180000D01*
X67000010Y-33169500D01*
X66199998Y-33169500D01*
X66199980Y-33169501D01*
X66097203Y-33180000D01*
X66097200Y-33180001D01*
X65930668Y-33235185D01*
X65930663Y-33235187D01*
X65781342Y-33327289D01*
X65657289Y-33451342D01*
X65657253Y-33451401D01*
X65626969Y-33500500D01*
X65620741Y-33510597D01*
X65568793Y-33557321D01*
X65515202Y-33569500D01*
X65234798Y-33569500D01*
X65167759Y-33549815D01*
X65129259Y-33510597D01*
X65124779Y-33503333D01*
X65092712Y-33451344D01*
X64968656Y-33327288D01*
X64861691Y-33261312D01*
X64819336Y-33235187D01*
X64819331Y-33235185D01*
X64817862Y-33234698D01*
X64652797Y-33180001D01*
X64652795Y-33180000D01*
X64550010Y-33169500D01*
X63749998Y-33169500D01*
X63749980Y-33169501D01*
X63647203Y-33180000D01*
X63647200Y-33180001D01*
X63480668Y-33235185D01*
X63480663Y-33235187D01*
X63331342Y-33327289D01*
X63237681Y-33420951D01*
X63176358Y-33454436D01*
X63106666Y-33449452D01*
X63062319Y-33420951D01*
X62968657Y-33327289D01*
X62968656Y-33327288D01*
X62861691Y-33261312D01*
X62819336Y-33235187D01*
X62819331Y-33235185D01*
X62817862Y-33234698D01*
X62652797Y-33180001D01*
X62652795Y-33180000D01*
X62550016Y-33169500D01*
X62550009Y-33169500D01*
X62132940Y-33169500D01*
X62065901Y-33149815D01*
X62045259Y-33133181D01*
X61080292Y-32168213D01*
X61080288Y-32168210D01*
X60949185Y-32080609D01*
X60949172Y-32080602D01*
X60803501Y-32020264D01*
X60803489Y-32020261D01*
X60648845Y-31989500D01*
X60648842Y-31989500D01*
X57151158Y-31989500D01*
X57151155Y-31989500D01*
X56996510Y-32020261D01*
X56996498Y-32020264D01*
X56850827Y-32080602D01*
X56850814Y-32080609D01*
X56719711Y-32168210D01*
X56719707Y-32168213D01*
X56608213Y-32279707D01*
X56608210Y-32279711D01*
X56520609Y-32410814D01*
X56520602Y-32410827D01*
X56460264Y-32556498D01*
X56460261Y-32556510D01*
X56429500Y-32711153D01*
X56429500Y-32868846D01*
X56460261Y-33023489D01*
X56460264Y-33023501D01*
X56520602Y-33169172D01*
X56520609Y-33169185D01*
X56608210Y-33300288D01*
X56608213Y-33300292D01*
X56719707Y-33411786D01*
X56719711Y-33411789D01*
X56850814Y-33499390D01*
X56850827Y-33499397D01*
X56972549Y-33549815D01*
X56996503Y-33559737D01*
X57151153Y-33590499D01*
X57151156Y-33590500D01*
X57151158Y-33590500D01*
X60187060Y-33590500D01*
X60254099Y-33610185D01*
X60274741Y-33626819D01*
X61013181Y-34365259D01*
X61046666Y-34426582D01*
X61049500Y-34452940D01*
X61049501Y-34870000D01*
X61049501Y-34870019D01*
X61060000Y-34972796D01*
X61060001Y-34972799D01*
X61115185Y-35139331D01*
X61115187Y-35139336D01*
X61125074Y-35155365D01*
X61207288Y-35288656D01*
X61331344Y-35412712D01*
X61480666Y-35504814D01*
X61647203Y-35559999D01*
X61749991Y-35570500D01*
X62550008Y-35570499D01*
X62550016Y-35570498D01*
X62550019Y-35570498D01*
X62606302Y-35564748D01*
X62652797Y-35559999D01*
X62819334Y-35504814D01*
X62968656Y-35412712D01*
X63062319Y-35319049D01*
X63123642Y-35285564D01*
X63193334Y-35290548D01*
X63237681Y-35319049D01*
X63331344Y-35412712D01*
X63480666Y-35504814D01*
X63647203Y-35559999D01*
X63749991Y-35570500D01*
X64550008Y-35570499D01*
X64550016Y-35570498D01*
X64550019Y-35570498D01*
X64606302Y-35564748D01*
X64652797Y-35559999D01*
X64819334Y-35504814D01*
X64968656Y-35412712D01*
X65092712Y-35288656D01*
X65129259Y-35229402D01*
X65181207Y-35182679D01*
X65234798Y-35170500D01*
X65515202Y-35170500D01*
X65582241Y-35190185D01*
X65620739Y-35229401D01*
X65657288Y-35288656D01*
X65781344Y-35412712D01*
X65930666Y-35504814D01*
X66097203Y-35559999D01*
X66199991Y-35570500D01*
X67000008Y-35570499D01*
X67000016Y-35570498D01*
X67000019Y-35570498D01*
X67056302Y-35564748D01*
X67102797Y-35559999D01*
X67269334Y-35504814D01*
X67418656Y-35412712D01*
X67512319Y-35319049D01*
X67573642Y-35285564D01*
X67643334Y-35290548D01*
X67687681Y-35319049D01*
X67781344Y-35412712D01*
X67930666Y-35504814D01*
X68097203Y-35559999D01*
X68199991Y-35570500D01*
X69000008Y-35570499D01*
X69000016Y-35570498D01*
X69000019Y-35570498D01*
X69056302Y-35564748D01*
X69102797Y-35559999D01*
X69269334Y-35504814D01*
X69418656Y-35412712D01*
X69542712Y-35288656D01*
X69596564Y-35201345D01*
X69648509Y-35154622D01*
X69677908Y-35144826D01*
X69703497Y-35139737D01*
X69849179Y-35079394D01*
X69980289Y-34991789D01*
X71165259Y-33806819D01*
X71226582Y-33773334D01*
X71252940Y-33770500D01*
X77849062Y-33770500D01*
X77916101Y-33790185D01*
X77961856Y-33842989D01*
X77971800Y-33912147D01*
X77942775Y-33975703D01*
X77883997Y-34013477D01*
X77869471Y-34016809D01*
X77757883Y-34035429D01*
X77522697Y-34116169D01*
X77522688Y-34116172D01*
X77303993Y-34234524D01*
X77107757Y-34387261D01*
X76939333Y-34570217D01*
X76803326Y-34778393D01*
X76703436Y-35006118D01*
X76642392Y-35247175D01*
X76642390Y-35247187D01*
X76621857Y-35494994D01*
X76621857Y-35495005D01*
X76642390Y-35742812D01*
X76642392Y-35742824D01*
X76703436Y-35983881D01*
X76803326Y-36211606D01*
X76939333Y-36419782D01*
X76939336Y-36419785D01*
X77107756Y-36602738D01*
X77107759Y-36602740D01*
X77107762Y-36602743D01*
X77211243Y-36683286D01*
X77252056Y-36739996D01*
X77258843Y-36788823D01*
X77257441Y-36811389D01*
X77989924Y-37543871D01*
X77930647Y-37559755D01*
X77814353Y-37626898D01*
X77719398Y-37721853D01*
X77652255Y-37838147D01*
X77636372Y-37897424D01*
X76904064Y-37165116D01*
X76803767Y-37318632D01*
X76703912Y-37546282D01*
X76642887Y-37787261D01*
X76642885Y-37787270D01*
X76622359Y-38034994D01*
X76622359Y-38035005D01*
X76642885Y-38282729D01*
X76642887Y-38282738D01*
X76703912Y-38523717D01*
X76803766Y-38751364D01*
X76904064Y-38904882D01*
X77636371Y-38172575D01*
X77652255Y-38231853D01*
X77719398Y-38348147D01*
X77814353Y-38443102D01*
X77930647Y-38510245D01*
X77989924Y-38526128D01*
X77257442Y-39258609D01*
X77258843Y-39281177D01*
X77243350Y-39349307D01*
X77211244Y-39386713D01*
X77107758Y-39467260D01*
X76939333Y-39650217D01*
X76803326Y-39858393D01*
X76703436Y-40086118D01*
X76642392Y-40327175D01*
X76642390Y-40327187D01*
X76621857Y-40574994D01*
X76621857Y-40575005D01*
X76642390Y-40822812D01*
X76642392Y-40822824D01*
X76703436Y-41063881D01*
X76803326Y-41291606D01*
X76939333Y-41499782D01*
X76939336Y-41499785D01*
X77107756Y-41682738D01*
X77190508Y-41747147D01*
X77231321Y-41803857D01*
X77234996Y-41873630D01*
X77200364Y-41934313D01*
X77190514Y-41942848D01*
X77150950Y-41973643D01*
X77107757Y-42007261D01*
X76939333Y-42190217D01*
X76803326Y-42398393D01*
X76703436Y-42626118D01*
X76642392Y-42867175D01*
X76642390Y-42867187D01*
X76621857Y-43114994D01*
X76621857Y-43115005D01*
X76642390Y-43362812D01*
X76642392Y-43362824D01*
X76703436Y-43603881D01*
X76803326Y-43831606D01*
X76939333Y-44039782D01*
X76939336Y-44039785D01*
X77107756Y-44222738D01*
X77190508Y-44287147D01*
X77231321Y-44343857D01*
X77234996Y-44413630D01*
X77200364Y-44474313D01*
X77190514Y-44482848D01*
X77133589Y-44527155D01*
X77107757Y-44547261D01*
X76939333Y-44730217D01*
X76803326Y-44938393D01*
X76703436Y-45166118D01*
X76642392Y-45407175D01*
X76642390Y-45407187D01*
X76621857Y-45654994D01*
X76621857Y-45655005D01*
X76642390Y-45902812D01*
X76642392Y-45902824D01*
X76703436Y-46143881D01*
X76803326Y-46371606D01*
X76939333Y-46579782D01*
X76957945Y-46600000D01*
X77107756Y-46762738D01*
X77190508Y-46827147D01*
X77231321Y-46883857D01*
X77234996Y-46953630D01*
X77200364Y-47014313D01*
X77190514Y-47022848D01*
X77131900Y-47068469D01*
X77107757Y-47087261D01*
X76939333Y-47270217D01*
X76803326Y-47478393D01*
X76703436Y-47706118D01*
X76642392Y-47947175D01*
X76642390Y-47947187D01*
X76621857Y-48194994D01*
X76621857Y-48195005D01*
X76642390Y-48442812D01*
X76642392Y-48442824D01*
X76703436Y-48683881D01*
X76803326Y-48911606D01*
X76939333Y-49119782D01*
X76939336Y-49119785D01*
X77107756Y-49302738D01*
X77190508Y-49367147D01*
X77231321Y-49423857D01*
X77234996Y-49493630D01*
X77200364Y-49554313D01*
X77190514Y-49562848D01*
X77131900Y-49608469D01*
X77107757Y-49627261D01*
X76939333Y-49810217D01*
X76803326Y-50018393D01*
X76703436Y-50246118D01*
X76642392Y-50487175D01*
X76642390Y-50487187D01*
X76621857Y-50734994D01*
X76621857Y-50735005D01*
X76642390Y-50982812D01*
X76642392Y-50982824D01*
X76703436Y-51223881D01*
X76803326Y-51451606D01*
X76939333Y-51659782D01*
X76965744Y-51688472D01*
X77107756Y-51842738D01*
X77190508Y-51907147D01*
X77231321Y-51963857D01*
X77234996Y-52033630D01*
X77200364Y-52094313D01*
X77190514Y-52102848D01*
X77165207Y-52122546D01*
X77107757Y-52167261D01*
X76939333Y-52350217D01*
X76803326Y-52558393D01*
X76703436Y-52786118D01*
X76642392Y-53027175D01*
X76642390Y-53027187D01*
X76621857Y-53274994D01*
X76621857Y-53275005D01*
X76642390Y-53522812D01*
X76642392Y-53522824D01*
X76703436Y-53763881D01*
X76803326Y-53991606D01*
X76939333Y-54199782D01*
X76939336Y-54199785D01*
X77107756Y-54382738D01*
X77190508Y-54447147D01*
X77231321Y-54503857D01*
X77234996Y-54573630D01*
X77200364Y-54634313D01*
X77190514Y-54642848D01*
X77131900Y-54688469D01*
X77107757Y-54707261D01*
X76939333Y-54890217D01*
X76803326Y-55098393D01*
X76703436Y-55326118D01*
X76642392Y-55567175D01*
X76642390Y-55567187D01*
X76621857Y-55814994D01*
X76621857Y-55815005D01*
X76642390Y-56062812D01*
X76642392Y-56062824D01*
X76703436Y-56303881D01*
X76803326Y-56531606D01*
X76939333Y-56739782D01*
X76939336Y-56739785D01*
X77107756Y-56922738D01*
X77190508Y-56987147D01*
X77231321Y-57043857D01*
X77234996Y-57113630D01*
X77200364Y-57174313D01*
X77190514Y-57182848D01*
X77131900Y-57228469D01*
X77107757Y-57247261D01*
X76939333Y-57430217D01*
X76803326Y-57638393D01*
X76703436Y-57866118D01*
X76642392Y-58107175D01*
X76642390Y-58107187D01*
X76621857Y-58354994D01*
X76621857Y-58355005D01*
X76642390Y-58602812D01*
X76642392Y-58602824D01*
X76703436Y-58843881D01*
X76803326Y-59071606D01*
X76939333Y-59279782D01*
X76939336Y-59279785D01*
X77107756Y-59462738D01*
X77190508Y-59527147D01*
X77231321Y-59583857D01*
X77234996Y-59653630D01*
X77200364Y-59714313D01*
X77190514Y-59722848D01*
X77170155Y-59738695D01*
X77107757Y-59787261D01*
X76939333Y-59970217D01*
X76803326Y-60178393D01*
X76703436Y-60406118D01*
X76642392Y-60647175D01*
X76642390Y-60647187D01*
X76621857Y-60894994D01*
X76621857Y-60895005D01*
X76642390Y-61142812D01*
X76642392Y-61142824D01*
X76703436Y-61383881D01*
X76803326Y-61611606D01*
X76939333Y-61819782D01*
X76939336Y-61819785D01*
X77107756Y-62002738D01*
X77190508Y-62067147D01*
X77231321Y-62123857D01*
X77234996Y-62193630D01*
X77200364Y-62254313D01*
X77190514Y-62262848D01*
X77131900Y-62308469D01*
X77107757Y-62327261D01*
X76939333Y-62510217D01*
X76803326Y-62718393D01*
X76703436Y-62946118D01*
X76642392Y-63187175D01*
X76642390Y-63187187D01*
X76621857Y-63434994D01*
X76621857Y-63435005D01*
X76642390Y-63682812D01*
X76642392Y-63682824D01*
X76703436Y-63923881D01*
X76803326Y-64151606D01*
X76939333Y-64359782D01*
X76939336Y-64359785D01*
X77107756Y-64542738D01*
X77190508Y-64607147D01*
X77231321Y-64663857D01*
X77234996Y-64733630D01*
X77200364Y-64794313D01*
X77190514Y-64802848D01*
X77131900Y-64848469D01*
X77107757Y-64867261D01*
X76939333Y-65050217D01*
X76803326Y-65258393D01*
X76703436Y-65486118D01*
X76642392Y-65727175D01*
X76642390Y-65727187D01*
X76621857Y-65974994D01*
X76621857Y-65975005D01*
X76642390Y-66222812D01*
X76642392Y-66222824D01*
X76703436Y-66463881D01*
X76803326Y-66691606D01*
X76939333Y-66899782D01*
X76939336Y-66899785D01*
X77107756Y-67082738D01*
X77190508Y-67147147D01*
X77231321Y-67203857D01*
X77234996Y-67273630D01*
X77200364Y-67334313D01*
X77190514Y-67342848D01*
X77131900Y-67388469D01*
X77107757Y-67407261D01*
X76939333Y-67590217D01*
X76803326Y-67798393D01*
X76703436Y-68026118D01*
X76642392Y-68267175D01*
X76642390Y-68267187D01*
X76621857Y-68514994D01*
X76621857Y-68515005D01*
X76642390Y-68762812D01*
X76642392Y-68762824D01*
X76703436Y-69003881D01*
X76803326Y-69231606D01*
X76939333Y-69439782D01*
X76939336Y-69439785D01*
X77107756Y-69622738D01*
X77190508Y-69687147D01*
X77231321Y-69743857D01*
X77234996Y-69813630D01*
X77200364Y-69874313D01*
X77190514Y-69882848D01*
X77153278Y-69911831D01*
X77107757Y-69947261D01*
X76939333Y-70130217D01*
X76803326Y-70338393D01*
X76703436Y-70566118D01*
X76642392Y-70807175D01*
X76642390Y-70807187D01*
X76626939Y-70993662D01*
X76601786Y-71058847D01*
X76545384Y-71100085D01*
X76475641Y-71104283D01*
X76415682Y-71071103D01*
X73354305Y-68009726D01*
X73354301Y-68009723D01*
X73247759Y-67938535D01*
X73129376Y-67889499D01*
X73129370Y-67889497D01*
X73003703Y-67864500D01*
X73003701Y-67864500D01*
X54161337Y-67864500D01*
X54094298Y-67844815D01*
X54054938Y-67802384D01*
X54054478Y-67802686D01*
X54052714Y-67799987D01*
X54052286Y-67799525D01*
X54051673Y-67798393D01*
X53915666Y-67590217D01*
X53894057Y-67566744D01*
X53747244Y-67407262D01*
X53664491Y-67342852D01*
X53623679Y-67286143D01*
X53620004Y-67216370D01*
X53654636Y-67155687D01*
X53664485Y-67147151D01*
X53747244Y-67082738D01*
X53915664Y-66899785D01*
X54051673Y-66691607D01*
X54151563Y-66463881D01*
X54212608Y-66222821D01*
X54233143Y-65975000D01*
X54212608Y-65727179D01*
X54212607Y-65727175D01*
X54151563Y-65486118D01*
X54051673Y-65258393D01*
X53915666Y-65050217D01*
X53837388Y-64965185D01*
X53747244Y-64867262D01*
X53664491Y-64802852D01*
X53623679Y-64746143D01*
X53620004Y-64676370D01*
X53654636Y-64615687D01*
X53664485Y-64607151D01*
X53747244Y-64542738D01*
X53915664Y-64359785D01*
X54051673Y-64151607D01*
X54151563Y-63923881D01*
X54212608Y-63682821D01*
X54219078Y-63604740D01*
X54233143Y-63435005D01*
X54233143Y-63434994D01*
X54212609Y-63187187D01*
X54212607Y-63187175D01*
X54151563Y-62946118D01*
X54051673Y-62718393D01*
X53915666Y-62510217D01*
X53894057Y-62486744D01*
X53747244Y-62327262D01*
X53664491Y-62262852D01*
X53623679Y-62206143D01*
X53620004Y-62136370D01*
X53654636Y-62075687D01*
X53664485Y-62067151D01*
X53747244Y-62002738D01*
X53915664Y-61819785D01*
X54051673Y-61611607D01*
X54151563Y-61383881D01*
X54212608Y-61142821D01*
X54212609Y-61142812D01*
X54233143Y-60895005D01*
X54233143Y-60894994D01*
X54212609Y-60647187D01*
X54212607Y-60647175D01*
X54151563Y-60406118D01*
X54051673Y-60178393D01*
X53915666Y-59970217D01*
X53873448Y-59924356D01*
X53747244Y-59787262D01*
X53664491Y-59722852D01*
X53623679Y-59666143D01*
X53620004Y-59596370D01*
X53654636Y-59535687D01*
X53664485Y-59527151D01*
X53747244Y-59462738D01*
X53915664Y-59279785D01*
X54051673Y-59071607D01*
X54151563Y-58843881D01*
X54212608Y-58602821D01*
X54216885Y-58551206D01*
X54233143Y-58355005D01*
X54233143Y-58354994D01*
X54212609Y-58107187D01*
X54212607Y-58107175D01*
X54151563Y-57866118D01*
X54051673Y-57638393D01*
X53915666Y-57430217D01*
X53888001Y-57400165D01*
X53747244Y-57247262D01*
X53664491Y-57182852D01*
X53623679Y-57126143D01*
X53620004Y-57056370D01*
X53654636Y-56995687D01*
X53664485Y-56987151D01*
X53747244Y-56922738D01*
X53915664Y-56739785D01*
X54051673Y-56531607D01*
X54151563Y-56303881D01*
X54212608Y-56062821D01*
X54212991Y-56058196D01*
X54233143Y-55815005D01*
X54233143Y-55814994D01*
X54212609Y-55567187D01*
X54212607Y-55567175D01*
X54151563Y-55326118D01*
X54051673Y-55098393D01*
X53915666Y-54890217D01*
X53894057Y-54866744D01*
X53747244Y-54707262D01*
X53664491Y-54642852D01*
X53623679Y-54586143D01*
X53620004Y-54516370D01*
X53654636Y-54455687D01*
X53664485Y-54447151D01*
X53747244Y-54382738D01*
X53915664Y-54199785D01*
X54051673Y-53991607D01*
X54151563Y-53763881D01*
X54212608Y-53522821D01*
X54222809Y-53399712D01*
X54233143Y-53275005D01*
X54233143Y-53274994D01*
X54212609Y-53027187D01*
X54212607Y-53027175D01*
X54151563Y-52786118D01*
X54051673Y-52558393D01*
X53915666Y-52350217D01*
X53894057Y-52326744D01*
X53747244Y-52167262D01*
X53664491Y-52102852D01*
X53623679Y-52046143D01*
X53620004Y-51976370D01*
X53654636Y-51915687D01*
X53664485Y-51907151D01*
X53747244Y-51842738D01*
X53915664Y-51659785D01*
X54051673Y-51451607D01*
X54151563Y-51223881D01*
X54212608Y-50982821D01*
X54215741Y-50945011D01*
X54233143Y-50735005D01*
X54233143Y-50734994D01*
X54212609Y-50487187D01*
X54212607Y-50487175D01*
X54151563Y-50246118D01*
X54051673Y-50018393D01*
X53915666Y-49810217D01*
X53837217Y-49724999D01*
X53747244Y-49627262D01*
X53664491Y-49562852D01*
X53623679Y-49506143D01*
X53620004Y-49436370D01*
X53654636Y-49375687D01*
X53664485Y-49367151D01*
X53747244Y-49302738D01*
X53915664Y-49119785D01*
X54051673Y-48911607D01*
X54151563Y-48683881D01*
X54212608Y-48442821D01*
X54212609Y-48442812D01*
X54233143Y-48195005D01*
X54233143Y-48194994D01*
X54212609Y-47947187D01*
X54212607Y-47947175D01*
X54151563Y-47706118D01*
X54051673Y-47478393D01*
X53915666Y-47270217D01*
X53894057Y-47246744D01*
X53747244Y-47087262D01*
X53664491Y-47022852D01*
X53623679Y-46966143D01*
X53620004Y-46896370D01*
X53654636Y-46835687D01*
X53664485Y-46827151D01*
X53747244Y-46762738D01*
X53915664Y-46579785D01*
X54051673Y-46371607D01*
X54151563Y-46143881D01*
X54212608Y-45902821D01*
X54215092Y-45872844D01*
X54233143Y-45655005D01*
X54233143Y-45654994D01*
X54212609Y-45407187D01*
X54212607Y-45407175D01*
X54151563Y-45166118D01*
X54051673Y-44938393D01*
X53915666Y-44730217D01*
X53841821Y-44650000D01*
X53747244Y-44547262D01*
X53664491Y-44482852D01*
X53623679Y-44426143D01*
X53620004Y-44356370D01*
X53654636Y-44295687D01*
X53664485Y-44287151D01*
X53747244Y-44222738D01*
X53915664Y-44039785D01*
X54051673Y-43831607D01*
X54151563Y-43603881D01*
X54212608Y-43362821D01*
X54212609Y-43362812D01*
X54233143Y-43115005D01*
X54233143Y-43114994D01*
X54212609Y-42867187D01*
X54212607Y-42867175D01*
X54151563Y-42626118D01*
X54051673Y-42398393D01*
X53915666Y-42190217D01*
X53894057Y-42166744D01*
X53747244Y-42007262D01*
X53664491Y-41942852D01*
X53623679Y-41886143D01*
X53620004Y-41816370D01*
X53654636Y-41755687D01*
X53664485Y-41747151D01*
X53747244Y-41682738D01*
X53915664Y-41499785D01*
X54051673Y-41291607D01*
X54151563Y-41063881D01*
X54212608Y-40822821D01*
X54233143Y-40575000D01*
X54222785Y-40449999D01*
X54212609Y-40327187D01*
X54212607Y-40327175D01*
X54151563Y-40086118D01*
X54051673Y-39858393D01*
X53915666Y-39650217D01*
X53854983Y-39584298D01*
X53747244Y-39467262D01*
X53643753Y-39386712D01*
X53602942Y-39330003D01*
X53596155Y-39281176D01*
X53597556Y-39258609D01*
X52865075Y-38526128D01*
X52924353Y-38510245D01*
X53040647Y-38443102D01*
X53135602Y-38348147D01*
X53202745Y-38231853D01*
X53218627Y-38172575D01*
X53950934Y-38904882D01*
X54051231Y-38751369D01*
X54151087Y-38523717D01*
X54212112Y-38282738D01*
X54212114Y-38282729D01*
X54232641Y-38035005D01*
X54232641Y-38034994D01*
X54212114Y-37787270D01*
X54212112Y-37787261D01*
X54151087Y-37546282D01*
X54051233Y-37318635D01*
X53920317Y-37118252D01*
X53900130Y-37051362D01*
X53919310Y-36984176D01*
X53964703Y-36941595D01*
X53969821Y-36938799D01*
X53969831Y-36938796D01*
X54085046Y-36852546D01*
X54171296Y-36737331D01*
X54221591Y-36602483D01*
X54228000Y-36542873D01*
X54227999Y-35177939D01*
X54247684Y-35110901D01*
X54264313Y-35090263D01*
X54491789Y-34862789D01*
X54579394Y-34731679D01*
X54639737Y-34585997D01*
X54670500Y-34431342D01*
X54670500Y-34273658D01*
X54670500Y-31331158D01*
X54657545Y-31266027D01*
X54639738Y-31176503D01*
X54579394Y-31030821D01*
X54579392Y-31030818D01*
X54579390Y-31030814D01*
X54491789Y-30899711D01*
X54491786Y-30899707D01*
X53670292Y-30078213D01*
X53670288Y-30078210D01*
X53539185Y-29990609D01*
X53539176Y-29990604D01*
X53510303Y-29978645D01*
X53455900Y-29934804D01*
X53452216Y-29929179D01*
X53451272Y-29927649D01*
X53422712Y-29881344D01*
X53298656Y-29757288D01*
X53149334Y-29665186D01*
X52982797Y-29610001D01*
X52982795Y-29610000D01*
X52880016Y-29599500D01*
X52880009Y-29599500D01*
X52462940Y-29599500D01*
X52395901Y-29579815D01*
X52375263Y-29563185D01*
X52230289Y-29418211D01*
X52230288Y-29418210D01*
X52230287Y-29418209D01*
X52099185Y-29330609D01*
X52099172Y-29330602D01*
X51953501Y-29270264D01*
X51953489Y-29270261D01*
X51798845Y-29239500D01*
X51798842Y-29239500D01*
X48622691Y-29239500D01*
X48555652Y-29219815D01*
X48521116Y-29186624D01*
X48508491Y-29168594D01*
X48341402Y-29001506D01*
X48341395Y-29001501D01*
X48147834Y-28865967D01*
X48147830Y-28865965D01*
X48119752Y-28852872D01*
X47933663Y-28766097D01*
X47933659Y-28766096D01*
X47933655Y-28766094D01*
X47705413Y-28704938D01*
X47705403Y-28704936D01*
X47470001Y-28684341D01*
X47469999Y-28684341D01*
X47234596Y-28704936D01*
X47234586Y-28704938D01*
X47006344Y-28766094D01*
X47006335Y-28766098D01*
X46792171Y-28865964D01*
X46792169Y-28865965D01*
X46598597Y-29001505D01*
X46431505Y-29168597D01*
X46295965Y-29362169D01*
X46295964Y-29362171D01*
X46196098Y-29576335D01*
X46196094Y-29576344D01*
X46134938Y-29804586D01*
X46134936Y-29804596D01*
X46114341Y-30039999D01*
X46114341Y-30040000D01*
X46134936Y-30275403D01*
X46134938Y-30275413D01*
X46196094Y-30503655D01*
X46196096Y-30503659D01*
X46196097Y-30503663D01*
X46245111Y-30608774D01*
X46295965Y-30717830D01*
X46295967Y-30717834D01*
X46388338Y-30849752D01*
X46408913Y-30879137D01*
X46431501Y-30911395D01*
X46431506Y-30911402D01*
X46598597Y-31078493D01*
X46598603Y-31078498D01*
X46784158Y-31208425D01*
X46827783Y-31263002D01*
X46834977Y-31332500D01*
X46803454Y-31394855D01*
X46784158Y-31411575D01*
X46598597Y-31541505D01*
X46431505Y-31708597D01*
X46295965Y-31902169D01*
X46295964Y-31902171D01*
X46196098Y-32116335D01*
X46196094Y-32116344D01*
X46134938Y-32344586D01*
X46134936Y-32344596D01*
X46114341Y-32579999D01*
X46114341Y-32580000D01*
X46134936Y-32815403D01*
X46134938Y-32815413D01*
X46196094Y-33043655D01*
X46196096Y-33043659D01*
X46196097Y-33043663D01*
X46259672Y-33180000D01*
X46295965Y-33257830D01*
X46295967Y-33257834D01*
X46431501Y-33451395D01*
X46431506Y-33451402D01*
X46553818Y-33573714D01*
X46587303Y-33635037D01*
X46582319Y-33704729D01*
X46540447Y-33760662D01*
X46509471Y-33777577D01*
X46377912Y-33826646D01*
X46377906Y-33826649D01*
X46262812Y-33912809D01*
X46262809Y-33912812D01*
X46176649Y-34027906D01*
X46176645Y-34027913D01*
X46126403Y-34162620D01*
X46126401Y-34162627D01*
X46120000Y-34222155D01*
X46120000Y-34870000D01*
X47036988Y-34870000D01*
X47004075Y-34927007D01*
X46970000Y-35054174D01*
X46970000Y-35185826D01*
X47004075Y-35312993D01*
X47036988Y-35370000D01*
X46120000Y-35370000D01*
X46120000Y-36017844D01*
X46126401Y-36077372D01*
X46126403Y-36077379D01*
X46176645Y-36212086D01*
X46176649Y-36212093D01*
X46262809Y-36327187D01*
X46262812Y-36327190D01*
X46377906Y-36413350D01*
X46377913Y-36413354D01*
X46512620Y-36463596D01*
X46512627Y-36463598D01*
X46572155Y-36469999D01*
X46572172Y-36470000D01*
X47220000Y-36470000D01*
X47220000Y-35553012D01*
X47277007Y-35585925D01*
X47404174Y-35620000D01*
X47535826Y-35620000D01*
X47662993Y-35585925D01*
X47720000Y-35553012D01*
X47720000Y-36470000D01*
X48367828Y-36470000D01*
X48367844Y-36469999D01*
X48427372Y-36463598D01*
X48427379Y-36463596D01*
X48562086Y-36413354D01*
X48562093Y-36413350D01*
X48677187Y-36327190D01*
X48677190Y-36327187D01*
X48763350Y-36212093D01*
X48763354Y-36212086D01*
X48813596Y-36077379D01*
X48813598Y-36077372D01*
X48819999Y-36017844D01*
X48820000Y-36017827D01*
X48820000Y-35370000D01*
X47903012Y-35370000D01*
X47935925Y-35312993D01*
X47970000Y-35185826D01*
X47970000Y-35054174D01*
X47935925Y-34927007D01*
X47903012Y-34870000D01*
X48820000Y-34870000D01*
X48820000Y-34222172D01*
X48819999Y-34222155D01*
X48813598Y-34162627D01*
X48813596Y-34162620D01*
X48763354Y-34027913D01*
X48763350Y-34027906D01*
X48677190Y-33912812D01*
X48677187Y-33912809D01*
X48562093Y-33826649D01*
X48562088Y-33826646D01*
X48430528Y-33777577D01*
X48374595Y-33735705D01*
X48350178Y-33670241D01*
X48365030Y-33601968D01*
X48386179Y-33573716D01*
X48423078Y-33536818D01*
X48484402Y-33503333D01*
X48510758Y-33500500D01*
X51267769Y-33500500D01*
X51334808Y-33520185D01*
X51355450Y-33536818D01*
X51461344Y-33642712D01*
X51610666Y-33734814D01*
X51676455Y-33756614D01*
X51733900Y-33796387D01*
X51760723Y-33860903D01*
X51748408Y-33929678D01*
X51700865Y-33980878D01*
X51650705Y-33997610D01*
X51620016Y-34000909D01*
X51485171Y-34051202D01*
X51485164Y-34051206D01*
X51369955Y-34137452D01*
X51369952Y-34137455D01*
X51283706Y-34252664D01*
X51283702Y-34252671D01*
X51233408Y-34387517D01*
X51227001Y-34447116D01*
X51227000Y-34447135D01*
X51227000Y-36542870D01*
X51227001Y-36542876D01*
X51233408Y-36602483D01*
X51283702Y-36737328D01*
X51283706Y-36737335D01*
X51369952Y-36852544D01*
X51369955Y-36852547D01*
X51485163Y-36938793D01*
X51490299Y-36941597D01*
X51539705Y-36991002D01*
X51554557Y-37059275D01*
X51534682Y-37118251D01*
X51403767Y-37318632D01*
X51303912Y-37546282D01*
X51242887Y-37787261D01*
X51242885Y-37787270D01*
X51222359Y-38034994D01*
X51222359Y-38035005D01*
X51242885Y-38282729D01*
X51242887Y-38282738D01*
X51303912Y-38523717D01*
X51403766Y-38751364D01*
X51504064Y-38904882D01*
X52236371Y-38172574D01*
X52252255Y-38231853D01*
X52319398Y-38348147D01*
X52414353Y-38443102D01*
X52530647Y-38510245D01*
X52589924Y-38526128D01*
X51857442Y-39258609D01*
X51858843Y-39281177D01*
X51843350Y-39349307D01*
X51811244Y-39386713D01*
X51707758Y-39467260D01*
X51539333Y-39650217D01*
X51403326Y-39858393D01*
X51303436Y-40086118D01*
X51242392Y-40327175D01*
X51242390Y-40327187D01*
X51221857Y-40574994D01*
X51221857Y-40575005D01*
X51242390Y-40822812D01*
X51242392Y-40822824D01*
X51303436Y-41063881D01*
X51403326Y-41291606D01*
X51539333Y-41499782D01*
X51539336Y-41499785D01*
X51707756Y-41682738D01*
X51790508Y-41747147D01*
X51831321Y-41803857D01*
X51834996Y-41873630D01*
X51800364Y-41934313D01*
X51790514Y-41942848D01*
X51750950Y-41973643D01*
X51707757Y-42007261D01*
X51539333Y-42190217D01*
X51403326Y-42398393D01*
X51303436Y-42626118D01*
X51242392Y-42867175D01*
X51242390Y-42867187D01*
X51221857Y-43114994D01*
X51221857Y-43115005D01*
X51242390Y-43362812D01*
X51242392Y-43362824D01*
X51303436Y-43603881D01*
X51403326Y-43831606D01*
X51539333Y-44039782D01*
X51539336Y-44039785D01*
X51707756Y-44222738D01*
X51790508Y-44287147D01*
X51831321Y-44343857D01*
X51834996Y-44413630D01*
X51800364Y-44474313D01*
X51790514Y-44482848D01*
X51733589Y-44527155D01*
X51707757Y-44547261D01*
X51539333Y-44730217D01*
X51403326Y-44938393D01*
X51303436Y-45166118D01*
X51242392Y-45407175D01*
X51242390Y-45407187D01*
X51221857Y-45654994D01*
X51221857Y-45655005D01*
X51242390Y-45902812D01*
X51242392Y-45902824D01*
X51303436Y-46143881D01*
X51403326Y-46371606D01*
X51539333Y-46579782D01*
X51557945Y-46600000D01*
X51707756Y-46762738D01*
X51790508Y-46827147D01*
X51831321Y-46883857D01*
X51834996Y-46953630D01*
X51800364Y-47014313D01*
X51790514Y-47022848D01*
X51731900Y-47068469D01*
X51707757Y-47087261D01*
X51539333Y-47270217D01*
X51403326Y-47478393D01*
X51303436Y-47706118D01*
X51242392Y-47947175D01*
X51242390Y-47947187D01*
X51221857Y-48194994D01*
X51221857Y-48195005D01*
X51242390Y-48442812D01*
X51242392Y-48442824D01*
X51303436Y-48683881D01*
X51403326Y-48911606D01*
X51539333Y-49119782D01*
X51539336Y-49119785D01*
X51707756Y-49302738D01*
X51790508Y-49367147D01*
X51831321Y-49423857D01*
X51834996Y-49493630D01*
X51800364Y-49554313D01*
X51790514Y-49562848D01*
X51731900Y-49608469D01*
X51707757Y-49627261D01*
X51539333Y-49810217D01*
X51403326Y-50018393D01*
X51303436Y-50246118D01*
X51242392Y-50487175D01*
X51242390Y-50487187D01*
X51221857Y-50734994D01*
X51221857Y-50735005D01*
X51242390Y-50982812D01*
X51242392Y-50982824D01*
X51303436Y-51223881D01*
X51403326Y-51451606D01*
X51539333Y-51659782D01*
X51565744Y-51688472D01*
X51707756Y-51842738D01*
X51790508Y-51907147D01*
X51831321Y-51963857D01*
X51834996Y-52033630D01*
X51800364Y-52094313D01*
X51790514Y-52102848D01*
X51765207Y-52122546D01*
X51707757Y-52167261D01*
X51539333Y-52350217D01*
X51403326Y-52558393D01*
X51303436Y-52786118D01*
X51242392Y-53027175D01*
X51242390Y-53027187D01*
X51221857Y-53274994D01*
X51221857Y-53275005D01*
X51242390Y-53522812D01*
X51242392Y-53522824D01*
X51303436Y-53763881D01*
X51403326Y-53991606D01*
X51539333Y-54199782D01*
X51539336Y-54199785D01*
X51707756Y-54382738D01*
X51790508Y-54447147D01*
X51831321Y-54503857D01*
X51834996Y-54573630D01*
X51800364Y-54634313D01*
X51790514Y-54642848D01*
X51731900Y-54688469D01*
X51707757Y-54707261D01*
X51539333Y-54890217D01*
X51403326Y-55098393D01*
X51303436Y-55326118D01*
X51242392Y-55567175D01*
X51242390Y-55567187D01*
X51221857Y-55814994D01*
X51221857Y-55815005D01*
X51242390Y-56062812D01*
X51242392Y-56062824D01*
X51303436Y-56303881D01*
X51403326Y-56531606D01*
X51539333Y-56739782D01*
X51539336Y-56739785D01*
X51707756Y-56922738D01*
X51790508Y-56987147D01*
X51831321Y-57043857D01*
X51834996Y-57113630D01*
X51800364Y-57174313D01*
X51790514Y-57182848D01*
X51731900Y-57228469D01*
X51707757Y-57247261D01*
X51539333Y-57430217D01*
X51403326Y-57638393D01*
X51303436Y-57866118D01*
X51242392Y-58107175D01*
X51242390Y-58107187D01*
X51221857Y-58354994D01*
X51221857Y-58355005D01*
X51242390Y-58602812D01*
X51242392Y-58602824D01*
X51303436Y-58843881D01*
X51403326Y-59071606D01*
X51539333Y-59279782D01*
X51539336Y-59279785D01*
X51707756Y-59462738D01*
X51790508Y-59527147D01*
X51831321Y-59583857D01*
X51834996Y-59653630D01*
X51800364Y-59714313D01*
X51790514Y-59722848D01*
X51770155Y-59738695D01*
X51707757Y-59787261D01*
X51539333Y-59970217D01*
X51403326Y-60178393D01*
X51303436Y-60406118D01*
X51242392Y-60647175D01*
X51242390Y-60647187D01*
X51221857Y-60894994D01*
X51221857Y-60895005D01*
X51242390Y-61142812D01*
X51242392Y-61142824D01*
X51303436Y-61383881D01*
X51403326Y-61611606D01*
X51539333Y-61819782D01*
X51539336Y-61819785D01*
X51707756Y-62002738D01*
X51790508Y-62067147D01*
X51831321Y-62123857D01*
X51834996Y-62193630D01*
X51800364Y-62254313D01*
X51790514Y-62262848D01*
X51731900Y-62308469D01*
X51707757Y-62327261D01*
X51539333Y-62510217D01*
X51403326Y-62718393D01*
X51303436Y-62946118D01*
X51242392Y-63187175D01*
X51242390Y-63187187D01*
X51221857Y-63434994D01*
X51221857Y-63435005D01*
X51242390Y-63682812D01*
X51242392Y-63682824D01*
X51303436Y-63923881D01*
X51403326Y-64151606D01*
X51539333Y-64359782D01*
X51539336Y-64359785D01*
X51707756Y-64542738D01*
X51790508Y-64607147D01*
X51831321Y-64663857D01*
X51834996Y-64733630D01*
X51800364Y-64794313D01*
X51790514Y-64802848D01*
X51731900Y-64848469D01*
X51707757Y-64867261D01*
X51539333Y-65050217D01*
X51403326Y-65258393D01*
X51303436Y-65486118D01*
X51242392Y-65727175D01*
X51242390Y-65727187D01*
X51221857Y-65974994D01*
X51221857Y-65975005D01*
X51242390Y-66222812D01*
X51242392Y-66222824D01*
X51303436Y-66463881D01*
X51403326Y-66691606D01*
X51539333Y-66899782D01*
X51539336Y-66899785D01*
X51707756Y-67082738D01*
X51790508Y-67147147D01*
X51831321Y-67203857D01*
X51834996Y-67273630D01*
X51800364Y-67334313D01*
X51790514Y-67342848D01*
X51731900Y-67388469D01*
X51707757Y-67407261D01*
X51539333Y-67590217D01*
X51403326Y-67798393D01*
X51303436Y-68026118D01*
X51242392Y-68267175D01*
X51242390Y-68267187D01*
X51221857Y-68514994D01*
X51221857Y-68515005D01*
X51242390Y-68762812D01*
X51242392Y-68762824D01*
X51303436Y-69003881D01*
X51403326Y-69231606D01*
X51539333Y-69439782D01*
X51539336Y-69439785D01*
X51707756Y-69622738D01*
X51790508Y-69687147D01*
X51831321Y-69743857D01*
X51834996Y-69813630D01*
X51800364Y-69874313D01*
X51790514Y-69882848D01*
X51753278Y-69911831D01*
X51707757Y-69947261D01*
X51539333Y-70130217D01*
X51403326Y-70338393D01*
X51303436Y-70566118D01*
X51242392Y-70807175D01*
X51242390Y-70807187D01*
X51221857Y-71054994D01*
X51221857Y-71055005D01*
X51242390Y-71302812D01*
X51242392Y-71302824D01*
X51303436Y-71543881D01*
X51403326Y-71771606D01*
X51539333Y-71979782D01*
X51539336Y-71979785D01*
X51707756Y-72162738D01*
X51903991Y-72315474D01*
X52122690Y-72433828D01*
X52357886Y-72514571D01*
X52603165Y-72555500D01*
X52643208Y-72555500D01*
X52710247Y-72575185D01*
X52756002Y-72627989D01*
X52765946Y-72697147D01*
X52736921Y-72760703D01*
X52678143Y-72798477D01*
X52675335Y-72799265D01*
X52617918Y-72814649D01*
X52583612Y-72823842D01*
X52371623Y-72911650D01*
X52371609Y-72911657D01*
X52172882Y-73026392D01*
X51990838Y-73166081D01*
X51828581Y-73328338D01*
X51688892Y-73510382D01*
X51574157Y-73709109D01*
X51574150Y-73709123D01*
X51486342Y-73921112D01*
X51426953Y-74142759D01*
X51426951Y-74142770D01*
X51397000Y-74370258D01*
X51397000Y-74599741D01*
X51416055Y-74744467D01*
X51426952Y-74827238D01*
X51449725Y-74912228D01*
X51486342Y-75048887D01*
X51574150Y-75260876D01*
X51574157Y-75260890D01*
X51688892Y-75459617D01*
X51828581Y-75641661D01*
X51828589Y-75641670D01*
X51990830Y-75803911D01*
X51990838Y-75803918D01*
X52172882Y-75943607D01*
X52172885Y-75943608D01*
X52172888Y-75943611D01*
X52371612Y-76058344D01*
X52371617Y-76058346D01*
X52371623Y-76058349D01*
X52462980Y-76096190D01*
X52583613Y-76146158D01*
X52805262Y-76205548D01*
X52998969Y-76231050D01*
X53010442Y-76232561D01*
X53074338Y-76260828D01*
X53112809Y-76319152D01*
X53113640Y-76389017D01*
X53076568Y-76448240D01*
X53013362Y-76478019D01*
X52994256Y-76479500D01*
X44002303Y-76479500D01*
X43997666Y-76479413D01*
X43518919Y-76461498D01*
X43509672Y-76460805D01*
X43035901Y-76407424D01*
X43026732Y-76406042D01*
X42558283Y-76317406D01*
X42549242Y-76315343D01*
X42088716Y-76191944D01*
X42079855Y-76189210D01*
X41629836Y-76031741D01*
X41621204Y-76028354D01*
X41184209Y-75837694D01*
X41175855Y-75833670D01*
X40754354Y-75610900D01*
X40746323Y-75606264D01*
X40342624Y-75352603D01*
X40334962Y-75347379D01*
X39951354Y-75064263D01*
X39944104Y-75058481D01*
X39582728Y-74747491D01*
X39575931Y-74741184D01*
X39238815Y-74404068D01*
X39232507Y-74397271D01*
X38921499Y-74035872D01*
X38915724Y-74028630D01*
X38836372Y-73921112D01*
X38679918Y-73709123D01*
X38632615Y-73645030D01*
X38627391Y-73637368D01*
X38373730Y-73233668D01*
X38369094Y-73225637D01*
X38146325Y-72804136D01*
X38142301Y-72795782D01*
X37951641Y-72358786D01*
X37948253Y-72350154D01*
X37818857Y-71980362D01*
X37790782Y-71900128D01*
X37788051Y-71891272D01*
X37664649Y-71430730D01*
X37662595Y-71421727D01*
X37573954Y-70953246D01*
X37572574Y-70944088D01*
X37571565Y-70935137D01*
X37519192Y-70470306D01*
X37518500Y-70461070D01*
X37510461Y-70246231D01*
X37500587Y-69982324D01*
X37500500Y-69977688D01*
X37500500Y-53664499D01*
X37520185Y-53597460D01*
X37572989Y-53551705D01*
X37642147Y-53541761D01*
X37705703Y-53570786D01*
X37730037Y-53599401D01*
X37737288Y-53611156D01*
X37861344Y-53735212D01*
X38010666Y-53827314D01*
X38177203Y-53882499D01*
X38279991Y-53893000D01*
X39280008Y-53892999D01*
X39280016Y-53892998D01*
X39280019Y-53892998D01*
X39336302Y-53887248D01*
X39382797Y-53882499D01*
X39549334Y-53827314D01*
X39698656Y-53735212D01*
X39779549Y-53654319D01*
X39840872Y-53620834D01*
X39867230Y-53618000D01*
X42911344Y-53618000D01*
X42911345Y-53617999D01*
X43065997Y-53587237D01*
X43211679Y-53526894D01*
X43342789Y-53439289D01*
X48045259Y-48736817D01*
X48106582Y-48703333D01*
X48132940Y-48700499D01*
X48550002Y-48700499D01*
X48550008Y-48700499D01*
X48652797Y-48689999D01*
X48819334Y-48634814D01*
X48968656Y-48542712D01*
X49092712Y-48418656D01*
X49184814Y-48269334D01*
X49239999Y-48102797D01*
X49250500Y-48000009D01*
X49250499Y-47199992D01*
X49239999Y-47097203D01*
X49184814Y-46930666D01*
X49092712Y-46781344D01*
X48999049Y-46687681D01*
X48965564Y-46626358D01*
X48970548Y-46556666D01*
X48999049Y-46512319D01*
X49042476Y-46468892D01*
X49092712Y-46418656D01*
X49184814Y-46269334D01*
X49239999Y-46102797D01*
X49250500Y-46000009D01*
X49250499Y-45199992D01*
X49239999Y-45097203D01*
X49184814Y-44930666D01*
X49092712Y-44781344D01*
X48968656Y-44657288D01*
X48819334Y-44565186D01*
X48652797Y-44510001D01*
X48652795Y-44510000D01*
X48550016Y-44499500D01*
X47861229Y-44499500D01*
X47794190Y-44479815D01*
X47748435Y-44427011D01*
X47738491Y-44357853D01*
X47767516Y-44294297D01*
X47773521Y-44287846D01*
X47892712Y-44168656D01*
X47984814Y-44019334D01*
X48039999Y-43852797D01*
X48050500Y-43750009D01*
X48050500Y-43624500D01*
X48070185Y-43557461D01*
X48122989Y-43511706D01*
X48174500Y-43500500D01*
X49408844Y-43500500D01*
X49408845Y-43500499D01*
X49563497Y-43469737D01*
X49709179Y-43409394D01*
X49840289Y-43321789D01*
X50071789Y-43090289D01*
X50181788Y-42980290D01*
X50213054Y-42933497D01*
X50269394Y-42849179D01*
X50329737Y-42703497D01*
X50329737Y-42703494D01*
X50329739Y-42703490D01*
X50338620Y-42658843D01*
X50353771Y-42582671D01*
X50360500Y-42548843D01*
X50360500Y-42391158D01*
X50360500Y-41812717D01*
X50380185Y-41745678D01*
X50419405Y-41707178D01*
X50503651Y-41655215D01*
X50503654Y-41655213D01*
X50503653Y-41655213D01*
X50503656Y-41655212D01*
X50627712Y-41531156D01*
X50719814Y-41381834D01*
X50774999Y-41215297D01*
X50785500Y-41112509D01*
X50785499Y-40337492D01*
X50784446Y-40327187D01*
X50774999Y-40234703D01*
X50774998Y-40234700D01*
X50753010Y-40168345D01*
X50719814Y-40068166D01*
X50627712Y-39918844D01*
X50503656Y-39794788D01*
X50500342Y-39792743D01*
X50498546Y-39790748D01*
X50497989Y-39790307D01*
X50498064Y-39790211D01*
X50453618Y-39740797D01*
X50442397Y-39671834D01*
X50470240Y-39607752D01*
X50500348Y-39581665D01*
X50503342Y-39579818D01*
X50627315Y-39455845D01*
X50719356Y-39306624D01*
X50719358Y-39306619D01*
X50774505Y-39140197D01*
X50774506Y-39140190D01*
X50784999Y-39037486D01*
X50785000Y-39037473D01*
X50785000Y-38900000D01*
X48335001Y-38900000D01*
X48335001Y-39037486D01*
X48345494Y-39140197D01*
X48400641Y-39306619D01*
X48400643Y-39306624D01*
X48492684Y-39455845D01*
X48616655Y-39579816D01*
X48616659Y-39579819D01*
X48619656Y-39581668D01*
X48621279Y-39583472D01*
X48622323Y-39584298D01*
X48622181Y-39584476D01*
X48666381Y-39633616D01*
X48677602Y-39702579D01*
X48649759Y-39766661D01*
X48619661Y-39792741D01*
X48616349Y-39794783D01*
X48616343Y-39794788D01*
X48492289Y-39918842D01*
X48400187Y-40068163D01*
X48400186Y-40068166D01*
X48345001Y-40234703D01*
X48345001Y-40234704D01*
X48345000Y-40234704D01*
X48334500Y-40337483D01*
X48334500Y-41112501D01*
X48334501Y-41112519D01*
X48345000Y-41215296D01*
X48345001Y-41215299D01*
X48399798Y-41380663D01*
X48400186Y-41381834D01*
X48472938Y-41499785D01*
X48492289Y-41531157D01*
X48616344Y-41655212D01*
X48640255Y-41669960D01*
X48686981Y-41721908D01*
X48698204Y-41790870D01*
X48670361Y-41854953D01*
X48612293Y-41893810D01*
X48575160Y-41899500D01*
X48174499Y-41899500D01*
X48107460Y-41879815D01*
X48061705Y-41827011D01*
X48050499Y-41775500D01*
X48050499Y-41649998D01*
X48050498Y-41649981D01*
X48039999Y-41547203D01*
X48039998Y-41547200D01*
X48034682Y-41531157D01*
X47984814Y-41380666D01*
X47892712Y-41231344D01*
X47768656Y-41107288D01*
X47619334Y-41015186D01*
X47452797Y-40960001D01*
X47452795Y-40960000D01*
X47350010Y-40949500D01*
X45949998Y-40949500D01*
X45949981Y-40949501D01*
X45847203Y-40960000D01*
X45847200Y-40960001D01*
X45680668Y-41015185D01*
X45680663Y-41015187D01*
X45531342Y-41107289D01*
X45407289Y-41231342D01*
X45315187Y-41380663D01*
X45315186Y-41380666D01*
X45260001Y-41547203D01*
X45260001Y-41547204D01*
X45260000Y-41547204D01*
X45249500Y-41649983D01*
X45249500Y-41775500D01*
X45229815Y-41842539D01*
X45177011Y-41888294D01*
X45125500Y-41899500D01*
X42721155Y-41899500D01*
X42566510Y-41930261D01*
X42566498Y-41930264D01*
X42420827Y-41990602D01*
X42420814Y-41990609D01*
X42289711Y-42078210D01*
X42289707Y-42078213D01*
X42079739Y-42288181D01*
X42018416Y-42321666D01*
X41992058Y-42324500D01*
X41552129Y-42324500D01*
X41552123Y-42324501D01*
X41492516Y-42330908D01*
X41357671Y-42381202D01*
X41357664Y-42381206D01*
X41242455Y-42467452D01*
X41242452Y-42467455D01*
X41156206Y-42582664D01*
X41156202Y-42582671D01*
X41140182Y-42625625D01*
X41098311Y-42681559D01*
X41032847Y-42705976D01*
X40964574Y-42691124D01*
X40915168Y-42641719D01*
X40900000Y-42582292D01*
X40900000Y-42227172D01*
X40899999Y-42227155D01*
X40893598Y-42167627D01*
X40893595Y-42167616D01*
X40847240Y-42043334D01*
X40842255Y-41973643D01*
X40847240Y-41956666D01*
X40893595Y-41832383D01*
X40893598Y-41832372D01*
X40899999Y-41772844D01*
X40900000Y-41772827D01*
X40900000Y-40825000D01*
X39700000Y-40825000D01*
X39700000Y-47825000D01*
X40900000Y-47825000D01*
X40900000Y-46877172D01*
X40899999Y-46877155D01*
X40893598Y-46817627D01*
X40893595Y-46817616D01*
X40847240Y-46693334D01*
X40842255Y-46623643D01*
X40847240Y-46606666D01*
X40893595Y-46482383D01*
X40893598Y-46482372D01*
X40899999Y-46422844D01*
X40900000Y-46422827D01*
X40900000Y-46066278D01*
X40919685Y-45999239D01*
X40972489Y-45953484D01*
X41041647Y-45943540D01*
X41105203Y-45972565D01*
X41140182Y-46022945D01*
X41156645Y-46067086D01*
X41156649Y-46067093D01*
X41242809Y-46182187D01*
X41242812Y-46182190D01*
X41357906Y-46268350D01*
X41357913Y-46268354D01*
X41492620Y-46318596D01*
X41492627Y-46318598D01*
X41552155Y-46324999D01*
X41552172Y-46325000D01*
X42100000Y-46325000D01*
X42100000Y-45799499D01*
X42119685Y-45732460D01*
X42172489Y-45686705D01*
X42223997Y-45675499D01*
X42376001Y-45675499D01*
X42443039Y-45695184D01*
X42488794Y-45747988D01*
X42500000Y-45799499D01*
X42500000Y-46325000D01*
X43047828Y-46325000D01*
X43047844Y-46324999D01*
X43107372Y-46318598D01*
X43107379Y-46318596D01*
X43242086Y-46268354D01*
X43242093Y-46268350D01*
X43357187Y-46182190D01*
X43357190Y-46182187D01*
X43443350Y-46067093D01*
X43443354Y-46067086D01*
X43493596Y-45932379D01*
X43493598Y-45932372D01*
X43499999Y-45872844D01*
X43500000Y-45872827D01*
X43500000Y-45825000D01*
X43339435Y-45825000D01*
X43272396Y-45805315D01*
X43226641Y-45752511D01*
X43216697Y-45683353D01*
X43245722Y-45619797D01*
X43265124Y-45601734D01*
X43328446Y-45554330D01*
X43357546Y-45532546D01*
X43400858Y-45474687D01*
X43456791Y-45432818D01*
X43499972Y-45425027D01*
X43500000Y-45425000D01*
X43500000Y-45377172D01*
X43499999Y-45377160D01*
X43493380Y-45315604D01*
X43493380Y-45289090D01*
X43494090Y-45282485D01*
X43494091Y-45282483D01*
X43500500Y-45222873D01*
X43500499Y-44727128D01*
X43494091Y-44667517D01*
X43494089Y-44667513D01*
X43493632Y-44663255D01*
X43493632Y-44636745D01*
X43494089Y-44632486D01*
X43494091Y-44632483D01*
X43500500Y-44572873D01*
X43500499Y-44077128D01*
X43494091Y-44017517D01*
X43494089Y-44017513D01*
X43493632Y-44013255D01*
X43493632Y-43986745D01*
X43494089Y-43982486D01*
X43494091Y-43982483D01*
X43500500Y-43922873D01*
X43500499Y-43624499D01*
X43520183Y-43557461D01*
X43572987Y-43511706D01*
X43624499Y-43500500D01*
X45125501Y-43500500D01*
X45192540Y-43520185D01*
X45238295Y-43572989D01*
X45249501Y-43624500D01*
X45249501Y-43750018D01*
X45260000Y-43852796D01*
X45260001Y-43852799D01*
X45283222Y-43922873D01*
X45315186Y-44019334D01*
X45407288Y-44168656D01*
X45531344Y-44292712D01*
X45680666Y-44384814D01*
X45847203Y-44439999D01*
X45949991Y-44450500D01*
X47038770Y-44450499D01*
X47105809Y-44470184D01*
X47151564Y-44522987D01*
X47161508Y-44592146D01*
X47132483Y-44655702D01*
X47126452Y-44662180D01*
X47007287Y-44781345D01*
X46915187Y-44930663D01*
X46915185Y-44930668D01*
X46887349Y-45014670D01*
X46860001Y-45097203D01*
X46860001Y-45097204D01*
X46860000Y-45097204D01*
X46849500Y-45199983D01*
X46849500Y-46000001D01*
X46849501Y-46000019D01*
X46860000Y-46102796D01*
X46860001Y-46102799D01*
X46915185Y-46269331D01*
X46915187Y-46269336D01*
X47007289Y-46418657D01*
X47100951Y-46512319D01*
X47134436Y-46573642D01*
X47129452Y-46643334D01*
X47100951Y-46687681D01*
X47007289Y-46781342D01*
X46915187Y-46930663D01*
X46915186Y-46930666D01*
X46860001Y-47097203D01*
X46860001Y-47097204D01*
X46860000Y-47097204D01*
X46849500Y-47199983D01*
X46849500Y-47617059D01*
X46829815Y-47684098D01*
X46813181Y-47704740D01*
X42537241Y-51980681D01*
X42475918Y-52014166D01*
X42449560Y-52017000D01*
X39867230Y-52017000D01*
X39800191Y-51997315D01*
X39779549Y-51980681D01*
X39698657Y-51899789D01*
X39698656Y-51899788D01*
X39695342Y-51897743D01*
X39693546Y-51895748D01*
X39692989Y-51895307D01*
X39693064Y-51895211D01*
X39648618Y-51845797D01*
X39637397Y-51776834D01*
X39665240Y-51712752D01*
X39695348Y-51686665D01*
X39698342Y-51684818D01*
X39822315Y-51560845D01*
X39914356Y-51411624D01*
X39914358Y-51411619D01*
X39969505Y-51245197D01*
X39969506Y-51245190D01*
X39979999Y-51142486D01*
X39980000Y-51142473D01*
X39980000Y-51017500D01*
X38654000Y-51017500D01*
X38586961Y-50997815D01*
X38541206Y-50945011D01*
X38530000Y-50893500D01*
X38530000Y-50641500D01*
X38549685Y-50574461D01*
X38602489Y-50528706D01*
X38654000Y-50517500D01*
X39979999Y-50517500D01*
X39979999Y-50392528D01*
X39979998Y-50392513D01*
X39969505Y-50289802D01*
X39914358Y-50123380D01*
X39914356Y-50123375D01*
X39822315Y-49974154D01*
X39784842Y-49936681D01*
X39751357Y-49875358D01*
X39756341Y-49805666D01*
X39798213Y-49749733D01*
X39863677Y-49725316D01*
X39872523Y-49725000D01*
X40447828Y-49725000D01*
X40447844Y-49724999D01*
X40507372Y-49718598D01*
X40507379Y-49718596D01*
X40642086Y-49668354D01*
X40642093Y-49668350D01*
X40757187Y-49582190D01*
X40757190Y-49582187D01*
X40843350Y-49467093D01*
X40843354Y-49467086D01*
X40893596Y-49332379D01*
X40893598Y-49332372D01*
X40899999Y-49272844D01*
X40900000Y-49272827D01*
X40900000Y-48325000D01*
X38000000Y-48325000D01*
X38000000Y-49272844D01*
X38006401Y-49332372D01*
X38006403Y-49332379D01*
X38056645Y-49467086D01*
X38056649Y-49467093D01*
X38118930Y-49550289D01*
X38143348Y-49615753D01*
X38128497Y-49684026D01*
X38079092Y-49733432D01*
X38058669Y-49742306D01*
X38010878Y-49758142D01*
X38010875Y-49758143D01*
X37861654Y-49850184D01*
X37737684Y-49974154D01*
X37730038Y-49986551D01*
X37678089Y-50033274D01*
X37609126Y-50044495D01*
X37545044Y-50016651D01*
X37506189Y-49958581D01*
X37500500Y-49921452D01*
X37500500Y-46422844D01*
X38000000Y-46422844D01*
X38006401Y-46482372D01*
X38006403Y-46482380D01*
X38052759Y-46606667D01*
X38057743Y-46676359D01*
X38052759Y-46693333D01*
X38006403Y-46817619D01*
X38006401Y-46817627D01*
X38000000Y-46877155D01*
X38000000Y-47825000D01*
X39200000Y-47825000D01*
X39200000Y-45725000D01*
X38000000Y-45725000D01*
X38000000Y-46422844D01*
X37500500Y-46422844D01*
X37500500Y-44122844D01*
X38000000Y-44122844D01*
X38006401Y-44182372D01*
X38006403Y-44182383D01*
X38043434Y-44281668D01*
X38048418Y-44351360D01*
X38043434Y-44368332D01*
X38006403Y-44467616D01*
X38006401Y-44467627D01*
X38000000Y-44527155D01*
X38000000Y-45225000D01*
X39200000Y-45225000D01*
X39200000Y-43425000D01*
X38000000Y-43425000D01*
X38000000Y-44122844D01*
X37500500Y-44122844D01*
X37500500Y-41772844D01*
X38000000Y-41772844D01*
X38006401Y-41832372D01*
X38006403Y-41832380D01*
X38052759Y-41956667D01*
X38057743Y-42026359D01*
X38052759Y-42043333D01*
X38006403Y-42167619D01*
X38006401Y-42167627D01*
X38000000Y-42227155D01*
X38000000Y-42925000D01*
X39200000Y-42925000D01*
X39200000Y-40825000D01*
X38000000Y-40825000D01*
X38000000Y-41772844D01*
X37500500Y-41772844D01*
X37500500Y-39377155D01*
X38000000Y-39377155D01*
X38000000Y-40325000D01*
X39200000Y-40325000D01*
X39700000Y-40325000D01*
X40900000Y-40325000D01*
X40900000Y-39749986D01*
X45250001Y-39749986D01*
X45260494Y-39852697D01*
X45315641Y-40019119D01*
X45315643Y-40019124D01*
X45407684Y-40168345D01*
X45531654Y-40292315D01*
X45680875Y-40384356D01*
X45680880Y-40384358D01*
X45847302Y-40439505D01*
X45847309Y-40439506D01*
X45950019Y-40449999D01*
X46399999Y-40449999D01*
X46900000Y-40449999D01*
X47349972Y-40449999D01*
X47349986Y-40449998D01*
X47452697Y-40439505D01*
X47619119Y-40384358D01*
X47619124Y-40384356D01*
X47768345Y-40292315D01*
X47892315Y-40168345D01*
X47984356Y-40019124D01*
X47984358Y-40019119D01*
X48039505Y-39852697D01*
X48039506Y-39852690D01*
X48049999Y-39749986D01*
X48050000Y-39749973D01*
X48050000Y-38950000D01*
X46900000Y-38950000D01*
X46900000Y-40449999D01*
X46399999Y-40449999D01*
X46400000Y-40449998D01*
X46400000Y-38950000D01*
X45250001Y-38950000D01*
X45250001Y-39749986D01*
X40900000Y-39749986D01*
X40900000Y-39377172D01*
X40899999Y-39377155D01*
X40893598Y-39317627D01*
X40893596Y-39317620D01*
X40843354Y-39182913D01*
X40843350Y-39182906D01*
X40757190Y-39067812D01*
X40757187Y-39067809D01*
X40642093Y-38981649D01*
X40642086Y-38981645D01*
X40507379Y-38931403D01*
X40507372Y-38931401D01*
X40447844Y-38925000D01*
X39700000Y-38925000D01*
X39700000Y-40325000D01*
X39200000Y-40325000D01*
X39200000Y-38925000D01*
X38452155Y-38925000D01*
X38392627Y-38931401D01*
X38392620Y-38931403D01*
X38257913Y-38981645D01*
X38257906Y-38981649D01*
X38142812Y-39067809D01*
X38142809Y-39067812D01*
X38056649Y-39182906D01*
X38056645Y-39182913D01*
X38006403Y-39317620D01*
X38006401Y-39317627D01*
X38000000Y-39377155D01*
X37500500Y-39377155D01*
X37500500Y-37650013D01*
X45250000Y-37650013D01*
X45250000Y-38450000D01*
X46400000Y-38450000D01*
X46900000Y-38450000D01*
X48049999Y-38450000D01*
X48049999Y-38262513D01*
X48335000Y-38262513D01*
X48335000Y-38400000D01*
X49310000Y-38400000D01*
X49810000Y-38400000D01*
X50784999Y-38400000D01*
X50784999Y-38262528D01*
X50784998Y-38262513D01*
X50774505Y-38159802D01*
X50719358Y-37993380D01*
X50719356Y-37993375D01*
X50627315Y-37844154D01*
X50503345Y-37720184D01*
X50354124Y-37628143D01*
X50354119Y-37628141D01*
X50187697Y-37572994D01*
X50187690Y-37572993D01*
X50084986Y-37562500D01*
X49810000Y-37562500D01*
X49810000Y-38400000D01*
X49310000Y-38400000D01*
X49310000Y-37562500D01*
X49035029Y-37562500D01*
X49035012Y-37562501D01*
X48932302Y-37572994D01*
X48765880Y-37628141D01*
X48765875Y-37628143D01*
X48616654Y-37720184D01*
X48492684Y-37844154D01*
X48400643Y-37993375D01*
X48400641Y-37993380D01*
X48345494Y-38159802D01*
X48345493Y-38159809D01*
X48335000Y-38262513D01*
X48049999Y-38262513D01*
X48049999Y-37650028D01*
X48049998Y-37650013D01*
X48039505Y-37547302D01*
X47984358Y-37380880D01*
X47984356Y-37380875D01*
X47892315Y-37231654D01*
X47768345Y-37107684D01*
X47619124Y-37015643D01*
X47619119Y-37015641D01*
X47452697Y-36960494D01*
X47452690Y-36960493D01*
X47349986Y-36950000D01*
X46900000Y-36950000D01*
X46900000Y-38450000D01*
X46400000Y-38450000D01*
X46400000Y-36950000D01*
X45950028Y-36950000D01*
X45950012Y-36950001D01*
X45847302Y-36960494D01*
X45680880Y-37015641D01*
X45680875Y-37015643D01*
X45531654Y-37107684D01*
X45407684Y-37231654D01*
X45315643Y-37380875D01*
X45315641Y-37380880D01*
X45260494Y-37547302D01*
X45260493Y-37547309D01*
X45250000Y-37650013D01*
X37500500Y-37650013D01*
X37500500Y-31982398D01*
X37500587Y-31977762D01*
X37505494Y-31846623D01*
X37518500Y-31498996D01*
X37519191Y-31489776D01*
X37572577Y-31015969D01*
X37573954Y-31006832D01*
X37662599Y-30538335D01*
X37664651Y-30529343D01*
X37788059Y-30068777D01*
X37790789Y-30059928D01*
X37797763Y-30039999D01*
X37948264Y-29609890D01*
X37951651Y-29601263D01*
X37986758Y-29520796D01*
X38142310Y-29164265D01*
X38146324Y-29155929D01*
X38369117Y-28734386D01*
X38373748Y-28726367D01*
X38387213Y-28704938D01*
X38627415Y-28322657D01*
X38632626Y-28315014D01*
X38915763Y-27931378D01*
X38921511Y-27924169D01*
X39232548Y-27562737D01*
X39238829Y-27555969D01*
X39374540Y-27420258D01*
X51397000Y-27420258D01*
X51397000Y-27649741D01*
X51421946Y-27839215D01*
X51426952Y-27877238D01*
X51455897Y-27985264D01*
X51486342Y-28098887D01*
X51574150Y-28310876D01*
X51574157Y-28310890D01*
X51688892Y-28509617D01*
X51828581Y-28691661D01*
X51828589Y-28691670D01*
X51990830Y-28853911D01*
X51990838Y-28853918D01*
X52172882Y-28993607D01*
X52172885Y-28993608D01*
X52172888Y-28993611D01*
X52371612Y-29108344D01*
X52371617Y-29108346D01*
X52371623Y-29108349D01*
X52462980Y-29146190D01*
X52583613Y-29196158D01*
X52805262Y-29255548D01*
X53032766Y-29285500D01*
X53032773Y-29285500D01*
X53262227Y-29285500D01*
X53262234Y-29285500D01*
X53489738Y-29255548D01*
X53711387Y-29196158D01*
X53923388Y-29108344D01*
X54122112Y-28993611D01*
X54304161Y-28853919D01*
X54304165Y-28853914D01*
X54304170Y-28853911D01*
X54466411Y-28691670D01*
X54466414Y-28691665D01*
X54466419Y-28691661D01*
X54606111Y-28509612D01*
X54720844Y-28310888D01*
X54808658Y-28098887D01*
X54868048Y-27877238D01*
X54898000Y-27649734D01*
X54898000Y-27420266D01*
X54897999Y-27420258D01*
X75907000Y-27420258D01*
X75907000Y-27649741D01*
X75931946Y-27839215D01*
X75936952Y-27877238D01*
X75965897Y-27985264D01*
X75996342Y-28098887D01*
X76084150Y-28310876D01*
X76084157Y-28310890D01*
X76198892Y-28509617D01*
X76338581Y-28691661D01*
X76338589Y-28691670D01*
X76500830Y-28853911D01*
X76500838Y-28853918D01*
X76682882Y-28993607D01*
X76682885Y-28993608D01*
X76682888Y-28993611D01*
X76881612Y-29108344D01*
X76881617Y-29108346D01*
X76881623Y-29108349D01*
X76972980Y-29146190D01*
X77093613Y-29196158D01*
X77315262Y-29255548D01*
X77542766Y-29285500D01*
X77542773Y-29285500D01*
X77772227Y-29285500D01*
X77772234Y-29285500D01*
X77999738Y-29255548D01*
X78221387Y-29196158D01*
X78433388Y-29108344D01*
X78632112Y-28993611D01*
X78814161Y-28853919D01*
X78814165Y-28853914D01*
X78814170Y-28853911D01*
X78976411Y-28691670D01*
X78976414Y-28691665D01*
X78976419Y-28691661D01*
X79116111Y-28509612D01*
X79230844Y-28310888D01*
X79318658Y-28098887D01*
X79378048Y-27877238D01*
X79408000Y-27649734D01*
X79408000Y-27420266D01*
X79378048Y-27192762D01*
X79318658Y-26971113D01*
X79253802Y-26814538D01*
X79230849Y-26759123D01*
X79230846Y-26759117D01*
X79230844Y-26759112D01*
X79116111Y-26560388D01*
X79116108Y-26560385D01*
X79116107Y-26560382D01*
X78976418Y-26378338D01*
X78976411Y-26378330D01*
X78814170Y-26216089D01*
X78814161Y-26216081D01*
X78632117Y-26076392D01*
X78433390Y-25961657D01*
X78433376Y-25961650D01*
X78221387Y-25873842D01*
X77999738Y-25814452D01*
X77961715Y-25809446D01*
X77772241Y-25784500D01*
X77772234Y-25784500D01*
X77542766Y-25784500D01*
X77542758Y-25784500D01*
X77326215Y-25813009D01*
X77315262Y-25814452D01*
X77221576Y-25839554D01*
X77093612Y-25873842D01*
X76881623Y-25961650D01*
X76881609Y-25961657D01*
X76682882Y-26076392D01*
X76500838Y-26216081D01*
X76338581Y-26378338D01*
X76198892Y-26560382D01*
X76084157Y-26759109D01*
X76084150Y-26759123D01*
X75996342Y-26971112D01*
X75936953Y-27192759D01*
X75936951Y-27192770D01*
X75907000Y-27420258D01*
X54897999Y-27420258D01*
X54868048Y-27192762D01*
X54808658Y-26971113D01*
X54743802Y-26814538D01*
X54720849Y-26759123D01*
X54720846Y-26759117D01*
X54720844Y-26759112D01*
X54606111Y-26560388D01*
X54606108Y-26560385D01*
X54606107Y-26560382D01*
X54466418Y-26378338D01*
X54466411Y-26378330D01*
X54304170Y-26216089D01*
X54304161Y-26216081D01*
X54122117Y-26076392D01*
X53923390Y-25961657D01*
X53923376Y-25961650D01*
X53711387Y-25873842D01*
X53489738Y-25814452D01*
X53451715Y-25809446D01*
X53262241Y-25784500D01*
X53262234Y-25784500D01*
X53032766Y-25784500D01*
X53032758Y-25784500D01*
X52816215Y-25813009D01*
X52805262Y-25814452D01*
X52711576Y-25839554D01*
X52583612Y-25873842D01*
X52371623Y-25961650D01*
X52371609Y-25961657D01*
X52172882Y-26076392D01*
X51990838Y-26216081D01*
X51828581Y-26378338D01*
X51688892Y-26560382D01*
X51574157Y-26759109D01*
X51574150Y-26759123D01*
X51486342Y-26971112D01*
X51426953Y-27192759D01*
X51426951Y-27192770D01*
X51397000Y-27420258D01*
X39374540Y-27420258D01*
X39575977Y-27218822D01*
X39582746Y-27212541D01*
X39944162Y-26901517D01*
X39951373Y-26895766D01*
X40335015Y-26612625D01*
X40342658Y-26607414D01*
X40746380Y-26353740D01*
X40754398Y-26349111D01*
X41175917Y-26126332D01*
X41184260Y-26122313D01*
X41621279Y-25931644D01*
X41629901Y-25928261D01*
X42079926Y-25770790D01*
X42088781Y-25768057D01*
X42346360Y-25699040D01*
X42549321Y-25644657D01*
X42558361Y-25642594D01*
X42584010Y-25637741D01*
X43026833Y-25553954D01*
X43035971Y-25552577D01*
X43509778Y-25499191D01*
X43518998Y-25498500D01*
X43997765Y-25480587D01*
X44002401Y-25480500D01*
X44065982Y-25480500D01*
X78184599Y-25480500D01*
X78248241Y-25480500D01*
X78252728Y-25480581D01*
G37*
%TD.AperFunction*%
%TA.AperFunction,Conductor*%
G36*
X79838361Y-35490439D02*
G01*
X80253181Y-35905259D01*
X80286666Y-35966582D01*
X80289500Y-35992940D01*
X80289500Y-36410001D01*
X80289501Y-36410019D01*
X80300000Y-36512796D01*
X80300001Y-36512799D01*
X80355185Y-36679331D01*
X80355187Y-36679336D01*
X80371603Y-36705951D01*
X80436638Y-36811390D01*
X80447289Y-36828657D01*
X80553181Y-36934549D01*
X80586666Y-36995872D01*
X80589500Y-37022230D01*
X80589500Y-44928846D01*
X80620261Y-45083489D01*
X80620264Y-45083501D01*
X80680602Y-45229172D01*
X80680609Y-45229185D01*
X80768210Y-45360288D01*
X80768213Y-45360292D01*
X83133181Y-47725259D01*
X83166666Y-47786582D01*
X83169500Y-47812940D01*
X83169500Y-48230001D01*
X83169501Y-48230019D01*
X83180000Y-48332796D01*
X83180001Y-48332799D01*
X83208452Y-48418656D01*
X83235186Y-48499334D01*
X83318750Y-48634814D01*
X83327289Y-48648657D01*
X83433181Y-48754549D01*
X83466666Y-48815872D01*
X83469500Y-48842230D01*
X83469500Y-50268846D01*
X83500261Y-50423489D01*
X83500264Y-50423501D01*
X83560602Y-50569172D01*
X83560609Y-50569185D01*
X83648210Y-50700288D01*
X83648213Y-50700292D01*
X87153181Y-54205259D01*
X87186666Y-54266582D01*
X87189500Y-54292940D01*
X87189500Y-54765500D01*
X87169815Y-54832539D01*
X87117011Y-54878294D01*
X87065500Y-54889500D01*
X85392000Y-54889500D01*
X85324961Y-54869815D01*
X85279206Y-54817011D01*
X85268000Y-54765500D01*
X85268000Y-54524313D01*
X85267999Y-54524298D01*
X85266390Y-54503857D01*
X85265098Y-54487431D01*
X85255875Y-54455687D01*
X85219245Y-54329606D01*
X85219244Y-54329603D01*
X85219244Y-54329602D01*
X85135581Y-54188135D01*
X85135579Y-54188133D01*
X85135576Y-54188129D01*
X85019370Y-54071923D01*
X85019362Y-54071917D01*
X84883564Y-53991607D01*
X84877898Y-53988256D01*
X84877897Y-53988255D01*
X84877896Y-53988255D01*
X84877893Y-53988254D01*
X84720073Y-53942402D01*
X84720067Y-53942401D01*
X84683201Y-53939500D01*
X84683194Y-53939500D01*
X84108842Y-53939500D01*
X82845638Y-53939500D01*
X82778599Y-53919815D01*
X82740099Y-53880597D01*
X82707233Y-53827312D01*
X82672712Y-53771344D01*
X82548656Y-53647288D01*
X82399334Y-53555186D01*
X82232797Y-53500001D01*
X82232795Y-53500000D01*
X82130010Y-53489500D01*
X81129998Y-53489500D01*
X81129980Y-53489501D01*
X81027203Y-53500000D01*
X81027200Y-53500001D01*
X80860668Y-53555185D01*
X80860663Y-53555187D01*
X80711342Y-53647289D01*
X80587289Y-53771342D01*
X80495187Y-53920663D01*
X80495185Y-53920668D01*
X80472789Y-53988255D01*
X80440001Y-54087203D01*
X80440001Y-54087204D01*
X80440000Y-54087204D01*
X80429500Y-54189983D01*
X80429500Y-54990001D01*
X80429501Y-54990019D01*
X80440000Y-55092796D01*
X80440001Y-55092799D01*
X80495185Y-55259331D01*
X80495187Y-55259336D01*
X80587289Y-55408657D01*
X80680951Y-55502319D01*
X80714436Y-55563642D01*
X80709452Y-55633334D01*
X80680951Y-55677681D01*
X80587289Y-55771342D01*
X80495187Y-55920663D01*
X80495185Y-55920668D01*
X80478069Y-55972322D01*
X80440001Y-56087203D01*
X80440001Y-56087204D01*
X80440000Y-56087204D01*
X80429500Y-56189983D01*
X80429500Y-56990001D01*
X80429501Y-56990019D01*
X80440000Y-57092796D01*
X80440001Y-57092799D01*
X80469843Y-57182854D01*
X80495186Y-57259334D01*
X80587288Y-57408656D01*
X80711344Y-57532712D01*
X80770596Y-57569258D01*
X80817321Y-57621204D01*
X80829500Y-57674797D01*
X80829500Y-57929867D01*
X80811040Y-57994961D01*
X80795187Y-58020663D01*
X80795186Y-58020665D01*
X80795115Y-58020880D01*
X80740001Y-58187203D01*
X80740001Y-58187204D01*
X80740000Y-58187204D01*
X80729500Y-58289983D01*
X80729500Y-59290001D01*
X80729501Y-59290019D01*
X80740000Y-59392796D01*
X80740001Y-59392799D01*
X80763177Y-59462738D01*
X80795186Y-59559334D01*
X80887288Y-59708656D01*
X81011344Y-59832712D01*
X81120597Y-59900099D01*
X81167321Y-59952047D01*
X81179500Y-60005638D01*
X81179500Y-70179192D01*
X81159815Y-70246231D01*
X81143181Y-70266873D01*
X79763315Y-71646738D01*
X79701992Y-71680223D01*
X79632300Y-71675239D01*
X79576367Y-71633367D01*
X79551950Y-71567903D01*
X79555427Y-71528619D01*
X79612608Y-71302821D01*
X79612609Y-71302812D01*
X79633143Y-71055005D01*
X79633143Y-71054994D01*
X79612609Y-70807187D01*
X79612607Y-70807175D01*
X79551563Y-70566118D01*
X79451673Y-70338393D01*
X79315666Y-70130217D01*
X79294057Y-70106744D01*
X79147244Y-69947262D01*
X79064491Y-69882852D01*
X79023679Y-69826143D01*
X79020004Y-69756370D01*
X79054636Y-69695687D01*
X79064485Y-69687151D01*
X79147244Y-69622738D01*
X79315664Y-69439785D01*
X79451673Y-69231607D01*
X79551563Y-69003881D01*
X79612608Y-68762821D01*
X79612609Y-68762812D01*
X79633143Y-68515005D01*
X79633143Y-68514994D01*
X79612609Y-68267187D01*
X79612607Y-68267175D01*
X79551563Y-68026118D01*
X79451673Y-67798393D01*
X79315666Y-67590217D01*
X79294057Y-67566744D01*
X79147244Y-67407262D01*
X79064491Y-67342852D01*
X79023679Y-67286143D01*
X79020004Y-67216370D01*
X79054636Y-67155687D01*
X79064485Y-67147151D01*
X79147244Y-67082738D01*
X79315664Y-66899785D01*
X79451673Y-66691607D01*
X79551563Y-66463881D01*
X79612608Y-66222821D01*
X79633143Y-65975000D01*
X79612608Y-65727179D01*
X79612607Y-65727175D01*
X79551563Y-65486118D01*
X79451673Y-65258393D01*
X79315666Y-65050217D01*
X79237388Y-64965185D01*
X79147244Y-64867262D01*
X79064491Y-64802852D01*
X79023679Y-64746143D01*
X79020004Y-64676370D01*
X79054636Y-64615687D01*
X79064485Y-64607151D01*
X79147244Y-64542738D01*
X79315664Y-64359785D01*
X79451673Y-64151607D01*
X79551563Y-63923881D01*
X79612608Y-63682821D01*
X79619078Y-63604740D01*
X79633143Y-63435005D01*
X79633143Y-63434994D01*
X79612609Y-63187187D01*
X79612607Y-63187175D01*
X79551563Y-62946118D01*
X79451673Y-62718393D01*
X79315666Y-62510217D01*
X79294057Y-62486744D01*
X79147244Y-62327262D01*
X79064491Y-62262852D01*
X79023679Y-62206143D01*
X79020004Y-62136370D01*
X79054636Y-62075687D01*
X79064485Y-62067151D01*
X79147244Y-62002738D01*
X79315664Y-61819785D01*
X79451673Y-61611607D01*
X79551563Y-61383881D01*
X79612608Y-61142821D01*
X79612609Y-61142812D01*
X79633143Y-60895005D01*
X79633143Y-60894994D01*
X79612609Y-60647187D01*
X79612607Y-60647175D01*
X79551563Y-60406118D01*
X79451673Y-60178393D01*
X79315666Y-59970217D01*
X79273448Y-59924356D01*
X79147244Y-59787262D01*
X79064491Y-59722852D01*
X79023679Y-59666143D01*
X79020004Y-59596370D01*
X79054636Y-59535687D01*
X79064485Y-59527151D01*
X79147244Y-59462738D01*
X79315664Y-59279785D01*
X79451673Y-59071607D01*
X79551563Y-58843881D01*
X79612608Y-58602821D01*
X79616885Y-58551206D01*
X79633143Y-58355005D01*
X79633143Y-58354994D01*
X79612609Y-58107187D01*
X79612607Y-58107175D01*
X79551563Y-57866118D01*
X79451673Y-57638393D01*
X79315666Y-57430217D01*
X79288001Y-57400165D01*
X79147244Y-57247262D01*
X79064491Y-57182852D01*
X79023679Y-57126143D01*
X79020004Y-57056370D01*
X79054636Y-56995687D01*
X79064485Y-56987151D01*
X79147244Y-56922738D01*
X79315664Y-56739785D01*
X79451673Y-56531607D01*
X79551563Y-56303881D01*
X79612608Y-56062821D01*
X79612991Y-56058196D01*
X79633143Y-55815005D01*
X79633143Y-55814994D01*
X79612609Y-55567187D01*
X79612607Y-55567175D01*
X79551563Y-55326118D01*
X79451673Y-55098393D01*
X79315666Y-54890217D01*
X79294057Y-54866744D01*
X79147244Y-54707262D01*
X79064491Y-54642852D01*
X79023679Y-54586143D01*
X79020004Y-54516370D01*
X79054636Y-54455687D01*
X79064485Y-54447151D01*
X79147244Y-54382738D01*
X79315664Y-54199785D01*
X79451673Y-53991607D01*
X79551563Y-53763881D01*
X79612608Y-53522821D01*
X79622809Y-53399712D01*
X79633143Y-53275005D01*
X79633143Y-53274994D01*
X79612609Y-53027187D01*
X79612607Y-53027175D01*
X79551563Y-52786118D01*
X79451673Y-52558393D01*
X79315666Y-52350217D01*
X79294057Y-52326744D01*
X79147244Y-52167262D01*
X79064491Y-52102852D01*
X79023679Y-52046143D01*
X79020004Y-51976370D01*
X79054636Y-51915687D01*
X79064485Y-51907151D01*
X79147244Y-51842738D01*
X79315664Y-51659785D01*
X79451673Y-51451607D01*
X79551563Y-51223881D01*
X79612608Y-50982821D01*
X79615741Y-50945011D01*
X79633143Y-50735005D01*
X79633143Y-50734994D01*
X79612609Y-50487187D01*
X79612607Y-50487175D01*
X79551563Y-50246118D01*
X79451673Y-50018393D01*
X79315666Y-49810217D01*
X79237217Y-49724999D01*
X79147244Y-49627262D01*
X79064491Y-49562852D01*
X79023679Y-49506143D01*
X79020004Y-49436370D01*
X79054636Y-49375687D01*
X79064485Y-49367151D01*
X79147244Y-49302738D01*
X79315664Y-49119785D01*
X79451673Y-48911607D01*
X79551563Y-48683881D01*
X79612608Y-48442821D01*
X79612609Y-48442812D01*
X79633143Y-48195005D01*
X79633143Y-48194994D01*
X79612609Y-47947187D01*
X79612607Y-47947175D01*
X79551563Y-47706118D01*
X79451673Y-47478393D01*
X79315666Y-47270217D01*
X79294057Y-47246744D01*
X79147244Y-47087262D01*
X79064491Y-47022852D01*
X79023679Y-46966143D01*
X79020004Y-46896370D01*
X79054636Y-46835687D01*
X79064485Y-46827151D01*
X79147244Y-46762738D01*
X79315664Y-46579785D01*
X79451673Y-46371607D01*
X79551563Y-46143881D01*
X79612608Y-45902821D01*
X79615092Y-45872844D01*
X79633143Y-45655005D01*
X79633143Y-45654994D01*
X79612609Y-45407187D01*
X79612607Y-45407175D01*
X79551563Y-45166118D01*
X79451673Y-44938393D01*
X79315666Y-44730217D01*
X79241821Y-44650000D01*
X79147244Y-44547262D01*
X79064491Y-44482852D01*
X79023679Y-44426143D01*
X79020004Y-44356370D01*
X79054636Y-44295687D01*
X79064485Y-44287151D01*
X79147244Y-44222738D01*
X79315664Y-44039785D01*
X79451673Y-43831607D01*
X79551563Y-43603881D01*
X79612608Y-43362821D01*
X79612609Y-43362812D01*
X79633143Y-43115005D01*
X79633143Y-43114994D01*
X79612609Y-42867187D01*
X79612607Y-42867175D01*
X79551563Y-42626118D01*
X79451673Y-42398393D01*
X79315666Y-42190217D01*
X79294057Y-42166744D01*
X79147244Y-42007262D01*
X79064491Y-41942852D01*
X79023679Y-41886143D01*
X79020004Y-41816370D01*
X79054636Y-41755687D01*
X79064485Y-41747151D01*
X79147244Y-41682738D01*
X79315664Y-41499785D01*
X79451673Y-41291607D01*
X79551563Y-41063881D01*
X79612608Y-40822821D01*
X79633143Y-40575000D01*
X79622785Y-40449999D01*
X79612609Y-40327187D01*
X79612607Y-40327175D01*
X79551563Y-40086118D01*
X79451673Y-39858393D01*
X79315666Y-39650217D01*
X79254983Y-39584298D01*
X79147244Y-39467262D01*
X79043753Y-39386712D01*
X79002942Y-39330003D01*
X78996155Y-39281176D01*
X78997556Y-39258609D01*
X78265075Y-38526128D01*
X78324353Y-38510245D01*
X78440647Y-38443102D01*
X78535602Y-38348147D01*
X78602745Y-38231853D01*
X78618627Y-38172575D01*
X79350934Y-38904882D01*
X79451231Y-38751369D01*
X79551087Y-38523717D01*
X79612112Y-38282738D01*
X79612114Y-38282729D01*
X79632641Y-38035005D01*
X79632641Y-38034994D01*
X79612114Y-37787270D01*
X79612112Y-37787261D01*
X79551087Y-37546282D01*
X79451231Y-37318630D01*
X79350934Y-37165116D01*
X78618627Y-37897423D01*
X78602745Y-37838147D01*
X78535602Y-37721853D01*
X78440647Y-37626898D01*
X78324353Y-37559755D01*
X78265075Y-37543872D01*
X78997556Y-36811390D01*
X78996155Y-36788825D01*
X79011647Y-36720694D01*
X79043750Y-36683290D01*
X79147244Y-36602738D01*
X79315664Y-36419785D01*
X79451673Y-36211607D01*
X79551563Y-35983881D01*
X79612608Y-35742821D01*
X79627104Y-35567877D01*
X79652257Y-35502696D01*
X79708659Y-35461457D01*
X79778402Y-35457259D01*
X79838361Y-35490439D01*
G37*
%TD.AperFunction*%
%TA.AperFunction,Conductor*%
G36*
X84610039Y-55560185D02*
G01*
X84655794Y-55612989D01*
X84667000Y-55664500D01*
X84667000Y-55716000D01*
X84647315Y-55783039D01*
X84594511Y-55828794D01*
X84543000Y-55840000D01*
X84280000Y-55840000D01*
X84280000Y-56390000D01*
X84935685Y-56390000D01*
X84998806Y-56407268D01*
X85057102Y-56441744D01*
X85098724Y-56453836D01*
X85214926Y-56487597D01*
X85214929Y-56487597D01*
X85214931Y-56487598D01*
X85251806Y-56490500D01*
X85251814Y-56490500D01*
X87065500Y-56490500D01*
X87132539Y-56510185D01*
X87178294Y-56562989D01*
X87189500Y-56614500D01*
X87189500Y-63517059D01*
X87169815Y-63584098D01*
X87153181Y-63604740D01*
X85894739Y-64863181D01*
X85833416Y-64896666D01*
X85807058Y-64899500D01*
X85389998Y-64899500D01*
X85389980Y-64899501D01*
X85287203Y-64910000D01*
X85287200Y-64910001D01*
X85120668Y-64965185D01*
X85120663Y-64965187D01*
X84971342Y-65057289D01*
X84877681Y-65150951D01*
X84816358Y-65184436D01*
X84746666Y-65179452D01*
X84702319Y-65150951D01*
X84608657Y-65057289D01*
X84608656Y-65057288D01*
X84459334Y-64965186D01*
X84292797Y-64910001D01*
X84292795Y-64910000D01*
X84190010Y-64899500D01*
X83389998Y-64899500D01*
X83389980Y-64899501D01*
X83287203Y-64910000D01*
X83287200Y-64910001D01*
X83120668Y-64965185D01*
X83120663Y-64965187D01*
X82971342Y-65057289D01*
X82847289Y-65181342D01*
X82755187Y-65330663D01*
X82755185Y-65330668D01*
X82722206Y-65430194D01*
X82682433Y-65487639D01*
X82617917Y-65514462D01*
X82549142Y-65502147D01*
X82497942Y-65454604D01*
X82480500Y-65391190D01*
X82480500Y-60005638D01*
X82500185Y-59938599D01*
X82539401Y-59900100D01*
X82648656Y-59832712D01*
X82742675Y-59738692D01*
X82803994Y-59705210D01*
X82873686Y-59710194D01*
X82918034Y-59738695D01*
X83011654Y-59832315D01*
X83160875Y-59924356D01*
X83160880Y-59924358D01*
X83327302Y-59979505D01*
X83327309Y-59979506D01*
X83430019Y-59989999D01*
X83579999Y-59989999D01*
X84080000Y-59989999D01*
X84229972Y-59989999D01*
X84229986Y-59989998D01*
X84332697Y-59979505D01*
X84499119Y-59924358D01*
X84499124Y-59924356D01*
X84648345Y-59832315D01*
X84772315Y-59708345D01*
X84864356Y-59559124D01*
X84864358Y-59559119D01*
X84919505Y-59392697D01*
X84919506Y-59392690D01*
X84929999Y-59289986D01*
X84930000Y-59289973D01*
X84930000Y-59040000D01*
X84080000Y-59040000D01*
X84080000Y-59989999D01*
X83579999Y-59989999D01*
X83580000Y-59989998D01*
X83580000Y-58664000D01*
X83599685Y-58596961D01*
X83652489Y-58551206D01*
X83704000Y-58540000D01*
X84929999Y-58540000D01*
X84929999Y-58290028D01*
X84929998Y-58290013D01*
X84919505Y-58187302D01*
X84864358Y-58020880D01*
X84864356Y-58020875D01*
X84772315Y-57871654D01*
X84648345Y-57747684D01*
X84521652Y-57669539D01*
X84474928Y-57617591D01*
X84463705Y-57548628D01*
X84491549Y-57484546D01*
X84549618Y-57445690D01*
X84586749Y-57440000D01*
X84683134Y-57440000D01*
X84683149Y-57439999D01*
X84719989Y-57437100D01*
X84719995Y-57437099D01*
X84877693Y-57391283D01*
X84877696Y-57391282D01*
X85019052Y-57307685D01*
X85019061Y-57307678D01*
X85135178Y-57191561D01*
X85135185Y-57191552D01*
X85218781Y-57050198D01*
X85264600Y-56892486D01*
X85264795Y-56890001D01*
X85264795Y-56890000D01*
X83904000Y-56890000D01*
X83836961Y-56870315D01*
X83791206Y-56817511D01*
X83780000Y-56766000D01*
X83780000Y-55840000D01*
X83376850Y-55840000D01*
X83340010Y-55842899D01*
X83340004Y-55842900D01*
X83182306Y-55888716D01*
X83182303Y-55888717D01*
X83040947Y-55972314D01*
X83040937Y-55972322D01*
X82988547Y-56024712D01*
X82927224Y-56058196D01*
X82857532Y-56053211D01*
X82801599Y-56011340D01*
X82783161Y-55976034D01*
X82781928Y-55972314D01*
X82764814Y-55920666D01*
X82672712Y-55771344D01*
X82653549Y-55752181D01*
X82620064Y-55690858D01*
X82625048Y-55621166D01*
X82666920Y-55565233D01*
X82732384Y-55540816D01*
X82741230Y-55540500D01*
X83376806Y-55540500D01*
X84543000Y-55540500D01*
X84610039Y-55560185D01*
G37*
%TD.AperFunction*%
%TD*%
M02*
