%TF.GenerationSoftware,KiCad,Pcbnew,8.0.2*%
%TF.CreationDate,2024-08-11T09:10:39+02:00*%
%TF.ProjectId,ir-blaster,69722d62-6c61-4737-9465-722e6b696361,rev?*%
%TF.SameCoordinates,Original*%
%TF.FileFunction,Legend,Top*%
%TF.FilePolarity,Positive*%
%FSLAX46Y46*%
G04 Gerber Fmt 4.6, Leading zero omitted, Abs format (unit mm)*
G04 Created by KiCad (PCBNEW 8.0.2) date 2024-08-11 09:10:39*
%MOMM*%
%LPD*%
G01*
G04 APERTURE LIST*
G04 Aperture macros list*
%AMRoundRect*
0 Rectangle with rounded corners*
0 $1 Rounding radius*
0 $2 $3 $4 $5 $6 $7 $8 $9 X,Y pos of 4 corners*
0 Add a 4 corners polygon primitive as box body*
4,1,4,$2,$3,$4,$5,$6,$7,$8,$9,$2,$3,0*
0 Add four circle primitives for the rounded corners*
1,1,$1+$1,$2,$3*
1,1,$1+$1,$4,$5*
1,1,$1+$1,$6,$7*
1,1,$1+$1,$8,$9*
0 Add four rect primitives between the rounded corners*
20,1,$1+$1,$2,$3,$4,$5,0*
20,1,$1+$1,$4,$5,$6,$7,0*
20,1,$1+$1,$6,$7,$8,$9,0*
20,1,$1+$1,$8,$9,$2,$3,0*%
%AMRotRect*
0 Rectangle, with rotation*
0 The origin of the aperture is its center*
0 $1 length*
0 $2 width*
0 $3 Rotation angle, in degrees counterclockwise*
0 Add horizontal line*
21,1,$1,$2,0,0,$3*%
G04 Aperture macros list end*
%ADD10C,0.150000*%
%ADD11C,0.127000*%
%ADD12C,0.120000*%
%ADD13C,3.025000*%
%ADD14C,1.904000*%
%ADD15RoundRect,0.250000X0.350000X0.450000X-0.350000X0.450000X-0.350000X-0.450000X0.350000X-0.450000X0*%
%ADD16R,1.700000X1.700000*%
%ADD17O,1.700000X1.700000*%
%ADD18RoundRect,0.150000X-0.587500X-0.150000X0.587500X-0.150000X0.587500X0.150000X-0.587500X0.150000X0*%
%ADD19R,1.800000X1.800000*%
%ADD20C,1.800000*%
%ADD21RoundRect,0.250000X-0.337500X-0.475000X0.337500X-0.475000X0.337500X0.475000X-0.337500X0.475000X0*%
%ADD22RoundRect,0.250000X0.450000X-0.350000X0.450000X0.350000X-0.450000X0.350000X-0.450000X-0.350000X0*%
%ADD23RotRect,1.800000X1.800000X135.000000*%
%ADD24RoundRect,0.250000X-0.475000X0.337500X-0.475000X-0.337500X0.475000X-0.337500X0.475000X0.337500X0*%
%ADD25RoundRect,0.250000X0.475000X-0.337500X0.475000X0.337500X-0.475000X0.337500X-0.475000X-0.337500X0*%
%ADD26RoundRect,0.250000X0.337500X0.475000X-0.337500X0.475000X-0.337500X-0.475000X0.337500X-0.475000X0*%
%ADD27RoundRect,0.250000X-0.450000X0.350000X-0.450000X-0.350000X0.450000X-0.350000X0.450000X0.350000X0*%
%ADD28RotRect,1.800000X1.800000X45.000000*%
G04 APERTURE END LIST*
D10*
X53274819Y-35871904D02*
X54084342Y-35871904D01*
X54084342Y-35871904D02*
X54179580Y-35824285D01*
X54179580Y-35824285D02*
X54227200Y-35776666D01*
X54227200Y-35776666D02*
X54274819Y-35681428D01*
X54274819Y-35681428D02*
X54274819Y-35490952D01*
X54274819Y-35490952D02*
X54227200Y-35395714D01*
X54227200Y-35395714D02*
X54179580Y-35348095D01*
X54179580Y-35348095D02*
X54084342Y-35300476D01*
X54084342Y-35300476D02*
X53274819Y-35300476D01*
X54274819Y-34300476D02*
X54274819Y-34871904D01*
X54274819Y-34586190D02*
X53274819Y-34586190D01*
X53274819Y-34586190D02*
X53417676Y-34681428D01*
X53417676Y-34681428D02*
X53512914Y-34776666D01*
X53512914Y-34776666D02*
X53560533Y-34871904D01*
X69113333Y-45374819D02*
X68780000Y-44898628D01*
X68541905Y-45374819D02*
X68541905Y-44374819D01*
X68541905Y-44374819D02*
X68922857Y-44374819D01*
X68922857Y-44374819D02*
X69018095Y-44422438D01*
X69018095Y-44422438D02*
X69065714Y-44470057D01*
X69065714Y-44470057D02*
X69113333Y-44565295D01*
X69113333Y-44565295D02*
X69113333Y-44708152D01*
X69113333Y-44708152D02*
X69065714Y-44803390D01*
X69065714Y-44803390D02*
X69018095Y-44851009D01*
X69018095Y-44851009D02*
X68922857Y-44898628D01*
X68922857Y-44898628D02*
X68541905Y-44898628D01*
X69446667Y-44374819D02*
X70113333Y-44374819D01*
X70113333Y-44374819D02*
X69684762Y-45374819D01*
X79711666Y-36189819D02*
X79711666Y-36904104D01*
X79711666Y-36904104D02*
X79664047Y-37046961D01*
X79664047Y-37046961D02*
X79568809Y-37142200D01*
X79568809Y-37142200D02*
X79425952Y-37189819D01*
X79425952Y-37189819D02*
X79330714Y-37189819D01*
X80140238Y-36285057D02*
X80187857Y-36237438D01*
X80187857Y-36237438D02*
X80283095Y-36189819D01*
X80283095Y-36189819D02*
X80521190Y-36189819D01*
X80521190Y-36189819D02*
X80616428Y-36237438D01*
X80616428Y-36237438D02*
X80664047Y-36285057D01*
X80664047Y-36285057D02*
X80711666Y-36380295D01*
X80711666Y-36380295D02*
X80711666Y-36475533D01*
X80711666Y-36475533D02*
X80664047Y-36618390D01*
X80664047Y-36618390D02*
X80092619Y-37189819D01*
X80092619Y-37189819D02*
X80711666Y-37189819D01*
X66084761Y-41870057D02*
X65989523Y-41822438D01*
X65989523Y-41822438D02*
X65894285Y-41727200D01*
X65894285Y-41727200D02*
X65751428Y-41584342D01*
X65751428Y-41584342D02*
X65656190Y-41536723D01*
X65656190Y-41536723D02*
X65560952Y-41536723D01*
X65608571Y-41774819D02*
X65513333Y-41727200D01*
X65513333Y-41727200D02*
X65418095Y-41631961D01*
X65418095Y-41631961D02*
X65370476Y-41441485D01*
X65370476Y-41441485D02*
X65370476Y-41108152D01*
X65370476Y-41108152D02*
X65418095Y-40917676D01*
X65418095Y-40917676D02*
X65513333Y-40822438D01*
X65513333Y-40822438D02*
X65608571Y-40774819D01*
X65608571Y-40774819D02*
X65799047Y-40774819D01*
X65799047Y-40774819D02*
X65894285Y-40822438D01*
X65894285Y-40822438D02*
X65989523Y-40917676D01*
X65989523Y-40917676D02*
X66037142Y-41108152D01*
X66037142Y-41108152D02*
X66037142Y-41441485D01*
X66037142Y-41441485D02*
X65989523Y-41631961D01*
X65989523Y-41631961D02*
X65894285Y-41727200D01*
X65894285Y-41727200D02*
X65799047Y-41774819D01*
X65799047Y-41774819D02*
X65608571Y-41774819D01*
X66989523Y-41774819D02*
X66418095Y-41774819D01*
X66703809Y-41774819D02*
X66703809Y-40774819D01*
X66703809Y-40774819D02*
X66608571Y-40917676D01*
X66608571Y-40917676D02*
X66513333Y-41012914D01*
X66513333Y-41012914D02*
X66418095Y-41060533D01*
X82724819Y-43178094D02*
X81724819Y-43178094D01*
X81724819Y-43178094D02*
X81724819Y-42939999D01*
X81724819Y-42939999D02*
X81772438Y-42797142D01*
X81772438Y-42797142D02*
X81867676Y-42701904D01*
X81867676Y-42701904D02*
X81962914Y-42654285D01*
X81962914Y-42654285D02*
X82153390Y-42606666D01*
X82153390Y-42606666D02*
X82296247Y-42606666D01*
X82296247Y-42606666D02*
X82486723Y-42654285D01*
X82486723Y-42654285D02*
X82581961Y-42701904D01*
X82581961Y-42701904D02*
X82677200Y-42797142D01*
X82677200Y-42797142D02*
X82724819Y-42939999D01*
X82724819Y-42939999D02*
X82724819Y-43178094D01*
X81820057Y-42225713D02*
X81772438Y-42178094D01*
X81772438Y-42178094D02*
X81724819Y-42082856D01*
X81724819Y-42082856D02*
X81724819Y-41844761D01*
X81724819Y-41844761D02*
X81772438Y-41749523D01*
X81772438Y-41749523D02*
X81820057Y-41701904D01*
X81820057Y-41701904D02*
X81915295Y-41654285D01*
X81915295Y-41654285D02*
X82010533Y-41654285D01*
X82010533Y-41654285D02*
X82153390Y-41701904D01*
X82153390Y-41701904D02*
X82724819Y-42273332D01*
X82724819Y-42273332D02*
X82724819Y-41654285D01*
X69443333Y-38644819D02*
X69110000Y-38168628D01*
X68871905Y-38644819D02*
X68871905Y-37644819D01*
X68871905Y-37644819D02*
X69252857Y-37644819D01*
X69252857Y-37644819D02*
X69348095Y-37692438D01*
X69348095Y-37692438D02*
X69395714Y-37740057D01*
X69395714Y-37740057D02*
X69443333Y-37835295D01*
X69443333Y-37835295D02*
X69443333Y-37978152D01*
X69443333Y-37978152D02*
X69395714Y-38073390D01*
X69395714Y-38073390D02*
X69348095Y-38121009D01*
X69348095Y-38121009D02*
X69252857Y-38168628D01*
X69252857Y-38168628D02*
X68871905Y-38168628D01*
X70014762Y-38073390D02*
X69919524Y-38025771D01*
X69919524Y-38025771D02*
X69871905Y-37978152D01*
X69871905Y-37978152D02*
X69824286Y-37882914D01*
X69824286Y-37882914D02*
X69824286Y-37835295D01*
X69824286Y-37835295D02*
X69871905Y-37740057D01*
X69871905Y-37740057D02*
X69919524Y-37692438D01*
X69919524Y-37692438D02*
X70014762Y-37644819D01*
X70014762Y-37644819D02*
X70205238Y-37644819D01*
X70205238Y-37644819D02*
X70300476Y-37692438D01*
X70300476Y-37692438D02*
X70348095Y-37740057D01*
X70348095Y-37740057D02*
X70395714Y-37835295D01*
X70395714Y-37835295D02*
X70395714Y-37882914D01*
X70395714Y-37882914D02*
X70348095Y-37978152D01*
X70348095Y-37978152D02*
X70300476Y-38025771D01*
X70300476Y-38025771D02*
X70205238Y-38073390D01*
X70205238Y-38073390D02*
X70014762Y-38073390D01*
X70014762Y-38073390D02*
X69919524Y-38121009D01*
X69919524Y-38121009D02*
X69871905Y-38168628D01*
X69871905Y-38168628D02*
X69824286Y-38263866D01*
X69824286Y-38263866D02*
X69824286Y-38454342D01*
X69824286Y-38454342D02*
X69871905Y-38549580D01*
X69871905Y-38549580D02*
X69919524Y-38597200D01*
X69919524Y-38597200D02*
X70014762Y-38644819D01*
X70014762Y-38644819D02*
X70205238Y-38644819D01*
X70205238Y-38644819D02*
X70300476Y-38597200D01*
X70300476Y-38597200D02*
X70348095Y-38549580D01*
X70348095Y-38549580D02*
X70395714Y-38454342D01*
X70395714Y-38454342D02*
X70395714Y-38263866D01*
X70395714Y-38263866D02*
X70348095Y-38168628D01*
X70348095Y-38168628D02*
X70300476Y-38121009D01*
X70300476Y-38121009D02*
X70205238Y-38073390D01*
X84583333Y-35629580D02*
X84535714Y-35677200D01*
X84535714Y-35677200D02*
X84392857Y-35724819D01*
X84392857Y-35724819D02*
X84297619Y-35724819D01*
X84297619Y-35724819D02*
X84154762Y-35677200D01*
X84154762Y-35677200D02*
X84059524Y-35581961D01*
X84059524Y-35581961D02*
X84011905Y-35486723D01*
X84011905Y-35486723D02*
X83964286Y-35296247D01*
X83964286Y-35296247D02*
X83964286Y-35153390D01*
X83964286Y-35153390D02*
X84011905Y-34962914D01*
X84011905Y-34962914D02*
X84059524Y-34867676D01*
X84059524Y-34867676D02*
X84154762Y-34772438D01*
X84154762Y-34772438D02*
X84297619Y-34724819D01*
X84297619Y-34724819D02*
X84392857Y-34724819D01*
X84392857Y-34724819D02*
X84535714Y-34772438D01*
X84535714Y-34772438D02*
X84583333Y-34820057D01*
X84964286Y-34820057D02*
X85011905Y-34772438D01*
X85011905Y-34772438D02*
X85107143Y-34724819D01*
X85107143Y-34724819D02*
X85345238Y-34724819D01*
X85345238Y-34724819D02*
X85440476Y-34772438D01*
X85440476Y-34772438D02*
X85488095Y-34820057D01*
X85488095Y-34820057D02*
X85535714Y-34915295D01*
X85535714Y-34915295D02*
X85535714Y-35010533D01*
X85535714Y-35010533D02*
X85488095Y-35153390D01*
X85488095Y-35153390D02*
X84916667Y-35724819D01*
X84916667Y-35724819D02*
X85535714Y-35724819D01*
X65593333Y-47574819D02*
X65260000Y-47098628D01*
X65021905Y-47574819D02*
X65021905Y-46574819D01*
X65021905Y-46574819D02*
X65402857Y-46574819D01*
X65402857Y-46574819D02*
X65498095Y-46622438D01*
X65498095Y-46622438D02*
X65545714Y-46670057D01*
X65545714Y-46670057D02*
X65593333Y-46765295D01*
X65593333Y-46765295D02*
X65593333Y-46908152D01*
X65593333Y-46908152D02*
X65545714Y-47003390D01*
X65545714Y-47003390D02*
X65498095Y-47051009D01*
X65498095Y-47051009D02*
X65402857Y-47098628D01*
X65402857Y-47098628D02*
X65021905Y-47098628D01*
X65974286Y-46670057D02*
X66021905Y-46622438D01*
X66021905Y-46622438D02*
X66117143Y-46574819D01*
X66117143Y-46574819D02*
X66355238Y-46574819D01*
X66355238Y-46574819D02*
X66450476Y-46622438D01*
X66450476Y-46622438D02*
X66498095Y-46670057D01*
X66498095Y-46670057D02*
X66545714Y-46765295D01*
X66545714Y-46765295D02*
X66545714Y-46860533D01*
X66545714Y-46860533D02*
X66498095Y-47003390D01*
X66498095Y-47003390D02*
X65926667Y-47574819D01*
X65926667Y-47574819D02*
X66545714Y-47574819D01*
X87244819Y-39206666D02*
X86768628Y-39539999D01*
X87244819Y-39778094D02*
X86244819Y-39778094D01*
X86244819Y-39778094D02*
X86244819Y-39397142D01*
X86244819Y-39397142D02*
X86292438Y-39301904D01*
X86292438Y-39301904D02*
X86340057Y-39254285D01*
X86340057Y-39254285D02*
X86435295Y-39206666D01*
X86435295Y-39206666D02*
X86578152Y-39206666D01*
X86578152Y-39206666D02*
X86673390Y-39254285D01*
X86673390Y-39254285D02*
X86721009Y-39301904D01*
X86721009Y-39301904D02*
X86768628Y-39397142D01*
X86768628Y-39397142D02*
X86768628Y-39778094D01*
X86578152Y-38349523D02*
X87244819Y-38349523D01*
X86197200Y-38587618D02*
X86911485Y-38825713D01*
X86911485Y-38825713D02*
X86911485Y-38206666D01*
X62123333Y-41674819D02*
X61790000Y-41198628D01*
X61551905Y-41674819D02*
X61551905Y-40674819D01*
X61551905Y-40674819D02*
X61932857Y-40674819D01*
X61932857Y-40674819D02*
X62028095Y-40722438D01*
X62028095Y-40722438D02*
X62075714Y-40770057D01*
X62075714Y-40770057D02*
X62123333Y-40865295D01*
X62123333Y-40865295D02*
X62123333Y-41008152D01*
X62123333Y-41008152D02*
X62075714Y-41103390D01*
X62075714Y-41103390D02*
X62028095Y-41151009D01*
X62028095Y-41151009D02*
X61932857Y-41198628D01*
X61932857Y-41198628D02*
X61551905Y-41198628D01*
X63075714Y-41674819D02*
X62504286Y-41674819D01*
X62790000Y-41674819D02*
X62790000Y-40674819D01*
X62790000Y-40674819D02*
X62694762Y-40817676D01*
X62694762Y-40817676D02*
X62599524Y-40912914D01*
X62599524Y-40912914D02*
X62504286Y-40960533D01*
X78469693Y-32053517D02*
X77762587Y-31346410D01*
X77762587Y-31346410D02*
X77930945Y-31178051D01*
X77930945Y-31178051D02*
X78065632Y-31110708D01*
X78065632Y-31110708D02*
X78200319Y-31110708D01*
X78200319Y-31110708D02*
X78301335Y-31144380D01*
X78301335Y-31144380D02*
X78469693Y-31245395D01*
X78469693Y-31245395D02*
X78570709Y-31346410D01*
X78570709Y-31346410D02*
X78671724Y-31514769D01*
X78671724Y-31514769D02*
X78705396Y-31615784D01*
X78705396Y-31615784D02*
X78705396Y-31750471D01*
X78705396Y-31750471D02*
X78638052Y-31885158D01*
X78638052Y-31885158D02*
X78469693Y-32053517D01*
X79547189Y-30976021D02*
X79143128Y-31380082D01*
X79345159Y-31178051D02*
X78638052Y-30470945D01*
X78638052Y-30470945D02*
X78671724Y-30639303D01*
X78671724Y-30639303D02*
X78671724Y-30773990D01*
X78671724Y-30773990D02*
X78638052Y-30875006D01*
X85453333Y-50259580D02*
X85405714Y-50307200D01*
X85405714Y-50307200D02*
X85262857Y-50354819D01*
X85262857Y-50354819D02*
X85167619Y-50354819D01*
X85167619Y-50354819D02*
X85024762Y-50307200D01*
X85024762Y-50307200D02*
X84929524Y-50211961D01*
X84929524Y-50211961D02*
X84881905Y-50116723D01*
X84881905Y-50116723D02*
X84834286Y-49926247D01*
X84834286Y-49926247D02*
X84834286Y-49783390D01*
X84834286Y-49783390D02*
X84881905Y-49592914D01*
X84881905Y-49592914D02*
X84929524Y-49497676D01*
X84929524Y-49497676D02*
X85024762Y-49402438D01*
X85024762Y-49402438D02*
X85167619Y-49354819D01*
X85167619Y-49354819D02*
X85262857Y-49354819D01*
X85262857Y-49354819D02*
X85405714Y-49402438D01*
X85405714Y-49402438D02*
X85453333Y-49450057D01*
X85786667Y-49354819D02*
X86405714Y-49354819D01*
X86405714Y-49354819D02*
X86072381Y-49735771D01*
X86072381Y-49735771D02*
X86215238Y-49735771D01*
X86215238Y-49735771D02*
X86310476Y-49783390D01*
X86310476Y-49783390D02*
X86358095Y-49831009D01*
X86358095Y-49831009D02*
X86405714Y-49926247D01*
X86405714Y-49926247D02*
X86405714Y-50164342D01*
X86405714Y-50164342D02*
X86358095Y-50259580D01*
X86358095Y-50259580D02*
X86310476Y-50307200D01*
X86310476Y-50307200D02*
X86215238Y-50354819D01*
X86215238Y-50354819D02*
X85929524Y-50354819D01*
X85929524Y-50354819D02*
X85834286Y-50307200D01*
X85834286Y-50307200D02*
X85786667Y-50259580D01*
X82224819Y-47376666D02*
X81748628Y-47709999D01*
X82224819Y-47948094D02*
X81224819Y-47948094D01*
X81224819Y-47948094D02*
X81224819Y-47567142D01*
X81224819Y-47567142D02*
X81272438Y-47471904D01*
X81272438Y-47471904D02*
X81320057Y-47424285D01*
X81320057Y-47424285D02*
X81415295Y-47376666D01*
X81415295Y-47376666D02*
X81558152Y-47376666D01*
X81558152Y-47376666D02*
X81653390Y-47424285D01*
X81653390Y-47424285D02*
X81701009Y-47471904D01*
X81701009Y-47471904D02*
X81748628Y-47567142D01*
X81748628Y-47567142D02*
X81748628Y-47948094D01*
X81224819Y-46471904D02*
X81224819Y-46948094D01*
X81224819Y-46948094D02*
X81701009Y-46995713D01*
X81701009Y-46995713D02*
X81653390Y-46948094D01*
X81653390Y-46948094D02*
X81605771Y-46852856D01*
X81605771Y-46852856D02*
X81605771Y-46614761D01*
X81605771Y-46614761D02*
X81653390Y-46519523D01*
X81653390Y-46519523D02*
X81701009Y-46471904D01*
X81701009Y-46471904D02*
X81796247Y-46424285D01*
X81796247Y-46424285D02*
X82034342Y-46424285D01*
X82034342Y-46424285D02*
X82129580Y-46471904D01*
X82129580Y-46471904D02*
X82177200Y-46519523D01*
X82177200Y-46519523D02*
X82224819Y-46614761D01*
X82224819Y-46614761D02*
X82224819Y-46852856D01*
X82224819Y-46852856D02*
X82177200Y-46948094D01*
X82177200Y-46948094D02*
X82129580Y-46995713D01*
X71749581Y-39926666D02*
X71797201Y-39974285D01*
X71797201Y-39974285D02*
X71844820Y-40117142D01*
X71844820Y-40117142D02*
X71844820Y-40212380D01*
X71844820Y-40212380D02*
X71797201Y-40355237D01*
X71797201Y-40355237D02*
X71701962Y-40450475D01*
X71701962Y-40450475D02*
X71606724Y-40498094D01*
X71606724Y-40498094D02*
X71416248Y-40545713D01*
X71416248Y-40545713D02*
X71273391Y-40545713D01*
X71273391Y-40545713D02*
X71082915Y-40498094D01*
X71082915Y-40498094D02*
X70987677Y-40450475D01*
X70987677Y-40450475D02*
X70892439Y-40355237D01*
X70892439Y-40355237D02*
X70844820Y-40212380D01*
X70844820Y-40212380D02*
X70844820Y-40117142D01*
X70844820Y-40117142D02*
X70892439Y-39974285D01*
X70892439Y-39974285D02*
X70940058Y-39926666D01*
X71844820Y-38974285D02*
X71844820Y-39545713D01*
X71844820Y-39259999D02*
X70844820Y-39259999D01*
X70844820Y-39259999D02*
X70987677Y-39355237D01*
X70987677Y-39355237D02*
X71082915Y-39450475D01*
X71082915Y-39450475D02*
X71130534Y-39545713D01*
X69053333Y-42979580D02*
X69005714Y-43027200D01*
X69005714Y-43027200D02*
X68862857Y-43074819D01*
X68862857Y-43074819D02*
X68767619Y-43074819D01*
X68767619Y-43074819D02*
X68624762Y-43027200D01*
X68624762Y-43027200D02*
X68529524Y-42931961D01*
X68529524Y-42931961D02*
X68481905Y-42836723D01*
X68481905Y-42836723D02*
X68434286Y-42646247D01*
X68434286Y-42646247D02*
X68434286Y-42503390D01*
X68434286Y-42503390D02*
X68481905Y-42312914D01*
X68481905Y-42312914D02*
X68529524Y-42217676D01*
X68529524Y-42217676D02*
X68624762Y-42122438D01*
X68624762Y-42122438D02*
X68767619Y-42074819D01*
X68767619Y-42074819D02*
X68862857Y-42074819D01*
X68862857Y-42074819D02*
X69005714Y-42122438D01*
X69005714Y-42122438D02*
X69053333Y-42170057D01*
X69910476Y-42408152D02*
X69910476Y-43074819D01*
X69672381Y-42027200D02*
X69434286Y-42741485D01*
X69434286Y-42741485D02*
X70053333Y-42741485D01*
X75213333Y-46724819D02*
X74880000Y-46248628D01*
X74641905Y-46724819D02*
X74641905Y-45724819D01*
X74641905Y-45724819D02*
X75022857Y-45724819D01*
X75022857Y-45724819D02*
X75118095Y-45772438D01*
X75118095Y-45772438D02*
X75165714Y-45820057D01*
X75165714Y-45820057D02*
X75213333Y-45915295D01*
X75213333Y-45915295D02*
X75213333Y-46058152D01*
X75213333Y-46058152D02*
X75165714Y-46153390D01*
X75165714Y-46153390D02*
X75118095Y-46201009D01*
X75118095Y-46201009D02*
X75022857Y-46248628D01*
X75022857Y-46248628D02*
X74641905Y-46248628D01*
X76070476Y-45724819D02*
X75880000Y-45724819D01*
X75880000Y-45724819D02*
X75784762Y-45772438D01*
X75784762Y-45772438D02*
X75737143Y-45820057D01*
X75737143Y-45820057D02*
X75641905Y-45962914D01*
X75641905Y-45962914D02*
X75594286Y-46153390D01*
X75594286Y-46153390D02*
X75594286Y-46534342D01*
X75594286Y-46534342D02*
X75641905Y-46629580D01*
X75641905Y-46629580D02*
X75689524Y-46677200D01*
X75689524Y-46677200D02*
X75784762Y-46724819D01*
X75784762Y-46724819D02*
X75975238Y-46724819D01*
X75975238Y-46724819D02*
X76070476Y-46677200D01*
X76070476Y-46677200D02*
X76118095Y-46629580D01*
X76118095Y-46629580D02*
X76165714Y-46534342D01*
X76165714Y-46534342D02*
X76165714Y-46296247D01*
X76165714Y-46296247D02*
X76118095Y-46201009D01*
X76118095Y-46201009D02*
X76070476Y-46153390D01*
X76070476Y-46153390D02*
X75975238Y-46105771D01*
X75975238Y-46105771D02*
X75784762Y-46105771D01*
X75784762Y-46105771D02*
X75689524Y-46153390D01*
X75689524Y-46153390D02*
X75641905Y-46201009D01*
X75641905Y-46201009D02*
X75594286Y-46296247D01*
X60199819Y-38148333D02*
X60914104Y-38148333D01*
X60914104Y-38148333D02*
X61056961Y-38195952D01*
X61056961Y-38195952D02*
X61152200Y-38291190D01*
X61152200Y-38291190D02*
X61199819Y-38434047D01*
X61199819Y-38434047D02*
X61199819Y-38529285D01*
X61199819Y-37148333D02*
X61199819Y-37719761D01*
X61199819Y-37434047D02*
X60199819Y-37434047D01*
X60199819Y-37434047D02*
X60342676Y-37529285D01*
X60342676Y-37529285D02*
X60437914Y-37624523D01*
X60437914Y-37624523D02*
X60485533Y-37719761D01*
X76134819Y-36726666D02*
X75658628Y-37059999D01*
X76134819Y-37298094D02*
X75134819Y-37298094D01*
X75134819Y-37298094D02*
X75134819Y-36917142D01*
X75134819Y-36917142D02*
X75182438Y-36821904D01*
X75182438Y-36821904D02*
X75230057Y-36774285D01*
X75230057Y-36774285D02*
X75325295Y-36726666D01*
X75325295Y-36726666D02*
X75468152Y-36726666D01*
X75468152Y-36726666D02*
X75563390Y-36774285D01*
X75563390Y-36774285D02*
X75611009Y-36821904D01*
X75611009Y-36821904D02*
X75658628Y-36917142D01*
X75658628Y-36917142D02*
X75658628Y-37298094D01*
X75134819Y-36393332D02*
X75134819Y-35774285D01*
X75134819Y-35774285D02*
X75515771Y-36107618D01*
X75515771Y-36107618D02*
X75515771Y-35964761D01*
X75515771Y-35964761D02*
X75563390Y-35869523D01*
X75563390Y-35869523D02*
X75611009Y-35821904D01*
X75611009Y-35821904D02*
X75706247Y-35774285D01*
X75706247Y-35774285D02*
X75944342Y-35774285D01*
X75944342Y-35774285D02*
X76039580Y-35821904D01*
X76039580Y-35821904D02*
X76087200Y-35869523D01*
X76087200Y-35869523D02*
X76134819Y-35964761D01*
X76134819Y-35964761D02*
X76134819Y-36250475D01*
X76134819Y-36250475D02*
X76087200Y-36345713D01*
X76087200Y-36345713D02*
X76039580Y-36393332D01*
X79023122Y-50164017D02*
X78316016Y-49456910D01*
X78316016Y-49456910D02*
X78484374Y-49288551D01*
X78484374Y-49288551D02*
X78619061Y-49221208D01*
X78619061Y-49221208D02*
X78753748Y-49221208D01*
X78753748Y-49221208D02*
X78854764Y-49254880D01*
X78854764Y-49254880D02*
X79023122Y-49355895D01*
X79023122Y-49355895D02*
X79124138Y-49456910D01*
X79124138Y-49456910D02*
X79225153Y-49625269D01*
X79225153Y-49625269D02*
X79258825Y-49726284D01*
X79258825Y-49726284D02*
X79258825Y-49860971D01*
X79258825Y-49860971D02*
X79191481Y-49995658D01*
X79191481Y-49995658D02*
X79023122Y-50164017D01*
X78955779Y-48817147D02*
X79393512Y-48379414D01*
X79393512Y-48379414D02*
X79427183Y-48884490D01*
X79427183Y-48884490D02*
X79528199Y-48783475D01*
X79528199Y-48783475D02*
X79629214Y-48749803D01*
X79629214Y-48749803D02*
X79696557Y-48749803D01*
X79696557Y-48749803D02*
X79797573Y-48783475D01*
X79797573Y-48783475D02*
X79965931Y-48951834D01*
X79965931Y-48951834D02*
X79999603Y-49052849D01*
X79999603Y-49052849D02*
X79999603Y-49120193D01*
X79999603Y-49120193D02*
X79965931Y-49221208D01*
X79965931Y-49221208D02*
X79763901Y-49423238D01*
X79763901Y-49423238D02*
X79662886Y-49456910D01*
X79662886Y-49456910D02*
X79595542Y-49456910D01*
D11*
%TO.C,U1*%
X77200000Y-51710000D02*
X54500000Y-51710000D01*
X53200000Y-47210000D02*
X54500000Y-47210000D01*
X54500000Y-47210000D02*
X54500000Y-51710000D01*
X53200000Y-38210000D02*
X53200000Y-47210000D01*
X53200000Y-38210000D02*
X54500000Y-38210000D01*
X54500000Y-33710000D02*
X54500000Y-38210000D01*
X77200000Y-33710000D02*
X77200000Y-51710000D01*
X77200000Y-33710000D02*
X54500000Y-33710000D01*
D12*
%TO.C,R7*%
X72507064Y-44195000D02*
X72052936Y-44195000D01*
X72507064Y-45665000D02*
X72052936Y-45665000D01*
%TO.C,J2*%
X78715000Y-37735000D02*
X80045000Y-37735000D01*
X78715000Y-39065000D02*
X78715000Y-37735000D01*
X78715000Y-40335000D02*
X78715000Y-45475000D01*
X78715000Y-40335000D02*
X81375000Y-40335000D01*
X78715000Y-45475000D02*
X81375000Y-45475000D01*
X81375000Y-40335000D02*
X81375000Y-45475000D01*
%TO.C,Q1*%
X65770000Y-42290000D02*
X65120000Y-42290000D01*
X65770000Y-42290000D02*
X66420000Y-42290000D01*
X65770000Y-45410000D02*
X65120000Y-45410000D01*
X65770000Y-45410000D02*
X66420000Y-45410000D01*
X64607500Y-42340000D02*
X64367500Y-42010000D01*
X64847500Y-42010000D01*
X64607500Y-42340000D01*
G36*
X64607500Y-42340000D02*
G01*
X64367500Y-42010000D01*
X64847500Y-42010000D01*
X64607500Y-42340000D01*
G37*
%TO.C,D2*%
X83724000Y-44145000D02*
X83880000Y-44145000D01*
X86040000Y-44145000D02*
X86196000Y-44145000D01*
X83724484Y-44145000D02*
G75*
G02*
X83881392Y-40912665I1235516J1560000D01*
G01*
X83880000Y-43625961D02*
G75*
G02*
X83880163Y-41543870I1080000J1040961D01*
G01*
X86038608Y-40912665D02*
G75*
G02*
X86195516Y-44145000I-1078608J-1672335D01*
G01*
X86039837Y-41543870D02*
G75*
G02*
X86040000Y-43625961I-1079837J-1041130D01*
G01*
%TO.C,R8*%
X66857064Y-37385000D02*
X66402936Y-37385000D01*
X66857064Y-38855000D02*
X66402936Y-38855000D01*
%TO.C,C2*%
X84548748Y-36165000D02*
X85071252Y-36165000D01*
X84548748Y-37635000D02*
X85071252Y-37635000D01*
%TO.C,R2*%
X63157064Y-46335000D02*
X62702936Y-46335000D01*
X63157064Y-47805000D02*
X62702936Y-47805000D01*
%TO.C,R4*%
X84417064Y-38205000D02*
X83962936Y-38205000D01*
X84417064Y-39675000D02*
X83962936Y-39675000D01*
%TO.C,R1*%
X61435000Y-44027064D02*
X61435000Y-43572936D01*
X62905000Y-44027064D02*
X62905000Y-43572936D01*
%TO.C,D1*%
X81152638Y-35670606D02*
X81262947Y-35560297D01*
X82790297Y-34032947D02*
X82900606Y-33922638D01*
X80503707Y-31748325D02*
G75*
G02*
X82900263Y-33922980I419828J-1945210D01*
G01*
X80895931Y-35193281D02*
G75*
G02*
X79423785Y-33720905I27604J1499746D01*
G01*
X80950905Y-32193785D02*
G75*
G02*
X82423281Y-33665931I-27370J-1499750D01*
G01*
X81152980Y-35670264D02*
G75*
G02*
X78978324Y-33273707I-229445J1976729D01*
G01*
%TO.C,C3*%
X84895000Y-46996248D02*
X84895000Y-47518752D01*
X86365000Y-46996248D02*
X86365000Y-47518752D01*
%TO.C,R5*%
X82765000Y-47527064D02*
X82765000Y-47072936D01*
X84235000Y-47527064D02*
X84235000Y-47072936D01*
%TO.C,C1*%
X72335000Y-40021253D02*
X72335000Y-39498747D01*
X73805000Y-40021253D02*
X73805000Y-39498747D01*
%TO.C,C4*%
X72481252Y-42055000D02*
X71958748Y-42055000D01*
X72481252Y-43525000D02*
X71958748Y-43525000D01*
%TO.C,R6*%
X74605000Y-43402936D02*
X74605000Y-43857064D01*
X76075000Y-43402936D02*
X76075000Y-43857064D01*
%TO.C,J1*%
X54545000Y-36485000D02*
X54545000Y-39145000D01*
X57145000Y-36485000D02*
X54545000Y-36485000D01*
X57145000Y-36485000D02*
X57145000Y-39145000D01*
X57145000Y-39145000D02*
X54545000Y-39145000D01*
X58415000Y-36485000D02*
X59745000Y-36485000D01*
X59745000Y-36485000D02*
X59745000Y-37815000D01*
%TO.C,R3*%
X74575000Y-39482936D02*
X74575000Y-39937064D01*
X76045000Y-39482936D02*
X76045000Y-39937064D01*
%TO.C,D3*%
X79339394Y-51642639D02*
X79449702Y-51752948D01*
X80977053Y-53280298D02*
X81087362Y-53390607D01*
X79339736Y-51642982D02*
G75*
G02*
X81736293Y-49468325I1976729J229446D01*
G01*
X79816718Y-51385931D02*
G75*
G02*
X81289095Y-49913785I1499747J-27605D01*
G01*
X82816215Y-51440906D02*
G75*
G02*
X81344069Y-52913282I-1499750J27370D01*
G01*
X83261675Y-50993708D02*
G75*
G02*
X81087020Y-53390264I-1945210J-419828D01*
G01*
%TD*%
%LPC*%
D13*
X59282500Y-42980000D02*
G75*
G02*
X56257500Y-42980000I-1512500J0D01*
G01*
X56257500Y-42980000D02*
G75*
G02*
X59282500Y-42980000I1512500J0D01*
G01*
D14*
%TO.C,U1*%
X73730000Y-35090000D03*
X71190000Y-35090000D03*
X68650000Y-35090000D03*
X66110000Y-35090000D03*
X61030000Y-35090000D03*
X63570000Y-35090000D03*
X55950000Y-50330000D03*
X55950000Y-35090000D03*
X58490000Y-50330000D03*
X61030000Y-50330000D03*
X63570000Y-50330000D03*
X66110000Y-50330000D03*
X68650000Y-50330000D03*
X71190000Y-50330000D03*
X73730000Y-50330000D03*
X58490000Y-35090000D03*
%TD*%
D15*
%TO.C,R7*%
X73280000Y-44930000D03*
X71280000Y-44930000D03*
%TD*%
D16*
%TO.C,J2*%
X80045000Y-39065000D03*
D17*
X80045000Y-41605000D03*
X80045000Y-44145000D03*
%TD*%
D18*
%TO.C,Q1*%
X64832500Y-42900000D03*
X64832500Y-44800000D03*
X66707500Y-43850000D03*
%TD*%
D19*
%TO.C,D2*%
X84960000Y-43855000D03*
D20*
X84960000Y-41315000D03*
%TD*%
D15*
%TO.C,R8*%
X67630000Y-38120000D03*
X65630000Y-38120000D03*
%TD*%
D21*
%TO.C,C2*%
X83772500Y-36900000D03*
X85847500Y-36900000D03*
%TD*%
D15*
%TO.C,R2*%
X63930000Y-47070000D03*
X61930000Y-47070000D03*
%TD*%
%TO.C,R4*%
X85190000Y-38940000D03*
X83190000Y-38940000D03*
%TD*%
D22*
%TO.C,R1*%
X62170000Y-44800000D03*
X62170000Y-42800000D03*
%TD*%
D23*
%TO.C,D1*%
X81821561Y-34591561D03*
D20*
X80025510Y-32795510D03*
%TD*%
D24*
%TO.C,C3*%
X85630000Y-46220000D03*
X85630000Y-48295000D03*
%TD*%
D22*
%TO.C,R5*%
X83500000Y-48300000D03*
X83500000Y-46300000D03*
%TD*%
D25*
%TO.C,C1*%
X73070000Y-40797500D03*
X73070000Y-38722500D03*
%TD*%
D26*
%TO.C,C4*%
X73257500Y-42790000D03*
X71182500Y-42790000D03*
%TD*%
D27*
%TO.C,R6*%
X75340000Y-42630000D03*
X75340000Y-44630000D03*
%TD*%
D16*
%TO.C,J1*%
X58415000Y-37815000D03*
D17*
X55875000Y-37815000D03*
%TD*%
D27*
%TO.C,R3*%
X75310000Y-38710000D03*
X75310000Y-40710000D03*
%TD*%
D28*
%TO.C,D3*%
X80418439Y-52311562D03*
D20*
X82214490Y-50515511D03*
%TD*%
%LPD*%
M02*
