%TF.GenerationSoftware,KiCad,Pcbnew,8.0.2*%
%TF.CreationDate,2024-08-11T09:10:39+02:00*%
%TF.ProjectId,ir-blaster,69722d62-6c61-4737-9465-722e6b696361,rev?*%
%TF.SameCoordinates,Original*%
%TF.FileFunction,Soldermask,Top*%
%TF.FilePolarity,Negative*%
%FSLAX46Y46*%
G04 Gerber Fmt 4.6, Leading zero omitted, Abs format (unit mm)*
G04 Created by KiCad (PCBNEW 8.0.2) date 2024-08-11 09:10:39*
%MOMM*%
%LPD*%
G01*
G04 APERTURE LIST*
G04 Aperture macros list*
%AMRoundRect*
0 Rectangle with rounded corners*
0 $1 Rounding radius*
0 $2 $3 $4 $5 $6 $7 $8 $9 X,Y pos of 4 corners*
0 Add a 4 corners polygon primitive as box body*
4,1,4,$2,$3,$4,$5,$6,$7,$8,$9,$2,$3,0*
0 Add four circle primitives for the rounded corners*
1,1,$1+$1,$2,$3*
1,1,$1+$1,$4,$5*
1,1,$1+$1,$6,$7*
1,1,$1+$1,$8,$9*
0 Add four rect primitives between the rounded corners*
20,1,$1+$1,$2,$3,$4,$5,0*
20,1,$1+$1,$4,$5,$6,$7,0*
20,1,$1+$1,$6,$7,$8,$9,0*
20,1,$1+$1,$8,$9,$2,$3,0*%
%AMRotRect*
0 Rectangle, with rotation*
0 The origin of the aperture is its center*
0 $1 length*
0 $2 width*
0 $3 Rotation angle, in degrees counterclockwise*
0 Add horizontal line*
21,1,$1,$2,0,0,$3*%
G04 Aperture macros list end*
%ADD10C,3.025000*%
%ADD11C,1.904000*%
%ADD12RoundRect,0.250000X0.350000X0.450000X-0.350000X0.450000X-0.350000X-0.450000X0.350000X-0.450000X0*%
%ADD13R,1.700000X1.700000*%
%ADD14O,1.700000X1.700000*%
%ADD15RoundRect,0.150000X-0.587500X-0.150000X0.587500X-0.150000X0.587500X0.150000X-0.587500X0.150000X0*%
%ADD16R,1.800000X1.800000*%
%ADD17C,1.800000*%
%ADD18RoundRect,0.250000X-0.337500X-0.475000X0.337500X-0.475000X0.337500X0.475000X-0.337500X0.475000X0*%
%ADD19RoundRect,0.250000X0.450000X-0.350000X0.450000X0.350000X-0.450000X0.350000X-0.450000X-0.350000X0*%
%ADD20RotRect,1.800000X1.800000X135.000000*%
%ADD21RoundRect,0.250000X-0.475000X0.337500X-0.475000X-0.337500X0.475000X-0.337500X0.475000X0.337500X0*%
%ADD22RoundRect,0.250000X0.475000X-0.337500X0.475000X0.337500X-0.475000X0.337500X-0.475000X-0.337500X0*%
%ADD23RoundRect,0.250000X0.337500X0.475000X-0.337500X0.475000X-0.337500X-0.475000X0.337500X-0.475000X0*%
%ADD24RoundRect,0.250000X-0.450000X0.350000X-0.450000X-0.350000X0.450000X-0.350000X0.450000X0.350000X0*%
%ADD25RotRect,1.800000X1.800000X45.000000*%
G04 APERTURE END LIST*
D10*
X59282500Y-42980000D02*
G75*
G02*
X56257500Y-42980000I-1512500J0D01*
G01*
X56257500Y-42980000D02*
G75*
G02*
X59282500Y-42980000I1512500J0D01*
G01*
D11*
%TO.C,U1*%
X73730000Y-35090000D03*
X71190000Y-35090000D03*
X68650000Y-35090000D03*
X66110000Y-35090000D03*
X61030000Y-35090000D03*
X63570000Y-35090000D03*
X55950000Y-50330000D03*
X55950000Y-35090000D03*
X58490000Y-50330000D03*
X61030000Y-50330000D03*
X63570000Y-50330000D03*
X66110000Y-50330000D03*
X68650000Y-50330000D03*
X71190000Y-50330000D03*
X73730000Y-50330000D03*
X58490000Y-35090000D03*
%TD*%
D12*
%TO.C,R7*%
X73280000Y-44930000D03*
X71280000Y-44930000D03*
%TD*%
D13*
%TO.C,J2*%
X80045000Y-39065000D03*
D14*
X80045000Y-41605000D03*
X80045000Y-44145000D03*
%TD*%
D15*
%TO.C,Q1*%
X64832500Y-42900000D03*
X64832500Y-44800000D03*
X66707500Y-43850000D03*
%TD*%
D16*
%TO.C,D2*%
X84960000Y-43855000D03*
D17*
X84960000Y-41315000D03*
%TD*%
D12*
%TO.C,R8*%
X67630000Y-38120000D03*
X65630000Y-38120000D03*
%TD*%
D18*
%TO.C,C2*%
X83772500Y-36900000D03*
X85847500Y-36900000D03*
%TD*%
D12*
%TO.C,R2*%
X63930000Y-47070000D03*
X61930000Y-47070000D03*
%TD*%
%TO.C,R4*%
X85190000Y-38940000D03*
X83190000Y-38940000D03*
%TD*%
D19*
%TO.C,R1*%
X62170000Y-44800000D03*
X62170000Y-42800000D03*
%TD*%
D20*
%TO.C,D1*%
X81821561Y-34591561D03*
D17*
X80025510Y-32795510D03*
%TD*%
D21*
%TO.C,C3*%
X85630000Y-46220000D03*
X85630000Y-48295000D03*
%TD*%
D19*
%TO.C,R5*%
X83500000Y-48300000D03*
X83500000Y-46300000D03*
%TD*%
D22*
%TO.C,C1*%
X73070000Y-40797500D03*
X73070000Y-38722500D03*
%TD*%
D23*
%TO.C,C4*%
X73257500Y-42790000D03*
X71182500Y-42790000D03*
%TD*%
D24*
%TO.C,R6*%
X75340000Y-42630000D03*
X75340000Y-44630000D03*
%TD*%
D13*
%TO.C,J1*%
X58415000Y-37815000D03*
D14*
X55875000Y-37815000D03*
%TD*%
D24*
%TO.C,R3*%
X75310000Y-38710000D03*
X75310000Y-40710000D03*
%TD*%
D25*
%TO.C,D3*%
X80418439Y-52311562D03*
D17*
X82214490Y-50515511D03*
%TD*%
M02*
