%TF.GenerationSoftware,KiCad,Pcbnew,8.0.2*%
%TF.CreationDate,2024-08-10T10:20:15+02:00*%
%TF.ProjectId,ir-blaster,69722d62-6c61-4737-9465-722e6b696361,rev?*%
%TF.SameCoordinates,Original*%
%TF.FileFunction,Copper,L1,Top*%
%TF.FilePolarity,Positive*%
%FSLAX46Y46*%
G04 Gerber Fmt 4.6, Leading zero omitted, Abs format (unit mm)*
G04 Created by KiCad (PCBNEW 8.0.2) date 2024-08-10 10:20:15*
%MOMM*%
%LPD*%
G01*
G04 APERTURE LIST*
G04 Aperture macros list*
%AMRoundRect*
0 Rectangle with rounded corners*
0 $1 Rounding radius*
0 $2 $3 $4 $5 $6 $7 $8 $9 X,Y pos of 4 corners*
0 Add a 4 corners polygon primitive as box body*
4,1,4,$2,$3,$4,$5,$6,$7,$8,$9,$2,$3,0*
0 Add four circle primitives for the rounded corners*
1,1,$1+$1,$2,$3*
1,1,$1+$1,$4,$5*
1,1,$1+$1,$6,$7*
1,1,$1+$1,$8,$9*
0 Add four rect primitives between the rounded corners*
20,1,$1+$1,$2,$3,$4,$5,0*
20,1,$1+$1,$4,$5,$6,$7,0*
20,1,$1+$1,$6,$7,$8,$9,0*
20,1,$1+$1,$8,$9,$2,$3,0*%
%AMRotRect*
0 Rectangle, with rotation*
0 The origin of the aperture is its center*
0 $1 length*
0 $2 width*
0 $3 Rotation angle, in degrees counterclockwise*
0 Add horizontal line*
21,1,$1,$2,0,0,$3*%
G04 Aperture macros list end*
%TA.AperFunction,SMDPad,CuDef*%
%ADD10RoundRect,0.250000X0.350000X0.450000X-0.350000X0.450000X-0.350000X-0.450000X0.350000X-0.450000X0*%
%TD*%
%TA.AperFunction,ComponentPad*%
%ADD11R,1.700000X1.700000*%
%TD*%
%TA.AperFunction,ComponentPad*%
%ADD12O,1.700000X1.700000*%
%TD*%
%TA.AperFunction,SMDPad,CuDef*%
%ADD13RoundRect,0.150000X-0.587500X-0.150000X0.587500X-0.150000X0.587500X0.150000X-0.587500X0.150000X0*%
%TD*%
%TA.AperFunction,ComponentPad*%
%ADD14R,1.800000X1.800000*%
%TD*%
%TA.AperFunction,ComponentPad*%
%ADD15C,1.800000*%
%TD*%
%TA.AperFunction,SMDPad,CuDef*%
%ADD16RoundRect,0.250000X-0.337500X-0.475000X0.337500X-0.475000X0.337500X0.475000X-0.337500X0.475000X0*%
%TD*%
%TA.AperFunction,SMDPad,CuDef*%
%ADD17RoundRect,0.250000X0.450000X-0.350000X0.450000X0.350000X-0.450000X0.350000X-0.450000X-0.350000X0*%
%TD*%
%TA.AperFunction,ComponentPad*%
%ADD18RotRect,1.800000X1.800000X135.000000*%
%TD*%
%TA.AperFunction,ComponentPad*%
%ADD19C,1.905000*%
%TD*%
%TA.AperFunction,SMDPad,CuDef*%
%ADD20RoundRect,0.250000X-0.475000X0.337500X-0.475000X-0.337500X0.475000X-0.337500X0.475000X0.337500X0*%
%TD*%
%TA.AperFunction,SMDPad,CuDef*%
%ADD21RoundRect,0.250000X0.475000X-0.337500X0.475000X0.337500X-0.475000X0.337500X-0.475000X-0.337500X0*%
%TD*%
%TA.AperFunction,SMDPad,CuDef*%
%ADD22RoundRect,0.250000X0.337500X0.475000X-0.337500X0.475000X-0.337500X-0.475000X0.337500X-0.475000X0*%
%TD*%
%TA.AperFunction,SMDPad,CuDef*%
%ADD23RoundRect,0.250000X-0.450000X0.350000X-0.450000X-0.350000X0.450000X-0.350000X0.450000X0.350000X0*%
%TD*%
%TA.AperFunction,ComponentPad*%
%ADD24RotRect,1.800000X1.800000X45.000000*%
%TD*%
%TA.AperFunction,ViaPad*%
%ADD25C,0.500000*%
%TD*%
%TA.AperFunction,Conductor*%
%ADD26C,0.600000*%
%TD*%
G04 APERTURE END LIST*
D10*
%TO.P,R7,1*%
%TO.N,Net-(C4-Pad1)*%
X73280000Y-44930000D03*
%TO.P,R7,2*%
%TO.N,5V*%
X71280000Y-44930000D03*
%TD*%
D11*
%TO.P,J2,1,Pin_1*%
%TO.N,GND*%
X80045000Y-39065000D03*
D12*
%TO.P,J2,2,Pin_2*%
%TO.N,Net-(J2-Pin_2)*%
X80045000Y-41605000D03*
%TO.P,J2,3,Pin_3*%
%TO.N,3.3V*%
X80045000Y-44145000D03*
%TD*%
D13*
%TO.P,Q1,1,G*%
%TO.N,Net-(Q1-G)*%
X64832500Y-42900000D03*
%TO.P,Q1,2,S*%
%TO.N,GND*%
X64832500Y-44800000D03*
%TO.P,Q1,3,D*%
%TO.N,Net-(D1-K)*%
X66707500Y-43850000D03*
%TD*%
D14*
%TO.P,D2,1,K*%
%TO.N,Net-(D1-K)*%
X84960000Y-43855000D03*
D15*
%TO.P,D2,2,A*%
%TO.N,Net-(D2-A)*%
X84960000Y-41315000D03*
%TD*%
D10*
%TO.P,R8,1*%
%TO.N,Net-(J2-Pin_2)*%
X67630000Y-38120000D03*
%TO.P,R8,2*%
%TO.N,3.3V*%
X65630000Y-38120000D03*
%TD*%
D16*
%TO.P,C2,1*%
%TO.N,Net-(C1-Pad1)*%
X83772500Y-36900000D03*
%TO.P,C2,2*%
%TO.N,Net-(D2-A)*%
X85847500Y-36900000D03*
%TD*%
D10*
%TO.P,R2,1*%
%TO.N,GND*%
X63930000Y-47070000D03*
%TO.P,R2,2*%
%TO.N,/IR_OUT*%
X61930000Y-47070000D03*
%TD*%
%TO.P,R4,1*%
%TO.N,Net-(D2-A)*%
X85190000Y-38940000D03*
%TO.P,R4,2*%
%TO.N,Net-(C1-Pad1)*%
X83190000Y-38940000D03*
%TD*%
D17*
%TO.P,R1,1*%
%TO.N,/IR_OUT*%
X62170000Y-44800000D03*
%TO.P,R1,2*%
%TO.N,Net-(Q1-G)*%
X62170000Y-42800000D03*
%TD*%
D18*
%TO.P,D1,1,K*%
%TO.N,Net-(D1-K)*%
X82916051Y-33896051D03*
D15*
%TO.P,D1,2,A*%
%TO.N,Net-(D1-A)*%
X81120000Y-32100000D03*
%TD*%
D19*
%TO.P,U1,0,GPIO0*%
%TO.N,unconnected-(U1-GPIO0-Pad0)*%
X73730000Y-35090000D03*
%TO.P,U1,1,GPIO1*%
%TO.N,Net-(J2-Pin_2)*%
X71190000Y-35090000D03*
%TO.P,U1,2,GPIO2*%
%TO.N,unconnected-(U1-GPIO2-Pad2)*%
X68650000Y-35090000D03*
%TO.P,U1,3,GPIO3*%
%TO.N,unconnected-(U1-GPIO3-Pad3)*%
X66110000Y-35090000D03*
%TO.P,U1,3.3,3V3*%
%TO.N,3.3V*%
X61030000Y-35090000D03*
%TO.P,U1,4,GPIO4*%
%TO.N,unconnected-(U1-GPIO4-Pad4)*%
X63570000Y-35090000D03*
%TO.P,U1,5,GPIO5*%
%TO.N,unconnected-(U1-GPIO5-Pad5)*%
X55950000Y-50330000D03*
%TO.P,U1,5V,5V*%
%TO.N,5V*%
X55950000Y-35090000D03*
%TO.P,U1,6,GPIO6*%
%TO.N,unconnected-(U1-GPIO6-Pad6)*%
X58490000Y-50330000D03*
%TO.P,U1,7,GPIO7*%
%TO.N,/IR_OUT*%
X61030000Y-50330000D03*
%TO.P,U1,8,GPIO8*%
%TO.N,unconnected-(U1-GPIO8-Pad8)*%
X63570000Y-50330000D03*
%TO.P,U1,9,GPIO9*%
%TO.N,unconnected-(U1-GPIO9-Pad9)*%
X66110000Y-50330000D03*
%TO.P,U1,10,GPIO10*%
%TO.N,unconnected-(U1-GPIO10-Pad10)*%
X68650000Y-50330000D03*
%TO.P,U1,20,GPIO20*%
%TO.N,unconnected-(U1-GPIO20-Pad20)*%
X71190000Y-50330000D03*
%TO.P,U1,21,GPIO21*%
%TO.N,unconnected-(U1-GPIO21-Pad21)*%
X73730000Y-50330000D03*
%TO.P,U1,G,GND*%
%TO.N,GND*%
X58490000Y-35090000D03*
%TD*%
D20*
%TO.P,C3,1*%
%TO.N,Net-(C1-Pad1)*%
X85630000Y-46220000D03*
%TO.P,C3,2*%
%TO.N,Net-(D3-A)*%
X85630000Y-48295000D03*
%TD*%
D17*
%TO.P,R5,1*%
%TO.N,Net-(D3-A)*%
X83500000Y-48300000D03*
%TO.P,R5,2*%
%TO.N,Net-(C1-Pad1)*%
X83500000Y-46300000D03*
%TD*%
D21*
%TO.P,C1,1*%
%TO.N,Net-(C1-Pad1)*%
X73070000Y-40797500D03*
%TO.P,C1,2*%
%TO.N,Net-(D1-A)*%
X73070000Y-38722500D03*
%TD*%
D22*
%TO.P,C4,1*%
%TO.N,Net-(C4-Pad1)*%
X73257500Y-42790000D03*
%TO.P,C4,2*%
%TO.N,Net-(C1-Pad1)*%
X71182500Y-42790000D03*
%TD*%
D23*
%TO.P,R6,1*%
%TO.N,Net-(C1-Pad1)*%
X75340000Y-42630000D03*
%TO.P,R6,2*%
%TO.N,Net-(C4-Pad1)*%
X75340000Y-44630000D03*
%TD*%
D11*
%TO.P,J1,1,Pin_1*%
%TO.N,GND*%
X58415000Y-37815000D03*
D12*
%TO.P,J1,2,Pin_2*%
%TO.N,5V*%
X55875000Y-37815000D03*
%TD*%
D23*
%TO.P,R3,1*%
%TO.N,Net-(D1-A)*%
X75310000Y-38710000D03*
%TO.P,R3,2*%
%TO.N,Net-(C1-Pad1)*%
X75310000Y-40710000D03*
%TD*%
D24*
%TO.P,D3,1,K*%
%TO.N,Net-(D1-K)*%
X80418439Y-52311562D03*
D15*
%TO.P,D3,2,A*%
%TO.N,Net-(D3-A)*%
X82214490Y-50515511D03*
%TD*%
D25*
%TO.N,GND*%
X66150000Y-46020000D03*
%TD*%
D26*
%TO.N,Net-(D1-A)*%
X81015510Y-32535510D02*
X75310000Y-38241020D01*
X75310000Y-38241020D02*
X75310000Y-38710000D01*
%TO.N,Net-(D1-K)*%
X70950000Y-47940000D02*
X69470000Y-46460000D01*
X69470000Y-46460000D02*
X69470000Y-44620000D01*
X80418439Y-52311562D02*
X76046877Y-47940000D01*
X69470000Y-44620000D02*
X68700000Y-43850000D01*
X76046877Y-47940000D02*
X70950000Y-47940000D01*
X68700000Y-43850000D02*
X66707500Y-43850000D01*
%TO.N,Net-(D2-A)*%
X85190000Y-41085000D02*
X84960000Y-41315000D01*
X85847500Y-36900000D02*
X85847500Y-38282500D01*
X85190000Y-38940000D02*
X85190000Y-41085000D01*
X85847500Y-38282500D02*
X85190000Y-38940000D01*
%TO.N,Net-(D3-A)*%
X83500000Y-48300000D02*
X83500000Y-49230001D01*
X85625000Y-48300000D02*
X85630000Y-48295000D01*
X82214490Y-50515511D02*
X82744489Y-50515511D01*
X83500000Y-48300000D02*
X85625000Y-48300000D01*
X83500000Y-49230001D02*
X82214490Y-50515511D01*
%TO.N,5V*%
X71052792Y-44930000D02*
X66752792Y-40630000D01*
X60150000Y-39290000D02*
X56197919Y-39290000D01*
X60150000Y-39290000D02*
X57040000Y-39290000D01*
X55950000Y-39042081D02*
X55950000Y-37840000D01*
X66752792Y-40630000D02*
X61490000Y-40630000D01*
X56197919Y-39290000D02*
X55950000Y-39042081D01*
X55950000Y-38200000D02*
X55950000Y-35090000D01*
X61490000Y-40630000D02*
X60150000Y-39290000D01*
X57040000Y-39290000D02*
X55950000Y-38200000D01*
X71280000Y-44930000D02*
X71052792Y-44930000D01*
X71300990Y-44640000D02*
X71310000Y-44640000D01*
%TO.N,GND*%
X64520000Y-45112500D02*
X64832500Y-44800000D01*
X64520000Y-46200000D02*
X64520000Y-45112500D01*
X63930000Y-46790000D02*
X64520000Y-46200000D01*
X64930000Y-44800000D02*
X66150000Y-46020000D01*
X64832500Y-44800000D02*
X64930000Y-44800000D01*
X63930000Y-47070000D02*
X63930000Y-46790000D01*
%TO.N,3.3V*%
X65630000Y-38120000D02*
X64060000Y-38120000D01*
X64060000Y-38120000D02*
X61030000Y-35090000D01*
%TO.N,Net-(J2-Pin_2)*%
X67630000Y-38120000D02*
X68160000Y-38120000D01*
X68160000Y-38120000D02*
X71190000Y-35090000D01*
%TO.N,Net-(Q1-G)*%
X62270000Y-42900000D02*
X62170000Y-42800000D01*
X64832500Y-42900000D02*
X62270000Y-42900000D01*
%TO.N,/IR_OUT*%
X61130000Y-47870000D02*
X61130000Y-50230000D01*
X62170000Y-44800000D02*
X62170000Y-46830000D01*
X61130000Y-50230000D02*
X61030000Y-50330000D01*
X61930000Y-47070000D02*
X61130000Y-47870000D01*
X62170000Y-46830000D02*
X61930000Y-47070000D01*
%TO.N,Net-(C1-Pad1)*%
X78460000Y-46570000D02*
X81680000Y-46570000D01*
X81730000Y-46620000D02*
X82050000Y-46300000D01*
X75310000Y-40710000D02*
X75310000Y-42600000D01*
X77690000Y-42940000D02*
X77380000Y-42630000D01*
X83772500Y-36900000D02*
X83772500Y-38357500D01*
X75310000Y-42600000D02*
X75340000Y-42630000D01*
X83772500Y-38357500D02*
X83190000Y-38940000D01*
X82050000Y-46300000D02*
X83500000Y-46300000D01*
X83580000Y-46220000D02*
X83500000Y-46300000D01*
X85630000Y-46220000D02*
X83580000Y-46220000D01*
X71182500Y-42790000D02*
X71182500Y-41407500D01*
X83190000Y-45085000D02*
X83500000Y-45395000D01*
X83500000Y-45395000D02*
X83500000Y-46300000D01*
X77690000Y-45800000D02*
X77690000Y-42940000D01*
X78460000Y-46570000D02*
X77690000Y-45800000D01*
X71792500Y-40797500D02*
X73070000Y-40797500D01*
X83190000Y-45085000D02*
X83190000Y-38940000D01*
X81680000Y-46570000D02*
X81730000Y-46620000D01*
X77380000Y-42630000D02*
X75340000Y-42630000D01*
X71182500Y-41407500D02*
X71792500Y-40797500D01*
%TO.N,Net-(C4-Pad1)*%
X73257500Y-42790000D02*
X73257500Y-44907500D01*
X75330000Y-44640000D02*
X75340000Y-44630000D01*
X73257500Y-44907500D02*
X73280000Y-44930000D01*
X73310000Y-44640000D02*
X75330000Y-44640000D01*
%TD*%
%TA.AperFunction,Conductor*%
%TO.N,GND*%
G36*
X78502598Y-30279123D02*
G01*
X78510340Y-30279610D01*
X79096734Y-30335040D01*
X79104459Y-30336016D01*
X79686188Y-30428153D01*
X79693802Y-30429605D01*
X80268649Y-30558098D01*
X80276172Y-30560031D01*
X80471975Y-30616917D01*
X80530859Y-30654522D01*
X80560065Y-30717994D01*
X80550319Y-30787181D01*
X80504715Y-30840115D01*
X80496396Y-30845046D01*
X80351380Y-30923525D01*
X80351365Y-30923535D01*
X80168222Y-31066081D01*
X80168219Y-31066084D01*
X80011016Y-31236852D01*
X79884075Y-31431151D01*
X79790842Y-31643699D01*
X79733866Y-31868691D01*
X79733864Y-31868702D01*
X79714700Y-32099993D01*
X79714700Y-32100006D01*
X79733864Y-32331297D01*
X79733866Y-32331308D01*
X79788054Y-32545290D01*
X79785429Y-32615110D01*
X79755529Y-32663411D01*
X74840571Y-37578369D01*
X74779248Y-37611854D01*
X74765493Y-37614046D01*
X74707209Y-37620000D01*
X74707202Y-37620001D01*
X74540668Y-37675185D01*
X74540663Y-37675187D01*
X74391342Y-37767289D01*
X74277681Y-37880951D01*
X74216358Y-37914436D01*
X74146666Y-37909452D01*
X74102319Y-37880951D01*
X74013657Y-37792289D01*
X74013656Y-37792288D01*
X73920888Y-37735069D01*
X73864336Y-37700187D01*
X73864331Y-37700185D01*
X73830577Y-37689000D01*
X73697797Y-37645001D01*
X73697795Y-37645000D01*
X73595010Y-37634500D01*
X72544998Y-37634500D01*
X72544980Y-37634501D01*
X72442203Y-37645000D01*
X72442200Y-37645001D01*
X72275668Y-37700185D01*
X72275663Y-37700187D01*
X72126342Y-37792289D01*
X72002289Y-37916342D01*
X71910187Y-38065663D01*
X71910186Y-38065666D01*
X71855001Y-38232203D01*
X71855001Y-38232204D01*
X71855000Y-38232204D01*
X71844500Y-38334983D01*
X71844500Y-39110001D01*
X71844501Y-39110019D01*
X71855000Y-39212796D01*
X71855001Y-39212799D01*
X71910185Y-39379331D01*
X71910187Y-39379336D01*
X72002289Y-39528657D01*
X72126346Y-39652714D01*
X72129182Y-39654463D01*
X72130717Y-39656170D01*
X72132011Y-39657193D01*
X72131836Y-39657414D01*
X72175905Y-39706411D01*
X72187126Y-39775374D01*
X72159282Y-39839456D01*
X72129182Y-39865537D01*
X72126346Y-39867285D01*
X72126343Y-39867288D01*
X72032951Y-39960681D01*
X71971628Y-39994166D01*
X71945270Y-39997000D01*
X71713655Y-39997000D01*
X71559008Y-40027761D01*
X71558998Y-40027764D01*
X71413327Y-40088102D01*
X71413314Y-40088109D01*
X71282212Y-40175709D01*
X71250722Y-40207200D01*
X71170711Y-40287211D01*
X71170709Y-40287213D01*
X70654770Y-40803151D01*
X70560713Y-40897207D01*
X70560710Y-40897211D01*
X70473109Y-41028314D01*
X70473102Y-41028327D01*
X70412764Y-41173998D01*
X70412761Y-41174010D01*
X70382000Y-41328653D01*
X70382000Y-41665270D01*
X70362315Y-41732309D01*
X70345681Y-41752951D01*
X70252289Y-41846342D01*
X70160187Y-41995663D01*
X70160185Y-41995668D01*
X70156029Y-42008210D01*
X70105001Y-42162203D01*
X70105001Y-42162204D01*
X70105000Y-42162204D01*
X70094500Y-42264983D01*
X70094500Y-42540268D01*
X70074815Y-42607307D01*
X70022011Y-42653062D01*
X69952853Y-42663006D01*
X69889297Y-42633981D01*
X69882819Y-42627949D01*
X67263084Y-40008213D01*
X67263080Y-40008210D01*
X67131977Y-39920609D01*
X67131964Y-39920602D01*
X66986293Y-39860264D01*
X66986281Y-39860261D01*
X66831637Y-39829500D01*
X66831634Y-39829500D01*
X61872940Y-39829500D01*
X61805901Y-39809815D01*
X61785259Y-39793181D01*
X60660292Y-38668213D01*
X60660288Y-38668210D01*
X60529185Y-38580609D01*
X60529172Y-38580602D01*
X60383501Y-38520264D01*
X60383489Y-38520261D01*
X60228845Y-38489500D01*
X60228842Y-38489500D01*
X59889000Y-38489500D01*
X59821961Y-38469815D01*
X59776206Y-38417011D01*
X59765000Y-38365500D01*
X59765000Y-38065000D01*
X58848012Y-38065000D01*
X58880925Y-38007993D01*
X58915000Y-37880826D01*
X58915000Y-37749174D01*
X58880925Y-37622007D01*
X58848012Y-37565000D01*
X59765000Y-37565000D01*
X59765000Y-36917172D01*
X59764999Y-36917155D01*
X59758598Y-36857627D01*
X59758596Y-36857620D01*
X59708354Y-36722913D01*
X59708350Y-36722906D01*
X59622190Y-36607812D01*
X59622187Y-36607809D01*
X59507093Y-36521649D01*
X59507086Y-36521645D01*
X59382809Y-36475293D01*
X59326875Y-36433422D01*
X59302458Y-36367957D01*
X59317310Y-36299684D01*
X59325574Y-36289962D01*
X59326208Y-36279760D01*
X58726008Y-35679560D01*
X58790785Y-35652729D01*
X58894789Y-35583236D01*
X58983236Y-35494789D01*
X59052729Y-35390785D01*
X59079560Y-35326007D01*
X59679118Y-35925564D01*
X59700094Y-35923388D01*
X59709037Y-35915757D01*
X59778268Y-35906333D01*
X59841604Y-35935834D01*
X59863510Y-35961114D01*
X59879446Y-35985507D01*
X59921665Y-36031368D01*
X60042537Y-36162671D01*
X60232561Y-36310572D01*
X60444336Y-36425179D01*
X60560331Y-36465000D01*
X60672083Y-36503365D01*
X60672085Y-36503365D01*
X60672087Y-36503366D01*
X60909601Y-36543000D01*
X60909602Y-36543000D01*
X61150394Y-36543000D01*
X61150399Y-36543000D01*
X61259288Y-36524829D01*
X61328653Y-36533211D01*
X61367378Y-36559456D01*
X63438211Y-38630289D01*
X63494317Y-38686395D01*
X63549712Y-38741790D01*
X63680814Y-38829390D01*
X63680827Y-38829397D01*
X63825521Y-38889331D01*
X63825522Y-38889331D01*
X63825988Y-38889523D01*
X63826503Y-38889737D01*
X63888365Y-38902042D01*
X63981155Y-38920500D01*
X63981158Y-38920500D01*
X64138842Y-38920500D01*
X64545202Y-38920500D01*
X64612241Y-38940185D01*
X64650739Y-38979401D01*
X64687288Y-39038656D01*
X64811344Y-39162712D01*
X64960666Y-39254814D01*
X65127203Y-39309999D01*
X65229991Y-39320500D01*
X66030008Y-39320499D01*
X66030016Y-39320498D01*
X66030019Y-39320498D01*
X66086302Y-39314748D01*
X66132797Y-39309999D01*
X66299334Y-39254814D01*
X66448656Y-39162712D01*
X66542319Y-39069049D01*
X66603642Y-39035564D01*
X66673334Y-39040548D01*
X66717681Y-39069049D01*
X66811344Y-39162712D01*
X66960666Y-39254814D01*
X67127203Y-39309999D01*
X67229991Y-39320500D01*
X68030008Y-39320499D01*
X68030016Y-39320498D01*
X68030019Y-39320498D01*
X68086302Y-39314748D01*
X68132797Y-39309999D01*
X68299334Y-39254814D01*
X68448656Y-39162712D01*
X68572712Y-39038656D01*
X68664814Y-38889334D01*
X68719999Y-38722797D01*
X68720000Y-38722786D01*
X68720694Y-38719547D01*
X68721678Y-38717728D01*
X68722129Y-38716370D01*
X68722371Y-38716450D01*
X68753968Y-38658109D01*
X70852622Y-36559454D01*
X70913943Y-36525971D01*
X70960706Y-36524828D01*
X71069601Y-36543000D01*
X71069604Y-36543000D01*
X71310398Y-36543000D01*
X71310399Y-36543000D01*
X71547913Y-36503366D01*
X71775664Y-36425179D01*
X71987439Y-36310572D01*
X72177463Y-36162671D01*
X72340551Y-35985510D01*
X72356190Y-35961571D01*
X72409336Y-35916214D01*
X72478567Y-35906790D01*
X72541904Y-35936291D01*
X72563808Y-35961570D01*
X72579449Y-35985510D01*
X72742537Y-36162671D01*
X72932561Y-36310572D01*
X73144336Y-36425179D01*
X73260331Y-36465000D01*
X73372083Y-36503365D01*
X73372085Y-36503365D01*
X73372087Y-36503366D01*
X73609601Y-36543000D01*
X73609602Y-36543000D01*
X73850398Y-36543000D01*
X73850399Y-36543000D01*
X74087913Y-36503366D01*
X74315664Y-36425179D01*
X74527439Y-36310572D01*
X74717463Y-36162671D01*
X74880551Y-35985510D01*
X75012255Y-35783922D01*
X75108983Y-35563405D01*
X75168095Y-35329976D01*
X75187980Y-35090000D01*
X75168095Y-34850024D01*
X75108983Y-34616595D01*
X75012255Y-34396078D01*
X74880551Y-34194490D01*
X74717463Y-34017329D01*
X74567020Y-33900235D01*
X74527441Y-33869429D01*
X74315665Y-33754821D01*
X74315656Y-33754818D01*
X74087916Y-33676634D01*
X73909777Y-33646908D01*
X73850399Y-33637000D01*
X73609601Y-33637000D01*
X73562098Y-33644926D01*
X73372083Y-33676634D01*
X73144343Y-33754818D01*
X73144334Y-33754821D01*
X72932558Y-33869429D01*
X72798456Y-33973805D01*
X72742537Y-34017329D01*
X72579449Y-34194490D01*
X72565320Y-34216116D01*
X72563808Y-34218431D01*
X72510661Y-34263787D01*
X72441430Y-34273210D01*
X72378094Y-34243707D01*
X72356192Y-34218431D01*
X72340551Y-34194490D01*
X72177463Y-34017329D01*
X72027020Y-33900235D01*
X71987441Y-33869429D01*
X71775665Y-33754821D01*
X71775656Y-33754818D01*
X71547916Y-33676634D01*
X71369777Y-33646908D01*
X71310399Y-33637000D01*
X71069601Y-33637000D01*
X71022098Y-33644926D01*
X70832083Y-33676634D01*
X70604343Y-33754818D01*
X70604334Y-33754821D01*
X70392558Y-33869429D01*
X70258456Y-33973805D01*
X70202537Y-34017329D01*
X70039449Y-34194490D01*
X70025320Y-34216116D01*
X70023808Y-34218431D01*
X69970661Y-34263787D01*
X69901430Y-34273210D01*
X69838094Y-34243707D01*
X69816192Y-34218431D01*
X69800551Y-34194490D01*
X69637463Y-34017329D01*
X69487020Y-33900235D01*
X69447441Y-33869429D01*
X69235665Y-33754821D01*
X69235656Y-33754818D01*
X69007916Y-33676634D01*
X68829777Y-33646908D01*
X68770399Y-33637000D01*
X68529601Y-33637000D01*
X68482098Y-33644926D01*
X68292083Y-33676634D01*
X68064343Y-33754818D01*
X68064334Y-33754821D01*
X67852558Y-33869429D01*
X67718456Y-33973805D01*
X67662537Y-34017329D01*
X67499449Y-34194490D01*
X67485320Y-34216116D01*
X67483808Y-34218431D01*
X67430661Y-34263787D01*
X67361430Y-34273210D01*
X67298094Y-34243707D01*
X67276192Y-34218431D01*
X67260551Y-34194490D01*
X67097463Y-34017329D01*
X66947020Y-33900235D01*
X66907441Y-33869429D01*
X66695665Y-33754821D01*
X66695656Y-33754818D01*
X66467916Y-33676634D01*
X66289777Y-33646908D01*
X66230399Y-33637000D01*
X65989601Y-33637000D01*
X65942098Y-33644926D01*
X65752083Y-33676634D01*
X65524343Y-33754818D01*
X65524334Y-33754821D01*
X65312558Y-33869429D01*
X65178456Y-33973805D01*
X65122537Y-34017329D01*
X64959449Y-34194490D01*
X64945320Y-34216116D01*
X64943808Y-34218431D01*
X64890661Y-34263787D01*
X64821430Y-34273210D01*
X64758094Y-34243707D01*
X64736192Y-34218431D01*
X64720551Y-34194490D01*
X64557463Y-34017329D01*
X64407020Y-33900235D01*
X64367441Y-33869429D01*
X64155665Y-33754821D01*
X64155656Y-33754818D01*
X63927916Y-33676634D01*
X63749777Y-33646908D01*
X63690399Y-33637000D01*
X63449601Y-33637000D01*
X63402098Y-33644926D01*
X63212083Y-33676634D01*
X62984343Y-33754818D01*
X62984334Y-33754821D01*
X62772558Y-33869429D01*
X62638456Y-33973805D01*
X62582537Y-34017329D01*
X62419449Y-34194490D01*
X62405320Y-34216116D01*
X62403808Y-34218431D01*
X62350661Y-34263787D01*
X62281430Y-34273210D01*
X62218094Y-34243707D01*
X62196192Y-34218431D01*
X62180551Y-34194490D01*
X62017463Y-34017329D01*
X61867020Y-33900235D01*
X61827441Y-33869429D01*
X61615665Y-33754821D01*
X61615656Y-33754818D01*
X61387916Y-33676634D01*
X61209777Y-33646908D01*
X61150399Y-33637000D01*
X60909601Y-33637000D01*
X60862098Y-33644926D01*
X60672083Y-33676634D01*
X60444343Y-33754818D01*
X60444334Y-33754821D01*
X60232558Y-33869429D01*
X60098456Y-33973805D01*
X60042537Y-34017329D01*
X60042534Y-34017331D01*
X60042534Y-34017332D01*
X59879450Y-34194488D01*
X59879446Y-34194494D01*
X59863507Y-34218889D01*
X59810359Y-34264244D01*
X59741127Y-34273665D01*
X59705782Y-34257199D01*
X59679117Y-34254434D01*
X59079560Y-34853991D01*
X59052729Y-34789215D01*
X58983236Y-34685211D01*
X58894789Y-34596764D01*
X58790785Y-34527271D01*
X58726007Y-34500438D01*
X59326208Y-33900237D01*
X59326208Y-33900236D01*
X59287166Y-33869849D01*
X59287161Y-33869846D01*
X59075468Y-33755284D01*
X59075454Y-33755278D01*
X58847792Y-33677120D01*
X58610358Y-33637500D01*
X58369642Y-33637500D01*
X58132207Y-33677120D01*
X57904545Y-33755278D01*
X57904531Y-33755284D01*
X57692837Y-33869846D01*
X57692826Y-33869853D01*
X57653791Y-33900235D01*
X57653791Y-33900237D01*
X58253992Y-34500438D01*
X58189215Y-34527271D01*
X58085211Y-34596764D01*
X57996764Y-34685211D01*
X57927271Y-34789215D01*
X57900439Y-34853992D01*
X57300881Y-34254434D01*
X57279900Y-34256610D01*
X57270958Y-34264242D01*
X57201727Y-34273664D01*
X57138392Y-34244162D01*
X57116490Y-34218885D01*
X57100554Y-34194494D01*
X57100552Y-34194492D01*
X57100551Y-34194490D01*
X56937463Y-34017329D01*
X56787020Y-33900235D01*
X56747441Y-33869429D01*
X56535665Y-33754821D01*
X56535656Y-33754818D01*
X56307916Y-33676634D01*
X56129777Y-33646908D01*
X56070399Y-33637000D01*
X55829601Y-33637000D01*
X55782098Y-33644926D01*
X55592083Y-33676634D01*
X55364343Y-33754818D01*
X55364334Y-33754821D01*
X55152558Y-33869429D01*
X55018456Y-33973805D01*
X54962537Y-34017329D01*
X54962534Y-34017331D01*
X54962534Y-34017332D01*
X54799449Y-34194490D01*
X54667743Y-34396081D01*
X54571017Y-34616594D01*
X54511904Y-34850027D01*
X54492020Y-35089994D01*
X54492020Y-35090005D01*
X54511904Y-35329972D01*
X54571017Y-35563405D01*
X54652928Y-35750144D01*
X54667745Y-35783922D01*
X54799449Y-35985510D01*
X54962537Y-36162671D01*
X55101662Y-36270956D01*
X55142475Y-36327665D01*
X55149500Y-36368809D01*
X55149500Y-36609793D01*
X55129815Y-36676832D01*
X55096624Y-36711368D01*
X55003599Y-36776505D01*
X55003597Y-36776506D01*
X54836505Y-36943597D01*
X54700965Y-37137169D01*
X54700964Y-37137171D01*
X54601098Y-37351335D01*
X54601094Y-37351344D01*
X54539938Y-37579586D01*
X54539936Y-37579596D01*
X54519341Y-37814999D01*
X54519341Y-37815000D01*
X54539936Y-38050403D01*
X54539938Y-38050413D01*
X54601094Y-38278655D01*
X54601096Y-38278659D01*
X54601097Y-38278663D01*
X54641590Y-38365500D01*
X54700965Y-38492830D01*
X54700967Y-38492834D01*
X54797215Y-38630289D01*
X54819194Y-38661679D01*
X54836501Y-38686395D01*
X54836506Y-38686402D01*
X55003597Y-38853493D01*
X55003603Y-38853498D01*
X55096623Y-38918631D01*
X55140248Y-38973208D01*
X55149500Y-39020206D01*
X55149500Y-39120927D01*
X55180261Y-39275570D01*
X55180264Y-39275582D01*
X55240602Y-39421253D01*
X55240609Y-39421266D01*
X55328210Y-39552369D01*
X55328213Y-39552373D01*
X55576130Y-39800289D01*
X55634497Y-39858656D01*
X55687631Y-39911790D01*
X55818733Y-39999390D01*
X55818746Y-39999397D01*
X55918379Y-40040666D01*
X55918380Y-40040666D01*
X55964421Y-40059737D01*
X56107021Y-40088102D01*
X56119071Y-40090499D01*
X56119074Y-40090500D01*
X56119076Y-40090500D01*
X56119077Y-40090500D01*
X56961158Y-40090500D01*
X57118843Y-40090500D01*
X59767060Y-40090500D01*
X59834099Y-40110185D01*
X59854741Y-40126819D01*
X60868211Y-41140289D01*
X60940717Y-41212795D01*
X60979712Y-41251790D01*
X61110814Y-41339390D01*
X61110827Y-41339397D01*
X61242269Y-41393841D01*
X61242271Y-41393842D01*
X61256503Y-41399737D01*
X61294374Y-41407270D01*
X61411154Y-41430500D01*
X61411157Y-41430500D01*
X61411158Y-41430500D01*
X66369852Y-41430500D01*
X66436891Y-41450185D01*
X66457533Y-41466819D01*
X67828533Y-42837819D01*
X67862018Y-42899142D01*
X67857034Y-42968834D01*
X67815162Y-43024767D01*
X67749698Y-43049184D01*
X67740852Y-43049500D01*
X66194500Y-43049500D01*
X66127461Y-43029815D01*
X66081706Y-42977011D01*
X66070500Y-42925500D01*
X66070500Y-42684306D01*
X66070499Y-42684298D01*
X66067598Y-42647432D01*
X66067597Y-42647426D01*
X66021745Y-42489606D01*
X66021744Y-42489603D01*
X66021744Y-42489602D01*
X65938081Y-42348135D01*
X65938079Y-42348133D01*
X65938076Y-42348129D01*
X65821870Y-42231923D01*
X65821862Y-42231917D01*
X65703981Y-42162203D01*
X65680398Y-42148256D01*
X65680397Y-42148255D01*
X65680396Y-42148255D01*
X65680393Y-42148254D01*
X65522573Y-42102402D01*
X65522567Y-42102401D01*
X65485701Y-42099500D01*
X65485694Y-42099500D01*
X64911342Y-42099500D01*
X63354798Y-42099500D01*
X63287759Y-42079815D01*
X63249259Y-42040597D01*
X63212712Y-41981344D01*
X63088656Y-41857288D01*
X62984721Y-41793181D01*
X62939336Y-41765187D01*
X62939331Y-41765185D01*
X62902411Y-41752951D01*
X62772797Y-41710001D01*
X62772795Y-41710000D01*
X62670010Y-41699500D01*
X61669998Y-41699500D01*
X61669980Y-41699501D01*
X61567203Y-41710000D01*
X61567200Y-41710001D01*
X61400668Y-41765185D01*
X61400663Y-41765187D01*
X61251342Y-41857289D01*
X61127289Y-41981342D01*
X61035187Y-42130663D01*
X61035185Y-42130668D01*
X61024735Y-42162204D01*
X60980001Y-42297203D01*
X60980001Y-42297204D01*
X60980000Y-42297204D01*
X60969500Y-42399983D01*
X60969500Y-43200001D01*
X60969501Y-43200019D01*
X60980000Y-43302796D01*
X60980001Y-43302799D01*
X60999782Y-43362492D01*
X61035186Y-43469334D01*
X61087716Y-43554500D01*
X61127289Y-43618657D01*
X61220951Y-43712319D01*
X61254436Y-43773642D01*
X61249452Y-43843334D01*
X61220951Y-43887681D01*
X61127289Y-43981342D01*
X61035187Y-44130663D01*
X61035185Y-44130668D01*
X61030436Y-44145000D01*
X60980001Y-44297203D01*
X60980001Y-44297204D01*
X60980000Y-44297204D01*
X60969500Y-44399983D01*
X60969500Y-45200001D01*
X60969501Y-45200019D01*
X60980000Y-45302796D01*
X60980001Y-45302799D01*
X61035185Y-45469331D01*
X61035187Y-45469336D01*
X61042594Y-45481344D01*
X61127288Y-45618656D01*
X61251344Y-45742712D01*
X61251346Y-45742713D01*
X61253269Y-45744234D01*
X61254246Y-45745614D01*
X61256451Y-45747819D01*
X61256074Y-45748195D01*
X61293644Y-45801257D01*
X61296781Y-45871056D01*
X61261683Y-45931471D01*
X61241452Y-45947037D01*
X61111342Y-46027289D01*
X60987289Y-46151342D01*
X60895187Y-46300663D01*
X60895185Y-46300668D01*
X60891997Y-46310289D01*
X60840001Y-46467203D01*
X60840001Y-46467204D01*
X60840000Y-46467204D01*
X60829500Y-46569983D01*
X60829500Y-46987059D01*
X60809815Y-47054098D01*
X60793181Y-47074740D01*
X60697661Y-47170261D01*
X60619711Y-47248211D01*
X60590757Y-47277165D01*
X60508209Y-47359712D01*
X60420609Y-47490814D01*
X60420602Y-47490827D01*
X60360264Y-47636498D01*
X60360261Y-47636510D01*
X60329500Y-47791153D01*
X60329500Y-48983078D01*
X60309815Y-49050117D01*
X60264520Y-49092131D01*
X60232567Y-49109423D01*
X60232558Y-49109429D01*
X60129500Y-49189643D01*
X60042537Y-49257329D01*
X59879449Y-49434490D01*
X59863808Y-49458431D01*
X59810661Y-49503787D01*
X59741430Y-49513210D01*
X59678094Y-49483707D01*
X59656192Y-49458431D01*
X59640551Y-49434490D01*
X59477463Y-49257329D01*
X59312615Y-49129023D01*
X59287441Y-49109429D01*
X59075665Y-48994821D01*
X59075656Y-48994818D01*
X58847916Y-48916634D01*
X58641243Y-48882147D01*
X58610399Y-48877000D01*
X58369601Y-48877000D01*
X58338757Y-48882147D01*
X58132083Y-48916634D01*
X57904343Y-48994818D01*
X57904334Y-48994821D01*
X57692558Y-49109429D01*
X57589500Y-49189643D01*
X57502537Y-49257329D01*
X57339449Y-49434490D01*
X57323808Y-49458431D01*
X57270661Y-49503787D01*
X57201430Y-49513210D01*
X57138094Y-49483707D01*
X57116192Y-49458431D01*
X57100551Y-49434490D01*
X56937463Y-49257329D01*
X56772615Y-49129023D01*
X56747441Y-49109429D01*
X56535665Y-48994821D01*
X56535656Y-48994818D01*
X56307916Y-48916634D01*
X56101243Y-48882147D01*
X56070399Y-48877000D01*
X55829601Y-48877000D01*
X55798757Y-48882147D01*
X55592083Y-48916634D01*
X55364343Y-48994818D01*
X55364334Y-48994821D01*
X55152558Y-49109429D01*
X55049500Y-49189643D01*
X54962537Y-49257329D01*
X54962534Y-49257331D01*
X54962534Y-49257332D01*
X54799449Y-49434490D01*
X54667743Y-49636081D01*
X54571017Y-49856594D01*
X54511904Y-50090027D01*
X54492020Y-50329994D01*
X54492020Y-50330005D01*
X54511904Y-50569972D01*
X54511904Y-50569975D01*
X54511905Y-50569976D01*
X54571017Y-50803405D01*
X54667745Y-51023922D01*
X54799449Y-51225510D01*
X54962537Y-51402671D01*
X55118908Y-51524379D01*
X55151088Y-51549426D01*
X55152561Y-51550572D01*
X55364336Y-51665179D01*
X55482598Y-51705778D01*
X55592083Y-51743365D01*
X55592085Y-51743365D01*
X55592087Y-51743366D01*
X55829601Y-51783000D01*
X55829602Y-51783000D01*
X56070398Y-51783000D01*
X56070399Y-51783000D01*
X56307913Y-51743366D01*
X56535664Y-51665179D01*
X56747439Y-51550572D01*
X56937463Y-51402671D01*
X57100551Y-51225510D01*
X57116190Y-51201571D01*
X57169336Y-51156214D01*
X57238567Y-51146790D01*
X57301904Y-51176291D01*
X57323808Y-51201570D01*
X57339449Y-51225510D01*
X57502537Y-51402671D01*
X57658908Y-51524379D01*
X57691088Y-51549426D01*
X57692561Y-51550572D01*
X57904336Y-51665179D01*
X58022598Y-51705778D01*
X58132083Y-51743365D01*
X58132085Y-51743365D01*
X58132087Y-51743366D01*
X58369601Y-51783000D01*
X58369602Y-51783000D01*
X58610398Y-51783000D01*
X58610399Y-51783000D01*
X58847913Y-51743366D01*
X59075664Y-51665179D01*
X59287439Y-51550572D01*
X59477463Y-51402671D01*
X59640551Y-51225510D01*
X59656190Y-51201571D01*
X59709336Y-51156214D01*
X59778567Y-51146790D01*
X59841904Y-51176291D01*
X59863808Y-51201570D01*
X59879449Y-51225510D01*
X60042537Y-51402671D01*
X60198908Y-51524379D01*
X60231088Y-51549426D01*
X60232561Y-51550572D01*
X60444336Y-51665179D01*
X60562598Y-51705778D01*
X60672083Y-51743365D01*
X60672085Y-51743365D01*
X60672087Y-51743366D01*
X60909601Y-51783000D01*
X60909602Y-51783000D01*
X61150398Y-51783000D01*
X61150399Y-51783000D01*
X61387913Y-51743366D01*
X61615664Y-51665179D01*
X61827439Y-51550572D01*
X62017463Y-51402671D01*
X62180551Y-51225510D01*
X62196190Y-51201571D01*
X62249336Y-51156214D01*
X62318567Y-51146790D01*
X62381904Y-51176291D01*
X62403808Y-51201570D01*
X62419449Y-51225510D01*
X62582537Y-51402671D01*
X62738908Y-51524379D01*
X62771088Y-51549426D01*
X62772561Y-51550572D01*
X62984336Y-51665179D01*
X63102598Y-51705778D01*
X63212083Y-51743365D01*
X63212085Y-51743365D01*
X63212087Y-51743366D01*
X63449601Y-51783000D01*
X63449602Y-51783000D01*
X63690398Y-51783000D01*
X63690399Y-51783000D01*
X63927913Y-51743366D01*
X64155664Y-51665179D01*
X64367439Y-51550572D01*
X64557463Y-51402671D01*
X64720551Y-51225510D01*
X64736190Y-51201571D01*
X64789336Y-51156214D01*
X64858567Y-51146790D01*
X64921904Y-51176291D01*
X64943808Y-51201570D01*
X64959449Y-51225510D01*
X65122537Y-51402671D01*
X65278908Y-51524379D01*
X65311088Y-51549426D01*
X65312561Y-51550572D01*
X65524336Y-51665179D01*
X65642598Y-51705778D01*
X65752083Y-51743365D01*
X65752085Y-51743365D01*
X65752087Y-51743366D01*
X65989601Y-51783000D01*
X65989602Y-51783000D01*
X66230398Y-51783000D01*
X66230399Y-51783000D01*
X66467913Y-51743366D01*
X66695664Y-51665179D01*
X66907439Y-51550572D01*
X67097463Y-51402671D01*
X67260551Y-51225510D01*
X67276190Y-51201571D01*
X67329336Y-51156214D01*
X67398567Y-51146790D01*
X67461904Y-51176291D01*
X67483808Y-51201570D01*
X67499449Y-51225510D01*
X67662537Y-51402671D01*
X67818908Y-51524379D01*
X67851088Y-51549426D01*
X67852561Y-51550572D01*
X68064336Y-51665179D01*
X68182598Y-51705778D01*
X68292083Y-51743365D01*
X68292085Y-51743365D01*
X68292087Y-51743366D01*
X68529601Y-51783000D01*
X68529602Y-51783000D01*
X68770398Y-51783000D01*
X68770399Y-51783000D01*
X69007913Y-51743366D01*
X69235664Y-51665179D01*
X69447439Y-51550572D01*
X69637463Y-51402671D01*
X69800551Y-51225510D01*
X69816190Y-51201571D01*
X69869336Y-51156214D01*
X69938567Y-51146790D01*
X70001904Y-51176291D01*
X70023808Y-51201570D01*
X70039449Y-51225510D01*
X70202537Y-51402671D01*
X70358908Y-51524379D01*
X70391088Y-51549426D01*
X70392561Y-51550572D01*
X70604336Y-51665179D01*
X70722598Y-51705778D01*
X70832083Y-51743365D01*
X70832085Y-51743365D01*
X70832087Y-51743366D01*
X71069601Y-51783000D01*
X71069602Y-51783000D01*
X71310398Y-51783000D01*
X71310399Y-51783000D01*
X71547913Y-51743366D01*
X71775664Y-51665179D01*
X71987439Y-51550572D01*
X72177463Y-51402671D01*
X72340551Y-51225510D01*
X72356190Y-51201571D01*
X72409336Y-51156214D01*
X72478567Y-51146790D01*
X72541904Y-51176291D01*
X72563808Y-51201570D01*
X72579449Y-51225510D01*
X72742537Y-51402671D01*
X72898908Y-51524379D01*
X72931088Y-51549426D01*
X72932561Y-51550572D01*
X73144336Y-51665179D01*
X73262598Y-51705778D01*
X73372083Y-51743365D01*
X73372085Y-51743365D01*
X73372087Y-51743366D01*
X73609601Y-51783000D01*
X73609602Y-51783000D01*
X73850398Y-51783000D01*
X73850399Y-51783000D01*
X74087913Y-51743366D01*
X74315664Y-51665179D01*
X74527439Y-51550572D01*
X74717463Y-51402671D01*
X74880551Y-51225510D01*
X75012255Y-51023922D01*
X75108983Y-50803405D01*
X75168095Y-50569976D01*
X75187170Y-50339777D01*
X75187980Y-50330005D01*
X75187980Y-50329994D01*
X75168095Y-50090027D01*
X75168095Y-50090024D01*
X75108983Y-49856595D01*
X75012255Y-49636078D01*
X74880551Y-49434490D01*
X74717463Y-49257329D01*
X74552615Y-49129023D01*
X74527441Y-49109429D01*
X74315665Y-48994821D01*
X74315656Y-48994818D01*
X74277681Y-48981781D01*
X74220666Y-48941396D01*
X74194535Y-48876596D01*
X74207586Y-48807956D01*
X74255675Y-48757268D01*
X74317944Y-48740500D01*
X75663937Y-48740500D01*
X75730976Y-48760185D01*
X75751618Y-48776819D01*
X78774415Y-51799616D01*
X78807900Y-51860939D01*
X78802916Y-51930631D01*
X78774420Y-51974974D01*
X78757891Y-51991504D01*
X78720268Y-52038190D01*
X78720268Y-52038192D01*
X78660481Y-52169105D01*
X78640000Y-52311562D01*
X78660481Y-52454018D01*
X78720268Y-52584932D01*
X78720269Y-52584933D01*
X78720270Y-52584935D01*
X78757889Y-52631618D01*
X78757892Y-52631621D01*
X78757897Y-52631627D01*
X79775123Y-53648851D01*
X80098383Y-53972111D01*
X80145066Y-54009731D01*
X80275982Y-54069519D01*
X80275981Y-54069519D01*
X80293888Y-54072093D01*
X80418439Y-54090001D01*
X80560896Y-54069519D01*
X80691812Y-54009731D01*
X80738495Y-53972112D01*
X82078988Y-52631618D01*
X82116608Y-52584935D01*
X82176396Y-52454019D01*
X82196878Y-52311562D01*
X82176396Y-52169105D01*
X82140964Y-52091522D01*
X82131021Y-52022364D01*
X82160046Y-51958809D01*
X82218824Y-51921034D01*
X82253759Y-51916011D01*
X82330538Y-51916011D01*
X82330539Y-51916011D01*
X82559471Y-51877809D01*
X82778993Y-51802447D01*
X82983116Y-51691981D01*
X83166274Y-51549424D01*
X83323469Y-51378664D01*
X83450414Y-51184360D01*
X83543647Y-50971811D01*
X83600624Y-50746816D01*
X83601161Y-50740337D01*
X83619790Y-50515517D01*
X83619790Y-50515505D01*
X83604419Y-50330005D01*
X83603629Y-50320473D01*
X83617710Y-50252038D01*
X83639518Y-50222560D01*
X84121789Y-49740290D01*
X84209394Y-49609180D01*
X84269738Y-49463498D01*
X84288431Y-49369517D01*
X84320815Y-49307609D01*
X84344943Y-49288177D01*
X84418656Y-49242712D01*
X84473569Y-49187799D01*
X84534892Y-49154314D01*
X84604584Y-49159298D01*
X84648931Y-49187799D01*
X84686344Y-49225212D01*
X84835666Y-49317314D01*
X85002203Y-49372499D01*
X85104991Y-49383000D01*
X86155008Y-49382999D01*
X86155016Y-49382998D01*
X86155019Y-49382998D01*
X86211302Y-49377248D01*
X86257797Y-49372499D01*
X86424334Y-49317314D01*
X86487216Y-49278528D01*
X86554606Y-49260088D01*
X86621269Y-49281010D01*
X86666039Y-49334652D01*
X86674701Y-49403982D01*
X86666113Y-49433313D01*
X86506952Y-49801113D01*
X86503635Y-49808162D01*
X86236241Y-50332951D01*
X86232488Y-50339777D01*
X85932675Y-50846734D01*
X85928501Y-50853311D01*
X85597444Y-51340446D01*
X85592865Y-51346748D01*
X85231887Y-51812118D01*
X85226922Y-51818121D01*
X84837406Y-52259940D01*
X84832073Y-52265618D01*
X84415618Y-52682073D01*
X84409940Y-52687406D01*
X83968121Y-53076922D01*
X83962118Y-53081887D01*
X83496748Y-53442865D01*
X83490446Y-53447444D01*
X83003311Y-53778501D01*
X82996734Y-53782675D01*
X82489777Y-54082488D01*
X82482951Y-54086241D01*
X81958162Y-54353635D01*
X81951114Y-54356951D01*
X81633719Y-54494301D01*
X81584472Y-54504500D01*
X77534500Y-54504500D01*
X77467461Y-54484815D01*
X77421706Y-54432011D01*
X77410500Y-54380500D01*
X77410500Y-53652683D01*
X77410500Y-53652682D01*
X77379954Y-53440231D01*
X77319484Y-53234290D01*
X77319483Y-53234288D01*
X77319482Y-53234284D01*
X77230327Y-53039061D01*
X77230320Y-53039048D01*
X77179915Y-52960616D01*
X77114281Y-52858487D01*
X77081172Y-52820277D01*
X76973724Y-52696275D01*
X76811514Y-52555720D01*
X76811513Y-52555719D01*
X76702441Y-52485623D01*
X76630951Y-52439679D01*
X76630938Y-52439672D01*
X76435715Y-52350517D01*
X76229774Y-52290047D01*
X76229764Y-52290044D01*
X76038754Y-52262582D01*
X76017318Y-52259500D01*
X76017317Y-52259500D01*
X53916962Y-52259500D01*
X53903078Y-52258720D01*
X53890553Y-52257308D01*
X53812735Y-52248540D01*
X53785666Y-52242362D01*
X53706462Y-52214648D01*
X53681444Y-52202600D01*
X53610395Y-52157957D01*
X53588686Y-52140644D01*
X53529355Y-52081313D01*
X53512042Y-52059604D01*
X53469253Y-51991506D01*
X53467398Y-51988553D01*
X53455351Y-51963537D01*
X53438721Y-51916011D01*
X53427636Y-51884331D01*
X53421459Y-51857263D01*
X53416372Y-51812118D01*
X53411280Y-51766922D01*
X53410500Y-51753038D01*
X53410500Y-42979998D01*
X55764390Y-42979998D01*
X55764390Y-42980001D01*
X55784804Y-43265433D01*
X55845628Y-43545037D01*
X55845630Y-43545043D01*
X55845631Y-43545046D01*
X55935751Y-43786666D01*
X55945635Y-43813166D01*
X56082770Y-44064309D01*
X56082775Y-44064317D01*
X56254254Y-44293387D01*
X56254270Y-44293405D01*
X56456594Y-44495729D01*
X56456612Y-44495745D01*
X56685682Y-44667224D01*
X56685690Y-44667229D01*
X56936833Y-44804364D01*
X56936832Y-44804364D01*
X56936836Y-44804365D01*
X56936839Y-44804367D01*
X57204954Y-44904369D01*
X57204960Y-44904370D01*
X57204962Y-44904371D01*
X57484566Y-44965195D01*
X57484568Y-44965195D01*
X57484572Y-44965196D01*
X57738220Y-44983337D01*
X57769999Y-44985610D01*
X57770000Y-44985610D01*
X57770001Y-44985610D01*
X57798595Y-44983564D01*
X58055428Y-44965196D01*
X58284986Y-44915259D01*
X58335037Y-44904371D01*
X58335037Y-44904370D01*
X58335046Y-44904369D01*
X58603161Y-44804367D01*
X58854315Y-44667226D01*
X59083395Y-44495739D01*
X59285739Y-44293395D01*
X59457226Y-44064315D01*
X59594367Y-43813161D01*
X59694369Y-43545046D01*
X59710840Y-43469331D01*
X59755195Y-43265433D01*
X59755195Y-43265432D01*
X59755196Y-43265428D01*
X59775610Y-42980000D01*
X59774811Y-42968834D01*
X59769827Y-42899142D01*
X59755196Y-42694572D01*
X59752963Y-42684309D01*
X59694371Y-42414962D01*
X59694370Y-42414960D01*
X59694369Y-42414954D01*
X59594367Y-42146839D01*
X59570102Y-42102402D01*
X59457229Y-41895690D01*
X59457224Y-41895682D01*
X59285745Y-41666612D01*
X59285729Y-41666594D01*
X59083405Y-41464270D01*
X59083387Y-41464254D01*
X58854317Y-41292775D01*
X58854309Y-41292770D01*
X58603166Y-41155635D01*
X58603167Y-41155635D01*
X58410288Y-41083695D01*
X58335046Y-41055631D01*
X58335043Y-41055630D01*
X58335037Y-41055628D01*
X58055433Y-40994804D01*
X57770001Y-40974390D01*
X57769999Y-40974390D01*
X57484566Y-40994804D01*
X57204962Y-41055628D01*
X56936833Y-41155635D01*
X56685690Y-41292770D01*
X56685682Y-41292775D01*
X56456612Y-41464254D01*
X56456594Y-41464270D01*
X56254270Y-41666594D01*
X56254254Y-41666612D01*
X56082775Y-41895682D01*
X56082770Y-41895690D01*
X55945635Y-42146833D01*
X55845628Y-42414962D01*
X55784804Y-42694566D01*
X55764390Y-42979998D01*
X53410500Y-42979998D01*
X53410500Y-42874032D01*
X53430185Y-42806993D01*
X53446819Y-42786351D01*
X53459745Y-42773425D01*
X53500505Y-42732665D01*
X53569688Y-42612836D01*
X53605500Y-42479183D01*
X53605500Y-33433650D01*
X53625185Y-33366611D01*
X53663526Y-33328658D01*
X53681445Y-33317398D01*
X53706452Y-33305354D01*
X53785670Y-33277635D01*
X53812733Y-33271459D01*
X53875419Y-33264396D01*
X53903079Y-33261280D01*
X53916962Y-33260500D01*
X76017317Y-33260500D01*
X76017318Y-33260500D01*
X76199612Y-33234290D01*
X76229764Y-33229955D01*
X76229765Y-33229954D01*
X76229769Y-33229954D01*
X76435710Y-33169484D01*
X76435713Y-33169482D01*
X76435715Y-33169482D01*
X76630938Y-33080327D01*
X76630944Y-33080323D01*
X76630950Y-33080321D01*
X76811513Y-32964281D01*
X76973724Y-32823724D01*
X77114281Y-32661513D01*
X77230321Y-32480950D01*
X77230323Y-32480944D01*
X77230327Y-32480938D01*
X77319482Y-32285715D01*
X77319482Y-32285713D01*
X77319484Y-32285710D01*
X77379954Y-32079769D01*
X77410500Y-31867318D01*
X77410500Y-31760000D01*
X77410500Y-31694108D01*
X77410500Y-30766961D01*
X77411280Y-30753077D01*
X77415233Y-30717994D01*
X77421459Y-30662731D01*
X77427635Y-30635670D01*
X77455353Y-30556456D01*
X77467396Y-30531450D01*
X77512046Y-30460389D01*
X77529351Y-30438690D01*
X77588690Y-30379351D01*
X77610389Y-30362046D01*
X77681450Y-30317396D01*
X77706456Y-30305353D01*
X77785670Y-30277635D01*
X77812731Y-30271459D01*
X77901134Y-30261498D01*
X77918911Y-30260780D01*
X78502598Y-30279123D01*
G37*
%TD.AperFunction*%
%TA.AperFunction,Conductor*%
G36*
X65412539Y-43720185D02*
G01*
X65458294Y-43772989D01*
X65469500Y-43824500D01*
X65469500Y-43876000D01*
X65449815Y-43943039D01*
X65397011Y-43988794D01*
X65345500Y-44000000D01*
X65082500Y-44000000D01*
X65082500Y-44550000D01*
X65738185Y-44550000D01*
X65801306Y-44567268D01*
X65859602Y-44601744D01*
X65883390Y-44608655D01*
X66017426Y-44647597D01*
X66017429Y-44647597D01*
X66017431Y-44647598D01*
X66054306Y-44650500D01*
X66628658Y-44650500D01*
X68317060Y-44650500D01*
X68384099Y-44670185D01*
X68404741Y-44686819D01*
X68633181Y-44915259D01*
X68666666Y-44976582D01*
X68669500Y-45002940D01*
X68669500Y-46538846D01*
X68700261Y-46693489D01*
X68700264Y-46693501D01*
X68760602Y-46839172D01*
X68760609Y-46839185D01*
X68848210Y-46970288D01*
X68848213Y-46970292D01*
X70328211Y-48450289D01*
X70439711Y-48561789D01*
X70439712Y-48561790D01*
X70570814Y-48649390D01*
X70570827Y-48649397D01*
X70650768Y-48682509D01*
X70716503Y-48709737D01*
X70716507Y-48709737D01*
X70716508Y-48709738D01*
X70720488Y-48710530D01*
X70782399Y-48742915D01*
X70816973Y-48803631D01*
X70813233Y-48873400D01*
X70772366Y-48930072D01*
X70736559Y-48949428D01*
X70604343Y-48994818D01*
X70604334Y-48994821D01*
X70392558Y-49109429D01*
X70289500Y-49189643D01*
X70202537Y-49257329D01*
X70039449Y-49434490D01*
X70023808Y-49458431D01*
X69970661Y-49503787D01*
X69901430Y-49513210D01*
X69838094Y-49483707D01*
X69816192Y-49458431D01*
X69800551Y-49434490D01*
X69637463Y-49257329D01*
X69472615Y-49129023D01*
X69447441Y-49109429D01*
X69235665Y-48994821D01*
X69235656Y-48994818D01*
X69007916Y-48916634D01*
X68801243Y-48882147D01*
X68770399Y-48877000D01*
X68529601Y-48877000D01*
X68498757Y-48882147D01*
X68292083Y-48916634D01*
X68064343Y-48994818D01*
X68064334Y-48994821D01*
X67852558Y-49109429D01*
X67749500Y-49189643D01*
X67662537Y-49257329D01*
X67499449Y-49434490D01*
X67483808Y-49458431D01*
X67430661Y-49503787D01*
X67361430Y-49513210D01*
X67298094Y-49483707D01*
X67276192Y-49458431D01*
X67260551Y-49434490D01*
X67097463Y-49257329D01*
X66932615Y-49129023D01*
X66907441Y-49109429D01*
X66695665Y-48994821D01*
X66695656Y-48994818D01*
X66467916Y-48916634D01*
X66261243Y-48882147D01*
X66230399Y-48877000D01*
X65989601Y-48877000D01*
X65958757Y-48882147D01*
X65752083Y-48916634D01*
X65524343Y-48994818D01*
X65524334Y-48994821D01*
X65312558Y-49109429D01*
X65209500Y-49189643D01*
X65122537Y-49257329D01*
X64959449Y-49434490D01*
X64943808Y-49458431D01*
X64890661Y-49503787D01*
X64821430Y-49513210D01*
X64758094Y-49483707D01*
X64736192Y-49458431D01*
X64720551Y-49434490D01*
X64557463Y-49257329D01*
X64392615Y-49129023D01*
X64367441Y-49109429D01*
X64155665Y-48994821D01*
X64155656Y-48994818D01*
X63927916Y-48916634D01*
X63721243Y-48882147D01*
X63690399Y-48877000D01*
X63449601Y-48877000D01*
X63418757Y-48882147D01*
X63212083Y-48916634D01*
X62984343Y-48994818D01*
X62984334Y-48994821D01*
X62772558Y-49109429D01*
X62669500Y-49189643D01*
X62582537Y-49257329D01*
X62419449Y-49434490D01*
X62403808Y-49458431D01*
X62350661Y-49503787D01*
X62281430Y-49513210D01*
X62218094Y-49483707D01*
X62196192Y-49458431D01*
X62180551Y-49434490D01*
X62017463Y-49257329D01*
X61978337Y-49226876D01*
X61937525Y-49170166D01*
X61930500Y-49129023D01*
X61930500Y-48394499D01*
X61950185Y-48327460D01*
X62002989Y-48281705D01*
X62054500Y-48270499D01*
X62330002Y-48270499D01*
X62330008Y-48270499D01*
X62432797Y-48259999D01*
X62599334Y-48204814D01*
X62748656Y-48112712D01*
X62842675Y-48018692D01*
X62903994Y-47985210D01*
X62973686Y-47990194D01*
X63018034Y-48018695D01*
X63111654Y-48112315D01*
X63260875Y-48204356D01*
X63260880Y-48204358D01*
X63427302Y-48259505D01*
X63427309Y-48259506D01*
X63530019Y-48269999D01*
X63679999Y-48269999D01*
X64180000Y-48269999D01*
X64329972Y-48269999D01*
X64329986Y-48269998D01*
X64432697Y-48259505D01*
X64599119Y-48204358D01*
X64599124Y-48204356D01*
X64748345Y-48112315D01*
X64872315Y-47988345D01*
X64964356Y-47839124D01*
X64964358Y-47839119D01*
X65019505Y-47672697D01*
X65019506Y-47672690D01*
X65029999Y-47569986D01*
X65030000Y-47569973D01*
X65030000Y-47320000D01*
X64180000Y-47320000D01*
X64180000Y-48269999D01*
X63679999Y-48269999D01*
X63680000Y-48269998D01*
X63680000Y-46820000D01*
X64180000Y-46820000D01*
X65029999Y-46820000D01*
X65029999Y-46570028D01*
X65029998Y-46570013D01*
X65019505Y-46467302D01*
X64964358Y-46300880D01*
X64964356Y-46300875D01*
X64872315Y-46151654D01*
X64748345Y-46027684D01*
X64599124Y-45935643D01*
X64599119Y-45935641D01*
X64432697Y-45880494D01*
X64432690Y-45880493D01*
X64329986Y-45870000D01*
X64180000Y-45870000D01*
X64180000Y-46820000D01*
X63680000Y-46820000D01*
X63680000Y-45870000D01*
X63530027Y-45870000D01*
X63530012Y-45870001D01*
X63427302Y-45880494D01*
X63260880Y-45935641D01*
X63260875Y-45935643D01*
X63159597Y-45998113D01*
X63092204Y-46016553D01*
X63025541Y-45995630D01*
X62980771Y-45941988D01*
X62970500Y-45892574D01*
X62970500Y-45884797D01*
X62990185Y-45817758D01*
X63029403Y-45779258D01*
X63088656Y-45742712D01*
X63212712Y-45618656D01*
X63304814Y-45469334D01*
X63359999Y-45302797D01*
X63370500Y-45200009D01*
X63370499Y-45141042D01*
X63390182Y-45074006D01*
X63442986Y-45028250D01*
X63512144Y-45018306D01*
X63575700Y-45047330D01*
X63613476Y-45106107D01*
X63613575Y-45106449D01*
X63643715Y-45210193D01*
X63643717Y-45210196D01*
X63727314Y-45351552D01*
X63727321Y-45351561D01*
X63843438Y-45467678D01*
X63843447Y-45467685D01*
X63984803Y-45551282D01*
X63984806Y-45551283D01*
X64142504Y-45597099D01*
X64142510Y-45597100D01*
X64179350Y-45599999D01*
X64179366Y-45600000D01*
X64582500Y-45600000D01*
X65082500Y-45600000D01*
X65485634Y-45600000D01*
X65485649Y-45599999D01*
X65522489Y-45597100D01*
X65522495Y-45597099D01*
X65680193Y-45551283D01*
X65680196Y-45551282D01*
X65821552Y-45467685D01*
X65821561Y-45467678D01*
X65937678Y-45351561D01*
X65937685Y-45351552D01*
X66021281Y-45210198D01*
X66067100Y-45052486D01*
X66067295Y-45050001D01*
X66067295Y-45050000D01*
X65082500Y-45050000D01*
X65082500Y-45600000D01*
X64582500Y-45600000D01*
X64582500Y-44000000D01*
X64179350Y-44000000D01*
X64142510Y-44002899D01*
X64142504Y-44002900D01*
X63984806Y-44048716D01*
X63984803Y-44048717D01*
X63843447Y-44132314D01*
X63843438Y-44132321D01*
X63727321Y-44248438D01*
X63727314Y-44248447D01*
X63643717Y-44389803D01*
X63643716Y-44389806D01*
X63613575Y-44493553D01*
X63575969Y-44552439D01*
X63512497Y-44581645D01*
X63443310Y-44571899D01*
X63390375Y-44526295D01*
X63370500Y-44459312D01*
X63370499Y-44458958D01*
X63370499Y-44399998D01*
X63370498Y-44399980D01*
X63359999Y-44297203D01*
X63359998Y-44297200D01*
X63358737Y-44293395D01*
X63304814Y-44130666D01*
X63212712Y-43981344D01*
X63143549Y-43912181D01*
X63110064Y-43850858D01*
X63115048Y-43781166D01*
X63156920Y-43725233D01*
X63222384Y-43700816D01*
X63231230Y-43700500D01*
X64179306Y-43700500D01*
X65345500Y-43700500D01*
X65412539Y-43720185D01*
G37*
%TD.AperFunction*%
%TA.AperFunction,Conductor*%
G36*
X81064054Y-33721557D02*
G01*
X81119987Y-33763429D01*
X81144404Y-33828893D01*
X81143458Y-33855384D01*
X81137612Y-33896048D01*
X81137612Y-33896050D01*
X81158093Y-34038507D01*
X81217880Y-34169421D01*
X81217881Y-34169422D01*
X81217882Y-34169424D01*
X81255501Y-34216107D01*
X81255504Y-34216110D01*
X81255509Y-34216116D01*
X82314618Y-35275223D01*
X82595995Y-35556600D01*
X82642678Y-35594220D01*
X82773594Y-35654008D01*
X82852786Y-35665393D01*
X82916340Y-35694417D01*
X82954115Y-35753195D01*
X82954116Y-35823064D01*
X82922820Y-35875812D01*
X82842287Y-35956345D01*
X82750187Y-36105663D01*
X82750186Y-36105666D01*
X82695001Y-36272203D01*
X82695001Y-36272204D01*
X82695000Y-36272204D01*
X82684500Y-36374983D01*
X82684500Y-37425001D01*
X82684501Y-37425019D01*
X82695000Y-37527796D01*
X82695001Y-37527799D01*
X82721571Y-37607981D01*
X82723973Y-37677810D01*
X82688241Y-37737851D01*
X82642870Y-37764691D01*
X82520666Y-37805186D01*
X82520663Y-37805187D01*
X82371342Y-37897289D01*
X82247289Y-38021342D01*
X82155187Y-38170663D01*
X82155185Y-38170668D01*
X82143079Y-38207203D01*
X82100001Y-38337203D01*
X82100001Y-38337204D01*
X82100000Y-38337204D01*
X82089500Y-38439983D01*
X82089500Y-39440001D01*
X82089501Y-39440019D01*
X82100000Y-39542796D01*
X82100001Y-39542799D01*
X82137569Y-39656170D01*
X82155186Y-39709334D01*
X82235445Y-39839456D01*
X82247289Y-39858657D01*
X82353181Y-39964549D01*
X82386666Y-40025872D01*
X82389500Y-40052230D01*
X82389500Y-45163846D01*
X82420260Y-45318488D01*
X82420262Y-45318494D01*
X82420263Y-45318497D01*
X82424220Y-45328050D01*
X82431687Y-45397519D01*
X82400411Y-45459998D01*
X82340322Y-45495649D01*
X82309658Y-45499500D01*
X81971154Y-45499500D01*
X81816509Y-45530261D01*
X81816497Y-45530264D01*
X81773832Y-45547936D01*
X81773833Y-45547937D01*
X81670823Y-45590604D01*
X81670814Y-45590609D01*
X81541177Y-45677230D01*
X81541178Y-45677231D01*
X81539716Y-45678207D01*
X81539703Y-45678218D01*
X81484741Y-45733181D01*
X81423418Y-45766666D01*
X81397060Y-45769500D01*
X78842940Y-45769500D01*
X78775901Y-45749815D01*
X78755259Y-45733181D01*
X78526819Y-45504741D01*
X78493334Y-45443418D01*
X78490500Y-45417060D01*
X78490500Y-44503333D01*
X78510185Y-44436294D01*
X78562989Y-44390539D01*
X78632147Y-44380595D01*
X78695703Y-44409620D01*
X78733477Y-44468398D01*
X78734275Y-44471240D01*
X78771094Y-44608655D01*
X78771096Y-44608659D01*
X78771097Y-44608663D01*
X78807542Y-44686819D01*
X78870965Y-44822830D01*
X78870967Y-44822834D01*
X78961115Y-44951578D01*
X79006505Y-45016401D01*
X79173599Y-45183495D01*
X79197198Y-45200019D01*
X79367165Y-45319032D01*
X79367167Y-45319033D01*
X79367170Y-45319035D01*
X79581337Y-45418903D01*
X79809592Y-45480063D01*
X79987737Y-45495649D01*
X80044999Y-45500659D01*
X80045000Y-45500659D01*
X80045001Y-45500659D01*
X80102263Y-45495649D01*
X80280408Y-45480063D01*
X80508663Y-45418903D01*
X80722830Y-45319035D01*
X80916401Y-45183495D01*
X81083495Y-45016401D01*
X81219035Y-44822830D01*
X81318903Y-44608663D01*
X81380063Y-44380408D01*
X81400659Y-44145000D01*
X81380063Y-43909592D01*
X81318903Y-43681337D01*
X81219035Y-43467171D01*
X81207142Y-43450185D01*
X81083494Y-43273597D01*
X80916402Y-43106506D01*
X80916396Y-43106501D01*
X80730842Y-42976575D01*
X80687217Y-42921998D01*
X80680023Y-42852500D01*
X80711546Y-42790145D01*
X80730842Y-42773425D01*
X80789059Y-42732661D01*
X80916401Y-42643495D01*
X81083495Y-42476401D01*
X81219035Y-42282830D01*
X81318903Y-42068663D01*
X81380063Y-41840408D01*
X81400659Y-41605000D01*
X81380063Y-41369592D01*
X81318903Y-41141337D01*
X81219035Y-40927171D01*
X81171091Y-40858700D01*
X81083496Y-40733600D01*
X81083495Y-40733599D01*
X80961179Y-40611283D01*
X80927696Y-40549963D01*
X80932680Y-40480271D01*
X80974551Y-40424337D01*
X81005529Y-40407422D01*
X81137086Y-40358354D01*
X81137093Y-40358350D01*
X81252187Y-40272190D01*
X81252190Y-40272187D01*
X81338350Y-40157093D01*
X81338354Y-40157086D01*
X81388596Y-40022379D01*
X81388598Y-40022372D01*
X81394999Y-39962844D01*
X81395000Y-39962827D01*
X81395000Y-39315000D01*
X80478012Y-39315000D01*
X80510925Y-39257993D01*
X80545000Y-39130826D01*
X80545000Y-38999174D01*
X80510925Y-38872007D01*
X80478012Y-38815000D01*
X81395000Y-38815000D01*
X81395000Y-38167172D01*
X81394999Y-38167155D01*
X81388598Y-38107627D01*
X81388596Y-38107620D01*
X81338354Y-37972913D01*
X81338350Y-37972906D01*
X81252190Y-37857812D01*
X81252187Y-37857809D01*
X81137093Y-37771649D01*
X81137086Y-37771645D01*
X81002379Y-37721403D01*
X81002372Y-37721401D01*
X80942844Y-37715000D01*
X80295000Y-37715000D01*
X80295000Y-38631988D01*
X80237993Y-38599075D01*
X80110826Y-38565000D01*
X79979174Y-38565000D01*
X79852007Y-38599075D01*
X79795000Y-38631988D01*
X79795000Y-37715000D01*
X79147155Y-37715000D01*
X79087627Y-37721401D01*
X79087620Y-37721403D01*
X78952913Y-37771645D01*
X78952906Y-37771649D01*
X78837812Y-37857809D01*
X78837809Y-37857812D01*
X78751649Y-37972906D01*
X78751645Y-37972913D01*
X78701403Y-38107620D01*
X78701401Y-38107627D01*
X78695000Y-38167155D01*
X78695000Y-38815000D01*
X79611988Y-38815000D01*
X79579075Y-38872007D01*
X79545000Y-38999174D01*
X79545000Y-39130826D01*
X79579075Y-39257993D01*
X79611988Y-39315000D01*
X78695000Y-39315000D01*
X78695000Y-39962844D01*
X78701401Y-40022372D01*
X78701403Y-40022379D01*
X78751645Y-40157086D01*
X78751649Y-40157093D01*
X78837809Y-40272187D01*
X78837812Y-40272190D01*
X78952906Y-40358350D01*
X78952913Y-40358354D01*
X79084470Y-40407421D01*
X79140403Y-40449292D01*
X79164821Y-40514756D01*
X79149970Y-40583029D01*
X79128819Y-40611284D01*
X79006503Y-40733600D01*
X78870965Y-40927169D01*
X78870964Y-40927171D01*
X78771098Y-41141335D01*
X78771094Y-41141344D01*
X78709938Y-41369586D01*
X78709936Y-41369596D01*
X78689341Y-41604999D01*
X78689341Y-41605000D01*
X78709936Y-41840403D01*
X78709938Y-41840413D01*
X78771094Y-42068655D01*
X78771096Y-42068659D01*
X78771097Y-42068663D01*
X78808212Y-42148256D01*
X78870965Y-42282830D01*
X78870967Y-42282834D01*
X78952996Y-42399983D01*
X78991170Y-42454501D01*
X79006501Y-42476395D01*
X79006506Y-42476402D01*
X79173597Y-42643493D01*
X79173603Y-42643498D01*
X79359158Y-42773425D01*
X79402783Y-42828002D01*
X79409977Y-42897500D01*
X79378454Y-42959855D01*
X79359158Y-42976575D01*
X79173597Y-43106505D01*
X79006505Y-43273597D01*
X78870965Y-43467169D01*
X78870964Y-43467171D01*
X78771098Y-43681335D01*
X78771094Y-43681344D01*
X78734275Y-43818759D01*
X78697910Y-43878420D01*
X78635063Y-43908949D01*
X78565688Y-43900654D01*
X78511810Y-43856169D01*
X78490535Y-43789617D01*
X78490500Y-43786666D01*
X78490500Y-42861157D01*
X78482543Y-42821159D01*
X78482543Y-42821156D01*
X78459738Y-42706508D01*
X78459737Y-42706507D01*
X78459737Y-42706503D01*
X78450543Y-42684306D01*
X78420940Y-42612838D01*
X78399397Y-42560827D01*
X78399390Y-42560814D01*
X78311790Y-42429712D01*
X78282061Y-42399983D01*
X78200289Y-42318211D01*
X78060224Y-42178146D01*
X77890292Y-42008213D01*
X77890288Y-42008210D01*
X77759185Y-41920609D01*
X77759172Y-41920602D01*
X77613501Y-41860264D01*
X77613489Y-41860261D01*
X77458845Y-41829500D01*
X77458842Y-41829500D01*
X76452231Y-41829500D01*
X76385192Y-41809815D01*
X76364550Y-41793181D01*
X76314049Y-41742680D01*
X76280564Y-41681357D01*
X76285548Y-41611665D01*
X76314048Y-41567319D01*
X76352712Y-41528656D01*
X76444814Y-41379334D01*
X76499999Y-41212797D01*
X76510500Y-41110009D01*
X76510499Y-40309992D01*
X76506637Y-40272190D01*
X76499999Y-40207203D01*
X76499998Y-40207200D01*
X76444814Y-40040666D01*
X76352712Y-39891344D01*
X76259049Y-39797681D01*
X76225564Y-39736358D01*
X76230548Y-39666666D01*
X76259049Y-39622319D01*
X76352712Y-39528656D01*
X76444814Y-39379334D01*
X76499999Y-39212797D01*
X76510500Y-39110009D01*
X76510499Y-38309992D01*
X76503752Y-38243948D01*
X76516521Y-38175258D01*
X76539426Y-38143670D01*
X80933041Y-33750056D01*
X80994362Y-33716573D01*
X81064054Y-33721557D01*
G37*
%TD.AperFunction*%
%TA.AperFunction,Conductor*%
G36*
X57927271Y-35390785D02*
G01*
X57996764Y-35494789D01*
X58085211Y-35583236D01*
X58189215Y-35652729D01*
X58253991Y-35679560D01*
X57653791Y-36279760D01*
X57657116Y-36333317D01*
X57641623Y-36401447D01*
X57591755Y-36450386D01*
X57533354Y-36465000D01*
X57517155Y-36465000D01*
X57457627Y-36471401D01*
X57457620Y-36471403D01*
X57322913Y-36521645D01*
X57322906Y-36521649D01*
X57207812Y-36607809D01*
X57207809Y-36607812D01*
X57121649Y-36722906D01*
X57121645Y-36722913D01*
X57072578Y-36854470D01*
X57030707Y-36910404D01*
X56965242Y-36934821D01*
X56896969Y-36919969D01*
X56868715Y-36898818D01*
X56786819Y-36816922D01*
X56753334Y-36755599D01*
X56750500Y-36729241D01*
X56750500Y-36368809D01*
X56770185Y-36301770D01*
X56798336Y-36270956D01*
X56937463Y-36162671D01*
X57100551Y-35985510D01*
X57116490Y-35961114D01*
X57169633Y-35915758D01*
X57238864Y-35906333D01*
X57274216Y-35922799D01*
X57300880Y-35925564D01*
X57900438Y-35326006D01*
X57927271Y-35390785D01*
G37*
%TD.AperFunction*%
%TD*%
M02*
