%TF.GenerationSoftware,KiCad,Pcbnew,8.0.2*%
%TF.CreationDate,2024-08-11T09:10:31+02:00*%
%TF.ProjectId,ir-blaster,69722d62-6c61-4737-9465-722e6b696361,rev?*%
%TF.SameCoordinates,Original*%
%TF.FileFunction,Drillmap*%
%TF.FilePolarity,Positive*%
%FSLAX45Y45*%
G04 Gerber Fmt 4.5, Leading zero omitted, Abs format (unit mm)*
G04 Created by KiCad (PCBNEW 8.0.2) date 2024-08-11 09:10:31*
%MOMM*%
%LPD*%
G01*
G04 APERTURE LIST*
%ADD10C,0.250000*%
%ADD11C,0.050000*%
%ADD12C,0.200000*%
G04 APERTURE END LIST*
D10*
X8791000Y-3976000D02*
X8791000Y-4576000D01*
X7591000Y-3276000D02*
X5391000Y-3276000D01*
X5291000Y-5176000D02*
X5291000Y-3376000D01*
X7791000Y-5576000D02*
G75*
G02*
X7691000Y-5476000I0J100000D01*
G01*
X7791000Y-2976000D02*
G75*
G02*
X8791000Y-3976000I0J-1000000D01*
G01*
D11*
X5927000Y-4298000D02*
G75*
G02*
X5627000Y-4298000I-150000J0D01*
G01*
X5627000Y-4298000D02*
G75*
G02*
X5927000Y-4298000I150000J0D01*
G01*
D10*
X7691000Y-3076000D02*
X7691000Y-3176000D01*
X5391000Y-5276000D02*
G75*
G02*
X5291000Y-5176000I0J100000D01*
G01*
X7591000Y-5276000D02*
G75*
G02*
X7691000Y-5376000I0J-100000D01*
G01*
X7691000Y-3176000D02*
G75*
G02*
X7591000Y-3276000I-100000J0D01*
G01*
X7691000Y-5476000D02*
X7691000Y-5376000D01*
X5291000Y-3376000D02*
G75*
G02*
X5391000Y-3276000I100000J0D01*
G01*
X7591000Y-5276000D02*
X5391000Y-5276000D01*
X8791000Y-4576000D02*
G75*
G02*
X7791000Y-5576000I-1000000J0D01*
G01*
X7691000Y-3076000D02*
G75*
G02*
X7791000Y-2976000I100000J0D01*
G01*
D12*
X5539277Y-5899984D02*
X5539277Y-5699984D01*
X5539277Y-5699984D02*
X5586896Y-5699984D01*
X5586896Y-5699984D02*
X5615467Y-5709508D01*
X5615467Y-5709508D02*
X5634515Y-5728555D01*
X5634515Y-5728555D02*
X5644039Y-5747603D01*
X5644039Y-5747603D02*
X5653562Y-5785698D01*
X5653562Y-5785698D02*
X5653562Y-5814269D01*
X5653562Y-5814269D02*
X5644039Y-5852365D01*
X5644039Y-5852365D02*
X5634515Y-5871412D01*
X5634515Y-5871412D02*
X5615467Y-5890460D01*
X5615467Y-5890460D02*
X5586896Y-5899984D01*
X5586896Y-5899984D02*
X5539277Y-5899984D01*
X5739277Y-5899984D02*
X5739277Y-5766650D01*
X5739277Y-5804746D02*
X5748801Y-5785698D01*
X5748801Y-5785698D02*
X5758324Y-5776174D01*
X5758324Y-5776174D02*
X5777372Y-5766650D01*
X5777372Y-5766650D02*
X5796420Y-5766650D01*
X5863086Y-5899984D02*
X5863086Y-5766650D01*
X5863086Y-5699984D02*
X5853562Y-5709508D01*
X5853562Y-5709508D02*
X5863086Y-5719031D01*
X5863086Y-5719031D02*
X5872610Y-5709508D01*
X5872610Y-5709508D02*
X5863086Y-5699984D01*
X5863086Y-5699984D02*
X5863086Y-5719031D01*
X5986896Y-5899984D02*
X5967848Y-5890460D01*
X5967848Y-5890460D02*
X5958324Y-5871412D01*
X5958324Y-5871412D02*
X5958324Y-5699984D01*
X6091658Y-5899984D02*
X6072610Y-5890460D01*
X6072610Y-5890460D02*
X6063086Y-5871412D01*
X6063086Y-5871412D02*
X6063086Y-5699984D01*
X6320229Y-5899984D02*
X6320229Y-5699984D01*
X6320229Y-5699984D02*
X6386896Y-5842841D01*
X6386896Y-5842841D02*
X6453562Y-5699984D01*
X6453562Y-5699984D02*
X6453562Y-5899984D01*
X6634515Y-5899984D02*
X6634515Y-5795222D01*
X6634515Y-5795222D02*
X6624991Y-5776174D01*
X6624991Y-5776174D02*
X6605943Y-5766650D01*
X6605943Y-5766650D02*
X6567848Y-5766650D01*
X6567848Y-5766650D02*
X6548801Y-5776174D01*
X6634515Y-5890460D02*
X6615467Y-5899984D01*
X6615467Y-5899984D02*
X6567848Y-5899984D01*
X6567848Y-5899984D02*
X6548801Y-5890460D01*
X6548801Y-5890460D02*
X6539277Y-5871412D01*
X6539277Y-5871412D02*
X6539277Y-5852365D01*
X6539277Y-5852365D02*
X6548801Y-5833317D01*
X6548801Y-5833317D02*
X6567848Y-5823793D01*
X6567848Y-5823793D02*
X6615467Y-5823793D01*
X6615467Y-5823793D02*
X6634515Y-5814269D01*
X6729753Y-5766650D02*
X6729753Y-5966650D01*
X6729753Y-5776174D02*
X6748801Y-5766650D01*
X6748801Y-5766650D02*
X6786896Y-5766650D01*
X6786896Y-5766650D02*
X6805943Y-5776174D01*
X6805943Y-5776174D02*
X6815467Y-5785698D01*
X6815467Y-5785698D02*
X6824991Y-5804746D01*
X6824991Y-5804746D02*
X6824991Y-5861888D01*
X6824991Y-5861888D02*
X6815467Y-5880936D01*
X6815467Y-5880936D02*
X6805943Y-5890460D01*
X6805943Y-5890460D02*
X6786896Y-5899984D01*
X6786896Y-5899984D02*
X6748801Y-5899984D01*
X6748801Y-5899984D02*
X6729753Y-5890460D01*
X6910705Y-5880936D02*
X6920229Y-5890460D01*
X6920229Y-5890460D02*
X6910705Y-5899984D01*
X6910705Y-5899984D02*
X6901182Y-5890460D01*
X6901182Y-5890460D02*
X6910705Y-5880936D01*
X6910705Y-5880936D02*
X6910705Y-5899984D01*
X6910705Y-5776174D02*
X6920229Y-5785698D01*
X6920229Y-5785698D02*
X6910705Y-5795222D01*
X6910705Y-5795222D02*
X6901182Y-5785698D01*
X6901182Y-5785698D02*
X6910705Y-5776174D01*
X6910705Y-5776174D02*
X6910705Y-5795222D01*
M02*
