%TF.GenerationSoftware,KiCad,Pcbnew,8.0.2*%
%TF.CreationDate,2024-08-10T10:20:15+02:00*%
%TF.ProjectId,ir-blaster,69722d62-6c61-4737-9465-722e6b696361,rev?*%
%TF.SameCoordinates,Original*%
%TF.FileFunction,Copper,L2,Bot*%
%TF.FilePolarity,Positive*%
%FSLAX46Y46*%
G04 Gerber Fmt 4.6, Leading zero omitted, Abs format (unit mm)*
G04 Created by KiCad (PCBNEW 8.0.2) date 2024-08-10 10:20:15*
%MOMM*%
%LPD*%
G01*
G04 APERTURE LIST*
G04 Aperture macros list*
%AMRotRect*
0 Rectangle, with rotation*
0 The origin of the aperture is its center*
0 $1 length*
0 $2 width*
0 $3 Rotation angle, in degrees counterclockwise*
0 Add horizontal line*
21,1,$1,$2,0,0,$3*%
G04 Aperture macros list end*
%TA.AperFunction,ComponentPad*%
%ADD10R,1.700000X1.700000*%
%TD*%
%TA.AperFunction,ComponentPad*%
%ADD11O,1.700000X1.700000*%
%TD*%
%TA.AperFunction,ComponentPad*%
%ADD12R,1.800000X1.800000*%
%TD*%
%TA.AperFunction,ComponentPad*%
%ADD13C,1.800000*%
%TD*%
%TA.AperFunction,ComponentPad*%
%ADD14RotRect,1.800000X1.800000X135.000000*%
%TD*%
%TA.AperFunction,ComponentPad*%
%ADD15C,1.905000*%
%TD*%
%TA.AperFunction,ComponentPad*%
%ADD16RotRect,1.800000X1.800000X45.000000*%
%TD*%
%TA.AperFunction,ViaPad*%
%ADD17C,0.500000*%
%TD*%
%TA.AperFunction,Conductor*%
%ADD18C,0.600000*%
%TD*%
G04 APERTURE END LIST*
D10*
%TO.P,J2,1,Pin_1*%
%TO.N,GND*%
X80045000Y-39065000D03*
D11*
%TO.P,J2,2,Pin_2*%
%TO.N,Net-(J2-Pin_2)*%
X80045000Y-41605000D03*
%TO.P,J2,3,Pin_3*%
%TO.N,3.3V*%
X80045000Y-44145000D03*
%TD*%
D12*
%TO.P,D2,1,K*%
%TO.N,Net-(D1-K)*%
X84960000Y-43855000D03*
D13*
%TO.P,D2,2,A*%
%TO.N,Net-(D2-A)*%
X84960000Y-41315000D03*
%TD*%
D14*
%TO.P,D1,1,K*%
%TO.N,Net-(D1-K)*%
X82916051Y-33896051D03*
D13*
%TO.P,D1,2,A*%
%TO.N,Net-(D1-A)*%
X81120000Y-32100000D03*
%TD*%
D15*
%TO.P,U1,0,GPIO0*%
%TO.N,unconnected-(U1-GPIO0-Pad0)*%
X73730000Y-35090000D03*
%TO.P,U1,1,GPIO1*%
%TO.N,Net-(J2-Pin_2)*%
X71190000Y-35090000D03*
%TO.P,U1,2,GPIO2*%
%TO.N,unconnected-(U1-GPIO2-Pad2)*%
X68650000Y-35090000D03*
%TO.P,U1,3,GPIO3*%
%TO.N,unconnected-(U1-GPIO3-Pad3)*%
X66110000Y-35090000D03*
%TO.P,U1,3.3,3V3*%
%TO.N,3.3V*%
X61030000Y-35090000D03*
%TO.P,U1,4,GPIO4*%
%TO.N,unconnected-(U1-GPIO4-Pad4)*%
X63570000Y-35090000D03*
%TO.P,U1,5,GPIO5*%
%TO.N,unconnected-(U1-GPIO5-Pad5)*%
X55950000Y-50330000D03*
%TO.P,U1,5V,5V*%
%TO.N,5V*%
X55950000Y-35090000D03*
%TO.P,U1,6,GPIO6*%
%TO.N,unconnected-(U1-GPIO6-Pad6)*%
X58490000Y-50330000D03*
%TO.P,U1,7,GPIO7*%
%TO.N,/IR_OUT*%
X61030000Y-50330000D03*
%TO.P,U1,8,GPIO8*%
%TO.N,unconnected-(U1-GPIO8-Pad8)*%
X63570000Y-50330000D03*
%TO.P,U1,9,GPIO9*%
%TO.N,unconnected-(U1-GPIO9-Pad9)*%
X66110000Y-50330000D03*
%TO.P,U1,10,GPIO10*%
%TO.N,unconnected-(U1-GPIO10-Pad10)*%
X68650000Y-50330000D03*
%TO.P,U1,20,GPIO20*%
%TO.N,unconnected-(U1-GPIO20-Pad20)*%
X71190000Y-50330000D03*
%TO.P,U1,21,GPIO21*%
%TO.N,unconnected-(U1-GPIO21-Pad21)*%
X73730000Y-50330000D03*
%TO.P,U1,G,GND*%
%TO.N,GND*%
X58490000Y-35090000D03*
%TD*%
D10*
%TO.P,J1,1,Pin_1*%
%TO.N,GND*%
X58415000Y-37815000D03*
D11*
%TO.P,J1,2,Pin_2*%
%TO.N,5V*%
X55875000Y-37815000D03*
%TD*%
D16*
%TO.P,D3,1,K*%
%TO.N,Net-(D1-K)*%
X80418439Y-52311562D03*
D13*
%TO.P,D3,2,A*%
%TO.N,Net-(D3-A)*%
X82214490Y-50515511D03*
%TD*%
D17*
%TO.N,GND*%
X66150000Y-46020000D03*
%TD*%
D18*
%TO.N,Net-(D1-K)*%
X86860000Y-39050000D02*
X84660000Y-36850000D01*
X84690000Y-51510000D02*
X82930000Y-53270000D01*
X82930000Y-53270000D02*
X81376877Y-53270000D01*
X85950000Y-49490000D02*
X84690000Y-50750000D01*
X85950000Y-44845000D02*
X85950000Y-49490000D01*
X84690000Y-50750000D02*
X84690000Y-51510000D01*
X84960000Y-43855000D02*
X85950000Y-44845000D01*
X84960000Y-43855000D02*
X86860000Y-41955000D01*
X86860000Y-41955000D02*
X86860000Y-39050000D01*
X81376877Y-53270000D02*
X80418439Y-52311562D01*
X84660000Y-35630000D02*
X84650000Y-35630000D01*
X84660000Y-36850000D02*
X84660000Y-35630000D01*
X84650000Y-35630000D02*
X82916051Y-33896051D01*
%TO.N,GND*%
X58490000Y-37840000D02*
X58490000Y-35090000D01*
%TO.N,3.3V*%
X61030000Y-35970000D02*
X61030000Y-35090000D01*
X80045000Y-44145000D02*
X77885000Y-44145000D01*
X76550000Y-42810000D02*
X76550000Y-39040000D01*
X76550000Y-39040000D02*
X75970000Y-38460000D01*
X75970000Y-38460000D02*
X63520000Y-38460000D01*
X63520000Y-38460000D02*
X61030000Y-35970000D01*
X77885000Y-44145000D02*
X76550000Y-42810000D01*
%TO.N,Net-(J2-Pin_2)*%
X77950000Y-38310000D02*
X77040000Y-37400000D01*
X77040000Y-37400000D02*
X72600000Y-37400000D01*
X80045000Y-41605000D02*
X78842919Y-41605000D01*
X71190000Y-35990000D02*
X71190000Y-35090000D01*
X72600000Y-37400000D02*
X71190000Y-35990000D01*
X77950000Y-40712081D02*
X77950000Y-38310000D01*
X78842919Y-41605000D02*
X77950000Y-40712081D01*
%TD*%
%TA.AperFunction,Conductor*%
%TO.N,GND*%
G36*
X57927271Y-35390785D02*
G01*
X57996764Y-35494789D01*
X58085211Y-35583236D01*
X58189215Y-35652729D01*
X58253991Y-35679560D01*
X57653791Y-36279760D01*
X57657116Y-36333317D01*
X57641623Y-36401447D01*
X57591755Y-36450386D01*
X57533354Y-36465000D01*
X57517155Y-36465000D01*
X57457627Y-36471401D01*
X57457620Y-36471403D01*
X57322913Y-36521645D01*
X57322906Y-36521649D01*
X57207812Y-36607809D01*
X57207809Y-36607812D01*
X57121649Y-36722906D01*
X57121645Y-36722913D01*
X57072578Y-36854470D01*
X57030707Y-36910404D01*
X56965242Y-36934821D01*
X56896969Y-36919969D01*
X56868715Y-36898819D01*
X56824366Y-36854470D01*
X56746401Y-36776505D01*
X56746397Y-36776502D01*
X56746396Y-36776501D01*
X56552834Y-36640967D01*
X56552831Y-36640965D01*
X56552830Y-36640965D01*
X56552771Y-36640937D01*
X56552751Y-36640919D01*
X56548144Y-36638260D01*
X56548678Y-36637333D01*
X56500332Y-36594767D01*
X56481178Y-36527574D01*
X56501392Y-36460693D01*
X56546155Y-36419501D01*
X56747439Y-36310572D01*
X56937463Y-36162671D01*
X57100551Y-35985510D01*
X57116490Y-35961114D01*
X57169633Y-35915758D01*
X57238864Y-35906333D01*
X57274216Y-35922799D01*
X57300880Y-35925564D01*
X57900438Y-35326006D01*
X57927271Y-35390785D01*
G37*
%TD.AperFunction*%
%TA.AperFunction,Conductor*%
G36*
X78502598Y-30279123D02*
G01*
X78510340Y-30279610D01*
X79096734Y-30335040D01*
X79104459Y-30336016D01*
X79686188Y-30428153D01*
X79693802Y-30429605D01*
X80268649Y-30558098D01*
X80276172Y-30560031D01*
X80471975Y-30616917D01*
X80530859Y-30654522D01*
X80560065Y-30717994D01*
X80550319Y-30787181D01*
X80504715Y-30840115D01*
X80496396Y-30845046D01*
X80351380Y-30923525D01*
X80351365Y-30923535D01*
X80168222Y-31066081D01*
X80168219Y-31066084D01*
X80011016Y-31236852D01*
X79884075Y-31431151D01*
X79790842Y-31643699D01*
X79733866Y-31868691D01*
X79733864Y-31868702D01*
X79714700Y-32099993D01*
X79714700Y-32100006D01*
X79733864Y-32331297D01*
X79733866Y-32331308D01*
X79790842Y-32556300D01*
X79884075Y-32768848D01*
X80011016Y-32963147D01*
X80011019Y-32963151D01*
X80011021Y-32963153D01*
X80168216Y-33133913D01*
X80168219Y-33133915D01*
X80168222Y-33133918D01*
X80351365Y-33276464D01*
X80351371Y-33276468D01*
X80351374Y-33276470D01*
X80555497Y-33386936D01*
X80669487Y-33426068D01*
X80775015Y-33462297D01*
X80775017Y-33462297D01*
X80775019Y-33462298D01*
X81003951Y-33500500D01*
X81003952Y-33500500D01*
X81080731Y-33500500D01*
X81147770Y-33520185D01*
X81193525Y-33572989D01*
X81203469Y-33642147D01*
X81193525Y-33676012D01*
X81158093Y-33753594D01*
X81137612Y-33896051D01*
X81158093Y-34038507D01*
X81217880Y-34169421D01*
X81217881Y-34169422D01*
X81217882Y-34169424D01*
X81255501Y-34216107D01*
X81255504Y-34216110D01*
X81255509Y-34216116D01*
X82290209Y-35250814D01*
X82595995Y-35556600D01*
X82642678Y-35594220D01*
X82773594Y-35654008D01*
X82773593Y-35654008D01*
X82791500Y-35656582D01*
X82916051Y-35674490D01*
X83058508Y-35654008D01*
X83189424Y-35594220D01*
X83236107Y-35556601D01*
X83252632Y-35540075D01*
X83313954Y-35506589D01*
X83383645Y-35511572D01*
X83427996Y-35540074D01*
X83823181Y-35935259D01*
X83856666Y-35996582D01*
X83859500Y-36022940D01*
X83859500Y-36928846D01*
X83890261Y-37083489D01*
X83890264Y-37083501D01*
X83950602Y-37229172D01*
X83950609Y-37229185D01*
X84038210Y-37360288D01*
X84038213Y-37360292D01*
X86023181Y-39345259D01*
X86056666Y-39406582D01*
X86059500Y-39432940D01*
X86059500Y-40142413D01*
X86039815Y-40209452D01*
X85987011Y-40255207D01*
X85917853Y-40265151D01*
X85859338Y-40240266D01*
X85728634Y-40138535D01*
X85728628Y-40138531D01*
X85524504Y-40028064D01*
X85524495Y-40028061D01*
X85304984Y-39952702D01*
X85133282Y-39924050D01*
X85076049Y-39914500D01*
X84843951Y-39914500D01*
X84798164Y-39922140D01*
X84615015Y-39952702D01*
X84395504Y-40028061D01*
X84395495Y-40028064D01*
X84191371Y-40138531D01*
X84191365Y-40138535D01*
X84008222Y-40281081D01*
X84008219Y-40281084D01*
X83851016Y-40451852D01*
X83724075Y-40646151D01*
X83630842Y-40858699D01*
X83573866Y-41083691D01*
X83573864Y-41083702D01*
X83554700Y-41314993D01*
X83554700Y-41315006D01*
X83573864Y-41546297D01*
X83573866Y-41546308D01*
X83630842Y-41771300D01*
X83724075Y-41983848D01*
X83851016Y-42178147D01*
X83851019Y-42178151D01*
X83851021Y-42178153D01*
X83945803Y-42281114D01*
X83976724Y-42343767D01*
X83968864Y-42413193D01*
X83924716Y-42467348D01*
X83897906Y-42481277D01*
X83817669Y-42511203D01*
X83817664Y-42511206D01*
X83702455Y-42597452D01*
X83702452Y-42597455D01*
X83616206Y-42712664D01*
X83616202Y-42712671D01*
X83565908Y-42847517D01*
X83559501Y-42907116D01*
X83559500Y-42907135D01*
X83559500Y-44802870D01*
X83559501Y-44802876D01*
X83565908Y-44862483D01*
X83616202Y-44997328D01*
X83616206Y-44997335D01*
X83702452Y-45112544D01*
X83702455Y-45112547D01*
X83817664Y-45198793D01*
X83817671Y-45198797D01*
X83952517Y-45249091D01*
X83952516Y-45249091D01*
X83959444Y-45249835D01*
X84012127Y-45255500D01*
X85025500Y-45255499D01*
X85092539Y-45275183D01*
X85138294Y-45327987D01*
X85149500Y-45379499D01*
X85149500Y-49107060D01*
X85129815Y-49174099D01*
X85113181Y-49194741D01*
X84179711Y-50128211D01*
X84123960Y-50183962D01*
X84068209Y-50239712D01*
X83980609Y-50370814D01*
X83980602Y-50370827D01*
X83920264Y-50516498D01*
X83920261Y-50516510D01*
X83889500Y-50671153D01*
X83889500Y-51127060D01*
X83869815Y-51194099D01*
X83853181Y-51214741D01*
X82634741Y-52433181D01*
X82573418Y-52466666D01*
X82547060Y-52469500D01*
X82317274Y-52469500D01*
X82250235Y-52449815D01*
X82204480Y-52397011D01*
X82194536Y-52327855D01*
X82196878Y-52311564D01*
X82196878Y-52311562D01*
X82176396Y-52169105D01*
X82140965Y-52091523D01*
X82131021Y-52022364D01*
X82160046Y-51958809D01*
X82218824Y-51921034D01*
X82253759Y-51916011D01*
X82330538Y-51916011D01*
X82330539Y-51916011D01*
X82559471Y-51877809D01*
X82778993Y-51802447D01*
X82983116Y-51691981D01*
X83166274Y-51549424D01*
X83323469Y-51378664D01*
X83450414Y-51184360D01*
X83543647Y-50971811D01*
X83600624Y-50746816D01*
X83606893Y-50671158D01*
X83619790Y-50515517D01*
X83619790Y-50515504D01*
X83600625Y-50284213D01*
X83600623Y-50284202D01*
X83543647Y-50059210D01*
X83450414Y-49846662D01*
X83323473Y-49652363D01*
X83323470Y-49652360D01*
X83323469Y-49652358D01*
X83166274Y-49481598D01*
X83166269Y-49481594D01*
X83166267Y-49481592D01*
X82983124Y-49339046D01*
X82983118Y-49339042D01*
X82778994Y-49228575D01*
X82778985Y-49228572D01*
X82559474Y-49153213D01*
X82387772Y-49124561D01*
X82330539Y-49115011D01*
X82098441Y-49115011D01*
X82052654Y-49122651D01*
X81869505Y-49153213D01*
X81649994Y-49228572D01*
X81649985Y-49228575D01*
X81445861Y-49339042D01*
X81445855Y-49339046D01*
X81262712Y-49481592D01*
X81262709Y-49481595D01*
X81105506Y-49652363D01*
X80978565Y-49846662D01*
X80885332Y-50059210D01*
X80828356Y-50284202D01*
X80828354Y-50284214D01*
X80811666Y-50485614D01*
X80786513Y-50550799D01*
X80730111Y-50592037D01*
X80660367Y-50596235D01*
X80636578Y-50588168D01*
X80560894Y-50553604D01*
X80560896Y-50553604D01*
X80418439Y-50533123D01*
X80275982Y-50553604D01*
X80145068Y-50613391D01*
X80098373Y-50651020D01*
X78757897Y-51991498D01*
X78757891Y-51991505D01*
X78720269Y-52038190D01*
X78720268Y-52038192D01*
X78660481Y-52169105D01*
X78640000Y-52311562D01*
X78660481Y-52454018D01*
X78720268Y-52584932D01*
X78720269Y-52584933D01*
X78720270Y-52584935D01*
X78757889Y-52631618D01*
X78757892Y-52631621D01*
X78757897Y-52631627D01*
X79775123Y-53648851D01*
X80098383Y-53972111D01*
X80145066Y-54009731D01*
X80275982Y-54069519D01*
X80275981Y-54069519D01*
X80293888Y-54072093D01*
X80418439Y-54090001D01*
X80560896Y-54069519D01*
X80691812Y-54009731D01*
X80738495Y-53972112D01*
X80765991Y-53944615D01*
X80827312Y-53911129D01*
X80897004Y-53916111D01*
X80922565Y-53929192D01*
X80997691Y-53979390D01*
X80997704Y-53979397D01*
X81143375Y-54039735D01*
X81143380Y-54039737D01*
X81293103Y-54069519D01*
X81298030Y-54070499D01*
X81298033Y-54070500D01*
X81298035Y-54070500D01*
X81455719Y-54070500D01*
X81997350Y-54070500D01*
X82064389Y-54090185D01*
X82110144Y-54142989D01*
X82120088Y-54212147D01*
X82091063Y-54275703D01*
X82053644Y-54304985D01*
X81958161Y-54353635D01*
X81951114Y-54356951D01*
X81633719Y-54494301D01*
X81584472Y-54504500D01*
X77534500Y-54504500D01*
X77467461Y-54484815D01*
X77421706Y-54432011D01*
X77410500Y-54380500D01*
X77410500Y-53652683D01*
X77410500Y-53652682D01*
X77379954Y-53440231D01*
X77319484Y-53234290D01*
X77319483Y-53234288D01*
X77319482Y-53234284D01*
X77230327Y-53039061D01*
X77230320Y-53039048D01*
X77179915Y-52960616D01*
X77114281Y-52858487D01*
X77081172Y-52820277D01*
X76973724Y-52696275D01*
X76811514Y-52555720D01*
X76811513Y-52555719D01*
X76702441Y-52485623D01*
X76630951Y-52439679D01*
X76630938Y-52439672D01*
X76435715Y-52350517D01*
X76229774Y-52290047D01*
X76229764Y-52290044D01*
X76038754Y-52262582D01*
X76017318Y-52259500D01*
X76017317Y-52259500D01*
X53916962Y-52259500D01*
X53903078Y-52258720D01*
X53890553Y-52257308D01*
X53812735Y-52248540D01*
X53785666Y-52242362D01*
X53706462Y-52214648D01*
X53681444Y-52202600D01*
X53610395Y-52157957D01*
X53588686Y-52140644D01*
X53529355Y-52081313D01*
X53512042Y-52059604D01*
X53469253Y-51991506D01*
X53467398Y-51988553D01*
X53455351Y-51963537D01*
X53438721Y-51916011D01*
X53427636Y-51884331D01*
X53421459Y-51857263D01*
X53411280Y-51766922D01*
X53410500Y-51753038D01*
X53410500Y-50329994D01*
X54492020Y-50329994D01*
X54492020Y-50330005D01*
X54511904Y-50569972D01*
X54511904Y-50569975D01*
X54511905Y-50569976D01*
X54571017Y-50803405D01*
X54667745Y-51023922D01*
X54799449Y-51225510D01*
X54962537Y-51402671D01*
X55060243Y-51478718D01*
X55151088Y-51549426D01*
X55152561Y-51550572D01*
X55364336Y-51665179D01*
X55482598Y-51705778D01*
X55592083Y-51743365D01*
X55592085Y-51743365D01*
X55592087Y-51743366D01*
X55829601Y-51783000D01*
X55829602Y-51783000D01*
X56070398Y-51783000D01*
X56070399Y-51783000D01*
X56307913Y-51743366D01*
X56535664Y-51665179D01*
X56747439Y-51550572D01*
X56937463Y-51402671D01*
X57100551Y-51225510D01*
X57116190Y-51201571D01*
X57169336Y-51156214D01*
X57238567Y-51146790D01*
X57301904Y-51176291D01*
X57323808Y-51201570D01*
X57339449Y-51225510D01*
X57502537Y-51402671D01*
X57600243Y-51478718D01*
X57691088Y-51549426D01*
X57692561Y-51550572D01*
X57904336Y-51665179D01*
X58022598Y-51705778D01*
X58132083Y-51743365D01*
X58132085Y-51743365D01*
X58132087Y-51743366D01*
X58369601Y-51783000D01*
X58369602Y-51783000D01*
X58610398Y-51783000D01*
X58610399Y-51783000D01*
X58847913Y-51743366D01*
X59075664Y-51665179D01*
X59287439Y-51550572D01*
X59477463Y-51402671D01*
X59640551Y-51225510D01*
X59656190Y-51201571D01*
X59709336Y-51156214D01*
X59778567Y-51146790D01*
X59841904Y-51176291D01*
X59863808Y-51201570D01*
X59879449Y-51225510D01*
X60042537Y-51402671D01*
X60140243Y-51478718D01*
X60231088Y-51549426D01*
X60232561Y-51550572D01*
X60444336Y-51665179D01*
X60562598Y-51705778D01*
X60672083Y-51743365D01*
X60672085Y-51743365D01*
X60672087Y-51743366D01*
X60909601Y-51783000D01*
X60909602Y-51783000D01*
X61150398Y-51783000D01*
X61150399Y-51783000D01*
X61387913Y-51743366D01*
X61615664Y-51665179D01*
X61827439Y-51550572D01*
X62017463Y-51402671D01*
X62180551Y-51225510D01*
X62196190Y-51201571D01*
X62249336Y-51156214D01*
X62318567Y-51146790D01*
X62381904Y-51176291D01*
X62403808Y-51201570D01*
X62419449Y-51225510D01*
X62582537Y-51402671D01*
X62680243Y-51478718D01*
X62771088Y-51549426D01*
X62772561Y-51550572D01*
X62984336Y-51665179D01*
X63102598Y-51705778D01*
X63212083Y-51743365D01*
X63212085Y-51743365D01*
X63212087Y-51743366D01*
X63449601Y-51783000D01*
X63449602Y-51783000D01*
X63690398Y-51783000D01*
X63690399Y-51783000D01*
X63927913Y-51743366D01*
X64155664Y-51665179D01*
X64367439Y-51550572D01*
X64557463Y-51402671D01*
X64720551Y-51225510D01*
X64736190Y-51201571D01*
X64789336Y-51156214D01*
X64858567Y-51146790D01*
X64921904Y-51176291D01*
X64943808Y-51201570D01*
X64959449Y-51225510D01*
X65122537Y-51402671D01*
X65220243Y-51478718D01*
X65311088Y-51549426D01*
X65312561Y-51550572D01*
X65524336Y-51665179D01*
X65642598Y-51705778D01*
X65752083Y-51743365D01*
X65752085Y-51743365D01*
X65752087Y-51743366D01*
X65989601Y-51783000D01*
X65989602Y-51783000D01*
X66230398Y-51783000D01*
X66230399Y-51783000D01*
X66467913Y-51743366D01*
X66695664Y-51665179D01*
X66907439Y-51550572D01*
X67097463Y-51402671D01*
X67260551Y-51225510D01*
X67276190Y-51201571D01*
X67329336Y-51156214D01*
X67398567Y-51146790D01*
X67461904Y-51176291D01*
X67483808Y-51201570D01*
X67499449Y-51225510D01*
X67662537Y-51402671D01*
X67760243Y-51478718D01*
X67851088Y-51549426D01*
X67852561Y-51550572D01*
X68064336Y-51665179D01*
X68182598Y-51705778D01*
X68292083Y-51743365D01*
X68292085Y-51743365D01*
X68292087Y-51743366D01*
X68529601Y-51783000D01*
X68529602Y-51783000D01*
X68770398Y-51783000D01*
X68770399Y-51783000D01*
X69007913Y-51743366D01*
X69235664Y-51665179D01*
X69447439Y-51550572D01*
X69637463Y-51402671D01*
X69800551Y-51225510D01*
X69816190Y-51201571D01*
X69869336Y-51156214D01*
X69938567Y-51146790D01*
X70001904Y-51176291D01*
X70023808Y-51201570D01*
X70039449Y-51225510D01*
X70202537Y-51402671D01*
X70300243Y-51478718D01*
X70391088Y-51549426D01*
X70392561Y-51550572D01*
X70604336Y-51665179D01*
X70722598Y-51705778D01*
X70832083Y-51743365D01*
X70832085Y-51743365D01*
X70832087Y-51743366D01*
X71069601Y-51783000D01*
X71069602Y-51783000D01*
X71310398Y-51783000D01*
X71310399Y-51783000D01*
X71547913Y-51743366D01*
X71775664Y-51665179D01*
X71987439Y-51550572D01*
X72177463Y-51402671D01*
X72340551Y-51225510D01*
X72356190Y-51201571D01*
X72409336Y-51156214D01*
X72478567Y-51146790D01*
X72541904Y-51176291D01*
X72563808Y-51201570D01*
X72579449Y-51225510D01*
X72742537Y-51402671D01*
X72840243Y-51478718D01*
X72931088Y-51549426D01*
X72932561Y-51550572D01*
X73144336Y-51665179D01*
X73262598Y-51705778D01*
X73372083Y-51743365D01*
X73372085Y-51743365D01*
X73372087Y-51743366D01*
X73609601Y-51783000D01*
X73609602Y-51783000D01*
X73850398Y-51783000D01*
X73850399Y-51783000D01*
X74087913Y-51743366D01*
X74315664Y-51665179D01*
X74527439Y-51550572D01*
X74717463Y-51402671D01*
X74880551Y-51225510D01*
X75012255Y-51023922D01*
X75108983Y-50803405D01*
X75168095Y-50569976D01*
X75184597Y-50370827D01*
X75187980Y-50330005D01*
X75187980Y-50329994D01*
X75168095Y-50090027D01*
X75168095Y-50090024D01*
X75108983Y-49856595D01*
X75012255Y-49636078D01*
X74880551Y-49434490D01*
X74717463Y-49257329D01*
X74583358Y-49152951D01*
X74527441Y-49109429D01*
X74315665Y-48994821D01*
X74315656Y-48994818D01*
X74087916Y-48916634D01*
X73909777Y-48886908D01*
X73850399Y-48877000D01*
X73609601Y-48877000D01*
X73562098Y-48884926D01*
X73372083Y-48916634D01*
X73144343Y-48994818D01*
X73144334Y-48994821D01*
X72932558Y-49109429D01*
X72849471Y-49174099D01*
X72742537Y-49257329D01*
X72579449Y-49434490D01*
X72563808Y-49458431D01*
X72510661Y-49503787D01*
X72441430Y-49513210D01*
X72378094Y-49483707D01*
X72356192Y-49458431D01*
X72340551Y-49434490D01*
X72177463Y-49257329D01*
X72043358Y-49152951D01*
X71987441Y-49109429D01*
X71775665Y-48994821D01*
X71775656Y-48994818D01*
X71547916Y-48916634D01*
X71369777Y-48886908D01*
X71310399Y-48877000D01*
X71069601Y-48877000D01*
X71022098Y-48884926D01*
X70832083Y-48916634D01*
X70604343Y-48994818D01*
X70604334Y-48994821D01*
X70392558Y-49109429D01*
X70309471Y-49174099D01*
X70202537Y-49257329D01*
X70039449Y-49434490D01*
X70023808Y-49458431D01*
X69970661Y-49503787D01*
X69901430Y-49513210D01*
X69838094Y-49483707D01*
X69816192Y-49458431D01*
X69800551Y-49434490D01*
X69637463Y-49257329D01*
X69503358Y-49152951D01*
X69447441Y-49109429D01*
X69235665Y-48994821D01*
X69235656Y-48994818D01*
X69007916Y-48916634D01*
X68829777Y-48886908D01*
X68770399Y-48877000D01*
X68529601Y-48877000D01*
X68482098Y-48884926D01*
X68292083Y-48916634D01*
X68064343Y-48994818D01*
X68064334Y-48994821D01*
X67852558Y-49109429D01*
X67769471Y-49174099D01*
X67662537Y-49257329D01*
X67499449Y-49434490D01*
X67483808Y-49458431D01*
X67430661Y-49503787D01*
X67361430Y-49513210D01*
X67298094Y-49483707D01*
X67276192Y-49458431D01*
X67260551Y-49434490D01*
X67097463Y-49257329D01*
X66963358Y-49152951D01*
X66907441Y-49109429D01*
X66695665Y-48994821D01*
X66695656Y-48994818D01*
X66467916Y-48916634D01*
X66289777Y-48886908D01*
X66230399Y-48877000D01*
X65989601Y-48877000D01*
X65942098Y-48884926D01*
X65752083Y-48916634D01*
X65524343Y-48994818D01*
X65524334Y-48994821D01*
X65312558Y-49109429D01*
X65229471Y-49174099D01*
X65122537Y-49257329D01*
X64959449Y-49434490D01*
X64943808Y-49458431D01*
X64890661Y-49503787D01*
X64821430Y-49513210D01*
X64758094Y-49483707D01*
X64736192Y-49458431D01*
X64720551Y-49434490D01*
X64557463Y-49257329D01*
X64423358Y-49152951D01*
X64367441Y-49109429D01*
X64155665Y-48994821D01*
X64155656Y-48994818D01*
X63927916Y-48916634D01*
X63749777Y-48886908D01*
X63690399Y-48877000D01*
X63449601Y-48877000D01*
X63402098Y-48884926D01*
X63212083Y-48916634D01*
X62984343Y-48994818D01*
X62984334Y-48994821D01*
X62772558Y-49109429D01*
X62689471Y-49174099D01*
X62582537Y-49257329D01*
X62419449Y-49434490D01*
X62403808Y-49458431D01*
X62350661Y-49503787D01*
X62281430Y-49513210D01*
X62218094Y-49483707D01*
X62196192Y-49458431D01*
X62180551Y-49434490D01*
X62017463Y-49257329D01*
X61883358Y-49152951D01*
X61827441Y-49109429D01*
X61615665Y-48994821D01*
X61615656Y-48994818D01*
X61387916Y-48916634D01*
X61209777Y-48886908D01*
X61150399Y-48877000D01*
X60909601Y-48877000D01*
X60862098Y-48884926D01*
X60672083Y-48916634D01*
X60444343Y-48994818D01*
X60444334Y-48994821D01*
X60232558Y-49109429D01*
X60149471Y-49174099D01*
X60042537Y-49257329D01*
X59879449Y-49434490D01*
X59863808Y-49458431D01*
X59810661Y-49503787D01*
X59741430Y-49513210D01*
X59678094Y-49483707D01*
X59656192Y-49458431D01*
X59640551Y-49434490D01*
X59477463Y-49257329D01*
X59343358Y-49152951D01*
X59287441Y-49109429D01*
X59075665Y-48994821D01*
X59075656Y-48994818D01*
X58847916Y-48916634D01*
X58669777Y-48886908D01*
X58610399Y-48877000D01*
X58369601Y-48877000D01*
X58322098Y-48884926D01*
X58132083Y-48916634D01*
X57904343Y-48994818D01*
X57904334Y-48994821D01*
X57692558Y-49109429D01*
X57609471Y-49174099D01*
X57502537Y-49257329D01*
X57339449Y-49434490D01*
X57323808Y-49458431D01*
X57270661Y-49503787D01*
X57201430Y-49513210D01*
X57138094Y-49483707D01*
X57116192Y-49458431D01*
X57100551Y-49434490D01*
X56937463Y-49257329D01*
X56803358Y-49152951D01*
X56747441Y-49109429D01*
X56535665Y-48994821D01*
X56535656Y-48994818D01*
X56307916Y-48916634D01*
X56129777Y-48886908D01*
X56070399Y-48877000D01*
X55829601Y-48877000D01*
X55782098Y-48884926D01*
X55592083Y-48916634D01*
X55364343Y-48994818D01*
X55364334Y-48994821D01*
X55152558Y-49109429D01*
X55069471Y-49174099D01*
X54962537Y-49257329D01*
X54962534Y-49257331D01*
X54962534Y-49257332D01*
X54799449Y-49434490D01*
X54667743Y-49636081D01*
X54571017Y-49856594D01*
X54511904Y-50090027D01*
X54492020Y-50329994D01*
X53410500Y-50329994D01*
X53410500Y-42979998D01*
X55764390Y-42979998D01*
X55764390Y-42980001D01*
X55784804Y-43265433D01*
X55845628Y-43545037D01*
X55845630Y-43545043D01*
X55845631Y-43545046D01*
X55896465Y-43681337D01*
X55945635Y-43813166D01*
X56082770Y-44064309D01*
X56082775Y-44064317D01*
X56254254Y-44293387D01*
X56254270Y-44293405D01*
X56456594Y-44495729D01*
X56456612Y-44495745D01*
X56685682Y-44667224D01*
X56685690Y-44667229D01*
X56936833Y-44804364D01*
X56936832Y-44804364D01*
X56936836Y-44804365D01*
X56936839Y-44804367D01*
X57204954Y-44904369D01*
X57204960Y-44904370D01*
X57204962Y-44904371D01*
X57484566Y-44965195D01*
X57484568Y-44965195D01*
X57484572Y-44965196D01*
X57738220Y-44983337D01*
X57769999Y-44985610D01*
X57770000Y-44985610D01*
X57770001Y-44985610D01*
X57798595Y-44983564D01*
X58055428Y-44965196D01*
X58145970Y-44945500D01*
X58335037Y-44904371D01*
X58335037Y-44904370D01*
X58335046Y-44904369D01*
X58603161Y-44804367D01*
X58854315Y-44667226D01*
X59083395Y-44495739D01*
X59285739Y-44293395D01*
X59457226Y-44064315D01*
X59594367Y-43813161D01*
X59694369Y-43545046D01*
X59745896Y-43308181D01*
X59755195Y-43265433D01*
X59755195Y-43265432D01*
X59755196Y-43265428D01*
X59775610Y-42980000D01*
X59755196Y-42694572D01*
X59744084Y-42643493D01*
X59694371Y-42414962D01*
X59694370Y-42414960D01*
X59694369Y-42414954D01*
X59594367Y-42146839D01*
X59577139Y-42115289D01*
X59457229Y-41895690D01*
X59457224Y-41895682D01*
X59285745Y-41666612D01*
X59285729Y-41666594D01*
X59083405Y-41464270D01*
X59083387Y-41464254D01*
X58854317Y-41292775D01*
X58854309Y-41292770D01*
X58603166Y-41155635D01*
X58603167Y-41155635D01*
X58410288Y-41083695D01*
X58335046Y-41055631D01*
X58335043Y-41055630D01*
X58335037Y-41055628D01*
X58055433Y-40994804D01*
X57770001Y-40974390D01*
X57769999Y-40974390D01*
X57484566Y-40994804D01*
X57204962Y-41055628D01*
X56936833Y-41155635D01*
X56685690Y-41292770D01*
X56685682Y-41292775D01*
X56456612Y-41464254D01*
X56456594Y-41464270D01*
X56254270Y-41666594D01*
X56254254Y-41666612D01*
X56082775Y-41895682D01*
X56082770Y-41895690D01*
X55945635Y-42146833D01*
X55845628Y-42414962D01*
X55784804Y-42694566D01*
X55764390Y-42979998D01*
X53410500Y-42979998D01*
X53410500Y-42874032D01*
X53430185Y-42806993D01*
X53446819Y-42786351D01*
X53470541Y-42762629D01*
X53500505Y-42732665D01*
X53569688Y-42612836D01*
X53605500Y-42479183D01*
X53605500Y-35089994D01*
X54492020Y-35089994D01*
X54492020Y-35090005D01*
X54511904Y-35329972D01*
X54571017Y-35563405D01*
X54619743Y-35674490D01*
X54667745Y-35783922D01*
X54799449Y-35985510D01*
X54962537Y-36162671D01*
X55152561Y-36310572D01*
X55194590Y-36333317D01*
X55284415Y-36381928D01*
X55334006Y-36431148D01*
X55349114Y-36499364D01*
X55324944Y-36564920D01*
X55277803Y-36603365D01*
X55197171Y-36640964D01*
X55197169Y-36640965D01*
X55003597Y-36776505D01*
X54836505Y-36943597D01*
X54700965Y-37137169D01*
X54700964Y-37137171D01*
X54601098Y-37351335D01*
X54601094Y-37351344D01*
X54539938Y-37579586D01*
X54539936Y-37579596D01*
X54519341Y-37814999D01*
X54519341Y-37815000D01*
X54539936Y-38050403D01*
X54539938Y-38050413D01*
X54601094Y-38278655D01*
X54601096Y-38278659D01*
X54601097Y-38278663D01*
X54700965Y-38492830D01*
X54700967Y-38492834D01*
X54809281Y-38647521D01*
X54836505Y-38686401D01*
X55003599Y-38853495D01*
X55030037Y-38872007D01*
X55197165Y-38989032D01*
X55197167Y-38989033D01*
X55197170Y-38989035D01*
X55411337Y-39088903D01*
X55639592Y-39150063D01*
X55810319Y-39165000D01*
X55874999Y-39170659D01*
X55875000Y-39170659D01*
X55875001Y-39170659D01*
X55939681Y-39165000D01*
X56110408Y-39150063D01*
X56338663Y-39088903D01*
X56552830Y-38989035D01*
X56746401Y-38853495D01*
X56868717Y-38731178D01*
X56930036Y-38697696D01*
X56999728Y-38702680D01*
X57055662Y-38744551D01*
X57072577Y-38775528D01*
X57121646Y-38907088D01*
X57121649Y-38907093D01*
X57207809Y-39022187D01*
X57207812Y-39022190D01*
X57322906Y-39108350D01*
X57322913Y-39108354D01*
X57457620Y-39158596D01*
X57457627Y-39158598D01*
X57517155Y-39164999D01*
X57517172Y-39165000D01*
X58165000Y-39165000D01*
X58165000Y-38248012D01*
X58222007Y-38280925D01*
X58349174Y-38315000D01*
X58480826Y-38315000D01*
X58607993Y-38280925D01*
X58665000Y-38248012D01*
X58665000Y-39165000D01*
X59312828Y-39165000D01*
X59312844Y-39164999D01*
X59372372Y-39158598D01*
X59372379Y-39158596D01*
X59507086Y-39108354D01*
X59507093Y-39108350D01*
X59622187Y-39022190D01*
X59622190Y-39022187D01*
X59708350Y-38907093D01*
X59708354Y-38907086D01*
X59758596Y-38772379D01*
X59758598Y-38772372D01*
X59764999Y-38712844D01*
X59765000Y-38712827D01*
X59765000Y-38065000D01*
X58848012Y-38065000D01*
X58880925Y-38007993D01*
X58915000Y-37880826D01*
X58915000Y-37749174D01*
X58880925Y-37622007D01*
X58848012Y-37565000D01*
X59765000Y-37565000D01*
X59765000Y-36917172D01*
X59764999Y-36917155D01*
X59758598Y-36857627D01*
X59758596Y-36857620D01*
X59708354Y-36722913D01*
X59708350Y-36722906D01*
X59622190Y-36607812D01*
X59622187Y-36607809D01*
X59507093Y-36521649D01*
X59507086Y-36521645D01*
X59382809Y-36475293D01*
X59326875Y-36433422D01*
X59302458Y-36367957D01*
X59317310Y-36299684D01*
X59325574Y-36289962D01*
X59326208Y-36279760D01*
X58726008Y-35679560D01*
X58790785Y-35652729D01*
X58894789Y-35583236D01*
X58983236Y-35494789D01*
X59052729Y-35390785D01*
X59079560Y-35326007D01*
X59679118Y-35925564D01*
X59700094Y-35923388D01*
X59709037Y-35915757D01*
X59778268Y-35906333D01*
X59841604Y-35935834D01*
X59863510Y-35961114D01*
X59879446Y-35985507D01*
X59889641Y-35996582D01*
X60042537Y-36162671D01*
X60166859Y-36259434D01*
X60232558Y-36310570D01*
X60232567Y-36310576D01*
X60303049Y-36348718D01*
X60347135Y-36388883D01*
X60408207Y-36480284D01*
X60408213Y-36480292D01*
X63009707Y-39081786D01*
X63009711Y-39081789D01*
X63140814Y-39169390D01*
X63140818Y-39169392D01*
X63140821Y-39169394D01*
X63286503Y-39229738D01*
X63428554Y-39257993D01*
X63441153Y-39260499D01*
X63441157Y-39260500D01*
X63441158Y-39260500D01*
X63598843Y-39260500D01*
X75587060Y-39260500D01*
X75654099Y-39280185D01*
X75674741Y-39296819D01*
X75713181Y-39335259D01*
X75746666Y-39396582D01*
X75749500Y-39422940D01*
X75749500Y-42888846D01*
X75780261Y-43043489D01*
X75780264Y-43043501D01*
X75840602Y-43189172D01*
X75840609Y-43189185D01*
X75928210Y-43320288D01*
X75928213Y-43320292D01*
X77263211Y-44655289D01*
X77374075Y-44766153D01*
X77374712Y-44766790D01*
X77505814Y-44854390D01*
X77505827Y-44854397D01*
X77626472Y-44904369D01*
X77651503Y-44914737D01*
X77806153Y-44945499D01*
X77806156Y-44945500D01*
X77806158Y-44945500D01*
X77963842Y-44945500D01*
X78892309Y-44945500D01*
X78959348Y-44965185D01*
X78993884Y-44998376D01*
X79006508Y-45016405D01*
X79102648Y-45112544D01*
X79173599Y-45183495D01*
X79195453Y-45198797D01*
X79367165Y-45319032D01*
X79367167Y-45319033D01*
X79367170Y-45319035D01*
X79581337Y-45418903D01*
X79809592Y-45480063D01*
X79997918Y-45496539D01*
X80044999Y-45500659D01*
X80045000Y-45500659D01*
X80045001Y-45500659D01*
X80084234Y-45497226D01*
X80280408Y-45480063D01*
X80508663Y-45418903D01*
X80722830Y-45319035D01*
X80916401Y-45183495D01*
X81083495Y-45016401D01*
X81219035Y-44822830D01*
X81318903Y-44608663D01*
X81380063Y-44380408D01*
X81400659Y-44145000D01*
X81380063Y-43909592D01*
X81318903Y-43681337D01*
X81219035Y-43467171D01*
X81145739Y-43362492D01*
X81083494Y-43273597D01*
X80916402Y-43106506D01*
X80916396Y-43106501D01*
X80730842Y-42976575D01*
X80687217Y-42921998D01*
X80680023Y-42852500D01*
X80711546Y-42790145D01*
X80730842Y-42773425D01*
X80791205Y-42731158D01*
X80916401Y-42643495D01*
X81083495Y-42476401D01*
X81219035Y-42282830D01*
X81318903Y-42068663D01*
X81380063Y-41840408D01*
X81400659Y-41605000D01*
X81380063Y-41369592D01*
X81318903Y-41141337D01*
X81219035Y-40927171D01*
X81171091Y-40858700D01*
X81083496Y-40733600D01*
X81034949Y-40685053D01*
X80961179Y-40611283D01*
X80927696Y-40549963D01*
X80932680Y-40480271D01*
X80974551Y-40424337D01*
X81005529Y-40407422D01*
X81137086Y-40358354D01*
X81137093Y-40358350D01*
X81252187Y-40272190D01*
X81252190Y-40272187D01*
X81338350Y-40157093D01*
X81338354Y-40157086D01*
X81388596Y-40022379D01*
X81388598Y-40022372D01*
X81394999Y-39962844D01*
X81395000Y-39962827D01*
X81395000Y-39315000D01*
X80478012Y-39315000D01*
X80510925Y-39257993D01*
X80545000Y-39130826D01*
X80545000Y-38999174D01*
X80510925Y-38872007D01*
X80478012Y-38815000D01*
X81395000Y-38815000D01*
X81395000Y-38167172D01*
X81394999Y-38167155D01*
X81388598Y-38107627D01*
X81388596Y-38107620D01*
X81338354Y-37972913D01*
X81338350Y-37972906D01*
X81252190Y-37857812D01*
X81252187Y-37857809D01*
X81137093Y-37771649D01*
X81137086Y-37771645D01*
X81002379Y-37721403D01*
X81002372Y-37721401D01*
X80942844Y-37715000D01*
X80295000Y-37715000D01*
X80295000Y-38631988D01*
X80237993Y-38599075D01*
X80110826Y-38565000D01*
X79979174Y-38565000D01*
X79852007Y-38599075D01*
X79795000Y-38631988D01*
X79795000Y-37715000D01*
X79147155Y-37715000D01*
X79087627Y-37721401D01*
X79087620Y-37721403D01*
X78952913Y-37771645D01*
X78952906Y-37771649D01*
X78837812Y-37857809D01*
X78822776Y-37877895D01*
X78766841Y-37919766D01*
X78697150Y-37924749D01*
X78635827Y-37891263D01*
X78620408Y-37872474D01*
X78571790Y-37799712D01*
X78521252Y-37749174D01*
X78460289Y-37688211D01*
X78087078Y-37315000D01*
X77550292Y-36778213D01*
X77550288Y-36778210D01*
X77419185Y-36690609D01*
X77419172Y-36690602D01*
X77273501Y-36630264D01*
X77273489Y-36630261D01*
X77118845Y-36599500D01*
X77118842Y-36599500D01*
X74483212Y-36599500D01*
X74416173Y-36579815D01*
X74370418Y-36527011D01*
X74360474Y-36457853D01*
X74389499Y-36394297D01*
X74424195Y-36366445D01*
X74477880Y-36337392D01*
X74527439Y-36310572D01*
X74717463Y-36162671D01*
X74880551Y-35985510D01*
X75012255Y-35783922D01*
X75108983Y-35563405D01*
X75168095Y-35329976D01*
X75185518Y-35119711D01*
X75187980Y-35090005D01*
X75187980Y-35089994D01*
X75168095Y-34850027D01*
X75168095Y-34850024D01*
X75108983Y-34616595D01*
X75012255Y-34396078D01*
X74880551Y-34194490D01*
X74717463Y-34017329D01*
X74567020Y-33900235D01*
X74527441Y-33869429D01*
X74315665Y-33754821D01*
X74315656Y-33754818D01*
X74087916Y-33676634D01*
X73881243Y-33642147D01*
X73850399Y-33637000D01*
X73609601Y-33637000D01*
X73578757Y-33642147D01*
X73372083Y-33676634D01*
X73144343Y-33754818D01*
X73144334Y-33754821D01*
X72932558Y-33869429D01*
X72798456Y-33973805D01*
X72742537Y-34017329D01*
X72579449Y-34194490D01*
X72565326Y-34216107D01*
X72563808Y-34218431D01*
X72510661Y-34263787D01*
X72441430Y-34273210D01*
X72378094Y-34243707D01*
X72356192Y-34218431D01*
X72340551Y-34194490D01*
X72177463Y-34017329D01*
X72027020Y-33900235D01*
X71987441Y-33869429D01*
X71775665Y-33754821D01*
X71775656Y-33754818D01*
X71547916Y-33676634D01*
X71341243Y-33642147D01*
X71310399Y-33637000D01*
X71069601Y-33637000D01*
X71038757Y-33642147D01*
X70832083Y-33676634D01*
X70604343Y-33754818D01*
X70604334Y-33754821D01*
X70392558Y-33869429D01*
X70258456Y-33973805D01*
X70202537Y-34017329D01*
X70039449Y-34194490D01*
X70025326Y-34216107D01*
X70023808Y-34218431D01*
X69970661Y-34263787D01*
X69901430Y-34273210D01*
X69838094Y-34243707D01*
X69816192Y-34218431D01*
X69800551Y-34194490D01*
X69637463Y-34017329D01*
X69487020Y-33900235D01*
X69447441Y-33869429D01*
X69235665Y-33754821D01*
X69235656Y-33754818D01*
X69007916Y-33676634D01*
X68801243Y-33642147D01*
X68770399Y-33637000D01*
X68529601Y-33637000D01*
X68498757Y-33642147D01*
X68292083Y-33676634D01*
X68064343Y-33754818D01*
X68064334Y-33754821D01*
X67852558Y-33869429D01*
X67718456Y-33973805D01*
X67662537Y-34017329D01*
X67499449Y-34194490D01*
X67485326Y-34216107D01*
X67483808Y-34218431D01*
X67430661Y-34263787D01*
X67361430Y-34273210D01*
X67298094Y-34243707D01*
X67276192Y-34218431D01*
X67260551Y-34194490D01*
X67097463Y-34017329D01*
X66947020Y-33900235D01*
X66907441Y-33869429D01*
X66695665Y-33754821D01*
X66695656Y-33754818D01*
X66467916Y-33676634D01*
X66261243Y-33642147D01*
X66230399Y-33637000D01*
X65989601Y-33637000D01*
X65958757Y-33642147D01*
X65752083Y-33676634D01*
X65524343Y-33754818D01*
X65524334Y-33754821D01*
X65312558Y-33869429D01*
X65178456Y-33973805D01*
X65122537Y-34017329D01*
X64959449Y-34194490D01*
X64945326Y-34216107D01*
X64943808Y-34218431D01*
X64890661Y-34263787D01*
X64821430Y-34273210D01*
X64758094Y-34243707D01*
X64736192Y-34218431D01*
X64720551Y-34194490D01*
X64557463Y-34017329D01*
X64407020Y-33900235D01*
X64367441Y-33869429D01*
X64155665Y-33754821D01*
X64155656Y-33754818D01*
X63927916Y-33676634D01*
X63721243Y-33642147D01*
X63690399Y-33637000D01*
X63449601Y-33637000D01*
X63418757Y-33642147D01*
X63212083Y-33676634D01*
X62984343Y-33754818D01*
X62984334Y-33754821D01*
X62772558Y-33869429D01*
X62638456Y-33973805D01*
X62582537Y-34017329D01*
X62419449Y-34194490D01*
X62405326Y-34216107D01*
X62403808Y-34218431D01*
X62350661Y-34263787D01*
X62281430Y-34273210D01*
X62218094Y-34243707D01*
X62196192Y-34218431D01*
X62180551Y-34194490D01*
X62017463Y-34017329D01*
X61867020Y-33900235D01*
X61827441Y-33869429D01*
X61615665Y-33754821D01*
X61615656Y-33754818D01*
X61387916Y-33676634D01*
X61181243Y-33642147D01*
X61150399Y-33637000D01*
X60909601Y-33637000D01*
X60878757Y-33642147D01*
X60672083Y-33676634D01*
X60444343Y-33754818D01*
X60444334Y-33754821D01*
X60232558Y-33869429D01*
X60098456Y-33973805D01*
X60042537Y-34017329D01*
X60042534Y-34017331D01*
X60042534Y-34017332D01*
X59879450Y-34194488D01*
X59879446Y-34194494D01*
X59863507Y-34218889D01*
X59810359Y-34264244D01*
X59741127Y-34273665D01*
X59705782Y-34257199D01*
X59679117Y-34254434D01*
X59079560Y-34853991D01*
X59052729Y-34789215D01*
X58983236Y-34685211D01*
X58894789Y-34596764D01*
X58790785Y-34527271D01*
X58726007Y-34500438D01*
X59326208Y-33900237D01*
X59326208Y-33900236D01*
X59287166Y-33869849D01*
X59287161Y-33869846D01*
X59075468Y-33755284D01*
X59075454Y-33755278D01*
X58847792Y-33677120D01*
X58610358Y-33637500D01*
X58369642Y-33637500D01*
X58132207Y-33677120D01*
X57904545Y-33755278D01*
X57904531Y-33755284D01*
X57692837Y-33869846D01*
X57692826Y-33869853D01*
X57653791Y-33900235D01*
X57653791Y-33900237D01*
X58253992Y-34500438D01*
X58189215Y-34527271D01*
X58085211Y-34596764D01*
X57996764Y-34685211D01*
X57927271Y-34789215D01*
X57900439Y-34853992D01*
X57300881Y-34254434D01*
X57279900Y-34256610D01*
X57270958Y-34264242D01*
X57201727Y-34273664D01*
X57138392Y-34244162D01*
X57116490Y-34218885D01*
X57100554Y-34194494D01*
X57100552Y-34194492D01*
X57100551Y-34194490D01*
X56937463Y-34017329D01*
X56787020Y-33900235D01*
X56747441Y-33869429D01*
X56535665Y-33754821D01*
X56535656Y-33754818D01*
X56307916Y-33676634D01*
X56101243Y-33642147D01*
X56070399Y-33637000D01*
X55829601Y-33637000D01*
X55798757Y-33642147D01*
X55592083Y-33676634D01*
X55364343Y-33754818D01*
X55364334Y-33754821D01*
X55152558Y-33869429D01*
X55018456Y-33973805D01*
X54962537Y-34017329D01*
X54962534Y-34017331D01*
X54962534Y-34017332D01*
X54799449Y-34194490D01*
X54667743Y-34396081D01*
X54571017Y-34616594D01*
X54511904Y-34850027D01*
X54492020Y-35089994D01*
X53605500Y-35089994D01*
X53605500Y-33433650D01*
X53625185Y-33366611D01*
X53663526Y-33328658D01*
X53681445Y-33317398D01*
X53706452Y-33305354D01*
X53785670Y-33277635D01*
X53812733Y-33271459D01*
X53875419Y-33264396D01*
X53903079Y-33261280D01*
X53916962Y-33260500D01*
X76017317Y-33260500D01*
X76017318Y-33260500D01*
X76199612Y-33234290D01*
X76229764Y-33229955D01*
X76229765Y-33229954D01*
X76229769Y-33229954D01*
X76435710Y-33169484D01*
X76435713Y-33169482D01*
X76435715Y-33169482D01*
X76630938Y-33080327D01*
X76630944Y-33080323D01*
X76630950Y-33080321D01*
X76811513Y-32964281D01*
X76973724Y-32823724D01*
X77114281Y-32661513D01*
X77230321Y-32480950D01*
X77230323Y-32480944D01*
X77230327Y-32480938D01*
X77319482Y-32285715D01*
X77319482Y-32285713D01*
X77319484Y-32285710D01*
X77379954Y-32079769D01*
X77410500Y-31867318D01*
X77410500Y-31760000D01*
X77410500Y-31694108D01*
X77410500Y-30766961D01*
X77411280Y-30753077D01*
X77415233Y-30717994D01*
X77421459Y-30662731D01*
X77427635Y-30635670D01*
X77455353Y-30556456D01*
X77467396Y-30531450D01*
X77512046Y-30460389D01*
X77529351Y-30438690D01*
X77588690Y-30379351D01*
X77610389Y-30362046D01*
X77681450Y-30317396D01*
X77706456Y-30305353D01*
X77785670Y-30277635D01*
X77812731Y-30271459D01*
X77901134Y-30261498D01*
X77918911Y-30260780D01*
X78502598Y-30279123D01*
G37*
%TD.AperFunction*%
%TD*%
M02*
