%TF.GenerationSoftware,KiCad,Pcbnew,8.0.2*%
%TF.CreationDate,2024-08-15T08:28:16+02:00*%
%TF.ProjectId,ir-blaster,69722d62-6c61-4737-9465-722e6b696361,rev?*%
%TF.SameCoordinates,Original*%
%TF.FileFunction,Soldermask,Top*%
%TF.FilePolarity,Negative*%
%FSLAX46Y46*%
G04 Gerber Fmt 4.6, Leading zero omitted, Abs format (unit mm)*
G04 Created by KiCad (PCBNEW 8.0.2) date 2024-08-15 08:28:16*
%MOMM*%
%LPD*%
G01*
G04 APERTURE LIST*
G04 Aperture macros list*
%AMRoundRect*
0 Rectangle with rounded corners*
0 $1 Rounding radius*
0 $2 $3 $4 $5 $6 $7 $8 $9 X,Y pos of 4 corners*
0 Add a 4 corners polygon primitive as box body*
4,1,4,$2,$3,$4,$5,$6,$7,$8,$9,$2,$3,0*
0 Add four circle primitives for the rounded corners*
1,1,$1+$1,$2,$3*
1,1,$1+$1,$4,$5*
1,1,$1+$1,$6,$7*
1,1,$1+$1,$8,$9*
0 Add four rect primitives between the rounded corners*
20,1,$1+$1,$2,$3,$4,$5,0*
20,1,$1+$1,$4,$5,$6,$7,0*
20,1,$1+$1,$6,$7,$8,$9,0*
20,1,$1+$1,$8,$9,$2,$3,0*%
%AMRotRect*
0 Rectangle, with rotation*
0 The origin of the aperture is its center*
0 $1 length*
0 $2 width*
0 $3 Rotation angle, in degrees counterclockwise*
0 Add horizontal line*
21,1,$1,$2,0,0,$3*%
G04 Aperture macros list end*
%ADD10C,3.025000*%
%ADD11RoundRect,0.250000X0.350000X0.450000X-0.350000X0.450000X-0.350000X-0.450000X0.350000X-0.450000X0*%
%ADD12R,1.700000X1.700000*%
%ADD13O,1.700000X1.700000*%
%ADD14RoundRect,0.150000X0.150000X-0.587500X0.150000X0.587500X-0.150000X0.587500X-0.150000X-0.587500X0*%
%ADD15R,1.800000X1.800000*%
%ADD16C,1.800000*%
%ADD17RoundRect,0.250000X-0.350000X-0.450000X0.350000X-0.450000X0.350000X0.450000X-0.350000X0.450000X0*%
%ADD18RoundRect,0.250000X-0.337500X-0.475000X0.337500X-0.475000X0.337500X0.475000X-0.337500X0.475000X0*%
%ADD19RoundRect,0.250000X0.450000X-0.350000X0.450000X0.350000X-0.450000X0.350000X-0.450000X-0.350000X0*%
%ADD20RoundRect,0.250000X-0.450000X0.350000X-0.450000X-0.350000X0.450000X-0.350000X0.450000X0.350000X0*%
%ADD21RotRect,1.800000X1.800000X135.000000*%
%ADD22C,1.904000*%
%ADD23RoundRect,0.250000X-0.475000X0.337500X-0.475000X-0.337500X0.475000X-0.337500X0.475000X0.337500X0*%
%ADD24RoundRect,0.250000X0.337500X0.475000X-0.337500X0.475000X-0.337500X-0.475000X0.337500X-0.475000X0*%
%ADD25RotRect,1.800000X1.800000X45.000000*%
G04 APERTURE END LIST*
D10*
X59512500Y-42750000D02*
G75*
G02*
X56487500Y-42750000I-1512500J0D01*
G01*
X56487500Y-42750000D02*
G75*
G02*
X59512500Y-42750000I1512500J0D01*
G01*
D11*
%TO.C,R7*%
X70962500Y-47306250D03*
X68962500Y-47306250D03*
%TD*%
D12*
%TO.C,J2*%
X79970000Y-44050000D03*
D13*
X79970000Y-41510000D03*
X79970000Y-38970000D03*
%TD*%
D14*
%TO.C,Q1*%
X74500000Y-43312500D03*
X75450000Y-45187500D03*
X73550000Y-45187500D03*
%TD*%
D15*
%TO.C,D2*%
X84960000Y-43855000D03*
D16*
X84960000Y-41315000D03*
%TD*%
D11*
%TO.C,R8*%
X65000000Y-37250000D03*
X63000000Y-37250000D03*
%TD*%
D17*
%TO.C,R9*%
X79000000Y-47000000D03*
X81000000Y-47000000D03*
%TD*%
D18*
%TO.C,C2*%
X83772500Y-36900000D03*
X85847500Y-36900000D03*
%TD*%
D19*
%TO.C,R2*%
X75500000Y-38750000D03*
X75500000Y-40750000D03*
%TD*%
D11*
%TO.C,R4*%
X85750000Y-39000000D03*
X83750000Y-39000000D03*
%TD*%
D20*
%TO.C,R1*%
X73500000Y-40750000D03*
X73500000Y-38750000D03*
%TD*%
D21*
%TO.C,D1*%
X81821561Y-34591561D03*
D16*
X80025510Y-32795510D03*
%TD*%
D22*
%TO.C,U1*%
X73730000Y-35090000D03*
X71190000Y-35090000D03*
X68650000Y-35090000D03*
X66110000Y-35090000D03*
X61030000Y-35090000D03*
X63570000Y-35090000D03*
X55950000Y-50330000D03*
X55950000Y-35090000D03*
X58490000Y-50330000D03*
X61030000Y-50330000D03*
X63570000Y-50330000D03*
X66110000Y-50330000D03*
X68650000Y-50330000D03*
X71190000Y-50330000D03*
X73730000Y-50330000D03*
X58490000Y-35090000D03*
%TD*%
D23*
%TO.C,C3*%
X85500000Y-46220000D03*
X85500000Y-48295000D03*
%TD*%
D19*
%TO.C,R5*%
X83500000Y-48300000D03*
X83500000Y-46300000D03*
%TD*%
D18*
%TO.C,C1*%
X68962500Y-38750000D03*
X71037500Y-38750000D03*
%TD*%
D24*
%TO.C,C4*%
X71037500Y-43250000D03*
X68962500Y-43250000D03*
%TD*%
D17*
%TO.C,R6*%
X70962500Y-45306250D03*
X68962500Y-45306250D03*
%TD*%
D11*
%TO.C,R3*%
X71020000Y-40920000D03*
X69020000Y-40920000D03*
%TD*%
D25*
%TO.C,D3*%
X80418439Y-52311562D03*
D16*
X82214490Y-50515511D03*
%TD*%
D12*
%TO.C,J1*%
X58415000Y-37815000D03*
D13*
X55875000Y-37815000D03*
%TD*%
M02*
