%TF.GenerationSoftware,KiCad,Pcbnew,8.0.2*%
%TF.CreationDate,2024-08-15T08:28:16+02:00*%
%TF.ProjectId,ir-blaster,69722d62-6c61-4737-9465-722e6b696361,rev?*%
%TF.SameCoordinates,Original*%
%TF.FileFunction,Legend,Top*%
%TF.FilePolarity,Positive*%
%FSLAX46Y46*%
G04 Gerber Fmt 4.6, Leading zero omitted, Abs format (unit mm)*
G04 Created by KiCad (PCBNEW 8.0.2) date 2024-08-15 08:28:16*
%MOMM*%
%LPD*%
G01*
G04 APERTURE LIST*
G04 Aperture macros list*
%AMRoundRect*
0 Rectangle with rounded corners*
0 $1 Rounding radius*
0 $2 $3 $4 $5 $6 $7 $8 $9 X,Y pos of 4 corners*
0 Add a 4 corners polygon primitive as box body*
4,1,4,$2,$3,$4,$5,$6,$7,$8,$9,$2,$3,0*
0 Add four circle primitives for the rounded corners*
1,1,$1+$1,$2,$3*
1,1,$1+$1,$4,$5*
1,1,$1+$1,$6,$7*
1,1,$1+$1,$8,$9*
0 Add four rect primitives between the rounded corners*
20,1,$1+$1,$2,$3,$4,$5,0*
20,1,$1+$1,$4,$5,$6,$7,0*
20,1,$1+$1,$6,$7,$8,$9,0*
20,1,$1+$1,$8,$9,$2,$3,0*%
%AMRotRect*
0 Rectangle, with rotation*
0 The origin of the aperture is its center*
0 $1 length*
0 $2 width*
0 $3 Rotation angle, in degrees counterclockwise*
0 Add horizontal line*
21,1,$1,$2,0,0,$3*%
G04 Aperture macros list end*
%ADD10C,0.250000*%
%ADD11C,0.300000*%
%ADD12C,0.150000*%
%ADD13C,0.120000*%
%ADD14C,0.127000*%
%ADD15C,3.025000*%
%ADD16RoundRect,0.250000X0.350000X0.450000X-0.350000X0.450000X-0.350000X-0.450000X0.350000X-0.450000X0*%
%ADD17R,1.700000X1.700000*%
%ADD18O,1.700000X1.700000*%
%ADD19RoundRect,0.150000X0.150000X-0.587500X0.150000X0.587500X-0.150000X0.587500X-0.150000X-0.587500X0*%
%ADD20R,1.800000X1.800000*%
%ADD21C,1.800000*%
%ADD22RoundRect,0.250000X-0.350000X-0.450000X0.350000X-0.450000X0.350000X0.450000X-0.350000X0.450000X0*%
%ADD23RoundRect,0.250000X-0.337500X-0.475000X0.337500X-0.475000X0.337500X0.475000X-0.337500X0.475000X0*%
%ADD24RoundRect,0.250000X0.450000X-0.350000X0.450000X0.350000X-0.450000X0.350000X-0.450000X-0.350000X0*%
%ADD25RoundRect,0.250000X-0.450000X0.350000X-0.450000X-0.350000X0.450000X-0.350000X0.450000X0.350000X0*%
%ADD26RotRect,1.800000X1.800000X135.000000*%
%ADD27C,1.904000*%
%ADD28RoundRect,0.250000X-0.475000X0.337500X-0.475000X-0.337500X0.475000X-0.337500X0.475000X0.337500X0*%
%ADD29RoundRect,0.250000X0.337500X0.475000X-0.337500X0.475000X-0.337500X-0.475000X0.337500X-0.475000X0*%
%ADD30RotRect,1.800000X1.800000X45.000000*%
G04 APERTURE END LIST*
D10*
G36*
X56130600Y-46494371D02*
G01*
X56130600Y-46747163D01*
X55822854Y-46747163D01*
X55822854Y-47742208D01*
X56130600Y-47742208D01*
X56130600Y-47995000D01*
X55161566Y-47995000D01*
X55161566Y-47742208D01*
X55469678Y-47742208D01*
X55469678Y-46747163D01*
X55161566Y-46747163D01*
X55161566Y-46494371D01*
X56130600Y-46494371D01*
G37*
G36*
X56959453Y-46477805D02*
G01*
X57045105Y-46484921D01*
X57123458Y-46497511D01*
X57194513Y-46515575D01*
X57270144Y-46544478D01*
X57335265Y-46581263D01*
X57345097Y-46588161D01*
X57405625Y-46642885D01*
X57451286Y-46709286D01*
X57482080Y-46787362D01*
X57496643Y-46863577D01*
X57500436Y-46933642D01*
X57494986Y-47010785D01*
X57475827Y-47088429D01*
X57442874Y-47156393D01*
X57413241Y-47196325D01*
X57361209Y-47248821D01*
X57296394Y-47297837D01*
X57231759Y-47333569D01*
X57201116Y-47346901D01*
X57592027Y-47982909D01*
X57192323Y-47982909D01*
X56869556Y-47408817D01*
X56769173Y-47408817D01*
X56769173Y-47982909D01*
X56415997Y-47982909D01*
X56415997Y-47156025D01*
X56769173Y-47156025D01*
X56900697Y-47156025D01*
X56979248Y-47148555D01*
X57051356Y-47120956D01*
X57075819Y-47102903D01*
X57119209Y-47038749D01*
X57135325Y-46960490D01*
X57136270Y-46932177D01*
X57125870Y-46855406D01*
X57088024Y-46790566D01*
X57073255Y-46777571D01*
X57006727Y-46744262D01*
X56931061Y-46730558D01*
X56886775Y-46728845D01*
X56769173Y-46728845D01*
X56769173Y-47156025D01*
X56415997Y-47156025D01*
X56415997Y-46476053D01*
X56885676Y-46476053D01*
X56959453Y-46477805D01*
G37*
G36*
X58073063Y-46846081D02*
G01*
X58073063Y-47641458D01*
X58081748Y-47716202D01*
X58103838Y-47757595D01*
X58172984Y-47788334D01*
X58189567Y-47789103D01*
X58262107Y-47773172D01*
X58295080Y-47755397D01*
X58351658Y-47706848D01*
X58383374Y-47663806D01*
X58383374Y-46846081D01*
X58723726Y-46846081D01*
X58723726Y-47995000D01*
X58426605Y-47995000D01*
X58411217Y-47868604D01*
X58362600Y-47926976D01*
X58303575Y-47973498D01*
X58258443Y-47997930D01*
X58186092Y-48024721D01*
X58111371Y-48039146D01*
X58060240Y-48041894D01*
X57982594Y-48035803D01*
X57907996Y-48014390D01*
X57840949Y-47972516D01*
X57813677Y-47944441D01*
X57771173Y-47876757D01*
X57746379Y-47804645D01*
X57735045Y-47731641D01*
X57733077Y-47681758D01*
X57733077Y-46846081D01*
X58073063Y-46846081D01*
G37*
G36*
X60119207Y-46920453D02*
G01*
X60044710Y-46941769D01*
X59977791Y-46953060D01*
X59902147Y-46959822D01*
X59822738Y-46962710D01*
X59789846Y-46962951D01*
X59857628Y-46997580D01*
X59917846Y-47041381D01*
X59953611Y-47078356D01*
X59992430Y-47146507D01*
X60009011Y-47224483D01*
X60010397Y-47258241D01*
X60003384Y-47331954D01*
X59979736Y-47405851D01*
X59951046Y-47456810D01*
X59899801Y-47516728D01*
X59840516Y-47562510D01*
X59783251Y-47593464D01*
X59711345Y-47619739D01*
X59631640Y-47636283D01*
X59553236Y-47642852D01*
X59525697Y-47643290D01*
X59448868Y-47639349D01*
X59393440Y-47630833D01*
X59365230Y-47658677D01*
X59355704Y-47696046D01*
X59377686Y-47744406D01*
X59448705Y-47764639D01*
X59481734Y-47765655D01*
X59668946Y-47765655D01*
X59748981Y-47769949D01*
X59821931Y-47782829D01*
X59893995Y-47806914D01*
X59900122Y-47809619D01*
X59967080Y-47847074D01*
X60025782Y-47897767D01*
X60051430Y-47929420D01*
X60086299Y-47994368D01*
X60103392Y-48066572D01*
X60105286Y-48102344D01*
X60097905Y-48176934D01*
X60071395Y-48253292D01*
X60025605Y-48320171D01*
X59969724Y-48370914D01*
X59951046Y-48384078D01*
X59876557Y-48424335D01*
X59801295Y-48450971D01*
X59715497Y-48470342D01*
X59635950Y-48480936D01*
X59549087Y-48486485D01*
X59493457Y-48487393D01*
X59414529Y-48485796D01*
X59331301Y-48479895D01*
X59257610Y-48469647D01*
X59185070Y-48452611D01*
X59153471Y-48441964D01*
X59085715Y-48409850D01*
X59023204Y-48361490D01*
X58986775Y-48313004D01*
X58956413Y-48239995D01*
X58942125Y-48163479D01*
X58939881Y-48114801D01*
X59241399Y-48114801D01*
X59257647Y-48187284D01*
X59261182Y-48193203D01*
X59324214Y-48234436D01*
X59337752Y-48238265D01*
X59412460Y-48249700D01*
X59488985Y-48252863D01*
X59502250Y-48252920D01*
X59576542Y-48250550D01*
X59652837Y-48240017D01*
X59667847Y-48236067D01*
X59735010Y-48202928D01*
X59745882Y-48191004D01*
X59767131Y-48127257D01*
X59738702Y-48058333D01*
X59727198Y-48048489D01*
X59654904Y-48021997D01*
X59601168Y-48018447D01*
X59419085Y-48018447D01*
X59342963Y-48015116D01*
X59267772Y-48003152D01*
X59198236Y-47979292D01*
X59149808Y-47948838D01*
X59098683Y-47893110D01*
X59069925Y-47825413D01*
X59065910Y-47785806D01*
X59077793Y-47711125D01*
X59099616Y-47662707D01*
X59146641Y-47603086D01*
X59195237Y-47564888D01*
X59132626Y-47526670D01*
X59073549Y-47475425D01*
X59037700Y-47428234D01*
X59007100Y-47358737D01*
X58992701Y-47285355D01*
X58990439Y-47238457D01*
X58991078Y-47230764D01*
X59335188Y-47230764D01*
X59344444Y-47307339D01*
X59377692Y-47373560D01*
X59383548Y-47380240D01*
X59447755Y-47422306D01*
X59510676Y-47432264D01*
X59586972Y-47419395D01*
X59646748Y-47374154D01*
X59676721Y-47306595D01*
X59685066Y-47226367D01*
X59676721Y-47151279D01*
X59641468Y-47081837D01*
X59578627Y-47042881D01*
X59510676Y-47033660D01*
X59438319Y-47046849D01*
X59382449Y-47086416D01*
X59345572Y-47153248D01*
X59335188Y-47230764D01*
X58991078Y-47230764D01*
X58996843Y-47161399D01*
X59018682Y-47084817D01*
X59056018Y-47016807D01*
X59107244Y-46957852D01*
X59170244Y-46908941D01*
X59237735Y-46873192D01*
X59313312Y-46846531D01*
X59386837Y-46830978D01*
X59465579Y-46823424D01*
X59502250Y-46822634D01*
X59578943Y-46820702D01*
X59655868Y-46814114D01*
X59725000Y-46802850D01*
X59798831Y-46784060D01*
X59871039Y-46758414D01*
X59894993Y-46747896D01*
X59964298Y-46713957D01*
X60030705Y-46678086D01*
X60039340Y-46673157D01*
X60119207Y-46920453D01*
G37*
G36*
X61410275Y-46920453D02*
G01*
X61335777Y-46941769D01*
X61268859Y-46953060D01*
X61193214Y-46959822D01*
X61113806Y-46962710D01*
X61080914Y-46962951D01*
X61148696Y-46997580D01*
X61208914Y-47041381D01*
X61244678Y-47078356D01*
X61283497Y-47146507D01*
X61300079Y-47224483D01*
X61301465Y-47258241D01*
X61294452Y-47331954D01*
X61270804Y-47405851D01*
X61242114Y-47456810D01*
X61190869Y-47516728D01*
X61131584Y-47562510D01*
X61074319Y-47593464D01*
X61002413Y-47619739D01*
X60922707Y-47636283D01*
X60844304Y-47642852D01*
X60816765Y-47643290D01*
X60739936Y-47639349D01*
X60684508Y-47630833D01*
X60656297Y-47658677D01*
X60646772Y-47696046D01*
X60668754Y-47744406D01*
X60739773Y-47764639D01*
X60772801Y-47765655D01*
X60960013Y-47765655D01*
X61040048Y-47769949D01*
X61112999Y-47782829D01*
X61185063Y-47806914D01*
X61191189Y-47809619D01*
X61258148Y-47847074D01*
X61316850Y-47897767D01*
X61342498Y-47929420D01*
X61377367Y-47994368D01*
X61394460Y-48066572D01*
X61396353Y-48102344D01*
X61388973Y-48176934D01*
X61362463Y-48253292D01*
X61316673Y-48320171D01*
X61260791Y-48370914D01*
X61242114Y-48384078D01*
X61167624Y-48424335D01*
X61092362Y-48450971D01*
X61006564Y-48470342D01*
X60927018Y-48480936D01*
X60840155Y-48486485D01*
X60784525Y-48487393D01*
X60705596Y-48485796D01*
X60622369Y-48479895D01*
X60548678Y-48469647D01*
X60476138Y-48452611D01*
X60444539Y-48441964D01*
X60376783Y-48409850D01*
X60314272Y-48361490D01*
X60277843Y-48313004D01*
X60247481Y-48239995D01*
X60233193Y-48163479D01*
X60230949Y-48114801D01*
X60532466Y-48114801D01*
X60548714Y-48187284D01*
X60552250Y-48193203D01*
X60615282Y-48234436D01*
X60628820Y-48238265D01*
X60703528Y-48249700D01*
X60780053Y-48252863D01*
X60793318Y-48252920D01*
X60867610Y-48250550D01*
X60943905Y-48240017D01*
X60958914Y-48236067D01*
X61026078Y-48202928D01*
X61036950Y-48191004D01*
X61058199Y-48127257D01*
X61029770Y-48058333D01*
X61018265Y-48048489D01*
X60945972Y-48021997D01*
X60892236Y-48018447D01*
X60710153Y-48018447D01*
X60634030Y-48015116D01*
X60558840Y-48003152D01*
X60489304Y-47979292D01*
X60440875Y-47948838D01*
X60389750Y-47893110D01*
X60360992Y-47825413D01*
X60356978Y-47785806D01*
X60368860Y-47711125D01*
X60390683Y-47662707D01*
X60437708Y-47603086D01*
X60486304Y-47564888D01*
X60423693Y-47526670D01*
X60364617Y-47475425D01*
X60328768Y-47428234D01*
X60298168Y-47358737D01*
X60283768Y-47285355D01*
X60281507Y-47238457D01*
X60282146Y-47230764D01*
X60626256Y-47230764D01*
X60635512Y-47307339D01*
X60668760Y-47373560D01*
X60674616Y-47380240D01*
X60738822Y-47422306D01*
X60801744Y-47432264D01*
X60878039Y-47419395D01*
X60937816Y-47374154D01*
X60967789Y-47306595D01*
X60976133Y-47226367D01*
X60967789Y-47151279D01*
X60932536Y-47081837D01*
X60869695Y-47042881D01*
X60801744Y-47033660D01*
X60729387Y-47046849D01*
X60673517Y-47086416D01*
X60636640Y-47153248D01*
X60626256Y-47230764D01*
X60282146Y-47230764D01*
X60287911Y-47161399D01*
X60309749Y-47084817D01*
X60347086Y-47016807D01*
X60398311Y-46957852D01*
X60461312Y-46908941D01*
X60528803Y-46873192D01*
X60604380Y-46846531D01*
X60677905Y-46830978D01*
X60756647Y-46823424D01*
X60793318Y-46822634D01*
X60870011Y-46820702D01*
X60946935Y-46814114D01*
X61016067Y-46802850D01*
X61089899Y-46784060D01*
X61162107Y-46758414D01*
X61186060Y-46747896D01*
X61255365Y-46713957D01*
X61321772Y-46678086D01*
X61330408Y-46673157D01*
X61410275Y-46920453D01*
G37*
G36*
X62191364Y-46803674D02*
G01*
X62265003Y-46817138D01*
X62341278Y-46843014D01*
X62395795Y-46870994D01*
X62459129Y-46916370D01*
X62513943Y-46971715D01*
X62560237Y-47037030D01*
X62582274Y-47077623D01*
X62611286Y-47148400D01*
X62632008Y-47225909D01*
X62643341Y-47299252D01*
X62648327Y-47377749D01*
X62648586Y-47401123D01*
X62646755Y-47465603D01*
X62641992Y-47526053D01*
X61901203Y-47526053D01*
X61915410Y-47598899D01*
X61945052Y-47670853D01*
X61992794Y-47727920D01*
X62058905Y-47767533D01*
X62130020Y-47786175D01*
X62175976Y-47789103D01*
X62253096Y-47782691D01*
X62327651Y-47763457D01*
X62399550Y-47733141D01*
X62464460Y-47696900D01*
X62468702Y-47694214D01*
X62605355Y-47883625D01*
X62545917Y-47928285D01*
X62478426Y-47967058D01*
X62410083Y-47997198D01*
X62335301Y-48020768D01*
X62262673Y-48034517D01*
X62185004Y-48041196D01*
X62148866Y-48041894D01*
X62066146Y-48038090D01*
X61989493Y-48026677D01*
X61909316Y-48004317D01*
X61837062Y-47972020D01*
X61820237Y-47962393D01*
X61758184Y-47918727D01*
X61704282Y-47867596D01*
X61658533Y-47809001D01*
X61620935Y-47742941D01*
X61591763Y-47670538D01*
X61570926Y-47592915D01*
X61558424Y-47510071D01*
X61554321Y-47433299D01*
X61554256Y-47422006D01*
X61557342Y-47348162D01*
X61561890Y-47315027D01*
X61896807Y-47315027D01*
X62317027Y-47315027D01*
X62311796Y-47240281D01*
X62293524Y-47163619D01*
X62268300Y-47110596D01*
X62215166Y-47058003D01*
X62144730Y-47035538D01*
X62112229Y-47033660D01*
X62038889Y-47046492D01*
X61975407Y-47088723D01*
X61964584Y-47100704D01*
X61926534Y-47168420D01*
X61905577Y-47246403D01*
X61896807Y-47315027D01*
X61561890Y-47315027D01*
X61568424Y-47267419D01*
X61587567Y-47190568D01*
X61614769Y-47117610D01*
X61618736Y-47108764D01*
X61654869Y-47041651D01*
X61698421Y-46981728D01*
X61749391Y-46928994D01*
X61807780Y-46883450D01*
X61873520Y-46846585D01*
X61946174Y-46820252D01*
X62025744Y-46804453D01*
X62101040Y-46799269D01*
X62112229Y-46799187D01*
X62191364Y-46803674D01*
G37*
G36*
X63887997Y-46382630D02*
G01*
X63887997Y-48005258D01*
X63586479Y-48005258D01*
X63569260Y-47877763D01*
X63517767Y-47936775D01*
X63457359Y-47984299D01*
X63442864Y-47993534D01*
X63373660Y-48024845D01*
X63300012Y-48039580D01*
X63252721Y-48041894D01*
X63176616Y-48035750D01*
X63101097Y-48014513D01*
X63035094Y-47978105D01*
X63017149Y-47964225D01*
X62963604Y-47909635D01*
X62919290Y-47842953D01*
X62887299Y-47772599D01*
X62878297Y-47746971D01*
X62858261Y-47674225D01*
X62843950Y-47595571D01*
X62836124Y-47521903D01*
X62832680Y-47443711D01*
X62832521Y-47423105D01*
X63183478Y-47423105D01*
X63185275Y-47498817D01*
X63192351Y-47577579D01*
X63206193Y-47646221D01*
X63235083Y-47717249D01*
X63268475Y-47757595D01*
X63338250Y-47787595D01*
X63360432Y-47789103D01*
X63433838Y-47772133D01*
X63464113Y-47753199D01*
X63516184Y-47701264D01*
X63547644Y-47655013D01*
X63547644Y-47156025D01*
X63496702Y-47101746D01*
X63472173Y-47083485D01*
X63401950Y-47058369D01*
X63379483Y-47057107D01*
X63304275Y-47075783D01*
X63247734Y-47126914D01*
X63237334Y-47142103D01*
X63206672Y-47213656D01*
X63191052Y-47291712D01*
X63184320Y-47375838D01*
X63183478Y-47423105D01*
X62832521Y-47423105D01*
X62832501Y-47420540D01*
X62835131Y-47343947D01*
X62844576Y-47261177D01*
X62860891Y-47183491D01*
X62884075Y-47110888D01*
X62887456Y-47102170D01*
X62922106Y-47028612D01*
X62964234Y-46964560D01*
X63013838Y-46910013D01*
X63044626Y-46883817D01*
X63112339Y-46841892D01*
X63187709Y-46815495D01*
X63262087Y-46805014D01*
X63288258Y-46804316D01*
X63362172Y-46811048D01*
X63438100Y-46834715D01*
X63506377Y-46875422D01*
X63547644Y-46912027D01*
X63547644Y-46346727D01*
X63887997Y-46382630D01*
G37*
D11*
X53534510Y-39839400D02*
X54677368Y-39839400D01*
X54105939Y-40410828D02*
X54105939Y-39267971D01*
D12*
X67116667Y-47612295D02*
X66850000Y-47231342D01*
X66659524Y-47612295D02*
X66659524Y-46812295D01*
X66659524Y-46812295D02*
X66964286Y-46812295D01*
X66964286Y-46812295D02*
X67040476Y-46850390D01*
X67040476Y-46850390D02*
X67078571Y-46888485D01*
X67078571Y-46888485D02*
X67116667Y-46964676D01*
X67116667Y-46964676D02*
X67116667Y-47078961D01*
X67116667Y-47078961D02*
X67078571Y-47155152D01*
X67078571Y-47155152D02*
X67040476Y-47193247D01*
X67040476Y-47193247D02*
X66964286Y-47231342D01*
X66964286Y-47231342D02*
X66659524Y-47231342D01*
X67383333Y-46812295D02*
X67916667Y-46812295D01*
X67916667Y-46812295D02*
X67573809Y-47612295D01*
X81562295Y-38516666D02*
X82133723Y-38516666D01*
X82133723Y-38516666D02*
X82248009Y-38554761D01*
X82248009Y-38554761D02*
X82324200Y-38630952D01*
X82324200Y-38630952D02*
X82362295Y-38745237D01*
X82362295Y-38745237D02*
X82362295Y-38821428D01*
X81638485Y-38173809D02*
X81600390Y-38135713D01*
X81600390Y-38135713D02*
X81562295Y-38059523D01*
X81562295Y-38059523D02*
X81562295Y-37869047D01*
X81562295Y-37869047D02*
X81600390Y-37792856D01*
X81600390Y-37792856D02*
X81638485Y-37754761D01*
X81638485Y-37754761D02*
X81714676Y-37716666D01*
X81714676Y-37716666D02*
X81790866Y-37716666D01*
X81790866Y-37716666D02*
X81905152Y-37754761D01*
X81905152Y-37754761D02*
X82362295Y-38211904D01*
X82362295Y-38211904D02*
X82362295Y-37716666D01*
X75423809Y-47438485D02*
X75347619Y-47400390D01*
X75347619Y-47400390D02*
X75271428Y-47324200D01*
X75271428Y-47324200D02*
X75157142Y-47209914D01*
X75157142Y-47209914D02*
X75080952Y-47171819D01*
X75080952Y-47171819D02*
X75004761Y-47171819D01*
X75042857Y-47362295D02*
X74966666Y-47324200D01*
X74966666Y-47324200D02*
X74890476Y-47248009D01*
X74890476Y-47248009D02*
X74852380Y-47095628D01*
X74852380Y-47095628D02*
X74852380Y-46828961D01*
X74852380Y-46828961D02*
X74890476Y-46676580D01*
X74890476Y-46676580D02*
X74966666Y-46600390D01*
X74966666Y-46600390D02*
X75042857Y-46562295D01*
X75042857Y-46562295D02*
X75195238Y-46562295D01*
X75195238Y-46562295D02*
X75271428Y-46600390D01*
X75271428Y-46600390D02*
X75347619Y-46676580D01*
X75347619Y-46676580D02*
X75385714Y-46828961D01*
X75385714Y-46828961D02*
X75385714Y-47095628D01*
X75385714Y-47095628D02*
X75347619Y-47248009D01*
X75347619Y-47248009D02*
X75271428Y-47324200D01*
X75271428Y-47324200D02*
X75195238Y-47362295D01*
X75195238Y-47362295D02*
X75042857Y-47362295D01*
X76147618Y-47362295D02*
X75690475Y-47362295D01*
X75919047Y-47362295D02*
X75919047Y-46562295D01*
X75919047Y-46562295D02*
X75842856Y-46676580D01*
X75842856Y-46676580D02*
X75766666Y-46752771D01*
X75766666Y-46752771D02*
X75690475Y-46790866D01*
X82632295Y-43030475D02*
X81832295Y-43030475D01*
X81832295Y-43030475D02*
X81832295Y-42839999D01*
X81832295Y-42839999D02*
X81870390Y-42725713D01*
X81870390Y-42725713D02*
X81946580Y-42649523D01*
X81946580Y-42649523D02*
X82022771Y-42611428D01*
X82022771Y-42611428D02*
X82175152Y-42573332D01*
X82175152Y-42573332D02*
X82289438Y-42573332D01*
X82289438Y-42573332D02*
X82441819Y-42611428D01*
X82441819Y-42611428D02*
X82518009Y-42649523D01*
X82518009Y-42649523D02*
X82594200Y-42725713D01*
X82594200Y-42725713D02*
X82632295Y-42839999D01*
X82632295Y-42839999D02*
X82632295Y-43030475D01*
X81908485Y-42268571D02*
X81870390Y-42230475D01*
X81870390Y-42230475D02*
X81832295Y-42154285D01*
X81832295Y-42154285D02*
X81832295Y-41963809D01*
X81832295Y-41963809D02*
X81870390Y-41887618D01*
X81870390Y-41887618D02*
X81908485Y-41849523D01*
X81908485Y-41849523D02*
X81984676Y-41811428D01*
X81984676Y-41811428D02*
X82060866Y-41811428D01*
X82060866Y-41811428D02*
X82175152Y-41849523D01*
X82175152Y-41849523D02*
X82632295Y-42306666D01*
X82632295Y-42306666D02*
X82632295Y-41811428D01*
X63866667Y-39112295D02*
X63600000Y-38731342D01*
X63409524Y-39112295D02*
X63409524Y-38312295D01*
X63409524Y-38312295D02*
X63714286Y-38312295D01*
X63714286Y-38312295D02*
X63790476Y-38350390D01*
X63790476Y-38350390D02*
X63828571Y-38388485D01*
X63828571Y-38388485D02*
X63866667Y-38464676D01*
X63866667Y-38464676D02*
X63866667Y-38578961D01*
X63866667Y-38578961D02*
X63828571Y-38655152D01*
X63828571Y-38655152D02*
X63790476Y-38693247D01*
X63790476Y-38693247D02*
X63714286Y-38731342D01*
X63714286Y-38731342D02*
X63409524Y-38731342D01*
X64323809Y-38655152D02*
X64247619Y-38617057D01*
X64247619Y-38617057D02*
X64209524Y-38578961D01*
X64209524Y-38578961D02*
X64171428Y-38502771D01*
X64171428Y-38502771D02*
X64171428Y-38464676D01*
X64171428Y-38464676D02*
X64209524Y-38388485D01*
X64209524Y-38388485D02*
X64247619Y-38350390D01*
X64247619Y-38350390D02*
X64323809Y-38312295D01*
X64323809Y-38312295D02*
X64476190Y-38312295D01*
X64476190Y-38312295D02*
X64552381Y-38350390D01*
X64552381Y-38350390D02*
X64590476Y-38388485D01*
X64590476Y-38388485D02*
X64628571Y-38464676D01*
X64628571Y-38464676D02*
X64628571Y-38502771D01*
X64628571Y-38502771D02*
X64590476Y-38578961D01*
X64590476Y-38578961D02*
X64552381Y-38617057D01*
X64552381Y-38617057D02*
X64476190Y-38655152D01*
X64476190Y-38655152D02*
X64323809Y-38655152D01*
X64323809Y-38655152D02*
X64247619Y-38693247D01*
X64247619Y-38693247D02*
X64209524Y-38731342D01*
X64209524Y-38731342D02*
X64171428Y-38807533D01*
X64171428Y-38807533D02*
X64171428Y-38959914D01*
X64171428Y-38959914D02*
X64209524Y-39036104D01*
X64209524Y-39036104D02*
X64247619Y-39074200D01*
X64247619Y-39074200D02*
X64323809Y-39112295D01*
X64323809Y-39112295D02*
X64476190Y-39112295D01*
X64476190Y-39112295D02*
X64552381Y-39074200D01*
X64552381Y-39074200D02*
X64590476Y-39036104D01*
X64590476Y-39036104D02*
X64628571Y-38959914D01*
X64628571Y-38959914D02*
X64628571Y-38807533D01*
X64628571Y-38807533D02*
X64590476Y-38731342D01*
X64590476Y-38731342D02*
X64552381Y-38693247D01*
X64552381Y-38693247D02*
X64476190Y-38655152D01*
X78616667Y-48862295D02*
X78350000Y-48481342D01*
X78159524Y-48862295D02*
X78159524Y-48062295D01*
X78159524Y-48062295D02*
X78464286Y-48062295D01*
X78464286Y-48062295D02*
X78540476Y-48100390D01*
X78540476Y-48100390D02*
X78578571Y-48138485D01*
X78578571Y-48138485D02*
X78616667Y-48214676D01*
X78616667Y-48214676D02*
X78616667Y-48328961D01*
X78616667Y-48328961D02*
X78578571Y-48405152D01*
X78578571Y-48405152D02*
X78540476Y-48443247D01*
X78540476Y-48443247D02*
X78464286Y-48481342D01*
X78464286Y-48481342D02*
X78159524Y-48481342D01*
X78997619Y-48862295D02*
X79150000Y-48862295D01*
X79150000Y-48862295D02*
X79226190Y-48824200D01*
X79226190Y-48824200D02*
X79264286Y-48786104D01*
X79264286Y-48786104D02*
X79340476Y-48671819D01*
X79340476Y-48671819D02*
X79378571Y-48519438D01*
X79378571Y-48519438D02*
X79378571Y-48214676D01*
X79378571Y-48214676D02*
X79340476Y-48138485D01*
X79340476Y-48138485D02*
X79302381Y-48100390D01*
X79302381Y-48100390D02*
X79226190Y-48062295D01*
X79226190Y-48062295D02*
X79073809Y-48062295D01*
X79073809Y-48062295D02*
X78997619Y-48100390D01*
X78997619Y-48100390D02*
X78959524Y-48138485D01*
X78959524Y-48138485D02*
X78921428Y-48214676D01*
X78921428Y-48214676D02*
X78921428Y-48405152D01*
X78921428Y-48405152D02*
X78959524Y-48481342D01*
X78959524Y-48481342D02*
X78997619Y-48519438D01*
X78997619Y-48519438D02*
X79073809Y-48557533D01*
X79073809Y-48557533D02*
X79226190Y-48557533D01*
X79226190Y-48557533D02*
X79302381Y-48519438D01*
X79302381Y-48519438D02*
X79340476Y-48481342D01*
X79340476Y-48481342D02*
X79378571Y-48405152D01*
X84616667Y-35556104D02*
X84578571Y-35594200D01*
X84578571Y-35594200D02*
X84464286Y-35632295D01*
X84464286Y-35632295D02*
X84388095Y-35632295D01*
X84388095Y-35632295D02*
X84273809Y-35594200D01*
X84273809Y-35594200D02*
X84197619Y-35518009D01*
X84197619Y-35518009D02*
X84159524Y-35441819D01*
X84159524Y-35441819D02*
X84121428Y-35289438D01*
X84121428Y-35289438D02*
X84121428Y-35175152D01*
X84121428Y-35175152D02*
X84159524Y-35022771D01*
X84159524Y-35022771D02*
X84197619Y-34946580D01*
X84197619Y-34946580D02*
X84273809Y-34870390D01*
X84273809Y-34870390D02*
X84388095Y-34832295D01*
X84388095Y-34832295D02*
X84464286Y-34832295D01*
X84464286Y-34832295D02*
X84578571Y-34870390D01*
X84578571Y-34870390D02*
X84616667Y-34908485D01*
X84921428Y-34908485D02*
X84959524Y-34870390D01*
X84959524Y-34870390D02*
X85035714Y-34832295D01*
X85035714Y-34832295D02*
X85226190Y-34832295D01*
X85226190Y-34832295D02*
X85302381Y-34870390D01*
X85302381Y-34870390D02*
X85340476Y-34908485D01*
X85340476Y-34908485D02*
X85378571Y-34984676D01*
X85378571Y-34984676D02*
X85378571Y-35060866D01*
X85378571Y-35060866D02*
X85340476Y-35175152D01*
X85340476Y-35175152D02*
X84883333Y-35632295D01*
X84883333Y-35632295D02*
X85378571Y-35632295D01*
X75366667Y-37862295D02*
X75100000Y-37481342D01*
X74909524Y-37862295D02*
X74909524Y-37062295D01*
X74909524Y-37062295D02*
X75214286Y-37062295D01*
X75214286Y-37062295D02*
X75290476Y-37100390D01*
X75290476Y-37100390D02*
X75328571Y-37138485D01*
X75328571Y-37138485D02*
X75366667Y-37214676D01*
X75366667Y-37214676D02*
X75366667Y-37328961D01*
X75366667Y-37328961D02*
X75328571Y-37405152D01*
X75328571Y-37405152D02*
X75290476Y-37443247D01*
X75290476Y-37443247D02*
X75214286Y-37481342D01*
X75214286Y-37481342D02*
X74909524Y-37481342D01*
X75671428Y-37138485D02*
X75709524Y-37100390D01*
X75709524Y-37100390D02*
X75785714Y-37062295D01*
X75785714Y-37062295D02*
X75976190Y-37062295D01*
X75976190Y-37062295D02*
X76052381Y-37100390D01*
X76052381Y-37100390D02*
X76090476Y-37138485D01*
X76090476Y-37138485D02*
X76128571Y-37214676D01*
X76128571Y-37214676D02*
X76128571Y-37290866D01*
X76128571Y-37290866D02*
X76090476Y-37405152D01*
X76090476Y-37405152D02*
X75633333Y-37862295D01*
X75633333Y-37862295D02*
X76128571Y-37862295D01*
X87612295Y-39233332D02*
X87231342Y-39499999D01*
X87612295Y-39690475D02*
X86812295Y-39690475D01*
X86812295Y-39690475D02*
X86812295Y-39385713D01*
X86812295Y-39385713D02*
X86850390Y-39309523D01*
X86850390Y-39309523D02*
X86888485Y-39271428D01*
X86888485Y-39271428D02*
X86964676Y-39233332D01*
X86964676Y-39233332D02*
X87078961Y-39233332D01*
X87078961Y-39233332D02*
X87155152Y-39271428D01*
X87155152Y-39271428D02*
X87193247Y-39309523D01*
X87193247Y-39309523D02*
X87231342Y-39385713D01*
X87231342Y-39385713D02*
X87231342Y-39690475D01*
X87078961Y-38547618D02*
X87612295Y-38547618D01*
X86774200Y-38738094D02*
X87345628Y-38928571D01*
X87345628Y-38928571D02*
X87345628Y-38433332D01*
X73366667Y-37862295D02*
X73100000Y-37481342D01*
X72909524Y-37862295D02*
X72909524Y-37062295D01*
X72909524Y-37062295D02*
X73214286Y-37062295D01*
X73214286Y-37062295D02*
X73290476Y-37100390D01*
X73290476Y-37100390D02*
X73328571Y-37138485D01*
X73328571Y-37138485D02*
X73366667Y-37214676D01*
X73366667Y-37214676D02*
X73366667Y-37328961D01*
X73366667Y-37328961D02*
X73328571Y-37405152D01*
X73328571Y-37405152D02*
X73290476Y-37443247D01*
X73290476Y-37443247D02*
X73214286Y-37481342D01*
X73214286Y-37481342D02*
X72909524Y-37481342D01*
X74128571Y-37862295D02*
X73671428Y-37862295D01*
X73900000Y-37862295D02*
X73900000Y-37062295D01*
X73900000Y-37062295D02*
X73823809Y-37176580D01*
X73823809Y-37176580D02*
X73747619Y-37252771D01*
X73747619Y-37252771D02*
X73671428Y-37290866D01*
X78508651Y-31883710D02*
X77942966Y-31318025D01*
X77942966Y-31318025D02*
X78077653Y-31183338D01*
X78077653Y-31183338D02*
X78185403Y-31129463D01*
X78185403Y-31129463D02*
X78293152Y-31129463D01*
X78293152Y-31129463D02*
X78373964Y-31156401D01*
X78373964Y-31156401D02*
X78508651Y-31237213D01*
X78508651Y-31237213D02*
X78589464Y-31318025D01*
X78589464Y-31318025D02*
X78670276Y-31452712D01*
X78670276Y-31452712D02*
X78697213Y-31533524D01*
X78697213Y-31533524D02*
X78697213Y-31641274D01*
X78697213Y-31641274D02*
X78643338Y-31749023D01*
X78643338Y-31749023D02*
X78508651Y-31883710D01*
X79370648Y-31021714D02*
X79047399Y-31344962D01*
X79209024Y-31183338D02*
X78643338Y-30617653D01*
X78643338Y-30617653D02*
X78670276Y-30752340D01*
X78670276Y-30752340D02*
X78670276Y-30860089D01*
X78670276Y-30860089D02*
X78643338Y-30940901D01*
X53382295Y-35719523D02*
X54029914Y-35719523D01*
X54029914Y-35719523D02*
X54106104Y-35681428D01*
X54106104Y-35681428D02*
X54144200Y-35643333D01*
X54144200Y-35643333D02*
X54182295Y-35567142D01*
X54182295Y-35567142D02*
X54182295Y-35414761D01*
X54182295Y-35414761D02*
X54144200Y-35338571D01*
X54144200Y-35338571D02*
X54106104Y-35300476D01*
X54106104Y-35300476D02*
X54029914Y-35262380D01*
X54029914Y-35262380D02*
X53382295Y-35262380D01*
X54182295Y-34462381D02*
X54182295Y-34919524D01*
X54182295Y-34690952D02*
X53382295Y-34690952D01*
X53382295Y-34690952D02*
X53496580Y-34767143D01*
X53496580Y-34767143D02*
X53572771Y-34843333D01*
X53572771Y-34843333D02*
X53610866Y-34919524D01*
X87286104Y-46633332D02*
X87324200Y-46671428D01*
X87324200Y-46671428D02*
X87362295Y-46785713D01*
X87362295Y-46785713D02*
X87362295Y-46861904D01*
X87362295Y-46861904D02*
X87324200Y-46976190D01*
X87324200Y-46976190D02*
X87248009Y-47052380D01*
X87248009Y-47052380D02*
X87171819Y-47090475D01*
X87171819Y-47090475D02*
X87019438Y-47128571D01*
X87019438Y-47128571D02*
X86905152Y-47128571D01*
X86905152Y-47128571D02*
X86752771Y-47090475D01*
X86752771Y-47090475D02*
X86676580Y-47052380D01*
X86676580Y-47052380D02*
X86600390Y-46976190D01*
X86600390Y-46976190D02*
X86562295Y-46861904D01*
X86562295Y-46861904D02*
X86562295Y-46785713D01*
X86562295Y-46785713D02*
X86600390Y-46671428D01*
X86600390Y-46671428D02*
X86638485Y-46633332D01*
X86562295Y-46366666D02*
X86562295Y-45871428D01*
X86562295Y-45871428D02*
X86867057Y-46138094D01*
X86867057Y-46138094D02*
X86867057Y-46023809D01*
X86867057Y-46023809D02*
X86905152Y-45947618D01*
X86905152Y-45947618D02*
X86943247Y-45909523D01*
X86943247Y-45909523D02*
X87019438Y-45871428D01*
X87019438Y-45871428D02*
X87209914Y-45871428D01*
X87209914Y-45871428D02*
X87286104Y-45909523D01*
X87286104Y-45909523D02*
X87324200Y-45947618D01*
X87324200Y-45947618D02*
X87362295Y-46023809D01*
X87362295Y-46023809D02*
X87362295Y-46252380D01*
X87362295Y-46252380D02*
X87324200Y-46328571D01*
X87324200Y-46328571D02*
X87286104Y-46366666D01*
X82616667Y-45362295D02*
X82350000Y-44981342D01*
X82159524Y-45362295D02*
X82159524Y-44562295D01*
X82159524Y-44562295D02*
X82464286Y-44562295D01*
X82464286Y-44562295D02*
X82540476Y-44600390D01*
X82540476Y-44600390D02*
X82578571Y-44638485D01*
X82578571Y-44638485D02*
X82616667Y-44714676D01*
X82616667Y-44714676D02*
X82616667Y-44828961D01*
X82616667Y-44828961D02*
X82578571Y-44905152D01*
X82578571Y-44905152D02*
X82540476Y-44943247D01*
X82540476Y-44943247D02*
X82464286Y-44981342D01*
X82464286Y-44981342D02*
X82159524Y-44981342D01*
X83340476Y-44562295D02*
X82959524Y-44562295D01*
X82959524Y-44562295D02*
X82921428Y-44943247D01*
X82921428Y-44943247D02*
X82959524Y-44905152D01*
X82959524Y-44905152D02*
X83035714Y-44867057D01*
X83035714Y-44867057D02*
X83226190Y-44867057D01*
X83226190Y-44867057D02*
X83302381Y-44905152D01*
X83302381Y-44905152D02*
X83340476Y-44943247D01*
X83340476Y-44943247D02*
X83378571Y-45019438D01*
X83378571Y-45019438D02*
X83378571Y-45209914D01*
X83378571Y-45209914D02*
X83340476Y-45286104D01*
X83340476Y-45286104D02*
X83302381Y-45324200D01*
X83302381Y-45324200D02*
X83226190Y-45362295D01*
X83226190Y-45362295D02*
X83035714Y-45362295D01*
X83035714Y-45362295D02*
X82959524Y-45324200D01*
X82959524Y-45324200D02*
X82921428Y-45286104D01*
X67116667Y-39036104D02*
X67078571Y-39074200D01*
X67078571Y-39074200D02*
X66964286Y-39112295D01*
X66964286Y-39112295D02*
X66888095Y-39112295D01*
X66888095Y-39112295D02*
X66773809Y-39074200D01*
X66773809Y-39074200D02*
X66697619Y-38998009D01*
X66697619Y-38998009D02*
X66659524Y-38921819D01*
X66659524Y-38921819D02*
X66621428Y-38769438D01*
X66621428Y-38769438D02*
X66621428Y-38655152D01*
X66621428Y-38655152D02*
X66659524Y-38502771D01*
X66659524Y-38502771D02*
X66697619Y-38426580D01*
X66697619Y-38426580D02*
X66773809Y-38350390D01*
X66773809Y-38350390D02*
X66888095Y-38312295D01*
X66888095Y-38312295D02*
X66964286Y-38312295D01*
X66964286Y-38312295D02*
X67078571Y-38350390D01*
X67078571Y-38350390D02*
X67116667Y-38388485D01*
X67878571Y-39112295D02*
X67421428Y-39112295D01*
X67650000Y-39112295D02*
X67650000Y-38312295D01*
X67650000Y-38312295D02*
X67573809Y-38426580D01*
X67573809Y-38426580D02*
X67497619Y-38502771D01*
X67497619Y-38502771D02*
X67421428Y-38540866D01*
X67116667Y-43446104D02*
X67078571Y-43484200D01*
X67078571Y-43484200D02*
X66964286Y-43522295D01*
X66964286Y-43522295D02*
X66888095Y-43522295D01*
X66888095Y-43522295D02*
X66773809Y-43484200D01*
X66773809Y-43484200D02*
X66697619Y-43408009D01*
X66697619Y-43408009D02*
X66659524Y-43331819D01*
X66659524Y-43331819D02*
X66621428Y-43179438D01*
X66621428Y-43179438D02*
X66621428Y-43065152D01*
X66621428Y-43065152D02*
X66659524Y-42912771D01*
X66659524Y-42912771D02*
X66697619Y-42836580D01*
X66697619Y-42836580D02*
X66773809Y-42760390D01*
X66773809Y-42760390D02*
X66888095Y-42722295D01*
X66888095Y-42722295D02*
X66964286Y-42722295D01*
X66964286Y-42722295D02*
X67078571Y-42760390D01*
X67078571Y-42760390D02*
X67116667Y-42798485D01*
X67802381Y-42988961D02*
X67802381Y-43522295D01*
X67611905Y-42684200D02*
X67421428Y-43255628D01*
X67421428Y-43255628D02*
X67916667Y-43255628D01*
X67116667Y-45612295D02*
X66850000Y-45231342D01*
X66659524Y-45612295D02*
X66659524Y-44812295D01*
X66659524Y-44812295D02*
X66964286Y-44812295D01*
X66964286Y-44812295D02*
X67040476Y-44850390D01*
X67040476Y-44850390D02*
X67078571Y-44888485D01*
X67078571Y-44888485D02*
X67116667Y-44964676D01*
X67116667Y-44964676D02*
X67116667Y-45078961D01*
X67116667Y-45078961D02*
X67078571Y-45155152D01*
X67078571Y-45155152D02*
X67040476Y-45193247D01*
X67040476Y-45193247D02*
X66964286Y-45231342D01*
X66964286Y-45231342D02*
X66659524Y-45231342D01*
X67802381Y-44812295D02*
X67650000Y-44812295D01*
X67650000Y-44812295D02*
X67573809Y-44850390D01*
X67573809Y-44850390D02*
X67535714Y-44888485D01*
X67535714Y-44888485D02*
X67459524Y-45002771D01*
X67459524Y-45002771D02*
X67421428Y-45155152D01*
X67421428Y-45155152D02*
X67421428Y-45459914D01*
X67421428Y-45459914D02*
X67459524Y-45536104D01*
X67459524Y-45536104D02*
X67497619Y-45574200D01*
X67497619Y-45574200D02*
X67573809Y-45612295D01*
X67573809Y-45612295D02*
X67726190Y-45612295D01*
X67726190Y-45612295D02*
X67802381Y-45574200D01*
X67802381Y-45574200D02*
X67840476Y-45536104D01*
X67840476Y-45536104D02*
X67878571Y-45459914D01*
X67878571Y-45459914D02*
X67878571Y-45269438D01*
X67878571Y-45269438D02*
X67840476Y-45193247D01*
X67840476Y-45193247D02*
X67802381Y-45155152D01*
X67802381Y-45155152D02*
X67726190Y-45117057D01*
X67726190Y-45117057D02*
X67573809Y-45117057D01*
X67573809Y-45117057D02*
X67497619Y-45155152D01*
X67497619Y-45155152D02*
X67459524Y-45193247D01*
X67459524Y-45193247D02*
X67421428Y-45269438D01*
X67116667Y-41362295D02*
X66850000Y-40981342D01*
X66659524Y-41362295D02*
X66659524Y-40562295D01*
X66659524Y-40562295D02*
X66964286Y-40562295D01*
X66964286Y-40562295D02*
X67040476Y-40600390D01*
X67040476Y-40600390D02*
X67078571Y-40638485D01*
X67078571Y-40638485D02*
X67116667Y-40714676D01*
X67116667Y-40714676D02*
X67116667Y-40828961D01*
X67116667Y-40828961D02*
X67078571Y-40905152D01*
X67078571Y-40905152D02*
X67040476Y-40943247D01*
X67040476Y-40943247D02*
X66964286Y-40981342D01*
X66964286Y-40981342D02*
X66659524Y-40981342D01*
X67383333Y-40562295D02*
X67878571Y-40562295D01*
X67878571Y-40562295D02*
X67611905Y-40867057D01*
X67611905Y-40867057D02*
X67726190Y-40867057D01*
X67726190Y-40867057D02*
X67802381Y-40905152D01*
X67802381Y-40905152D02*
X67840476Y-40943247D01*
X67840476Y-40943247D02*
X67878571Y-41019438D01*
X67878571Y-41019438D02*
X67878571Y-41209914D01*
X67878571Y-41209914D02*
X67840476Y-41286104D01*
X67840476Y-41286104D02*
X67802381Y-41324200D01*
X67802381Y-41324200D02*
X67726190Y-41362295D01*
X67726190Y-41362295D02*
X67497619Y-41362295D01*
X67497619Y-41362295D02*
X67421428Y-41324200D01*
X67421428Y-41324200D02*
X67383333Y-41286104D01*
X78326289Y-53338651D02*
X78891974Y-52772966D01*
X78891974Y-52772966D02*
X79026661Y-52907653D01*
X79026661Y-52907653D02*
X79080536Y-53015403D01*
X79080536Y-53015403D02*
X79080536Y-53123152D01*
X79080536Y-53123152D02*
X79053598Y-53203964D01*
X79053598Y-53203964D02*
X78972786Y-53338651D01*
X78972786Y-53338651D02*
X78891974Y-53419464D01*
X78891974Y-53419464D02*
X78757287Y-53500276D01*
X78757287Y-53500276D02*
X78676475Y-53527213D01*
X78676475Y-53527213D02*
X78568725Y-53527213D01*
X78568725Y-53527213D02*
X78460976Y-53473338D01*
X78460976Y-53473338D02*
X78326289Y-53338651D01*
X79403785Y-53284777D02*
X79753971Y-53634963D01*
X79753971Y-53634963D02*
X79349910Y-53661900D01*
X79349910Y-53661900D02*
X79430722Y-53742712D01*
X79430722Y-53742712D02*
X79457659Y-53823525D01*
X79457659Y-53823525D02*
X79457659Y-53877399D01*
X79457659Y-53877399D02*
X79430722Y-53958212D01*
X79430722Y-53958212D02*
X79296035Y-54092899D01*
X79296035Y-54092899D02*
X79215223Y-54119836D01*
X79215223Y-54119836D02*
X79161348Y-54119836D01*
X79161348Y-54119836D02*
X79080536Y-54092899D01*
X79080536Y-54092899D02*
X78918911Y-53931274D01*
X78918911Y-53931274D02*
X78891974Y-53850462D01*
X78891974Y-53850462D02*
X78891974Y-53796587D01*
X60307295Y-38081666D02*
X60878723Y-38081666D01*
X60878723Y-38081666D02*
X60993009Y-38119761D01*
X60993009Y-38119761D02*
X61069200Y-38195952D01*
X61069200Y-38195952D02*
X61107295Y-38310237D01*
X61107295Y-38310237D02*
X61107295Y-38386428D01*
X61107295Y-37281666D02*
X61107295Y-37738809D01*
X61107295Y-37510237D02*
X60307295Y-37510237D01*
X60307295Y-37510237D02*
X60421580Y-37586428D01*
X60421580Y-37586428D02*
X60497771Y-37662618D01*
X60497771Y-37662618D02*
X60535866Y-37738809D01*
D13*
%TO.C,R7*%
X70189564Y-46571250D02*
X69735436Y-46571250D01*
X70189564Y-48041250D02*
X69735436Y-48041250D01*
%TO.C,J2*%
X81300000Y-45380000D02*
X79970000Y-45380000D01*
X81300000Y-44050000D02*
X81300000Y-45380000D01*
X81300000Y-42780000D02*
X81300000Y-37640000D01*
X81300000Y-42780000D02*
X78640000Y-42780000D01*
X81300000Y-37640000D02*
X78640000Y-37640000D01*
X78640000Y-42780000D02*
X78640000Y-37640000D01*
%TO.C,Q1*%
X72990000Y-45412500D02*
X72660000Y-45652500D01*
X72660000Y-45172500D01*
X72990000Y-45412500D01*
G36*
X72990000Y-45412500D02*
G01*
X72660000Y-45652500D01*
X72660000Y-45172500D01*
X72990000Y-45412500D01*
G37*
X72940000Y-44250000D02*
X72940000Y-43600000D01*
X72940000Y-44250000D02*
X72940000Y-44900000D01*
X76060000Y-44250000D02*
X76060000Y-43600000D01*
X76060000Y-44250000D02*
X76060000Y-44900000D01*
%TO.C,D2*%
X83724000Y-44145000D02*
X83880000Y-44145000D01*
X86040000Y-44145000D02*
X86196000Y-44145000D01*
X83724484Y-44145000D02*
G75*
G02*
X83881392Y-40912665I1235516J1560000D01*
G01*
X83880000Y-43625961D02*
G75*
G02*
X83880163Y-41543870I1080000J1040961D01*
G01*
X86038608Y-40912665D02*
G75*
G02*
X86195516Y-44145000I-1078608J-1672335D01*
G01*
X86039837Y-41543870D02*
G75*
G02*
X86040000Y-43625961I-1079837J-1041130D01*
G01*
%TO.C,R8*%
X64227064Y-36515000D02*
X63772936Y-36515000D01*
X64227064Y-37985000D02*
X63772936Y-37985000D01*
%TO.C,R9*%
X79772936Y-46265000D02*
X80227064Y-46265000D01*
X79772936Y-47735000D02*
X80227064Y-47735000D01*
%TO.C,C2*%
X84548748Y-36165000D02*
X85071252Y-36165000D01*
X84548748Y-37635000D02*
X85071252Y-37635000D01*
%TO.C,R2*%
X76235000Y-39977064D02*
X76235000Y-39522936D01*
X74765000Y-39977064D02*
X74765000Y-39522936D01*
%TO.C,R4*%
X84977064Y-38265000D02*
X84522936Y-38265000D01*
X84977064Y-39735000D02*
X84522936Y-39735000D01*
%TO.C,R1*%
X72765000Y-39522936D02*
X72765000Y-39977064D01*
X74235000Y-39522936D02*
X74235000Y-39977064D01*
%TO.C,D1*%
X81152638Y-35670606D02*
X81262947Y-35560297D01*
X82790297Y-34032947D02*
X82900606Y-33922638D01*
X80503707Y-31748325D02*
G75*
G02*
X82900263Y-33922980I419828J-1945210D01*
G01*
X80895931Y-35193281D02*
G75*
G02*
X79423785Y-33720905I27604J1499746D01*
G01*
X80950905Y-32193785D02*
G75*
G02*
X82423281Y-33665931I-27370J-1499750D01*
G01*
X81152980Y-35670264D02*
G75*
G02*
X78978324Y-33273707I-229445J1976729D01*
G01*
D14*
%TO.C,U1*%
X53200000Y-38210000D02*
X53200000Y-47210000D01*
X53200000Y-38210000D02*
X54500000Y-38210000D01*
X53200000Y-47210000D02*
X54500000Y-47210000D01*
X54500000Y-33710000D02*
X54500000Y-38210000D01*
X54500000Y-47210000D02*
X54500000Y-51710000D01*
X77200000Y-33710000D02*
X54500000Y-33710000D01*
X77200000Y-33710000D02*
X77200000Y-51710000D01*
X77200000Y-51710000D02*
X54500000Y-51710000D01*
D13*
%TO.C,C3*%
X84765000Y-46996248D02*
X84765000Y-47518752D01*
X86235000Y-46996248D02*
X86235000Y-47518752D01*
%TO.C,R5*%
X82765000Y-47527064D02*
X82765000Y-47072936D01*
X84235000Y-47527064D02*
X84235000Y-47072936D01*
%TO.C,C1*%
X69738747Y-38015000D02*
X70261253Y-38015000D01*
X69738747Y-39485000D02*
X70261253Y-39485000D01*
%TO.C,C4*%
X70261252Y-42515000D02*
X69738748Y-42515000D01*
X70261252Y-43985000D02*
X69738748Y-43985000D01*
%TO.C,R6*%
X69735436Y-44571250D02*
X70189564Y-44571250D01*
X69735436Y-46041250D02*
X70189564Y-46041250D01*
%TO.C,R3*%
X70247064Y-40185000D02*
X69792936Y-40185000D01*
X70247064Y-41655000D02*
X69792936Y-41655000D01*
%TO.C,D3*%
X79339394Y-51642639D02*
X79449702Y-51752948D01*
X80977053Y-53280298D02*
X81087362Y-53390607D01*
X79339736Y-51642982D02*
G75*
G02*
X81736293Y-49468325I1976729J229446D01*
G01*
X79816718Y-51385931D02*
G75*
G02*
X81289095Y-49913785I1499747J-27605D01*
G01*
X82816215Y-51440906D02*
G75*
G02*
X81344069Y-52913282I-1499750J27370D01*
G01*
X83261675Y-50993708D02*
G75*
G02*
X81087020Y-53390264I-1945210J-419828D01*
G01*
%TO.C,J1*%
X54545000Y-36485000D02*
X54545000Y-39145000D01*
X57145000Y-36485000D02*
X54545000Y-36485000D01*
X57145000Y-36485000D02*
X57145000Y-39145000D01*
X57145000Y-39145000D02*
X54545000Y-39145000D01*
X58415000Y-36485000D02*
X59745000Y-36485000D01*
X59745000Y-36485000D02*
X59745000Y-37815000D01*
%TD*%
%LPC*%
D15*
X59512500Y-42750000D02*
G75*
G02*
X56487500Y-42750000I-1512500J0D01*
G01*
X56487500Y-42750000D02*
G75*
G02*
X59512500Y-42750000I1512500J0D01*
G01*
D16*
%TO.C,R7*%
X70962500Y-47306250D03*
X68962500Y-47306250D03*
%TD*%
D17*
%TO.C,J2*%
X79970000Y-44050000D03*
D18*
X79970000Y-41510000D03*
X79970000Y-38970000D03*
%TD*%
D19*
%TO.C,Q1*%
X74500000Y-43312500D03*
X75450000Y-45187500D03*
X73550000Y-45187500D03*
%TD*%
D20*
%TO.C,D2*%
X84960000Y-43855000D03*
D21*
X84960000Y-41315000D03*
%TD*%
D16*
%TO.C,R8*%
X65000000Y-37250000D03*
X63000000Y-37250000D03*
%TD*%
D22*
%TO.C,R9*%
X79000000Y-47000000D03*
X81000000Y-47000000D03*
%TD*%
D23*
%TO.C,C2*%
X83772500Y-36900000D03*
X85847500Y-36900000D03*
%TD*%
D24*
%TO.C,R2*%
X75500000Y-38750000D03*
X75500000Y-40750000D03*
%TD*%
D16*
%TO.C,R4*%
X85750000Y-39000000D03*
X83750000Y-39000000D03*
%TD*%
D25*
%TO.C,R1*%
X73500000Y-40750000D03*
X73500000Y-38750000D03*
%TD*%
D26*
%TO.C,D1*%
X81821561Y-34591561D03*
D21*
X80025510Y-32795510D03*
%TD*%
D27*
%TO.C,U1*%
X73730000Y-35090000D03*
X71190000Y-35090000D03*
X68650000Y-35090000D03*
X66110000Y-35090000D03*
X61030000Y-35090000D03*
X63570000Y-35090000D03*
X55950000Y-50330000D03*
X55950000Y-35090000D03*
X58490000Y-50330000D03*
X61030000Y-50330000D03*
X63570000Y-50330000D03*
X66110000Y-50330000D03*
X68650000Y-50330000D03*
X71190000Y-50330000D03*
X73730000Y-50330000D03*
X58490000Y-35090000D03*
%TD*%
D28*
%TO.C,C3*%
X85500000Y-46220000D03*
X85500000Y-48295000D03*
%TD*%
D24*
%TO.C,R5*%
X83500000Y-48300000D03*
X83500000Y-46300000D03*
%TD*%
D23*
%TO.C,C1*%
X68962500Y-38750000D03*
X71037500Y-38750000D03*
%TD*%
D29*
%TO.C,C4*%
X71037500Y-43250000D03*
X68962500Y-43250000D03*
%TD*%
D22*
%TO.C,R6*%
X70962500Y-45306250D03*
X68962500Y-45306250D03*
%TD*%
D16*
%TO.C,R3*%
X71020000Y-40920000D03*
X69020000Y-40920000D03*
%TD*%
D30*
%TO.C,D3*%
X80418439Y-52311562D03*
D21*
X82214490Y-50515511D03*
%TD*%
D17*
%TO.C,J1*%
X58415000Y-37815000D03*
D18*
X55875000Y-37815000D03*
%TD*%
%LPD*%
M02*
