M48
; DRILL file {KiCad 8.0.2} date 2024-08-10T10:20:29+0200
; FORMAT={-:-/ absolute / metric / decimal}
; #@! TF.CreationDate,2024-08-10T10:20:29+02:00
; #@! TF.GenerationSoftware,Kicad,Pcbnew,8.0.2
; #@! TF.FileFunction,Plated,1,2,PTH
FMAT,2
METRIC
; #@! TA.AperFunction,Plated,PTH,ViaDrill
T1C0.300
; #@! TA.AperFunction,Plated,PTH,ComponentDrill
T2C0.900
; #@! TA.AperFunction,Plated,PTH,ComponentDrill
T3C1.000
; #@! TA.AperFunction,Plated,PTH,ComponentDrill
T4C1.270
%
G90
G05
T1
X66.15Y-46.02
T2
X80.418Y-52.312
X81.12Y-32.1
X82.214Y-50.516
X82.916Y-33.896
X84.96Y-41.315
X84.96Y-43.855
T3
X55.875Y-37.815
X58.415Y-37.815
X80.045Y-39.065
X80.045Y-41.605
X80.045Y-44.145
T4
X55.95Y-35.09
X55.95Y-50.33
X58.49Y-35.09
X58.49Y-50.33
X61.03Y-35.09
X61.03Y-50.33
X63.57Y-35.09
X63.57Y-50.33
X66.11Y-35.09
X66.11Y-50.33
X68.65Y-35.09
X68.65Y-50.33
X71.19Y-35.09
X71.19Y-50.33
X73.73Y-35.09
X73.73Y-50.33
M30
