M48
; DRILL file {KiCad 8.0.2} date 2024-08-11T09:10:30+0200
; FORMAT={3:3/ absolute / metric / suppress trailing zeros}
; #@! TF.CreationDate,2024-08-11T09:10:30+02:00
; #@! TF.GenerationSoftware,Kicad,Pcbnew,8.0.2
; #@! TF.FileFunction,Plated,1,2,PTH
FMAT,2
METRIC,LZ
; #@! TA.AperFunction,Plated,PTH,ViaDrill
T1C0.300
; #@! TA.AperFunction,Plated,PTH,ComponentDrill
T2C0.900
; #@! TA.AperFunction,Plated,PTH,ComponentDrill
T3C1.000
%
G90
G05
T1
X06615Y-04602
T2
X080026Y-032796
X080418Y-052312
X081822Y-034592
X082214Y-050516
X08496Y-041315
X08496Y-043855
T3
X055875Y-037815
X05595Y-03509
X05595Y-05033
X058415Y-037815
X05849Y-03509
X05849Y-05033
X06103Y-03509
X06103Y-05033
X06357Y-03509
X06357Y-05033
X06611Y-03509
X06611Y-05033
X06865Y-03509
X06865Y-05033
X07119Y-03509
X07119Y-05033
X07373Y-03509
X07373Y-05033
X080045Y-039065
X080045Y-041605
X080045Y-044145
M30
