%TF.GenerationSoftware,KiCad,Pcbnew,8.0.2*%
%TF.CreationDate,2024-08-04T11:24:19+02:00*%
%TF.ProjectId,ir-blaster,69722d62-6c61-4737-9465-722e6b696361,rev?*%
%TF.SameCoordinates,Original*%
%TF.FileFunction,Copper,L2,Bot*%
%TF.FilePolarity,Positive*%
%FSLAX46Y46*%
G04 Gerber Fmt 4.6, Leading zero omitted, Abs format (unit mm)*
G04 Created by KiCad (PCBNEW 8.0.2) date 2024-08-04 11:24:19*
%MOMM*%
%LPD*%
G01*
G04 APERTURE LIST*
G04 Aperture macros list*
%AMRotRect*
0 Rectangle, with rotation*
0 The origin of the aperture is its center*
0 $1 length*
0 $2 width*
0 $3 Rotation angle, in degrees counterclockwise*
0 Add horizontal line*
21,1,$1,$2,0,0,$3*%
G04 Aperture macros list end*
%TA.AperFunction,ComponentPad*%
%ADD10R,2.000000X2.000000*%
%TD*%
%TA.AperFunction,ComponentPad*%
%ADD11C,2.000000*%
%TD*%
%TA.AperFunction,ComponentPad*%
%ADD12R,1.700000X1.700000*%
%TD*%
%TA.AperFunction,ComponentPad*%
%ADD13O,1.700000X1.700000*%
%TD*%
%TA.AperFunction,ComponentPad*%
%ADD14RotRect,1.800000X1.800000X45.000000*%
%TD*%
%TA.AperFunction,ComponentPad*%
%ADD15C,1.800000*%
%TD*%
%TA.AperFunction,ComponentPad*%
%ADD16R,1.800000X1.800000*%
%TD*%
%TA.AperFunction,ComponentPad*%
%ADD17RotRect,1.800000X1.800000X135.000000*%
%TD*%
%TA.AperFunction,ViaPad*%
%ADD18C,0.500000*%
%TD*%
%TA.AperFunction,Conductor*%
%ADD19C,0.600000*%
%TD*%
G04 APERTURE END LIST*
D10*
%TO.P,U1,1,3V3*%
%TO.N,3.3V*%
X52727500Y-35495000D03*
D11*
%TO.P,U1,2,GND*%
%TO.N,GND*%
X52727500Y-38035000D03*
%TO.P,U1,3,D15*%
%TO.N,unconnected-(U1-D15-Pad3)*%
X52727500Y-40575000D03*
%TO.P,U1,4,D2*%
%TO.N,Net-(J2-Pin_2)*%
X52727500Y-43115000D03*
%TO.P,U1,5,D4*%
%TO.N,Net-(U1-D4)*%
X52727500Y-45655000D03*
%TO.P,U1,6,RX2*%
%TO.N,unconnected-(U1-RX2-Pad6)*%
X52727500Y-48195000D03*
%TO.P,U1,7,TX2*%
%TO.N,unconnected-(U1-TX2-Pad7)*%
X52727500Y-50735000D03*
%TO.P,U1,8,D5*%
%TO.N,unconnected-(U1-D5-Pad8)*%
X52727500Y-53275000D03*
%TO.P,U1,9,D18*%
%TO.N,unconnected-(U1-D18-Pad9)*%
X52727500Y-55815000D03*
%TO.P,U1,10,D19*%
%TO.N,unconnected-(U1-D19-Pad10)*%
X52727500Y-58355000D03*
%TO.P,U1,11,D21*%
%TO.N,unconnected-(U1-D21-Pad11)*%
X52727500Y-60895000D03*
%TO.P,U1,12,RX0*%
%TO.N,unconnected-(U1-RX0-Pad12)*%
X52727500Y-63435000D03*
%TO.P,U1,13,TX0*%
%TO.N,unconnected-(U1-TX0-Pad13)*%
X52727500Y-65975000D03*
%TO.P,U1,14,D22*%
%TO.N,/IR_OUT*%
X52727500Y-68515000D03*
%TO.P,U1,15,D23*%
%TO.N,unconnected-(U1-D23-Pad15)*%
X52727500Y-71055000D03*
%TO.P,U1,16,EN*%
%TO.N,unconnected-(U1-EN-Pad16)*%
X78127500Y-71055000D03*
%TO.P,U1,17,VP*%
%TO.N,unconnected-(U1-VP-Pad17)*%
X78127500Y-68515000D03*
%TO.P,U1,18,VN*%
%TO.N,unconnected-(U1-VN-Pad18)*%
X78127500Y-65975000D03*
%TO.P,U1,19,D34*%
%TO.N,unconnected-(U1-D34-Pad19)*%
X78127500Y-63435000D03*
%TO.P,U1,20,D35*%
%TO.N,unconnected-(U1-D35-Pad20)*%
X78127500Y-60895000D03*
%TO.P,U1,21,D32*%
%TO.N,unconnected-(U1-D32-Pad21)*%
X78127500Y-58355000D03*
%TO.P,U1,22,D33*%
%TO.N,unconnected-(U1-D33-Pad22)*%
X78127500Y-55815000D03*
%TO.P,U1,23,D25*%
%TO.N,unconnected-(U1-D25-Pad23)*%
X78127500Y-53275000D03*
%TO.P,U1,24,D26*%
%TO.N,unconnected-(U1-D26-Pad24)*%
X78127500Y-50735000D03*
%TO.P,U1,25,D27*%
%TO.N,unconnected-(U1-D27-Pad25)*%
X78127500Y-48195000D03*
%TO.P,U1,26,D14*%
%TO.N,unconnected-(U1-D14-Pad26)*%
X78127500Y-45655000D03*
%TO.P,U1,27,D12*%
%TO.N,unconnected-(U1-D12-Pad27)*%
X78127500Y-43115000D03*
%TO.P,U1,28,D13*%
%TO.N,unconnected-(U1-D13-Pad28)*%
X78127500Y-40575000D03*
%TO.P,U1,29,GND*%
%TO.N,GND*%
X78127500Y-38035000D03*
%TO.P,U1,30,VIN*%
%TO.N,5V*%
X78127500Y-35495000D03*
%TD*%
D12*
%TO.P,J2,1,Pin_1*%
%TO.N,GND*%
X47470000Y-35120000D03*
D13*
%TO.P,J2,2,Pin_2*%
%TO.N,Net-(J2-Pin_2)*%
X47470000Y-32580000D03*
%TO.P,J2,3,Pin_3*%
%TO.N,3.3V*%
X47470000Y-30040000D03*
%TD*%
D14*
%TO.P,D3,1,K*%
%TO.N,Net-(D1-K)*%
X82840000Y-71610000D03*
D15*
%TO.P,D3,2,A*%
%TO.N,Net-(D3-A)*%
X84636051Y-69813949D03*
%TD*%
D16*
%TO.P,D2,1,K*%
%TO.N,Net-(D1-K)*%
X90610000Y-50490000D03*
D15*
%TO.P,D2,2,A*%
%TO.N,Net-(D2-A)*%
X90610000Y-47950000D03*
%TD*%
%TO.P,D1,2,A*%
%TO.N,Net-(D1-A)*%
X82493949Y-30383949D03*
D17*
%TO.P,D1,1,K*%
%TO.N,Net-(D1-K)*%
X84290000Y-32180000D03*
%TD*%
D18*
%TO.N,GND*%
X83810000Y-59980000D03*
X77470000Y-30860000D03*
%TO.N,Net-(D1-K)*%
X87090000Y-55690000D03*
%TO.N,5V*%
X57230000Y-32790000D03*
X57230000Y-32790000D03*
X49450000Y-42580000D03*
%TD*%
D19*
%TO.N,GND*%
X79727500Y-33117500D02*
X77470000Y-30860000D01*
X79727500Y-36435000D02*
X79727500Y-33117500D01*
X78127500Y-38035000D02*
X79727500Y-36435000D01*
%TO.N,Net-(D1-K)*%
X82840000Y-71610000D02*
X81760000Y-70530000D01*
X81760000Y-70530000D02*
X81670000Y-70530000D01*
X81670000Y-70530000D02*
X81670000Y-69170000D01*
X81670000Y-69170000D02*
X87090000Y-63750000D01*
X87090000Y-63750000D02*
X87090000Y-55690000D01*
X87090000Y-55690000D02*
X90610000Y-52170000D01*
X90610000Y-52170000D02*
X90610000Y-50490000D01*
%TO.N,5V*%
X78127500Y-35495000D02*
X75422500Y-32790000D01*
X75422500Y-32790000D02*
X57230000Y-32790000D01*
X52232500Y-32790000D02*
X57230000Y-32790000D01*
X49450000Y-35572500D02*
X52232500Y-32790000D01*
X49450000Y-42580000D02*
X49450000Y-35572500D01*
%TD*%
%TA.AperFunction,Conductor*%
%TO.N,GND*%
G36*
X78252728Y-25480581D02*
G01*
X78716091Y-25497358D01*
X78725013Y-25498005D01*
X79183741Y-25548009D01*
X79192567Y-25549296D01*
X79646459Y-25632344D01*
X79655208Y-25634273D01*
X80101920Y-25749934D01*
X80110490Y-25752488D01*
X80547623Y-25900139D01*
X80556015Y-25903316D01*
X80981342Y-26082201D01*
X80989472Y-26085972D01*
X81245302Y-26216089D01*
X81400740Y-26295146D01*
X81408587Y-26299501D01*
X81803673Y-26537886D01*
X81811152Y-26542777D01*
X82117237Y-26759123D01*
X82187940Y-26809097D01*
X82195076Y-26814538D01*
X82551620Y-27107413D01*
X82558343Y-27113356D01*
X82893579Y-27432018D01*
X82898223Y-27436673D01*
X83366275Y-27931399D01*
X83673700Y-28256343D01*
X83676511Y-28259417D01*
X83728966Y-28318740D01*
X84424698Y-29105576D01*
X84427411Y-29108750D01*
X85146698Y-29979637D01*
X85149302Y-29982901D01*
X85838830Y-30877476D01*
X85841323Y-30880825D01*
X86500363Y-31798137D01*
X86502741Y-31801568D01*
X86938519Y-32453369D01*
X87130515Y-32740540D01*
X87132777Y-32744050D01*
X87728572Y-33703614D01*
X87730715Y-33707198D01*
X88293873Y-34686291D01*
X88295894Y-34689945D01*
X88825777Y-35687462D01*
X88827668Y-35691173D01*
X89243947Y-36542864D01*
X89323658Y-36705951D01*
X89325428Y-36709733D01*
X89786961Y-37740617D01*
X89788603Y-37744456D01*
X90034829Y-38348147D01*
X90199289Y-38751369D01*
X90215169Y-38790302D01*
X90216681Y-38794194D01*
X90607805Y-39853847D01*
X90609184Y-39857788D01*
X90964388Y-40929944D01*
X90965635Y-40933930D01*
X91284556Y-42017496D01*
X91285667Y-42021521D01*
X91567916Y-43115180D01*
X91568891Y-43119240D01*
X91814157Y-44221777D01*
X91814995Y-44225867D01*
X92023002Y-45336047D01*
X92023702Y-45340164D01*
X92194212Y-46456717D01*
X92194773Y-46460855D01*
X92327594Y-47582526D01*
X92328015Y-47586680D01*
X92422994Y-48712176D01*
X92423275Y-48716342D01*
X92480306Y-49844417D01*
X92480446Y-49848590D01*
X92499463Y-50977912D01*
X92499463Y-50982088D01*
X92480446Y-52111409D01*
X92480306Y-52115582D01*
X92423275Y-53243656D01*
X92422994Y-53247822D01*
X92328015Y-54373318D01*
X92327594Y-54377472D01*
X92194773Y-55499143D01*
X92194212Y-55503281D01*
X92023702Y-56619834D01*
X92023002Y-56623951D01*
X91814995Y-57734131D01*
X91814157Y-57738221D01*
X91568892Y-58840759D01*
X91567917Y-58844819D01*
X91285667Y-59938478D01*
X91284556Y-59942503D01*
X90965636Y-61026068D01*
X90964389Y-61030054D01*
X90609184Y-62102210D01*
X90607805Y-62106151D01*
X90216681Y-63165805D01*
X90215169Y-63169697D01*
X89788603Y-64215543D01*
X89786961Y-64219382D01*
X89325428Y-65250265D01*
X89323658Y-65254047D01*
X88827673Y-66268816D01*
X88825777Y-66272536D01*
X88295894Y-67270053D01*
X88293873Y-67273707D01*
X87730716Y-68252800D01*
X87728573Y-68256384D01*
X87132778Y-69215948D01*
X87130516Y-69219458D01*
X86502742Y-70158429D01*
X86500363Y-70161861D01*
X85841324Y-71079174D01*
X85838831Y-71082523D01*
X85149302Y-71977098D01*
X85146698Y-71980362D01*
X84427411Y-72851249D01*
X84424698Y-72854423D01*
X83676519Y-73700575D01*
X83673701Y-73703656D01*
X82898276Y-74523269D01*
X82893632Y-74527925D01*
X82578762Y-74827229D01*
X82558340Y-74846641D01*
X82551619Y-74852581D01*
X82293919Y-75064263D01*
X82195098Y-75145437D01*
X82187961Y-75150879D01*
X81811167Y-75417201D01*
X81803657Y-75422112D01*
X81408601Y-75660478D01*
X81400754Y-75664833D01*
X80989497Y-75874001D01*
X80981356Y-75877777D01*
X80556057Y-76056649D01*
X80547665Y-76059827D01*
X80110518Y-76207480D01*
X80101917Y-76210042D01*
X79655249Y-76325688D01*
X79646486Y-76327621D01*
X79192634Y-76410659D01*
X79183753Y-76411954D01*
X78725072Y-76461950D01*
X78716122Y-76462599D01*
X78251514Y-76479418D01*
X78247028Y-76479499D01*
X78177054Y-76479499D01*
X78177038Y-76479500D01*
X77810744Y-76479500D01*
X77743705Y-76459815D01*
X77697950Y-76407011D01*
X77688006Y-76337853D01*
X77717031Y-76274297D01*
X77775809Y-76236523D01*
X77794558Y-76232561D01*
X77804819Y-76231209D01*
X77999738Y-76205548D01*
X78221387Y-76146158D01*
X78433388Y-76058344D01*
X78632112Y-75943611D01*
X78814161Y-75803919D01*
X78814165Y-75803914D01*
X78814170Y-75803911D01*
X78976411Y-75641670D01*
X78976414Y-75641665D01*
X78976419Y-75641661D01*
X79116111Y-75459612D01*
X79230844Y-75260888D01*
X79318658Y-75048887D01*
X79378048Y-74827238D01*
X79408000Y-74599734D01*
X79408000Y-74370266D01*
X79378048Y-74142762D01*
X79318658Y-73921113D01*
X79230844Y-73709112D01*
X79116111Y-73510388D01*
X79116108Y-73510385D01*
X79116107Y-73510382D01*
X78976418Y-73328338D01*
X78976411Y-73328330D01*
X78814170Y-73166089D01*
X78814161Y-73166081D01*
X78632117Y-73026392D01*
X78433390Y-72911657D01*
X78433376Y-72911650D01*
X78221387Y-72823842D01*
X78129697Y-72799274D01*
X78070038Y-72762910D01*
X78039509Y-72700063D01*
X78047804Y-72630688D01*
X78092289Y-72576810D01*
X78158841Y-72555535D01*
X78161792Y-72555500D01*
X78251835Y-72555500D01*
X78497114Y-72514571D01*
X78732310Y-72433828D01*
X78951009Y-72315474D01*
X79147244Y-72162738D01*
X79315664Y-71979785D01*
X79317420Y-71977098D01*
X79323514Y-71967769D01*
X79451673Y-71771607D01*
X79551563Y-71543881D01*
X79612608Y-71302821D01*
X79612609Y-71302812D01*
X79633143Y-71055005D01*
X79633143Y-71054994D01*
X79612609Y-70807187D01*
X79612607Y-70807175D01*
X79551563Y-70566118D01*
X79451673Y-70338393D01*
X79315666Y-70130217D01*
X79294057Y-70106744D01*
X79147244Y-69947262D01*
X79064491Y-69882852D01*
X79023679Y-69826143D01*
X79020004Y-69756370D01*
X79054636Y-69695687D01*
X79064485Y-69687151D01*
X79147244Y-69622738D01*
X79315664Y-69439785D01*
X79451673Y-69231607D01*
X79513282Y-69091153D01*
X80869500Y-69091153D01*
X80869500Y-70608846D01*
X80900261Y-70763489D01*
X80900264Y-70763501D01*
X80960602Y-70909172D01*
X80960609Y-70909185D01*
X81048210Y-71040288D01*
X81048213Y-71040292D01*
X81153532Y-71145611D01*
X81187017Y-71206934D01*
X81182033Y-71276626D01*
X81162404Y-71311096D01*
X81141832Y-71336624D01*
X81141829Y-71336630D01*
X81082042Y-71467543D01*
X81061561Y-71610000D01*
X81082042Y-71752456D01*
X81141829Y-71883370D01*
X81141830Y-71883371D01*
X81141831Y-71883373D01*
X81179450Y-71930056D01*
X81179453Y-71930059D01*
X81179458Y-71930065D01*
X82275784Y-73026389D01*
X82519944Y-73270549D01*
X82566627Y-73308169D01*
X82697543Y-73367957D01*
X82697542Y-73367957D01*
X82715449Y-73370531D01*
X82840000Y-73388439D01*
X82982457Y-73367957D01*
X83113373Y-73308169D01*
X83160056Y-73270550D01*
X84500549Y-71930056D01*
X84538169Y-71883373D01*
X84597957Y-71752457D01*
X84618439Y-71610000D01*
X84597957Y-71467543D01*
X84562525Y-71389960D01*
X84552582Y-71320802D01*
X84581607Y-71257247D01*
X84640385Y-71219472D01*
X84675320Y-71214449D01*
X84752099Y-71214449D01*
X84752100Y-71214449D01*
X84981032Y-71176247D01*
X85200554Y-71100885D01*
X85404677Y-70990419D01*
X85587835Y-70847862D01*
X85745030Y-70677102D01*
X85871975Y-70482798D01*
X85965208Y-70270249D01*
X86022185Y-70045254D01*
X86022722Y-70038775D01*
X86041351Y-69813955D01*
X86041351Y-69813942D01*
X86022186Y-69582651D01*
X86022184Y-69582640D01*
X85965208Y-69357648D01*
X85871975Y-69145100D01*
X85745034Y-68950801D01*
X85745031Y-68950798D01*
X85745030Y-68950796D01*
X85587835Y-68780036D01*
X85587830Y-68780032D01*
X85587828Y-68780030D01*
X85404685Y-68637484D01*
X85404679Y-68637480D01*
X85200555Y-68527013D01*
X85200546Y-68527010D01*
X84981035Y-68451651D01*
X84809333Y-68422999D01*
X84752100Y-68413449D01*
X84520002Y-68413449D01*
X84474215Y-68421089D01*
X84291066Y-68451651D01*
X84071555Y-68527010D01*
X84071546Y-68527013D01*
X83867422Y-68637480D01*
X83867416Y-68637484D01*
X83684273Y-68780030D01*
X83684270Y-68780033D01*
X83527067Y-68950801D01*
X83400126Y-69145100D01*
X83306893Y-69357648D01*
X83249917Y-69582640D01*
X83249915Y-69582652D01*
X83233227Y-69784052D01*
X83208074Y-69849237D01*
X83151672Y-69890475D01*
X83081928Y-69894673D01*
X83058139Y-69886606D01*
X82982455Y-69852042D01*
X82982457Y-69852042D01*
X82840000Y-69831561D01*
X82697544Y-69852042D01*
X82646011Y-69875577D01*
X82576852Y-69885520D01*
X82513297Y-69856494D01*
X82475523Y-69797716D01*
X82470500Y-69762782D01*
X82470500Y-69552940D01*
X82490185Y-69485901D01*
X82506819Y-69465259D01*
X87711786Y-64260292D01*
X87711789Y-64260289D01*
X87799394Y-64129179D01*
X87859738Y-63983497D01*
X87890500Y-63828842D01*
X87890500Y-63671157D01*
X87890500Y-56072940D01*
X87910185Y-56005901D01*
X87926819Y-55985259D01*
X91231786Y-52680292D01*
X91231789Y-52680289D01*
X91319394Y-52549179D01*
X91379738Y-52403497D01*
X91410500Y-52248842D01*
X91410500Y-52091157D01*
X91410500Y-52014499D01*
X91430185Y-51947460D01*
X91482989Y-51901705D01*
X91534500Y-51890499D01*
X91557871Y-51890499D01*
X91557872Y-51890499D01*
X91617483Y-51884091D01*
X91752331Y-51833796D01*
X91867546Y-51747546D01*
X91953796Y-51632331D01*
X92004091Y-51497483D01*
X92010500Y-51437873D01*
X92010499Y-49542128D01*
X92004091Y-49482517D01*
X91986879Y-49436370D01*
X91953797Y-49347671D01*
X91953793Y-49347664D01*
X91867547Y-49232455D01*
X91867544Y-49232452D01*
X91752335Y-49146206D01*
X91752328Y-49146202D01*
X91672094Y-49116277D01*
X91616160Y-49074406D01*
X91591743Y-49008941D01*
X91606595Y-48940668D01*
X91624190Y-48916121D01*
X91718979Y-48813153D01*
X91845924Y-48618849D01*
X91939157Y-48406300D01*
X91996134Y-48181305D01*
X92015300Y-47950000D01*
X92015300Y-47949993D01*
X91996135Y-47718702D01*
X91996133Y-47718691D01*
X91939157Y-47493699D01*
X91845924Y-47281151D01*
X91718983Y-47086852D01*
X91718980Y-47086849D01*
X91718979Y-47086847D01*
X91561784Y-46916087D01*
X91561779Y-46916083D01*
X91561777Y-46916081D01*
X91378634Y-46773535D01*
X91378628Y-46773531D01*
X91174504Y-46663064D01*
X91174495Y-46663061D01*
X90954984Y-46587702D01*
X90783282Y-46559050D01*
X90726049Y-46549500D01*
X90493951Y-46549500D01*
X90448164Y-46557140D01*
X90265015Y-46587702D01*
X90045504Y-46663061D01*
X90045495Y-46663064D01*
X89841371Y-46773531D01*
X89841365Y-46773535D01*
X89658222Y-46916081D01*
X89658219Y-46916084D01*
X89501016Y-47086852D01*
X89374075Y-47281151D01*
X89280842Y-47493699D01*
X89223866Y-47718691D01*
X89223864Y-47718702D01*
X89204700Y-47949993D01*
X89204700Y-47950006D01*
X89223864Y-48181297D01*
X89223866Y-48181308D01*
X89280842Y-48406300D01*
X89374075Y-48618848D01*
X89501016Y-48813147D01*
X89501019Y-48813151D01*
X89501021Y-48813153D01*
X89595803Y-48916114D01*
X89626724Y-48978767D01*
X89618864Y-49048193D01*
X89574716Y-49102348D01*
X89547906Y-49116277D01*
X89467669Y-49146203D01*
X89467664Y-49146206D01*
X89352455Y-49232452D01*
X89352452Y-49232455D01*
X89266206Y-49347664D01*
X89266202Y-49347671D01*
X89215908Y-49482517D01*
X89209501Y-49542116D01*
X89209501Y-49542123D01*
X89209500Y-49542135D01*
X89209500Y-51437870D01*
X89209501Y-51437876D01*
X89215908Y-51497483D01*
X89266202Y-51632328D01*
X89266206Y-51632335D01*
X89352452Y-51747544D01*
X89352455Y-51747547D01*
X89467664Y-51833793D01*
X89467673Y-51833798D01*
X89514894Y-51851409D01*
X89539224Y-51860484D01*
X89595158Y-51902354D01*
X89619576Y-51967818D01*
X89604725Y-52036091D01*
X89583573Y-52064347D01*
X87274604Y-54373318D01*
X86579711Y-55068211D01*
X86549529Y-55098393D01*
X86468209Y-55179712D01*
X86380609Y-55310814D01*
X86380602Y-55310827D01*
X86320264Y-55456498D01*
X86320261Y-55456510D01*
X86289500Y-55611153D01*
X86289500Y-63367060D01*
X86269815Y-63434099D01*
X86253181Y-63454741D01*
X81159711Y-68548211D01*
X81103960Y-68603962D01*
X81048209Y-68659712D01*
X80960609Y-68790814D01*
X80960602Y-68790827D01*
X80900264Y-68936498D01*
X80900261Y-68936510D01*
X80869500Y-69091153D01*
X79513282Y-69091153D01*
X79551563Y-69003881D01*
X79612608Y-68762821D01*
X79633143Y-68515000D01*
X79624728Y-68413449D01*
X79612609Y-68267187D01*
X79612607Y-68267175D01*
X79551563Y-68026118D01*
X79451673Y-67798393D01*
X79315666Y-67590217D01*
X79294057Y-67566744D01*
X79147244Y-67407262D01*
X79064491Y-67342852D01*
X79023679Y-67286143D01*
X79020004Y-67216370D01*
X79054636Y-67155687D01*
X79064485Y-67147151D01*
X79147244Y-67082738D01*
X79315664Y-66899785D01*
X79451673Y-66691607D01*
X79551563Y-66463881D01*
X79612608Y-66222821D01*
X79633143Y-65975000D01*
X79612608Y-65727179D01*
X79551563Y-65486119D01*
X79451673Y-65258393D01*
X79446363Y-65250265D01*
X79315666Y-65050217D01*
X79294057Y-65026744D01*
X79147244Y-64867262D01*
X79064491Y-64802852D01*
X79023679Y-64746143D01*
X79020004Y-64676370D01*
X79054636Y-64615687D01*
X79064485Y-64607151D01*
X79147244Y-64542738D01*
X79315664Y-64359785D01*
X79451673Y-64151607D01*
X79551563Y-63923881D01*
X79612608Y-63682821D01*
X79613575Y-63671157D01*
X79633143Y-63435005D01*
X79633143Y-63434994D01*
X79612609Y-63187187D01*
X79612607Y-63187175D01*
X79551563Y-62946118D01*
X79451673Y-62718393D01*
X79315666Y-62510217D01*
X79294057Y-62486744D01*
X79147244Y-62327262D01*
X79064491Y-62262852D01*
X79023679Y-62206143D01*
X79020004Y-62136370D01*
X79054636Y-62075687D01*
X79064485Y-62067151D01*
X79147244Y-62002738D01*
X79315664Y-61819785D01*
X79451673Y-61611607D01*
X79551563Y-61383881D01*
X79612608Y-61142821D01*
X79612609Y-61142812D01*
X79633143Y-60895005D01*
X79633143Y-60894994D01*
X79612609Y-60647187D01*
X79612607Y-60647175D01*
X79551563Y-60406118D01*
X79451673Y-60178393D01*
X79315666Y-59970217D01*
X79286448Y-59938478D01*
X79147244Y-59787262D01*
X79064491Y-59722852D01*
X79023679Y-59666143D01*
X79020004Y-59596370D01*
X79054636Y-59535687D01*
X79064485Y-59527151D01*
X79147244Y-59462738D01*
X79315664Y-59279785D01*
X79451673Y-59071607D01*
X79551563Y-58843881D01*
X79612608Y-58602821D01*
X79633143Y-58355000D01*
X79612608Y-58107179D01*
X79551563Y-57866119D01*
X79451673Y-57638393D01*
X79315666Y-57430217D01*
X79294057Y-57406744D01*
X79147244Y-57247262D01*
X79064491Y-57182852D01*
X79023679Y-57126143D01*
X79020004Y-57056370D01*
X79054636Y-56995687D01*
X79064485Y-56987151D01*
X79147244Y-56922738D01*
X79315664Y-56739785D01*
X79451673Y-56531607D01*
X79551563Y-56303881D01*
X79612608Y-56062821D01*
X79612609Y-56062812D01*
X79633143Y-55815005D01*
X79633143Y-55814994D01*
X79612609Y-55567187D01*
X79612607Y-55567175D01*
X79551563Y-55326118D01*
X79451673Y-55098393D01*
X79315666Y-54890217D01*
X79294057Y-54866744D01*
X79147244Y-54707262D01*
X79064491Y-54642852D01*
X79023679Y-54586143D01*
X79020004Y-54516370D01*
X79054636Y-54455687D01*
X79064485Y-54447151D01*
X79147244Y-54382738D01*
X79315664Y-54199785D01*
X79451673Y-53991607D01*
X79551563Y-53763881D01*
X79612608Y-53522821D01*
X79633143Y-53275000D01*
X79632219Y-53263851D01*
X79612609Y-53027187D01*
X79612607Y-53027175D01*
X79551563Y-52786118D01*
X79451673Y-52558393D01*
X79315666Y-52350217D01*
X79222347Y-52248846D01*
X79147244Y-52167262D01*
X79064491Y-52102852D01*
X79023679Y-52046143D01*
X79020004Y-51976370D01*
X79054636Y-51915687D01*
X79064485Y-51907151D01*
X79147244Y-51842738D01*
X79315664Y-51659785D01*
X79451673Y-51451607D01*
X79551563Y-51223881D01*
X79612608Y-50982821D01*
X79633143Y-50735000D01*
X79612608Y-50487179D01*
X79551563Y-50246119D01*
X79451673Y-50018393D01*
X79340736Y-49848590D01*
X79315666Y-49810217D01*
X79294057Y-49786744D01*
X79147244Y-49627262D01*
X79064491Y-49562852D01*
X79023679Y-49506143D01*
X79020004Y-49436370D01*
X79054636Y-49375687D01*
X79064485Y-49367151D01*
X79147244Y-49302738D01*
X79315664Y-49119785D01*
X79451673Y-48911607D01*
X79551563Y-48683881D01*
X79612608Y-48442821D01*
X79633143Y-48195000D01*
X79632008Y-48181308D01*
X79612609Y-47947187D01*
X79612607Y-47947175D01*
X79551563Y-47706118D01*
X79451673Y-47478393D01*
X79315666Y-47270217D01*
X79294057Y-47246744D01*
X79147244Y-47087262D01*
X79064491Y-47022852D01*
X79023679Y-46966143D01*
X79020004Y-46896370D01*
X79054636Y-46835687D01*
X79064485Y-46827151D01*
X79147244Y-46762738D01*
X79315664Y-46579785D01*
X79451673Y-46371607D01*
X79551563Y-46143881D01*
X79612608Y-45902821D01*
X79633143Y-45655000D01*
X79612608Y-45407179D01*
X79551563Y-45166119D01*
X79451673Y-44938393D01*
X79315666Y-44730217D01*
X79294057Y-44706744D01*
X79147244Y-44547262D01*
X79064491Y-44482852D01*
X79023679Y-44426143D01*
X79020004Y-44356370D01*
X79054636Y-44295687D01*
X79064485Y-44287151D01*
X79147244Y-44222738D01*
X79315664Y-44039785D01*
X79451673Y-43831607D01*
X79551563Y-43603881D01*
X79612608Y-43362821D01*
X79613692Y-43349737D01*
X79633143Y-43115005D01*
X79633143Y-43114994D01*
X79612609Y-42867187D01*
X79612607Y-42867175D01*
X79551563Y-42626118D01*
X79451673Y-42398393D01*
X79315666Y-42190217D01*
X79294057Y-42166744D01*
X79147244Y-42007262D01*
X79064491Y-41942852D01*
X79023679Y-41886143D01*
X79020004Y-41816370D01*
X79054636Y-41755687D01*
X79064485Y-41747151D01*
X79147244Y-41682738D01*
X79315664Y-41499785D01*
X79451673Y-41291607D01*
X79551563Y-41063881D01*
X79612608Y-40822821D01*
X79633143Y-40575000D01*
X79612608Y-40327179D01*
X79551563Y-40086119D01*
X79451673Y-39858393D01*
X79386243Y-39758244D01*
X79315666Y-39650217D01*
X79294057Y-39626744D01*
X79147244Y-39467262D01*
X79043753Y-39386712D01*
X79002942Y-39330003D01*
X78996155Y-39281176D01*
X78997556Y-39258609D01*
X78265075Y-38526128D01*
X78324353Y-38510245D01*
X78440647Y-38443102D01*
X78535602Y-38348147D01*
X78602745Y-38231853D01*
X78618627Y-38172575D01*
X79350934Y-38904882D01*
X79451231Y-38751369D01*
X79551087Y-38523717D01*
X79612112Y-38282738D01*
X79612114Y-38282729D01*
X79632641Y-38035005D01*
X79632641Y-38034994D01*
X79612114Y-37787270D01*
X79612112Y-37787261D01*
X79551087Y-37546282D01*
X79451231Y-37318630D01*
X79350934Y-37165116D01*
X78618627Y-37897423D01*
X78602745Y-37838147D01*
X78535602Y-37721853D01*
X78440647Y-37626898D01*
X78324353Y-37559755D01*
X78265075Y-37543872D01*
X78997556Y-36811390D01*
X78996155Y-36788825D01*
X79011647Y-36720694D01*
X79043750Y-36683290D01*
X79147244Y-36602738D01*
X79315664Y-36419785D01*
X79451673Y-36211607D01*
X79551563Y-35983881D01*
X79612608Y-35742821D01*
X79617195Y-35687462D01*
X79633143Y-35495005D01*
X79633143Y-35494994D01*
X79612609Y-35247187D01*
X79612607Y-35247175D01*
X79551563Y-35006118D01*
X79451673Y-34778393D01*
X79315666Y-34570217D01*
X79202355Y-34447129D01*
X79147244Y-34387262D01*
X78951009Y-34234526D01*
X78951007Y-34234525D01*
X78951006Y-34234524D01*
X78732311Y-34116172D01*
X78732302Y-34116169D01*
X78497116Y-34035429D01*
X78251835Y-33994500D01*
X78003165Y-33994500D01*
X77856938Y-34018899D01*
X77787573Y-34010516D01*
X77748849Y-33984271D01*
X75932792Y-32168213D01*
X75932788Y-32168210D01*
X75801685Y-32080609D01*
X75801672Y-32080602D01*
X75656001Y-32020264D01*
X75655989Y-32020261D01*
X75501345Y-31989500D01*
X75501342Y-31989500D01*
X57308842Y-31989500D01*
X52311342Y-31989500D01*
X52153657Y-31989500D01*
X52153655Y-31989500D01*
X51999008Y-32020261D01*
X51998998Y-32020264D01*
X51853327Y-32080602D01*
X51853315Y-32080609D01*
X51765180Y-32139500D01*
X51765179Y-32139501D01*
X51722208Y-32168212D01*
X51722207Y-32168213D01*
X49031681Y-34858740D01*
X48970358Y-34892225D01*
X48900666Y-34887241D01*
X48844733Y-34845369D01*
X48820316Y-34779905D01*
X48820000Y-34771059D01*
X48820000Y-34222172D01*
X48819999Y-34222155D01*
X48813598Y-34162627D01*
X48813596Y-34162620D01*
X48763354Y-34027913D01*
X48763350Y-34027906D01*
X48677190Y-33912812D01*
X48677187Y-33912809D01*
X48562093Y-33826649D01*
X48562088Y-33826646D01*
X48430528Y-33777577D01*
X48374595Y-33735705D01*
X48350178Y-33670241D01*
X48365030Y-33601968D01*
X48386175Y-33573720D01*
X48508495Y-33451401D01*
X48644035Y-33257830D01*
X48743903Y-33043663D01*
X48805063Y-32815408D01*
X48825659Y-32580000D01*
X48805063Y-32344592D01*
X48750110Y-32139501D01*
X48743905Y-32116344D01*
X48743904Y-32116343D01*
X48743903Y-32116337D01*
X48644035Y-31902171D01*
X48614468Y-31859944D01*
X48508494Y-31708597D01*
X48341402Y-31541506D01*
X48341396Y-31541501D01*
X48155842Y-31411575D01*
X48112217Y-31356998D01*
X48105023Y-31287500D01*
X48136546Y-31225145D01*
X48155842Y-31208425D01*
X48178026Y-31192891D01*
X48341401Y-31078495D01*
X48508495Y-30911401D01*
X48644035Y-30717830D01*
X48743903Y-30503663D01*
X48775982Y-30383942D01*
X81088649Y-30383942D01*
X81088649Y-30383955D01*
X81107813Y-30615246D01*
X81107815Y-30615257D01*
X81164791Y-30840249D01*
X81258024Y-31052797D01*
X81384965Y-31247096D01*
X81384968Y-31247100D01*
X81384970Y-31247102D01*
X81542165Y-31417862D01*
X81542168Y-31417864D01*
X81542171Y-31417867D01*
X81725314Y-31560413D01*
X81725320Y-31560417D01*
X81725323Y-31560419D01*
X81929446Y-31670885D01*
X82039297Y-31708597D01*
X82148964Y-31746246D01*
X82148966Y-31746246D01*
X82148968Y-31746247D01*
X82377900Y-31784449D01*
X82377901Y-31784449D01*
X82454680Y-31784449D01*
X82521719Y-31804134D01*
X82567474Y-31856938D01*
X82577418Y-31926096D01*
X82567474Y-31959961D01*
X82532042Y-32037543D01*
X82511561Y-32180000D01*
X82532042Y-32322456D01*
X82591829Y-32453370D01*
X82591830Y-32453371D01*
X82591831Y-32453373D01*
X82629450Y-32500056D01*
X82629453Y-32500059D01*
X82629458Y-32500065D01*
X83661085Y-33531690D01*
X83969944Y-33840549D01*
X84016627Y-33878169D01*
X84147543Y-33937957D01*
X84147542Y-33937957D01*
X84165449Y-33940531D01*
X84290000Y-33958439D01*
X84432457Y-33937957D01*
X84563373Y-33878169D01*
X84610056Y-33840550D01*
X85950549Y-32500056D01*
X85988169Y-32453373D01*
X86047957Y-32322457D01*
X86068439Y-32180000D01*
X86047957Y-32037543D01*
X85988169Y-31906627D01*
X85950550Y-31859944D01*
X85950545Y-31859939D01*
X85950541Y-31859934D01*
X84610063Y-30519458D01*
X84610056Y-30519451D01*
X84563373Y-30481831D01*
X84466357Y-30437525D01*
X84432455Y-30422042D01*
X84432457Y-30422042D01*
X84290000Y-30401561D01*
X84147545Y-30422042D01*
X84071859Y-30456607D01*
X84002701Y-30466550D01*
X83939145Y-30437525D01*
X83901371Y-30378746D01*
X83896772Y-30354057D01*
X83880083Y-30152644D01*
X83856604Y-30059928D01*
X83823106Y-29927648D01*
X83729873Y-29715100D01*
X83602932Y-29520801D01*
X83602929Y-29520798D01*
X83602928Y-29520796D01*
X83445733Y-29350036D01*
X83445728Y-29350032D01*
X83445726Y-29350030D01*
X83262583Y-29207484D01*
X83262577Y-29207480D01*
X83058453Y-29097013D01*
X83058444Y-29097010D01*
X82838933Y-29021651D01*
X82667231Y-28992999D01*
X82609998Y-28983449D01*
X82377900Y-28983449D01*
X82332113Y-28991089D01*
X82148964Y-29021651D01*
X81929453Y-29097010D01*
X81929444Y-29097013D01*
X81725320Y-29207480D01*
X81725314Y-29207484D01*
X81542171Y-29350030D01*
X81542168Y-29350033D01*
X81384965Y-29520801D01*
X81258024Y-29715100D01*
X81164791Y-29927648D01*
X81107815Y-30152640D01*
X81107813Y-30152651D01*
X81088649Y-30383942D01*
X48775982Y-30383942D01*
X48805063Y-30275408D01*
X48825659Y-30040000D01*
X48805063Y-29804592D01*
X48758626Y-29631285D01*
X48743905Y-29576344D01*
X48743904Y-29576343D01*
X48743903Y-29576337D01*
X48644035Y-29362171D01*
X48535723Y-29207484D01*
X48508494Y-29168597D01*
X48341402Y-29001506D01*
X48341395Y-29001501D01*
X48147834Y-28865967D01*
X48147830Y-28865965D01*
X48119752Y-28852872D01*
X47933663Y-28766097D01*
X47933659Y-28766096D01*
X47933655Y-28766094D01*
X47705413Y-28704938D01*
X47705403Y-28704936D01*
X47470001Y-28684341D01*
X47469999Y-28684341D01*
X47234596Y-28704936D01*
X47234586Y-28704938D01*
X47006344Y-28766094D01*
X47006335Y-28766098D01*
X46792171Y-28865964D01*
X46792169Y-28865965D01*
X46598597Y-29001505D01*
X46431505Y-29168597D01*
X46295965Y-29362169D01*
X46295964Y-29362171D01*
X46196098Y-29576335D01*
X46196094Y-29576344D01*
X46134938Y-29804586D01*
X46134936Y-29804596D01*
X46114341Y-30039999D01*
X46114341Y-30040000D01*
X46134936Y-30275403D01*
X46134938Y-30275413D01*
X46196094Y-30503655D01*
X46196096Y-30503659D01*
X46196097Y-30503663D01*
X46268636Y-30659223D01*
X46295965Y-30717830D01*
X46295967Y-30717834D01*
X46381684Y-30840249D01*
X46408913Y-30879137D01*
X46431501Y-30911395D01*
X46431506Y-30911402D01*
X46598597Y-31078493D01*
X46598603Y-31078498D01*
X46784158Y-31208425D01*
X46827783Y-31263002D01*
X46834977Y-31332500D01*
X46803454Y-31394855D01*
X46784158Y-31411575D01*
X46598597Y-31541505D01*
X46431505Y-31708597D01*
X46295965Y-31902169D01*
X46295964Y-31902171D01*
X46196098Y-32116335D01*
X46196094Y-32116344D01*
X46134938Y-32344586D01*
X46134936Y-32344596D01*
X46114341Y-32579999D01*
X46114341Y-32580000D01*
X46134936Y-32815403D01*
X46134938Y-32815413D01*
X46196094Y-33043655D01*
X46196096Y-33043659D01*
X46196097Y-33043663D01*
X46295965Y-33257830D01*
X46295967Y-33257834D01*
X46404281Y-33412521D01*
X46431501Y-33451396D01*
X46431506Y-33451402D01*
X46553818Y-33573714D01*
X46587303Y-33635037D01*
X46582319Y-33704729D01*
X46540447Y-33760662D01*
X46509471Y-33777577D01*
X46377912Y-33826646D01*
X46377906Y-33826649D01*
X46262812Y-33912809D01*
X46262809Y-33912812D01*
X46176649Y-34027906D01*
X46176645Y-34027913D01*
X46126403Y-34162620D01*
X46126401Y-34162627D01*
X46120000Y-34222155D01*
X46120000Y-34870000D01*
X47036988Y-34870000D01*
X47004075Y-34927007D01*
X46970000Y-35054174D01*
X46970000Y-35185826D01*
X47004075Y-35312993D01*
X47036988Y-35370000D01*
X46120000Y-35370000D01*
X46120000Y-36017844D01*
X46126401Y-36077372D01*
X46126403Y-36077379D01*
X46176645Y-36212086D01*
X46176649Y-36212093D01*
X46262809Y-36327187D01*
X46262812Y-36327190D01*
X46377906Y-36413350D01*
X46377913Y-36413354D01*
X46512620Y-36463596D01*
X46512627Y-36463598D01*
X46572155Y-36469999D01*
X46572172Y-36470000D01*
X47220000Y-36470000D01*
X47220000Y-35553012D01*
X47277007Y-35585925D01*
X47404174Y-35620000D01*
X47535826Y-35620000D01*
X47662993Y-35585925D01*
X47720000Y-35553012D01*
X47720000Y-36470000D01*
X48367828Y-36470000D01*
X48367844Y-36469999D01*
X48427372Y-36463598D01*
X48427376Y-36463597D01*
X48482166Y-36443162D01*
X48551858Y-36438178D01*
X48613181Y-36471663D01*
X48646666Y-36532986D01*
X48649500Y-36559344D01*
X48649500Y-42658846D01*
X48680261Y-42813489D01*
X48680264Y-42813501D01*
X48740602Y-42959172D01*
X48740609Y-42959185D01*
X48828210Y-43090288D01*
X48828213Y-43090292D01*
X48939707Y-43201786D01*
X48939711Y-43201789D01*
X49070814Y-43289390D01*
X49070827Y-43289397D01*
X49216498Y-43349735D01*
X49216503Y-43349737D01*
X49371153Y-43380499D01*
X49371156Y-43380500D01*
X49371158Y-43380500D01*
X49528844Y-43380500D01*
X49528845Y-43380499D01*
X49683497Y-43349737D01*
X49829179Y-43289394D01*
X49960289Y-43201789D01*
X50071789Y-43090289D01*
X50159394Y-42959179D01*
X50219737Y-42813497D01*
X50250500Y-42658842D01*
X50250500Y-35955439D01*
X50270185Y-35888400D01*
X50286815Y-35867762D01*
X51015319Y-35139257D01*
X51076642Y-35105773D01*
X51146334Y-35110757D01*
X51202267Y-35152629D01*
X51226684Y-35218093D01*
X51227000Y-35226939D01*
X51227000Y-36542870D01*
X51227001Y-36542876D01*
X51233408Y-36602483D01*
X51283702Y-36737328D01*
X51283706Y-36737335D01*
X51369952Y-36852544D01*
X51369955Y-36852547D01*
X51485163Y-36938793D01*
X51490299Y-36941597D01*
X51539705Y-36991002D01*
X51554557Y-37059275D01*
X51534682Y-37118251D01*
X51403767Y-37318632D01*
X51303912Y-37546282D01*
X51242887Y-37787261D01*
X51242885Y-37787270D01*
X51222359Y-38034994D01*
X51222359Y-38035005D01*
X51242885Y-38282729D01*
X51242887Y-38282738D01*
X51303912Y-38523717D01*
X51403766Y-38751364D01*
X51504064Y-38904882D01*
X52236371Y-38172574D01*
X52252255Y-38231853D01*
X52319398Y-38348147D01*
X52414353Y-38443102D01*
X52530647Y-38510245D01*
X52589924Y-38526128D01*
X51857442Y-39258609D01*
X51858843Y-39281177D01*
X51843350Y-39349307D01*
X51811244Y-39386713D01*
X51707758Y-39467260D01*
X51539333Y-39650217D01*
X51403326Y-39858393D01*
X51303436Y-40086118D01*
X51242392Y-40327175D01*
X51242390Y-40327187D01*
X51221857Y-40574994D01*
X51221857Y-40575005D01*
X51242390Y-40822812D01*
X51242392Y-40822824D01*
X51303436Y-41063881D01*
X51403326Y-41291606D01*
X51539333Y-41499782D01*
X51539336Y-41499785D01*
X51707756Y-41682738D01*
X51790508Y-41747147D01*
X51831321Y-41803857D01*
X51834996Y-41873630D01*
X51800364Y-41934313D01*
X51790514Y-41942848D01*
X51789629Y-41943538D01*
X51707757Y-42007261D01*
X51539333Y-42190217D01*
X51403326Y-42398393D01*
X51303436Y-42626118D01*
X51242392Y-42867175D01*
X51242390Y-42867187D01*
X51221857Y-43114994D01*
X51221857Y-43115005D01*
X51242390Y-43362812D01*
X51242392Y-43362824D01*
X51303436Y-43603881D01*
X51403326Y-43831606D01*
X51539333Y-44039782D01*
X51539336Y-44039785D01*
X51707756Y-44222738D01*
X51790508Y-44287147D01*
X51831321Y-44343857D01*
X51834996Y-44413630D01*
X51800364Y-44474313D01*
X51790514Y-44482848D01*
X51731900Y-44528469D01*
X51707757Y-44547261D01*
X51539333Y-44730217D01*
X51403326Y-44938393D01*
X51303436Y-45166118D01*
X51242392Y-45407175D01*
X51242390Y-45407187D01*
X51221857Y-45654994D01*
X51221857Y-45655005D01*
X51242390Y-45902812D01*
X51242392Y-45902824D01*
X51303436Y-46143881D01*
X51403326Y-46371606D01*
X51539333Y-46579782D01*
X51539336Y-46579785D01*
X51707756Y-46762738D01*
X51790508Y-46827147D01*
X51831321Y-46883857D01*
X51834996Y-46953630D01*
X51800364Y-47014313D01*
X51790514Y-47022848D01*
X51731900Y-47068469D01*
X51707757Y-47087261D01*
X51539333Y-47270217D01*
X51403326Y-47478393D01*
X51303436Y-47706118D01*
X51242392Y-47947175D01*
X51242390Y-47947187D01*
X51221857Y-48194994D01*
X51221857Y-48195005D01*
X51242390Y-48442812D01*
X51242392Y-48442824D01*
X51303436Y-48683881D01*
X51403326Y-48911606D01*
X51539333Y-49119782D01*
X51563655Y-49146203D01*
X51707756Y-49302738D01*
X51790508Y-49367147D01*
X51831321Y-49423857D01*
X51834996Y-49493630D01*
X51800364Y-49554313D01*
X51790514Y-49562848D01*
X51731900Y-49608469D01*
X51707757Y-49627261D01*
X51539333Y-49810217D01*
X51403326Y-50018393D01*
X51303436Y-50246118D01*
X51242392Y-50487175D01*
X51242390Y-50487187D01*
X51221857Y-50734994D01*
X51221857Y-50735005D01*
X51242390Y-50982812D01*
X51242392Y-50982824D01*
X51303436Y-51223881D01*
X51403326Y-51451606D01*
X51539333Y-51659782D01*
X51539336Y-51659785D01*
X51707756Y-51842738D01*
X51790508Y-51907147D01*
X51831321Y-51963857D01*
X51834996Y-52033630D01*
X51800364Y-52094313D01*
X51790514Y-52102848D01*
X51765207Y-52122546D01*
X51707757Y-52167261D01*
X51539333Y-52350217D01*
X51403326Y-52558393D01*
X51303436Y-52786118D01*
X51242392Y-53027175D01*
X51242390Y-53027187D01*
X51221857Y-53274994D01*
X51221857Y-53275005D01*
X51242390Y-53522812D01*
X51242392Y-53522824D01*
X51303436Y-53763881D01*
X51403326Y-53991606D01*
X51539333Y-54199782D01*
X51539336Y-54199785D01*
X51707756Y-54382738D01*
X51790508Y-54447147D01*
X51831321Y-54503857D01*
X51834996Y-54573630D01*
X51800364Y-54634313D01*
X51790514Y-54642848D01*
X51731900Y-54688469D01*
X51707757Y-54707261D01*
X51539333Y-54890217D01*
X51403326Y-55098393D01*
X51303436Y-55326118D01*
X51242392Y-55567175D01*
X51242390Y-55567187D01*
X51221857Y-55814994D01*
X51221857Y-55815005D01*
X51242390Y-56062812D01*
X51242392Y-56062824D01*
X51303436Y-56303881D01*
X51403326Y-56531606D01*
X51539333Y-56739782D01*
X51539336Y-56739785D01*
X51707756Y-56922738D01*
X51790508Y-56987147D01*
X51831321Y-57043857D01*
X51834996Y-57113630D01*
X51800364Y-57174313D01*
X51790514Y-57182848D01*
X51731900Y-57228469D01*
X51707757Y-57247261D01*
X51539333Y-57430217D01*
X51403326Y-57638393D01*
X51303436Y-57866118D01*
X51242392Y-58107175D01*
X51242390Y-58107187D01*
X51221857Y-58354994D01*
X51221857Y-58355005D01*
X51242390Y-58602812D01*
X51242392Y-58602824D01*
X51303436Y-58843881D01*
X51403326Y-59071606D01*
X51539333Y-59279782D01*
X51539336Y-59279785D01*
X51707756Y-59462738D01*
X51790508Y-59527147D01*
X51831321Y-59583857D01*
X51834996Y-59653630D01*
X51800364Y-59714313D01*
X51790514Y-59722848D01*
X51731900Y-59768469D01*
X51707757Y-59787261D01*
X51539333Y-59970217D01*
X51403326Y-60178393D01*
X51303436Y-60406118D01*
X51242392Y-60647175D01*
X51242390Y-60647187D01*
X51221857Y-60894994D01*
X51221857Y-60895005D01*
X51242390Y-61142812D01*
X51242392Y-61142824D01*
X51303436Y-61383881D01*
X51403326Y-61611606D01*
X51539333Y-61819782D01*
X51539336Y-61819785D01*
X51707756Y-62002738D01*
X51790508Y-62067147D01*
X51831321Y-62123857D01*
X51834996Y-62193630D01*
X51800364Y-62254313D01*
X51790514Y-62262848D01*
X51731900Y-62308469D01*
X51707757Y-62327261D01*
X51539333Y-62510217D01*
X51403326Y-62718393D01*
X51303436Y-62946118D01*
X51242392Y-63187175D01*
X51242390Y-63187187D01*
X51221857Y-63434994D01*
X51221857Y-63435005D01*
X51242390Y-63682812D01*
X51242392Y-63682824D01*
X51303436Y-63923881D01*
X51403326Y-64151606D01*
X51539333Y-64359782D01*
X51539336Y-64359785D01*
X51707756Y-64542738D01*
X51790508Y-64607147D01*
X51831321Y-64663857D01*
X51834996Y-64733630D01*
X51800364Y-64794313D01*
X51790514Y-64802848D01*
X51731900Y-64848469D01*
X51707757Y-64867261D01*
X51539333Y-65050217D01*
X51403326Y-65258393D01*
X51303436Y-65486118D01*
X51242392Y-65727175D01*
X51242390Y-65727187D01*
X51221857Y-65974994D01*
X51221857Y-65975005D01*
X51242390Y-66222812D01*
X51242392Y-66222824D01*
X51303436Y-66463881D01*
X51403326Y-66691606D01*
X51539333Y-66899782D01*
X51539336Y-66899785D01*
X51707756Y-67082738D01*
X51790508Y-67147147D01*
X51831321Y-67203857D01*
X51834996Y-67273630D01*
X51800364Y-67334313D01*
X51790514Y-67342848D01*
X51731900Y-67388469D01*
X51707757Y-67407261D01*
X51539333Y-67590217D01*
X51403326Y-67798393D01*
X51303436Y-68026118D01*
X51242392Y-68267175D01*
X51242390Y-68267187D01*
X51221857Y-68514994D01*
X51221857Y-68515005D01*
X51242390Y-68762812D01*
X51242392Y-68762824D01*
X51303436Y-69003881D01*
X51403326Y-69231606D01*
X51539333Y-69439782D01*
X51539336Y-69439785D01*
X51707756Y-69622738D01*
X51790508Y-69687147D01*
X51831321Y-69743857D01*
X51834996Y-69813630D01*
X51800364Y-69874313D01*
X51790514Y-69882848D01*
X51753278Y-69911831D01*
X51707757Y-69947261D01*
X51539333Y-70130217D01*
X51403326Y-70338393D01*
X51303436Y-70566118D01*
X51242392Y-70807175D01*
X51242390Y-70807187D01*
X51221857Y-71054994D01*
X51221857Y-71055005D01*
X51242390Y-71302812D01*
X51242392Y-71302824D01*
X51303436Y-71543881D01*
X51403326Y-71771606D01*
X51539333Y-71979782D01*
X51539336Y-71979785D01*
X51707756Y-72162738D01*
X51903991Y-72315474D01*
X52122690Y-72433828D01*
X52357886Y-72514571D01*
X52603165Y-72555500D01*
X52643208Y-72555500D01*
X52710247Y-72575185D01*
X52756002Y-72627989D01*
X52765946Y-72697147D01*
X52736921Y-72760703D01*
X52678143Y-72798477D01*
X52675335Y-72799265D01*
X52617918Y-72814649D01*
X52583612Y-72823842D01*
X52371623Y-72911650D01*
X52371609Y-72911657D01*
X52172882Y-73026392D01*
X51990838Y-73166081D01*
X51828581Y-73328338D01*
X51688892Y-73510382D01*
X51574157Y-73709109D01*
X51574150Y-73709123D01*
X51486342Y-73921112D01*
X51426953Y-74142759D01*
X51426951Y-74142770D01*
X51397000Y-74370258D01*
X51397000Y-74599741D01*
X51416055Y-74744467D01*
X51426952Y-74827238D01*
X51449725Y-74912228D01*
X51486342Y-75048887D01*
X51574150Y-75260876D01*
X51574157Y-75260890D01*
X51688892Y-75459617D01*
X51828581Y-75641661D01*
X51828589Y-75641670D01*
X51990830Y-75803911D01*
X51990838Y-75803918D01*
X52172882Y-75943607D01*
X52172885Y-75943608D01*
X52172888Y-75943611D01*
X52371612Y-76058344D01*
X52371617Y-76058346D01*
X52371623Y-76058349D01*
X52462980Y-76096190D01*
X52583613Y-76146158D01*
X52805262Y-76205548D01*
X52998969Y-76231050D01*
X53010442Y-76232561D01*
X53074338Y-76260828D01*
X53112809Y-76319152D01*
X53113640Y-76389017D01*
X53076568Y-76448240D01*
X53013362Y-76478019D01*
X52994256Y-76479500D01*
X44002303Y-76479500D01*
X43997666Y-76479413D01*
X43518919Y-76461498D01*
X43509672Y-76460805D01*
X43035901Y-76407424D01*
X43026732Y-76406042D01*
X42558283Y-76317406D01*
X42549242Y-76315343D01*
X42088716Y-76191944D01*
X42079855Y-76189210D01*
X41629836Y-76031741D01*
X41621204Y-76028354D01*
X41184209Y-75837694D01*
X41175855Y-75833670D01*
X40754354Y-75610900D01*
X40746323Y-75606264D01*
X40342624Y-75352603D01*
X40334962Y-75347379D01*
X39951354Y-75064263D01*
X39944104Y-75058481D01*
X39582728Y-74747491D01*
X39575931Y-74741184D01*
X39238815Y-74404068D01*
X39232507Y-74397271D01*
X38921499Y-74035872D01*
X38915724Y-74028630D01*
X38836372Y-73921112D01*
X38679918Y-73709123D01*
X38632615Y-73645030D01*
X38627391Y-73637368D01*
X38373730Y-73233668D01*
X38369094Y-73225637D01*
X38146325Y-72804136D01*
X38142301Y-72795782D01*
X37951641Y-72358786D01*
X37948253Y-72350154D01*
X37818857Y-71980362D01*
X37790782Y-71900128D01*
X37788051Y-71891272D01*
X37664649Y-71430730D01*
X37662595Y-71421727D01*
X37573954Y-70953246D01*
X37572574Y-70944088D01*
X37568641Y-70909185D01*
X37519192Y-70470306D01*
X37518500Y-70461070D01*
X37500587Y-69982324D01*
X37500500Y-69977688D01*
X37500500Y-31982398D01*
X37500587Y-31977762D01*
X37505108Y-31856938D01*
X37518500Y-31498996D01*
X37519191Y-31489776D01*
X37572577Y-31015969D01*
X37573954Y-31006832D01*
X37662599Y-30538335D01*
X37664651Y-30529343D01*
X37788059Y-30068777D01*
X37790789Y-30059928D01*
X37797763Y-30039999D01*
X37948264Y-29609890D01*
X37951651Y-29601263D01*
X37986758Y-29520796D01*
X38142310Y-29164265D01*
X38146324Y-29155929D01*
X38369117Y-28734386D01*
X38373748Y-28726367D01*
X38387213Y-28704938D01*
X38627415Y-28322657D01*
X38632626Y-28315014D01*
X38915763Y-27931378D01*
X38921511Y-27924169D01*
X39232548Y-27562737D01*
X39238829Y-27555969D01*
X39374540Y-27420258D01*
X51397000Y-27420258D01*
X51397000Y-27649741D01*
X51421946Y-27839215D01*
X51426952Y-27877238D01*
X51455897Y-27985264D01*
X51486342Y-28098887D01*
X51574150Y-28310876D01*
X51574157Y-28310890D01*
X51688892Y-28509617D01*
X51828581Y-28691661D01*
X51828589Y-28691670D01*
X51990830Y-28853911D01*
X51990838Y-28853918D01*
X52172882Y-28993607D01*
X52172885Y-28993608D01*
X52172888Y-28993611D01*
X52371612Y-29108344D01*
X52371617Y-29108346D01*
X52371623Y-29108349D01*
X52462980Y-29146190D01*
X52583613Y-29196158D01*
X52805262Y-29255548D01*
X53032766Y-29285500D01*
X53032773Y-29285500D01*
X53262227Y-29285500D01*
X53262234Y-29285500D01*
X53489738Y-29255548D01*
X53711387Y-29196158D01*
X53923388Y-29108344D01*
X54122112Y-28993611D01*
X54304161Y-28853919D01*
X54304165Y-28853914D01*
X54304170Y-28853911D01*
X54466411Y-28691670D01*
X54466414Y-28691665D01*
X54466419Y-28691661D01*
X54606111Y-28509612D01*
X54720844Y-28310888D01*
X54808658Y-28098887D01*
X54868048Y-27877238D01*
X54898000Y-27649734D01*
X54898000Y-27420266D01*
X54897999Y-27420258D01*
X75907000Y-27420258D01*
X75907000Y-27649741D01*
X75931946Y-27839215D01*
X75936952Y-27877238D01*
X75965897Y-27985264D01*
X75996342Y-28098887D01*
X76084150Y-28310876D01*
X76084157Y-28310890D01*
X76198892Y-28509617D01*
X76338581Y-28691661D01*
X76338589Y-28691670D01*
X76500830Y-28853911D01*
X76500838Y-28853918D01*
X76682882Y-28993607D01*
X76682885Y-28993608D01*
X76682888Y-28993611D01*
X76881612Y-29108344D01*
X76881617Y-29108346D01*
X76881623Y-29108349D01*
X76972980Y-29146190D01*
X77093613Y-29196158D01*
X77315262Y-29255548D01*
X77542766Y-29285500D01*
X77542773Y-29285500D01*
X77772227Y-29285500D01*
X77772234Y-29285500D01*
X77999738Y-29255548D01*
X78221387Y-29196158D01*
X78433388Y-29108344D01*
X78632112Y-28993611D01*
X78814161Y-28853919D01*
X78814165Y-28853914D01*
X78814170Y-28853911D01*
X78976411Y-28691670D01*
X78976414Y-28691665D01*
X78976419Y-28691661D01*
X79116111Y-28509612D01*
X79230844Y-28310888D01*
X79318658Y-28098887D01*
X79378048Y-27877238D01*
X79408000Y-27649734D01*
X79408000Y-27420266D01*
X79378048Y-27192762D01*
X79318658Y-26971113D01*
X79253802Y-26814538D01*
X79230849Y-26759123D01*
X79230846Y-26759117D01*
X79230844Y-26759112D01*
X79116111Y-26560388D01*
X79116108Y-26560385D01*
X79116107Y-26560382D01*
X78976418Y-26378338D01*
X78976411Y-26378330D01*
X78814170Y-26216089D01*
X78814161Y-26216081D01*
X78632117Y-26076392D01*
X78433390Y-25961657D01*
X78433376Y-25961650D01*
X78221387Y-25873842D01*
X77999738Y-25814452D01*
X77961715Y-25809446D01*
X77772241Y-25784500D01*
X77772234Y-25784500D01*
X77542766Y-25784500D01*
X77542758Y-25784500D01*
X77326215Y-25813009D01*
X77315262Y-25814452D01*
X77221576Y-25839554D01*
X77093612Y-25873842D01*
X76881623Y-25961650D01*
X76881609Y-25961657D01*
X76682882Y-26076392D01*
X76500838Y-26216081D01*
X76338581Y-26378338D01*
X76198892Y-26560382D01*
X76084157Y-26759109D01*
X76084150Y-26759123D01*
X75996342Y-26971112D01*
X75936953Y-27192759D01*
X75936951Y-27192770D01*
X75907000Y-27420258D01*
X54897999Y-27420258D01*
X54868048Y-27192762D01*
X54808658Y-26971113D01*
X54743802Y-26814538D01*
X54720849Y-26759123D01*
X54720846Y-26759117D01*
X54720844Y-26759112D01*
X54606111Y-26560388D01*
X54606108Y-26560385D01*
X54606107Y-26560382D01*
X54466418Y-26378338D01*
X54466411Y-26378330D01*
X54304170Y-26216089D01*
X54304161Y-26216081D01*
X54122117Y-26076392D01*
X53923390Y-25961657D01*
X53923376Y-25961650D01*
X53711387Y-25873842D01*
X53489738Y-25814452D01*
X53451715Y-25809446D01*
X53262241Y-25784500D01*
X53262234Y-25784500D01*
X53032766Y-25784500D01*
X53032758Y-25784500D01*
X52816215Y-25813009D01*
X52805262Y-25814452D01*
X52711576Y-25839554D01*
X52583612Y-25873842D01*
X52371623Y-25961650D01*
X52371609Y-25961657D01*
X52172882Y-26076392D01*
X51990838Y-26216081D01*
X51828581Y-26378338D01*
X51688892Y-26560382D01*
X51574157Y-26759109D01*
X51574150Y-26759123D01*
X51486342Y-26971112D01*
X51426953Y-27192759D01*
X51426951Y-27192770D01*
X51397000Y-27420258D01*
X39374540Y-27420258D01*
X39575977Y-27218822D01*
X39582746Y-27212541D01*
X39944162Y-26901517D01*
X39951373Y-26895766D01*
X40335015Y-26612625D01*
X40342658Y-26607414D01*
X40746380Y-26353740D01*
X40754398Y-26349111D01*
X41175917Y-26126332D01*
X41184260Y-26122313D01*
X41621279Y-25931644D01*
X41629901Y-25928261D01*
X42079926Y-25770790D01*
X42088781Y-25768057D01*
X42346360Y-25699040D01*
X42549321Y-25644657D01*
X42558361Y-25642594D01*
X42584010Y-25637741D01*
X43026833Y-25553954D01*
X43035971Y-25552577D01*
X43509778Y-25499191D01*
X43518998Y-25498500D01*
X43997765Y-25480587D01*
X44002401Y-25480500D01*
X44065982Y-25480500D01*
X78184599Y-25480500D01*
X78248241Y-25480500D01*
X78252728Y-25480581D01*
G37*
%TD.AperFunction*%
%TA.AperFunction,Conductor*%
G36*
X75106599Y-33610185D02*
G01*
X75127241Y-33626819D01*
X76613830Y-35113408D01*
X76647315Y-35174731D01*
X76646355Y-35231528D01*
X76642391Y-35247180D01*
X76621857Y-35494994D01*
X76621857Y-35495005D01*
X76642390Y-35742812D01*
X76642392Y-35742824D01*
X76703436Y-35983881D01*
X76803326Y-36211606D01*
X76939333Y-36419782D01*
X76939336Y-36419785D01*
X77107756Y-36602738D01*
X77107759Y-36602740D01*
X77107762Y-36602743D01*
X77211243Y-36683286D01*
X77252056Y-36739996D01*
X77258843Y-36788823D01*
X77257441Y-36811389D01*
X77989924Y-37543871D01*
X77930647Y-37559755D01*
X77814353Y-37626898D01*
X77719398Y-37721853D01*
X77652255Y-37838147D01*
X77636372Y-37897424D01*
X76904064Y-37165116D01*
X76803767Y-37318632D01*
X76703912Y-37546282D01*
X76642887Y-37787261D01*
X76642885Y-37787270D01*
X76622359Y-38034994D01*
X76622359Y-38035005D01*
X76642885Y-38282729D01*
X76642887Y-38282738D01*
X76703912Y-38523717D01*
X76803766Y-38751364D01*
X76904064Y-38904882D01*
X77636371Y-38172575D01*
X77652255Y-38231853D01*
X77719398Y-38348147D01*
X77814353Y-38443102D01*
X77930647Y-38510245D01*
X77989924Y-38526128D01*
X77257442Y-39258609D01*
X77258843Y-39281177D01*
X77243350Y-39349307D01*
X77211244Y-39386713D01*
X77107758Y-39467260D01*
X76939333Y-39650217D01*
X76803326Y-39858393D01*
X76703436Y-40086118D01*
X76642392Y-40327175D01*
X76642390Y-40327187D01*
X76621857Y-40574994D01*
X76621857Y-40575005D01*
X76642390Y-40822812D01*
X76642392Y-40822824D01*
X76703436Y-41063881D01*
X76803326Y-41291606D01*
X76939333Y-41499782D01*
X76939336Y-41499785D01*
X77107756Y-41682738D01*
X77190508Y-41747147D01*
X77231321Y-41803857D01*
X77234996Y-41873630D01*
X77200364Y-41934313D01*
X77190514Y-41942848D01*
X77189629Y-41943538D01*
X77107757Y-42007261D01*
X76939333Y-42190217D01*
X76803326Y-42398393D01*
X76703436Y-42626118D01*
X76642392Y-42867175D01*
X76642390Y-42867187D01*
X76621857Y-43114994D01*
X76621857Y-43115005D01*
X76642390Y-43362812D01*
X76642392Y-43362824D01*
X76703436Y-43603881D01*
X76803326Y-43831606D01*
X76939333Y-44039782D01*
X76939336Y-44039785D01*
X77107756Y-44222738D01*
X77190508Y-44287147D01*
X77231321Y-44343857D01*
X77234996Y-44413630D01*
X77200364Y-44474313D01*
X77190514Y-44482848D01*
X77131900Y-44528469D01*
X77107757Y-44547261D01*
X76939333Y-44730217D01*
X76803326Y-44938393D01*
X76703436Y-45166118D01*
X76642392Y-45407175D01*
X76642390Y-45407187D01*
X76621857Y-45654994D01*
X76621857Y-45655005D01*
X76642390Y-45902812D01*
X76642392Y-45902824D01*
X76703436Y-46143881D01*
X76803326Y-46371606D01*
X76939333Y-46579782D01*
X76939336Y-46579785D01*
X77107756Y-46762738D01*
X77190508Y-46827147D01*
X77231321Y-46883857D01*
X77234996Y-46953630D01*
X77200364Y-47014313D01*
X77190514Y-47022848D01*
X77131900Y-47068469D01*
X77107757Y-47087261D01*
X76939333Y-47270217D01*
X76803326Y-47478393D01*
X76703436Y-47706118D01*
X76642392Y-47947175D01*
X76642390Y-47947187D01*
X76621857Y-48194994D01*
X76621857Y-48195005D01*
X76642390Y-48442812D01*
X76642392Y-48442824D01*
X76703436Y-48683881D01*
X76803326Y-48911606D01*
X76939333Y-49119782D01*
X76963655Y-49146203D01*
X77107756Y-49302738D01*
X77190508Y-49367147D01*
X77231321Y-49423857D01*
X77234996Y-49493630D01*
X77200364Y-49554313D01*
X77190514Y-49562848D01*
X77131900Y-49608469D01*
X77107757Y-49627261D01*
X76939333Y-49810217D01*
X76803326Y-50018393D01*
X76703436Y-50246118D01*
X76642392Y-50487175D01*
X76642390Y-50487187D01*
X76621857Y-50734994D01*
X76621857Y-50735005D01*
X76642390Y-50982812D01*
X76642392Y-50982824D01*
X76703436Y-51223881D01*
X76803326Y-51451606D01*
X76939333Y-51659782D01*
X76939336Y-51659785D01*
X77107756Y-51842738D01*
X77190508Y-51907147D01*
X77231321Y-51963857D01*
X77234996Y-52033630D01*
X77200364Y-52094313D01*
X77190514Y-52102848D01*
X77165207Y-52122546D01*
X77107757Y-52167261D01*
X76939333Y-52350217D01*
X76803326Y-52558393D01*
X76703436Y-52786118D01*
X76642392Y-53027175D01*
X76642390Y-53027187D01*
X76621857Y-53274994D01*
X76621857Y-53275005D01*
X76642390Y-53522812D01*
X76642392Y-53522824D01*
X76703436Y-53763881D01*
X76803326Y-53991606D01*
X76939333Y-54199782D01*
X76939336Y-54199785D01*
X77107756Y-54382738D01*
X77190508Y-54447147D01*
X77231321Y-54503857D01*
X77234996Y-54573630D01*
X77200364Y-54634313D01*
X77190514Y-54642848D01*
X77131900Y-54688469D01*
X77107757Y-54707261D01*
X76939333Y-54890217D01*
X76803326Y-55098393D01*
X76703436Y-55326118D01*
X76642392Y-55567175D01*
X76642390Y-55567187D01*
X76621857Y-55814994D01*
X76621857Y-55815005D01*
X76642390Y-56062812D01*
X76642392Y-56062824D01*
X76703436Y-56303881D01*
X76803326Y-56531606D01*
X76939333Y-56739782D01*
X76939336Y-56739785D01*
X77107756Y-56922738D01*
X77190508Y-56987147D01*
X77231321Y-57043857D01*
X77234996Y-57113630D01*
X77200364Y-57174313D01*
X77190514Y-57182848D01*
X77131900Y-57228469D01*
X77107757Y-57247261D01*
X76939333Y-57430217D01*
X76803326Y-57638393D01*
X76703436Y-57866118D01*
X76642392Y-58107175D01*
X76642390Y-58107187D01*
X76621857Y-58354994D01*
X76621857Y-58355005D01*
X76642390Y-58602812D01*
X76642392Y-58602824D01*
X76703436Y-58843881D01*
X76803326Y-59071606D01*
X76939333Y-59279782D01*
X76939336Y-59279785D01*
X77107756Y-59462738D01*
X77190508Y-59527147D01*
X77231321Y-59583857D01*
X77234996Y-59653630D01*
X77200364Y-59714313D01*
X77190514Y-59722848D01*
X77131900Y-59768469D01*
X77107757Y-59787261D01*
X76939333Y-59970217D01*
X76803326Y-60178393D01*
X76703436Y-60406118D01*
X76642392Y-60647175D01*
X76642390Y-60647187D01*
X76621857Y-60894994D01*
X76621857Y-60895005D01*
X76642390Y-61142812D01*
X76642392Y-61142824D01*
X76703436Y-61383881D01*
X76803326Y-61611606D01*
X76939333Y-61819782D01*
X76939336Y-61819785D01*
X77107756Y-62002738D01*
X77190508Y-62067147D01*
X77231321Y-62123857D01*
X77234996Y-62193630D01*
X77200364Y-62254313D01*
X77190514Y-62262848D01*
X77131900Y-62308469D01*
X77107757Y-62327261D01*
X76939333Y-62510217D01*
X76803326Y-62718393D01*
X76703436Y-62946118D01*
X76642392Y-63187175D01*
X76642390Y-63187187D01*
X76621857Y-63434994D01*
X76621857Y-63435005D01*
X76642390Y-63682812D01*
X76642392Y-63682824D01*
X76703436Y-63923881D01*
X76803326Y-64151606D01*
X76939333Y-64359782D01*
X76939336Y-64359785D01*
X77107756Y-64542738D01*
X77190508Y-64607147D01*
X77231321Y-64663857D01*
X77234996Y-64733630D01*
X77200364Y-64794313D01*
X77190514Y-64802848D01*
X77131900Y-64848469D01*
X77107757Y-64867261D01*
X76939333Y-65050217D01*
X76803326Y-65258393D01*
X76703436Y-65486118D01*
X76642392Y-65727175D01*
X76642390Y-65727187D01*
X76621857Y-65974994D01*
X76621857Y-65975005D01*
X76642390Y-66222812D01*
X76642392Y-66222824D01*
X76703436Y-66463881D01*
X76803326Y-66691606D01*
X76939333Y-66899782D01*
X76939336Y-66899785D01*
X77107756Y-67082738D01*
X77190508Y-67147147D01*
X77231321Y-67203857D01*
X77234996Y-67273630D01*
X77200364Y-67334313D01*
X77190514Y-67342848D01*
X77131900Y-67388469D01*
X77107757Y-67407261D01*
X76939333Y-67590217D01*
X76803326Y-67798393D01*
X76703436Y-68026118D01*
X76642392Y-68267175D01*
X76642390Y-68267187D01*
X76621857Y-68514994D01*
X76621857Y-68515005D01*
X76642390Y-68762812D01*
X76642392Y-68762824D01*
X76703436Y-69003881D01*
X76803326Y-69231606D01*
X76939333Y-69439782D01*
X76939336Y-69439785D01*
X77107756Y-69622738D01*
X77190508Y-69687147D01*
X77231321Y-69743857D01*
X77234996Y-69813630D01*
X77200364Y-69874313D01*
X77190514Y-69882848D01*
X77153278Y-69911831D01*
X77107757Y-69947261D01*
X76939333Y-70130217D01*
X76803326Y-70338393D01*
X76703436Y-70566118D01*
X76642392Y-70807175D01*
X76642390Y-70807187D01*
X76621857Y-71054994D01*
X76621857Y-71055005D01*
X76642390Y-71302812D01*
X76642392Y-71302824D01*
X76703436Y-71543881D01*
X76803326Y-71771606D01*
X76939333Y-71979782D01*
X76939336Y-71979785D01*
X77107756Y-72162738D01*
X77303991Y-72315474D01*
X77522690Y-72433828D01*
X77590210Y-72457007D01*
X77695688Y-72493219D01*
X77752703Y-72533605D01*
X77778834Y-72598404D01*
X77765782Y-72667044D01*
X77717694Y-72717732D01*
X77655425Y-72734500D01*
X77542758Y-72734500D01*
X77326974Y-72762910D01*
X77315262Y-72764452D01*
X77221576Y-72789554D01*
X77093612Y-72823842D01*
X76881623Y-72911650D01*
X76881609Y-72911657D01*
X76682882Y-73026392D01*
X76500838Y-73166081D01*
X76338581Y-73328338D01*
X76198892Y-73510382D01*
X76084157Y-73709109D01*
X76084150Y-73709123D01*
X75996342Y-73921112D01*
X75936953Y-74142759D01*
X75936951Y-74142770D01*
X75907000Y-74370258D01*
X75907000Y-74599741D01*
X75926055Y-74744467D01*
X75936952Y-74827238D01*
X75959725Y-74912228D01*
X75996342Y-75048887D01*
X76084150Y-75260876D01*
X76084157Y-75260890D01*
X76198892Y-75459617D01*
X76338581Y-75641661D01*
X76338589Y-75641670D01*
X76500830Y-75803911D01*
X76500838Y-75803918D01*
X76682882Y-75943607D01*
X76682885Y-75943608D01*
X76682888Y-75943611D01*
X76881612Y-76058344D01*
X76881617Y-76058346D01*
X76881623Y-76058349D01*
X76972980Y-76096190D01*
X77093613Y-76146158D01*
X77315262Y-76205548D01*
X77508969Y-76231050D01*
X77520442Y-76232561D01*
X77584338Y-76260828D01*
X77622809Y-76319152D01*
X77623640Y-76389017D01*
X77586568Y-76448240D01*
X77523362Y-76478019D01*
X77504256Y-76479500D01*
X74331500Y-76479500D01*
X74264461Y-76459815D01*
X74218706Y-76407011D01*
X74207500Y-76355500D01*
X74207500Y-69995000D01*
X56517500Y-69995000D01*
X56517500Y-76355500D01*
X56497815Y-76422539D01*
X56445011Y-76468294D01*
X56393500Y-76479500D01*
X53300744Y-76479500D01*
X53233705Y-76459815D01*
X53187950Y-76407011D01*
X53178006Y-76337853D01*
X53207031Y-76274297D01*
X53265809Y-76236523D01*
X53284558Y-76232561D01*
X53294819Y-76231209D01*
X53489738Y-76205548D01*
X53711387Y-76146158D01*
X53923388Y-76058344D01*
X54122112Y-75943611D01*
X54304161Y-75803919D01*
X54304165Y-75803914D01*
X54304170Y-75803911D01*
X54466411Y-75641670D01*
X54466414Y-75641665D01*
X54466419Y-75641661D01*
X54606111Y-75459612D01*
X54720844Y-75260888D01*
X54808658Y-75048887D01*
X54868048Y-74827238D01*
X54898000Y-74599734D01*
X54898000Y-74370266D01*
X54868048Y-74142762D01*
X54808658Y-73921113D01*
X54720844Y-73709112D01*
X54606111Y-73510388D01*
X54606108Y-73510385D01*
X54606107Y-73510382D01*
X54466418Y-73328338D01*
X54466411Y-73328330D01*
X54304170Y-73166089D01*
X54304161Y-73166081D01*
X54122117Y-73026392D01*
X53923390Y-72911657D01*
X53923376Y-72911650D01*
X53711387Y-72823842D01*
X53637842Y-72804136D01*
X53489738Y-72764452D01*
X53451715Y-72759446D01*
X53262241Y-72734500D01*
X53262234Y-72734500D01*
X53199575Y-72734500D01*
X53132536Y-72714815D01*
X53086781Y-72662011D01*
X53076837Y-72592853D01*
X53105862Y-72529297D01*
X53159312Y-72493219D01*
X53238476Y-72466040D01*
X53332310Y-72433828D01*
X53551009Y-72315474D01*
X53747244Y-72162738D01*
X53915664Y-71979785D01*
X53917420Y-71977098D01*
X53923514Y-71967769D01*
X54051673Y-71771607D01*
X54151563Y-71543881D01*
X54212608Y-71302821D01*
X54212609Y-71302812D01*
X54233143Y-71055005D01*
X54233143Y-71054994D01*
X54212609Y-70807187D01*
X54212607Y-70807175D01*
X54151563Y-70566118D01*
X54051673Y-70338393D01*
X53915666Y-70130217D01*
X53894057Y-70106744D01*
X53747244Y-69947262D01*
X53664491Y-69882852D01*
X53623679Y-69826143D01*
X53620004Y-69756370D01*
X53654636Y-69695687D01*
X53664485Y-69687151D01*
X53747244Y-69622738D01*
X53915664Y-69439785D01*
X54051673Y-69231607D01*
X54151563Y-69003881D01*
X54212608Y-68762821D01*
X54233143Y-68515000D01*
X54224728Y-68413449D01*
X54212609Y-68267187D01*
X54212607Y-68267175D01*
X54151563Y-68026118D01*
X54051673Y-67798393D01*
X53915666Y-67590217D01*
X53894057Y-67566744D01*
X53747244Y-67407262D01*
X53664491Y-67342852D01*
X53623679Y-67286143D01*
X53620004Y-67216370D01*
X53654636Y-67155687D01*
X53664485Y-67147151D01*
X53747244Y-67082738D01*
X53915664Y-66899785D01*
X54051673Y-66691607D01*
X54151563Y-66463881D01*
X54212608Y-66222821D01*
X54233143Y-65975000D01*
X54212608Y-65727179D01*
X54151563Y-65486119D01*
X54051673Y-65258393D01*
X54046363Y-65250265D01*
X53915666Y-65050217D01*
X53894057Y-65026744D01*
X53747244Y-64867262D01*
X53664491Y-64802852D01*
X53623679Y-64746143D01*
X53620004Y-64676370D01*
X53654636Y-64615687D01*
X53664485Y-64607151D01*
X53747244Y-64542738D01*
X53915664Y-64359785D01*
X54051673Y-64151607D01*
X54151563Y-63923881D01*
X54212608Y-63682821D01*
X54213575Y-63671157D01*
X54233143Y-63435005D01*
X54233143Y-63434994D01*
X54212609Y-63187187D01*
X54212607Y-63187175D01*
X54151563Y-62946118D01*
X54051673Y-62718393D01*
X53915666Y-62510217D01*
X53894057Y-62486744D01*
X53747244Y-62327262D01*
X53664491Y-62262852D01*
X53623679Y-62206143D01*
X53620004Y-62136370D01*
X53654636Y-62075687D01*
X53664485Y-62067151D01*
X53747244Y-62002738D01*
X53915664Y-61819785D01*
X54051673Y-61611607D01*
X54151563Y-61383881D01*
X54212608Y-61142821D01*
X54212609Y-61142812D01*
X54233143Y-60895005D01*
X54233143Y-60894994D01*
X54212609Y-60647187D01*
X54212607Y-60647175D01*
X54151563Y-60406118D01*
X54051673Y-60178393D01*
X53915666Y-59970217D01*
X53886448Y-59938478D01*
X53747244Y-59787262D01*
X53664491Y-59722852D01*
X53623679Y-59666143D01*
X53620004Y-59596370D01*
X53654636Y-59535687D01*
X53664485Y-59527151D01*
X53747244Y-59462738D01*
X53915664Y-59279785D01*
X54051673Y-59071607D01*
X54151563Y-58843881D01*
X54212608Y-58602821D01*
X54233143Y-58355000D01*
X54212608Y-58107179D01*
X54151563Y-57866119D01*
X54051673Y-57638393D01*
X53915666Y-57430217D01*
X53894057Y-57406744D01*
X53747244Y-57247262D01*
X53664491Y-57182852D01*
X53623679Y-57126143D01*
X53620004Y-57056370D01*
X53654636Y-56995687D01*
X53664485Y-56987151D01*
X53747244Y-56922738D01*
X53915664Y-56739785D01*
X54051673Y-56531607D01*
X54151563Y-56303881D01*
X54212608Y-56062821D01*
X54212609Y-56062812D01*
X54233143Y-55815005D01*
X54233143Y-55814994D01*
X54212609Y-55567187D01*
X54212607Y-55567175D01*
X54151563Y-55326118D01*
X54051673Y-55098393D01*
X53915666Y-54890217D01*
X53894057Y-54866744D01*
X53747244Y-54707262D01*
X53664491Y-54642852D01*
X53623679Y-54586143D01*
X53620004Y-54516370D01*
X53654636Y-54455687D01*
X53664485Y-54447151D01*
X53747244Y-54382738D01*
X53915664Y-54199785D01*
X54051673Y-53991607D01*
X54151563Y-53763881D01*
X54212608Y-53522821D01*
X54233143Y-53275000D01*
X54232219Y-53263851D01*
X54212609Y-53027187D01*
X54212607Y-53027175D01*
X54151563Y-52786118D01*
X54051673Y-52558393D01*
X53915666Y-52350217D01*
X53822347Y-52248846D01*
X53747244Y-52167262D01*
X53664491Y-52102852D01*
X53623679Y-52046143D01*
X53620004Y-51976370D01*
X53654636Y-51915687D01*
X53664485Y-51907151D01*
X53747244Y-51842738D01*
X53915664Y-51659785D01*
X54051673Y-51451607D01*
X54151563Y-51223881D01*
X54212608Y-50982821D01*
X54233143Y-50735000D01*
X54212608Y-50487179D01*
X54151563Y-50246119D01*
X54051673Y-50018393D01*
X53940736Y-49848590D01*
X53915666Y-49810217D01*
X53894057Y-49786744D01*
X53747244Y-49627262D01*
X53664491Y-49562852D01*
X53623679Y-49506143D01*
X53620004Y-49436370D01*
X53654636Y-49375687D01*
X53664485Y-49367151D01*
X53747244Y-49302738D01*
X53915664Y-49119785D01*
X54051673Y-48911607D01*
X54151563Y-48683881D01*
X54212608Y-48442821D01*
X54233143Y-48195000D01*
X54232008Y-48181308D01*
X54212609Y-47947187D01*
X54212607Y-47947175D01*
X54151563Y-47706118D01*
X54051673Y-47478393D01*
X53915666Y-47270217D01*
X53894057Y-47246744D01*
X53747244Y-47087262D01*
X53664491Y-47022852D01*
X53623679Y-46966143D01*
X53620004Y-46896370D01*
X53654636Y-46835687D01*
X53664485Y-46827151D01*
X53747244Y-46762738D01*
X53915664Y-46579785D01*
X54051673Y-46371607D01*
X54151563Y-46143881D01*
X54212608Y-45902821D01*
X54233143Y-45655000D01*
X54212608Y-45407179D01*
X54151563Y-45166119D01*
X54051673Y-44938393D01*
X53915666Y-44730217D01*
X53894057Y-44706744D01*
X53747244Y-44547262D01*
X53664491Y-44482852D01*
X53623679Y-44426143D01*
X53620004Y-44356370D01*
X53654636Y-44295687D01*
X53664485Y-44287151D01*
X53747244Y-44222738D01*
X53915664Y-44039785D01*
X54051673Y-43831607D01*
X54151563Y-43603881D01*
X54212608Y-43362821D01*
X54213692Y-43349737D01*
X54233143Y-43115005D01*
X54233143Y-43114994D01*
X54212609Y-42867187D01*
X54212607Y-42867175D01*
X54151563Y-42626118D01*
X54051673Y-42398393D01*
X53915666Y-42190217D01*
X53894057Y-42166744D01*
X53747244Y-42007262D01*
X53664491Y-41942852D01*
X53623679Y-41886143D01*
X53620004Y-41816370D01*
X53654636Y-41755687D01*
X53664485Y-41747151D01*
X53747244Y-41682738D01*
X53915664Y-41499785D01*
X54051673Y-41291607D01*
X54151563Y-41063881D01*
X54212608Y-40822821D01*
X54233143Y-40575000D01*
X54212608Y-40327179D01*
X54151563Y-40086119D01*
X54051673Y-39858393D01*
X53986243Y-39758244D01*
X53915666Y-39650217D01*
X53894057Y-39626744D01*
X53747244Y-39467262D01*
X53643753Y-39386712D01*
X53602942Y-39330003D01*
X53596155Y-39281176D01*
X53597556Y-39258609D01*
X52865075Y-38526128D01*
X52924353Y-38510245D01*
X53040647Y-38443102D01*
X53135602Y-38348147D01*
X53202745Y-38231853D01*
X53218627Y-38172575D01*
X53950934Y-38904882D01*
X54051231Y-38751369D01*
X54151087Y-38523717D01*
X54212112Y-38282738D01*
X54212114Y-38282729D01*
X54232641Y-38035005D01*
X54232641Y-38034994D01*
X54212114Y-37787270D01*
X54212112Y-37787261D01*
X54151087Y-37546282D01*
X54051233Y-37318635D01*
X53920317Y-37118252D01*
X53900130Y-37051362D01*
X53919310Y-36984176D01*
X53964703Y-36941595D01*
X53969821Y-36938799D01*
X53969831Y-36938796D01*
X54085046Y-36852546D01*
X54171296Y-36737331D01*
X54221591Y-36602483D01*
X54228000Y-36542873D01*
X54227999Y-34447128D01*
X54221591Y-34387517D01*
X54171296Y-34252669D01*
X54171295Y-34252668D01*
X54171293Y-34252664D01*
X54085047Y-34137455D01*
X54085044Y-34137452D01*
X53969835Y-34051206D01*
X53969828Y-34051202D01*
X53834982Y-34000908D01*
X53834983Y-34000908D01*
X53775383Y-33994501D01*
X53775381Y-33994500D01*
X53775373Y-33994500D01*
X53775365Y-33994500D01*
X52459440Y-33994500D01*
X52392401Y-33974815D01*
X52346646Y-33922011D01*
X52336702Y-33852853D01*
X52365727Y-33789297D01*
X52371759Y-33782819D01*
X52527759Y-33626819D01*
X52589082Y-33593334D01*
X52615440Y-33590500D01*
X57151158Y-33590500D01*
X75039560Y-33590500D01*
X75106599Y-33610185D01*
G37*
%TD.AperFunction*%
%TD*%
M02*
