M48
; DRILL file {KiCad 8.0.2} date 2024-08-04T11:24:31+0200
; FORMAT={-:-/ absolute / metric / decimal}
; #@! TF.CreationDate,2024-08-04T11:24:31+02:00
; #@! TF.GenerationSoftware,Kicad,Pcbnew,8.0.2
; #@! TF.FileFunction,Plated,1,2,PTH
FMAT,2
METRIC
; #@! TA.AperFunction,Plated,PTH,ViaDrill
T1C0.300
; #@! TA.AperFunction,Plated,PTH,ComponentDrill
T2C0.900
; #@! TA.AperFunction,Plated,PTH,ComponentDrill
T3C1.000
; #@! TA.AperFunction,Plated,PTH,ComponentDrill
T4C1.020
%
G90
G05
T1
X49.45Y-42.58
X57.23Y-32.79
X57.23Y-32.79
X77.47Y-30.86
X83.81Y-59.98
X87.09Y-55.69
T2
X82.494Y-30.384
X82.84Y-71.61
X84.29Y-32.18
X84.636Y-69.814
X90.61Y-47.95
X90.61Y-50.49
T3
X47.47Y-30.04
X47.47Y-32.58
X47.47Y-35.12
T4
X52.727Y-35.495
X52.727Y-38.035
X52.727Y-40.575
X52.727Y-43.115
X52.727Y-45.655
X52.727Y-48.195
X52.727Y-50.735
X52.727Y-53.275
X52.727Y-55.815
X52.727Y-58.355
X52.727Y-60.895
X52.727Y-63.435
X52.727Y-65.975
X52.727Y-68.515
X52.727Y-71.055
X78.127Y-35.495
X78.127Y-38.035
X78.127Y-40.575
X78.127Y-43.115
X78.127Y-45.655
X78.127Y-48.195
X78.127Y-50.735
X78.127Y-53.275
X78.127Y-55.815
X78.127Y-58.355
X78.127Y-60.895
X78.127Y-63.435
X78.127Y-65.975
X78.127Y-68.515
X78.127Y-71.055
M30
