%TF.GenerationSoftware,KiCad,Pcbnew,8.0.2*%
%TF.CreationDate,2024-08-04T11:24:19+02:00*%
%TF.ProjectId,ir-blaster,69722d62-6c61-4737-9465-722e6b696361,rev?*%
%TF.SameCoordinates,Original*%
%TF.FileFunction,Legend,Top*%
%TF.FilePolarity,Positive*%
%FSLAX46Y46*%
G04 Gerber Fmt 4.6, Leading zero omitted, Abs format (unit mm)*
G04 Created by KiCad (PCBNEW 8.0.2) date 2024-08-04 11:24:19*
%MOMM*%
%LPD*%
G01*
G04 APERTURE LIST*
G04 Aperture macros list*
%AMRoundRect*
0 Rectangle with rounded corners*
0 $1 Rounding radius*
0 $2 $3 $4 $5 $6 $7 $8 $9 X,Y pos of 4 corners*
0 Add a 4 corners polygon primitive as box body*
4,1,4,$2,$3,$4,$5,$6,$7,$8,$9,$2,$3,0*
0 Add four circle primitives for the rounded corners*
1,1,$1+$1,$2,$3*
1,1,$1+$1,$4,$5*
1,1,$1+$1,$6,$7*
1,1,$1+$1,$8,$9*
0 Add four rect primitives between the rounded corners*
20,1,$1+$1,$2,$3,$4,$5,0*
20,1,$1+$1,$4,$5,$6,$7,0*
20,1,$1+$1,$6,$7,$8,$9,0*
20,1,$1+$1,$8,$9,$2,$3,0*%
%AMRotRect*
0 Rectangle, with rotation*
0 The origin of the aperture is its center*
0 $1 length*
0 $2 width*
0 $3 Rotation angle, in degrees counterclockwise*
0 Add horizontal line*
21,1,$1,$2,0,0,$3*%
G04 Aperture macros list end*
%ADD10C,0.150000*%
%ADD11C,0.120000*%
%ADD12C,0.127000*%
%ADD13C,0.200000*%
%ADD14R,1.400000X0.400000*%
%ADD15R,1.900000X2.300000*%
%ADD16R,1.900000X1.800000*%
%ADD17RoundRect,0.250000X0.475000X-0.337500X0.475000X0.337500X-0.475000X0.337500X-0.475000X-0.337500X0*%
%ADD18RoundRect,0.250000X-0.450000X0.325000X-0.450000X-0.325000X0.450000X-0.325000X0.450000X0.325000X0*%
%ADD19C,3.000000*%
%ADD20RoundRect,0.102000X-1.000000X-1.000000X1.000000X-1.000000X1.000000X1.000000X-1.000000X1.000000X0*%
%ADD21C,2.204000*%
%ADD22RoundRect,0.250000X0.450000X-0.350000X0.450000X0.350000X-0.450000X0.350000X-0.450000X-0.350000X0*%
%ADD23RoundRect,0.250000X0.350000X0.450000X-0.350000X0.450000X-0.350000X-0.450000X0.350000X-0.450000X0*%
%ADD24RoundRect,0.250000X-0.350000X-0.450000X0.350000X-0.450000X0.350000X0.450000X-0.350000X0.450000X0*%
%ADD25RoundRect,0.150000X-0.587500X-0.150000X0.587500X-0.150000X0.587500X0.150000X-0.587500X0.150000X0*%
%ADD26R,1.700000X1.700000*%
%ADD27O,1.700000X1.700000*%
%ADD28RoundRect,0.250000X-0.650000X1.000000X-0.650000X-1.000000X0.650000X-1.000000X0.650000X1.000000X0*%
%ADD29RotRect,1.800000X1.800000X45.000000*%
%ADD30C,1.800000*%
%ADD31R,1.800000X1.800000*%
%ADD32RotRect,1.800000X1.800000X135.000000*%
G04 APERTURE END LIST*
D10*
X43754819Y-44658333D02*
X44469104Y-44658333D01*
X44469104Y-44658333D02*
X44611961Y-44705952D01*
X44611961Y-44705952D02*
X44707200Y-44801190D01*
X44707200Y-44801190D02*
X44754819Y-44944047D01*
X44754819Y-44944047D02*
X44754819Y-45039285D01*
X44754819Y-43658333D02*
X44754819Y-44229761D01*
X44754819Y-43944047D02*
X43754819Y-43944047D01*
X43754819Y-43944047D02*
X43897676Y-44039285D01*
X43897676Y-44039285D02*
X43992914Y-44134523D01*
X43992914Y-44134523D02*
X44040533Y-44229761D01*
X48239580Y-39854166D02*
X48287200Y-39901785D01*
X48287200Y-39901785D02*
X48334819Y-40044642D01*
X48334819Y-40044642D02*
X48334819Y-40139880D01*
X48334819Y-40139880D02*
X48287200Y-40282737D01*
X48287200Y-40282737D02*
X48191961Y-40377975D01*
X48191961Y-40377975D02*
X48096723Y-40425594D01*
X48096723Y-40425594D02*
X47906247Y-40473213D01*
X47906247Y-40473213D02*
X47763390Y-40473213D01*
X47763390Y-40473213D02*
X47572914Y-40425594D01*
X47572914Y-40425594D02*
X47477676Y-40377975D01*
X47477676Y-40377975D02*
X47382438Y-40282737D01*
X47382438Y-40282737D02*
X47334819Y-40139880D01*
X47334819Y-40139880D02*
X47334819Y-40044642D01*
X47334819Y-40044642D02*
X47382438Y-39901785D01*
X47382438Y-39901785D02*
X47430057Y-39854166D01*
X48334819Y-38901785D02*
X48334819Y-39473213D01*
X48334819Y-39187499D02*
X47334819Y-39187499D01*
X47334819Y-39187499D02*
X47477676Y-39282737D01*
X47477676Y-39282737D02*
X47572914Y-39377975D01*
X47572914Y-39377975D02*
X47620533Y-39473213D01*
X40884819Y-52530594D02*
X39884819Y-52530594D01*
X39884819Y-52530594D02*
X39884819Y-52292499D01*
X39884819Y-52292499D02*
X39932438Y-52149642D01*
X39932438Y-52149642D02*
X40027676Y-52054404D01*
X40027676Y-52054404D02*
X40122914Y-52006785D01*
X40122914Y-52006785D02*
X40313390Y-51959166D01*
X40313390Y-51959166D02*
X40456247Y-51959166D01*
X40456247Y-51959166D02*
X40646723Y-52006785D01*
X40646723Y-52006785D02*
X40741961Y-52054404D01*
X40741961Y-52054404D02*
X40837200Y-52149642D01*
X40837200Y-52149642D02*
X40884819Y-52292499D01*
X40884819Y-52292499D02*
X40884819Y-52530594D01*
X39884819Y-51054404D02*
X39884819Y-51530594D01*
X39884819Y-51530594D02*
X40361009Y-51578213D01*
X40361009Y-51578213D02*
X40313390Y-51530594D01*
X40313390Y-51530594D02*
X40265771Y-51435356D01*
X40265771Y-51435356D02*
X40265771Y-51197261D01*
X40265771Y-51197261D02*
X40313390Y-51102023D01*
X40313390Y-51102023D02*
X40361009Y-51054404D01*
X40361009Y-51054404D02*
X40456247Y-51006785D01*
X40456247Y-51006785D02*
X40694342Y-51006785D01*
X40694342Y-51006785D02*
X40789580Y-51054404D01*
X40789580Y-51054404D02*
X40837200Y-51102023D01*
X40837200Y-51102023D02*
X40884819Y-51197261D01*
X40884819Y-51197261D02*
X40884819Y-51435356D01*
X40884819Y-51435356D02*
X40837200Y-51530594D01*
X40837200Y-51530594D02*
X40789580Y-51578213D01*
X53310595Y-23104819D02*
X53310595Y-23914342D01*
X53310595Y-23914342D02*
X53358214Y-24009580D01*
X53358214Y-24009580D02*
X53405833Y-24057200D01*
X53405833Y-24057200D02*
X53501071Y-24104819D01*
X53501071Y-24104819D02*
X53691547Y-24104819D01*
X53691547Y-24104819D02*
X53786785Y-24057200D01*
X53786785Y-24057200D02*
X53834404Y-24009580D01*
X53834404Y-24009580D02*
X53882023Y-23914342D01*
X53882023Y-23914342D02*
X53882023Y-23104819D01*
X54882023Y-24104819D02*
X54310595Y-24104819D01*
X54596309Y-24104819D02*
X54596309Y-23104819D01*
X54596309Y-23104819D02*
X54501071Y-23247676D01*
X54501071Y-23247676D02*
X54405833Y-23342914D01*
X54405833Y-23342914D02*
X54310595Y-23390533D01*
X46854819Y-46766666D02*
X46378628Y-47099999D01*
X46854819Y-47338094D02*
X45854819Y-47338094D01*
X45854819Y-47338094D02*
X45854819Y-46957142D01*
X45854819Y-46957142D02*
X45902438Y-46861904D01*
X45902438Y-46861904D02*
X45950057Y-46814285D01*
X45950057Y-46814285D02*
X46045295Y-46766666D01*
X46045295Y-46766666D02*
X46188152Y-46766666D01*
X46188152Y-46766666D02*
X46283390Y-46814285D01*
X46283390Y-46814285D02*
X46331009Y-46861904D01*
X46331009Y-46861904D02*
X46378628Y-46957142D01*
X46378628Y-46957142D02*
X46378628Y-47338094D01*
X46854819Y-46290475D02*
X46854819Y-46099999D01*
X46854819Y-46099999D02*
X46807200Y-46004761D01*
X46807200Y-46004761D02*
X46759580Y-45957142D01*
X46759580Y-45957142D02*
X46616723Y-45861904D01*
X46616723Y-45861904D02*
X46426247Y-45814285D01*
X46426247Y-45814285D02*
X46045295Y-45814285D01*
X46045295Y-45814285D02*
X45950057Y-45861904D01*
X45950057Y-45861904D02*
X45902438Y-45909523D01*
X45902438Y-45909523D02*
X45854819Y-46004761D01*
X45854819Y-46004761D02*
X45854819Y-46195237D01*
X45854819Y-46195237D02*
X45902438Y-46290475D01*
X45902438Y-46290475D02*
X45950057Y-46338094D01*
X45950057Y-46338094D02*
X46045295Y-46385713D01*
X46045295Y-46385713D02*
X46283390Y-46385713D01*
X46283390Y-46385713D02*
X46378628Y-46338094D01*
X46378628Y-46338094D02*
X46426247Y-46290475D01*
X46426247Y-46290475D02*
X46473866Y-46195237D01*
X46473866Y-46195237D02*
X46473866Y-46004761D01*
X46473866Y-46004761D02*
X46426247Y-45909523D01*
X46426247Y-45909523D02*
X46378628Y-45861904D01*
X46378628Y-45861904D02*
X46283390Y-45814285D01*
X51184819Y-31866666D02*
X50708628Y-32199999D01*
X51184819Y-32438094D02*
X50184819Y-32438094D01*
X50184819Y-32438094D02*
X50184819Y-32057142D01*
X50184819Y-32057142D02*
X50232438Y-31961904D01*
X50232438Y-31961904D02*
X50280057Y-31914285D01*
X50280057Y-31914285D02*
X50375295Y-31866666D01*
X50375295Y-31866666D02*
X50518152Y-31866666D01*
X50518152Y-31866666D02*
X50613390Y-31914285D01*
X50613390Y-31914285D02*
X50661009Y-31961904D01*
X50661009Y-31961904D02*
X50708628Y-32057142D01*
X50708628Y-32057142D02*
X50708628Y-32438094D01*
X50613390Y-31295237D02*
X50565771Y-31390475D01*
X50565771Y-31390475D02*
X50518152Y-31438094D01*
X50518152Y-31438094D02*
X50422914Y-31485713D01*
X50422914Y-31485713D02*
X50375295Y-31485713D01*
X50375295Y-31485713D02*
X50280057Y-31438094D01*
X50280057Y-31438094D02*
X50232438Y-31390475D01*
X50232438Y-31390475D02*
X50184819Y-31295237D01*
X50184819Y-31295237D02*
X50184819Y-31104761D01*
X50184819Y-31104761D02*
X50232438Y-31009523D01*
X50232438Y-31009523D02*
X50280057Y-30961904D01*
X50280057Y-30961904D02*
X50375295Y-30914285D01*
X50375295Y-30914285D02*
X50422914Y-30914285D01*
X50422914Y-30914285D02*
X50518152Y-30961904D01*
X50518152Y-30961904D02*
X50565771Y-31009523D01*
X50565771Y-31009523D02*
X50613390Y-31104761D01*
X50613390Y-31104761D02*
X50613390Y-31295237D01*
X50613390Y-31295237D02*
X50661009Y-31390475D01*
X50661009Y-31390475D02*
X50708628Y-31438094D01*
X50708628Y-31438094D02*
X50803866Y-31485713D01*
X50803866Y-31485713D02*
X50994342Y-31485713D01*
X50994342Y-31485713D02*
X51089580Y-31438094D01*
X51089580Y-31438094D02*
X51137200Y-31390475D01*
X51137200Y-31390475D02*
X51184819Y-31295237D01*
X51184819Y-31295237D02*
X51184819Y-31104761D01*
X51184819Y-31104761D02*
X51137200Y-31009523D01*
X51137200Y-31009523D02*
X51089580Y-30961904D01*
X51089580Y-30961904D02*
X50994342Y-30914285D01*
X50994342Y-30914285D02*
X50803866Y-30914285D01*
X50803866Y-30914285D02*
X50708628Y-30961904D01*
X50708628Y-30961904D02*
X50661009Y-31009523D01*
X50661009Y-31009523D02*
X50613390Y-31104761D01*
X87983333Y-48274819D02*
X87650000Y-47798628D01*
X87411905Y-48274819D02*
X87411905Y-47274819D01*
X87411905Y-47274819D02*
X87792857Y-47274819D01*
X87792857Y-47274819D02*
X87888095Y-47322438D01*
X87888095Y-47322438D02*
X87935714Y-47370057D01*
X87935714Y-47370057D02*
X87983333Y-47465295D01*
X87983333Y-47465295D02*
X87983333Y-47608152D01*
X87983333Y-47608152D02*
X87935714Y-47703390D01*
X87935714Y-47703390D02*
X87888095Y-47751009D01*
X87888095Y-47751009D02*
X87792857Y-47798628D01*
X87792857Y-47798628D02*
X87411905Y-47798628D01*
X88316667Y-47274819D02*
X88983333Y-47274819D01*
X88983333Y-47274819D02*
X88554762Y-48274819D01*
X67433333Y-36474819D02*
X67100000Y-35998628D01*
X66861905Y-36474819D02*
X66861905Y-35474819D01*
X66861905Y-35474819D02*
X67242857Y-35474819D01*
X67242857Y-35474819D02*
X67338095Y-35522438D01*
X67338095Y-35522438D02*
X67385714Y-35570057D01*
X67385714Y-35570057D02*
X67433333Y-35665295D01*
X67433333Y-35665295D02*
X67433333Y-35808152D01*
X67433333Y-35808152D02*
X67385714Y-35903390D01*
X67385714Y-35903390D02*
X67338095Y-35951009D01*
X67338095Y-35951009D02*
X67242857Y-35998628D01*
X67242857Y-35998628D02*
X66861905Y-35998628D01*
X68290476Y-35474819D02*
X68100000Y-35474819D01*
X68100000Y-35474819D02*
X68004762Y-35522438D01*
X68004762Y-35522438D02*
X67957143Y-35570057D01*
X67957143Y-35570057D02*
X67861905Y-35712914D01*
X67861905Y-35712914D02*
X67814286Y-35903390D01*
X67814286Y-35903390D02*
X67814286Y-36284342D01*
X67814286Y-36284342D02*
X67861905Y-36379580D01*
X67861905Y-36379580D02*
X67909524Y-36427200D01*
X67909524Y-36427200D02*
X68004762Y-36474819D01*
X68004762Y-36474819D02*
X68195238Y-36474819D01*
X68195238Y-36474819D02*
X68290476Y-36427200D01*
X68290476Y-36427200D02*
X68338095Y-36379580D01*
X68338095Y-36379580D02*
X68385714Y-36284342D01*
X68385714Y-36284342D02*
X68385714Y-36046247D01*
X68385714Y-36046247D02*
X68338095Y-35951009D01*
X68338095Y-35951009D02*
X68290476Y-35903390D01*
X68290476Y-35903390D02*
X68195238Y-35855771D01*
X68195238Y-35855771D02*
X68004762Y-35855771D01*
X68004762Y-35855771D02*
X67909524Y-35903390D01*
X67909524Y-35903390D02*
X67861905Y-35951009D01*
X67861905Y-35951009D02*
X67814286Y-36046247D01*
X84623333Y-64904819D02*
X84290000Y-64428628D01*
X84051905Y-64904819D02*
X84051905Y-63904819D01*
X84051905Y-63904819D02*
X84432857Y-63904819D01*
X84432857Y-63904819D02*
X84528095Y-63952438D01*
X84528095Y-63952438D02*
X84575714Y-64000057D01*
X84575714Y-64000057D02*
X84623333Y-64095295D01*
X84623333Y-64095295D02*
X84623333Y-64238152D01*
X84623333Y-64238152D02*
X84575714Y-64333390D01*
X84575714Y-64333390D02*
X84528095Y-64381009D01*
X84528095Y-64381009D02*
X84432857Y-64428628D01*
X84432857Y-64428628D02*
X84051905Y-64428628D01*
X85528095Y-63904819D02*
X85051905Y-63904819D01*
X85051905Y-63904819D02*
X85004286Y-64381009D01*
X85004286Y-64381009D02*
X85051905Y-64333390D01*
X85051905Y-64333390D02*
X85147143Y-64285771D01*
X85147143Y-64285771D02*
X85385238Y-64285771D01*
X85385238Y-64285771D02*
X85480476Y-64333390D01*
X85480476Y-64333390D02*
X85528095Y-64381009D01*
X85528095Y-64381009D02*
X85575714Y-64476247D01*
X85575714Y-64476247D02*
X85575714Y-64714342D01*
X85575714Y-64714342D02*
X85528095Y-64809580D01*
X85528095Y-64809580D02*
X85480476Y-64857200D01*
X85480476Y-64857200D02*
X85385238Y-64904819D01*
X85385238Y-64904819D02*
X85147143Y-64904819D01*
X85147143Y-64904819D02*
X85051905Y-64857200D01*
X85051905Y-64857200D02*
X85004286Y-64809580D01*
X85103333Y-49834819D02*
X84770000Y-49358628D01*
X84531905Y-49834819D02*
X84531905Y-48834819D01*
X84531905Y-48834819D02*
X84912857Y-48834819D01*
X84912857Y-48834819D02*
X85008095Y-48882438D01*
X85008095Y-48882438D02*
X85055714Y-48930057D01*
X85055714Y-48930057D02*
X85103333Y-49025295D01*
X85103333Y-49025295D02*
X85103333Y-49168152D01*
X85103333Y-49168152D02*
X85055714Y-49263390D01*
X85055714Y-49263390D02*
X85008095Y-49311009D01*
X85008095Y-49311009D02*
X84912857Y-49358628D01*
X84912857Y-49358628D02*
X84531905Y-49358628D01*
X85960476Y-49168152D02*
X85960476Y-49834819D01*
X85722381Y-48787200D02*
X85484286Y-49501485D01*
X85484286Y-49501485D02*
X86103333Y-49501485D01*
X82223333Y-38014819D02*
X81890000Y-37538628D01*
X81651905Y-38014819D02*
X81651905Y-37014819D01*
X81651905Y-37014819D02*
X82032857Y-37014819D01*
X82032857Y-37014819D02*
X82128095Y-37062438D01*
X82128095Y-37062438D02*
X82175714Y-37110057D01*
X82175714Y-37110057D02*
X82223333Y-37205295D01*
X82223333Y-37205295D02*
X82223333Y-37348152D01*
X82223333Y-37348152D02*
X82175714Y-37443390D01*
X82175714Y-37443390D02*
X82128095Y-37491009D01*
X82128095Y-37491009D02*
X82032857Y-37538628D01*
X82032857Y-37538628D02*
X81651905Y-37538628D01*
X82556667Y-37014819D02*
X83175714Y-37014819D01*
X83175714Y-37014819D02*
X82842381Y-37395771D01*
X82842381Y-37395771D02*
X82985238Y-37395771D01*
X82985238Y-37395771D02*
X83080476Y-37443390D01*
X83080476Y-37443390D02*
X83128095Y-37491009D01*
X83128095Y-37491009D02*
X83175714Y-37586247D01*
X83175714Y-37586247D02*
X83175714Y-37824342D01*
X83175714Y-37824342D02*
X83128095Y-37919580D01*
X83128095Y-37919580D02*
X83080476Y-37967200D01*
X83080476Y-37967200D02*
X82985238Y-38014819D01*
X82985238Y-38014819D02*
X82699524Y-38014819D01*
X82699524Y-38014819D02*
X82604286Y-37967200D01*
X82604286Y-37967200D02*
X82556667Y-37919580D01*
X82663333Y-60894819D02*
X82330000Y-60418628D01*
X82091905Y-60894819D02*
X82091905Y-59894819D01*
X82091905Y-59894819D02*
X82472857Y-59894819D01*
X82472857Y-59894819D02*
X82568095Y-59942438D01*
X82568095Y-59942438D02*
X82615714Y-59990057D01*
X82615714Y-59990057D02*
X82663333Y-60085295D01*
X82663333Y-60085295D02*
X82663333Y-60228152D01*
X82663333Y-60228152D02*
X82615714Y-60323390D01*
X82615714Y-60323390D02*
X82568095Y-60371009D01*
X82568095Y-60371009D02*
X82472857Y-60418628D01*
X82472857Y-60418628D02*
X82091905Y-60418628D01*
X83044286Y-59990057D02*
X83091905Y-59942438D01*
X83091905Y-59942438D02*
X83187143Y-59894819D01*
X83187143Y-59894819D02*
X83425238Y-59894819D01*
X83425238Y-59894819D02*
X83520476Y-59942438D01*
X83520476Y-59942438D02*
X83568095Y-59990057D01*
X83568095Y-59990057D02*
X83615714Y-60085295D01*
X83615714Y-60085295D02*
X83615714Y-60180533D01*
X83615714Y-60180533D02*
X83568095Y-60323390D01*
X83568095Y-60323390D02*
X82996667Y-60894819D01*
X82996667Y-60894819D02*
X83615714Y-60894819D01*
X80434819Y-55756666D02*
X79958628Y-56089999D01*
X80434819Y-56328094D02*
X79434819Y-56328094D01*
X79434819Y-56328094D02*
X79434819Y-55947142D01*
X79434819Y-55947142D02*
X79482438Y-55851904D01*
X79482438Y-55851904D02*
X79530057Y-55804285D01*
X79530057Y-55804285D02*
X79625295Y-55756666D01*
X79625295Y-55756666D02*
X79768152Y-55756666D01*
X79768152Y-55756666D02*
X79863390Y-55804285D01*
X79863390Y-55804285D02*
X79911009Y-55851904D01*
X79911009Y-55851904D02*
X79958628Y-55947142D01*
X79958628Y-55947142D02*
X79958628Y-56328094D01*
X80434819Y-54804285D02*
X80434819Y-55375713D01*
X80434819Y-55089999D02*
X79434819Y-55089999D01*
X79434819Y-55089999D02*
X79577676Y-55185237D01*
X79577676Y-55185237D02*
X79672914Y-55280475D01*
X79672914Y-55280475D02*
X79720533Y-55375713D01*
X84872261Y-53840057D02*
X84777023Y-53792438D01*
X84777023Y-53792438D02*
X84681785Y-53697200D01*
X84681785Y-53697200D02*
X84538928Y-53554342D01*
X84538928Y-53554342D02*
X84443690Y-53506723D01*
X84443690Y-53506723D02*
X84348452Y-53506723D01*
X84396071Y-53744819D02*
X84300833Y-53697200D01*
X84300833Y-53697200D02*
X84205595Y-53601961D01*
X84205595Y-53601961D02*
X84157976Y-53411485D01*
X84157976Y-53411485D02*
X84157976Y-53078152D01*
X84157976Y-53078152D02*
X84205595Y-52887676D01*
X84205595Y-52887676D02*
X84300833Y-52792438D01*
X84300833Y-52792438D02*
X84396071Y-52744819D01*
X84396071Y-52744819D02*
X84586547Y-52744819D01*
X84586547Y-52744819D02*
X84681785Y-52792438D01*
X84681785Y-52792438D02*
X84777023Y-52887676D01*
X84777023Y-52887676D02*
X84824642Y-53078152D01*
X84824642Y-53078152D02*
X84824642Y-53411485D01*
X84824642Y-53411485D02*
X84777023Y-53601961D01*
X84777023Y-53601961D02*
X84681785Y-53697200D01*
X84681785Y-53697200D02*
X84586547Y-53744819D01*
X84586547Y-53744819D02*
X84396071Y-53744819D01*
X85777023Y-53744819D02*
X85205595Y-53744819D01*
X85491309Y-53744819D02*
X85491309Y-52744819D01*
X85491309Y-52744819D02*
X85396071Y-52887676D01*
X85396071Y-52887676D02*
X85300833Y-52982914D01*
X85300833Y-52982914D02*
X85205595Y-53030533D01*
X42751666Y-36844819D02*
X42751666Y-37559104D01*
X42751666Y-37559104D02*
X42704047Y-37701961D01*
X42704047Y-37701961D02*
X42608809Y-37797200D01*
X42608809Y-37797200D02*
X42465952Y-37844819D01*
X42465952Y-37844819D02*
X42370714Y-37844819D01*
X43180238Y-36940057D02*
X43227857Y-36892438D01*
X43227857Y-36892438D02*
X43323095Y-36844819D01*
X43323095Y-36844819D02*
X43561190Y-36844819D01*
X43561190Y-36844819D02*
X43656428Y-36892438D01*
X43656428Y-36892438D02*
X43704047Y-36940057D01*
X43704047Y-36940057D02*
X43751666Y-37035295D01*
X43751666Y-37035295D02*
X43751666Y-37130533D01*
X43751666Y-37130533D02*
X43704047Y-37273390D01*
X43704047Y-37273390D02*
X43132619Y-37844819D01*
X43132619Y-37844819D02*
X43751666Y-37844819D01*
X49604819Y-41438094D02*
X48604819Y-41438094D01*
X48604819Y-41438094D02*
X48604819Y-41199999D01*
X48604819Y-41199999D02*
X48652438Y-41057142D01*
X48652438Y-41057142D02*
X48747676Y-40961904D01*
X48747676Y-40961904D02*
X48842914Y-40914285D01*
X48842914Y-40914285D02*
X49033390Y-40866666D01*
X49033390Y-40866666D02*
X49176247Y-40866666D01*
X49176247Y-40866666D02*
X49366723Y-40914285D01*
X49366723Y-40914285D02*
X49461961Y-40961904D01*
X49461961Y-40961904D02*
X49557200Y-41057142D01*
X49557200Y-41057142D02*
X49604819Y-41199999D01*
X49604819Y-41199999D02*
X49604819Y-41438094D01*
X48938152Y-40009523D02*
X49604819Y-40009523D01*
X48557200Y-40247618D02*
X49271485Y-40485713D01*
X49271485Y-40485713D02*
X49271485Y-39866666D01*
X81444683Y-69462455D02*
X80737577Y-68755348D01*
X80737577Y-68755348D02*
X80905935Y-68586989D01*
X80905935Y-68586989D02*
X81040622Y-68519646D01*
X81040622Y-68519646D02*
X81175309Y-68519646D01*
X81175309Y-68519646D02*
X81276325Y-68553318D01*
X81276325Y-68553318D02*
X81444683Y-68654333D01*
X81444683Y-68654333D02*
X81545699Y-68755348D01*
X81545699Y-68755348D02*
X81646714Y-68923707D01*
X81646714Y-68923707D02*
X81680386Y-69024722D01*
X81680386Y-69024722D02*
X81680386Y-69159409D01*
X81680386Y-69159409D02*
X81613042Y-69294096D01*
X81613042Y-69294096D02*
X81444683Y-69462455D01*
X81377340Y-68115585D02*
X81815073Y-67677852D01*
X81815073Y-67677852D02*
X81848744Y-68182928D01*
X81848744Y-68182928D02*
X81949760Y-68081913D01*
X81949760Y-68081913D02*
X82050775Y-68048241D01*
X82050775Y-68048241D02*
X82118118Y-68048241D01*
X82118118Y-68048241D02*
X82219134Y-68081913D01*
X82219134Y-68081913D02*
X82387492Y-68250272D01*
X82387492Y-68250272D02*
X82421164Y-68351287D01*
X82421164Y-68351287D02*
X82421164Y-68418631D01*
X82421164Y-68418631D02*
X82387492Y-68519646D01*
X82387492Y-68519646D02*
X82185462Y-68721676D01*
X82185462Y-68721676D02*
X82084447Y-68755348D01*
X82084447Y-68755348D02*
X82017103Y-68755348D01*
X88104819Y-49958094D02*
X87104819Y-49958094D01*
X87104819Y-49958094D02*
X87104819Y-49719999D01*
X87104819Y-49719999D02*
X87152438Y-49577142D01*
X87152438Y-49577142D02*
X87247676Y-49481904D01*
X87247676Y-49481904D02*
X87342914Y-49434285D01*
X87342914Y-49434285D02*
X87533390Y-49386666D01*
X87533390Y-49386666D02*
X87676247Y-49386666D01*
X87676247Y-49386666D02*
X87866723Y-49434285D01*
X87866723Y-49434285D02*
X87961961Y-49481904D01*
X87961961Y-49481904D02*
X88057200Y-49577142D01*
X88057200Y-49577142D02*
X88104819Y-49719999D01*
X88104819Y-49719999D02*
X88104819Y-49958094D01*
X87200057Y-49005713D02*
X87152438Y-48958094D01*
X87152438Y-48958094D02*
X87104819Y-48862856D01*
X87104819Y-48862856D02*
X87104819Y-48624761D01*
X87104819Y-48624761D02*
X87152438Y-48529523D01*
X87152438Y-48529523D02*
X87200057Y-48481904D01*
X87200057Y-48481904D02*
X87295295Y-48434285D01*
X87295295Y-48434285D02*
X87390533Y-48434285D01*
X87390533Y-48434285D02*
X87533390Y-48481904D01*
X87533390Y-48481904D02*
X88104819Y-49053332D01*
X88104819Y-49053332D02*
X88104819Y-48434285D01*
X78764683Y-32672455D02*
X78057577Y-31965348D01*
X78057577Y-31965348D02*
X78225935Y-31796989D01*
X78225935Y-31796989D02*
X78360622Y-31729646D01*
X78360622Y-31729646D02*
X78495309Y-31729646D01*
X78495309Y-31729646D02*
X78596325Y-31763318D01*
X78596325Y-31763318D02*
X78764683Y-31864333D01*
X78764683Y-31864333D02*
X78865699Y-31965348D01*
X78865699Y-31965348D02*
X78966714Y-32133707D01*
X78966714Y-32133707D02*
X79000386Y-32234722D01*
X79000386Y-32234722D02*
X79000386Y-32369409D01*
X79000386Y-32369409D02*
X78933042Y-32504096D01*
X78933042Y-32504096D02*
X78764683Y-32672455D01*
X79842179Y-31594959D02*
X79438118Y-31999020D01*
X79640149Y-31796989D02*
X78933042Y-31089883D01*
X78933042Y-31089883D02*
X78966714Y-31258241D01*
X78966714Y-31258241D02*
X78966714Y-31392928D01*
X78966714Y-31392928D02*
X78933042Y-31493944D01*
D11*
%TO.C,J1*%
X42410000Y-40465000D02*
X42410000Y-42525000D01*
X40700000Y-40465000D02*
X42410000Y-40465000D01*
X36590000Y-40465000D02*
X38200000Y-40465000D01*
X36590000Y-40465000D02*
X36590000Y-48185000D01*
X42410000Y-42525000D02*
X43000000Y-42525000D01*
X42410000Y-48185000D02*
X42410000Y-46125000D01*
X40700000Y-48185000D02*
X42410000Y-48185000D01*
X36590000Y-48185000D02*
X38200000Y-48185000D01*
%TO.C,C1*%
X48825000Y-39948752D02*
X48825000Y-39426248D01*
X50295000Y-39948752D02*
X50295000Y-39426248D01*
%TO.C,D5*%
X39740000Y-49932500D02*
X37820000Y-49932500D01*
X37820000Y-49932500D02*
X37820000Y-52792500D01*
X39740000Y-52792500D02*
X39740000Y-49932500D01*
D12*
%TO.C,U1*%
X51147500Y-25535000D02*
X62216500Y-25535000D01*
X51147500Y-25535000D02*
X79657500Y-25535000D01*
X51147500Y-76485000D02*
X51147500Y-25535000D01*
X51147500Y-76485000D02*
X51147500Y-25535000D01*
X51147500Y-76485000D02*
X56517500Y-76485000D01*
X56517500Y-76485000D02*
X74207500Y-76485000D01*
X62216500Y-25535000D02*
X68927500Y-25535000D01*
X68927500Y-25535000D02*
X79657500Y-25535000D01*
X74207500Y-76485000D02*
X79657500Y-76485000D01*
X79657500Y-25535000D02*
X79657500Y-76485000D01*
X79657500Y-25535000D02*
X79657500Y-76485000D01*
X79657500Y-76485000D02*
X51147500Y-76485000D01*
D13*
X50677500Y-35495000D02*
G75*
G02*
X50477500Y-35495000I-100000J0D01*
G01*
X50477500Y-35495000D02*
G75*
G02*
X50677500Y-35495000I100000J0D01*
G01*
D11*
%TO.C,R9*%
X47315000Y-46827064D02*
X47315000Y-46372936D01*
X48785000Y-46827064D02*
X48785000Y-46372936D01*
%TO.C,R8*%
X51645000Y-31927064D02*
X51645000Y-31472936D01*
X53115000Y-31927064D02*
X53115000Y-31472936D01*
%TO.C,R7*%
X63377064Y-33635000D02*
X62922936Y-33635000D01*
X63377064Y-35105000D02*
X62922936Y-35105000D01*
%TO.C,R6*%
X67827064Y-33635000D02*
X67372936Y-33635000D01*
X67827064Y-35105000D02*
X67372936Y-35105000D01*
%TO.C,R5*%
X84562936Y-65365000D02*
X85017064Y-65365000D01*
X84562936Y-66835000D02*
X85017064Y-66835000D01*
%TO.C,R4*%
X85497064Y-48465000D02*
X85042936Y-48465000D01*
X85497064Y-46995000D02*
X85042936Y-46995000D01*
%TO.C,R3*%
X82617064Y-36645000D02*
X82162936Y-36645000D01*
X82617064Y-35175000D02*
X82162936Y-35175000D01*
%TO.C,R2*%
X83057064Y-59525000D02*
X82602936Y-59525000D01*
X83057064Y-58055000D02*
X82602936Y-58055000D01*
%TO.C,R1*%
X80895000Y-55817064D02*
X80895000Y-55362936D01*
X82365000Y-55817064D02*
X82365000Y-55362936D01*
%TO.C,Q1*%
X83805000Y-54180000D02*
X83565000Y-53850000D01*
X84045000Y-53850000D01*
X83805000Y-54180000D01*
G36*
X83805000Y-54180000D02*
G01*
X83565000Y-53850000D01*
X84045000Y-53850000D01*
X83805000Y-54180000D01*
G37*
X84967500Y-57250000D02*
X85617500Y-57250000D01*
X84967500Y-57250000D02*
X84317500Y-57250000D01*
X84967500Y-54130000D02*
X85617500Y-54130000D01*
X84967500Y-54130000D02*
X84317500Y-54130000D01*
%TO.C,J2*%
X48740000Y-36390000D02*
X47470000Y-36390000D01*
X48740000Y-35120000D02*
X48740000Y-36390000D01*
X46427071Y-32960000D02*
X46030000Y-32960000D01*
X46427071Y-32200000D02*
X46030000Y-32200000D01*
X46427071Y-30420000D02*
X46030000Y-30420000D01*
X46427071Y-29660000D02*
X46030000Y-29660000D01*
X46360000Y-35500000D02*
X46030000Y-35500000D01*
X46360000Y-34740000D02*
X46030000Y-34740000D01*
X46030000Y-36450000D02*
X46030000Y-28710000D01*
X46030000Y-33850000D02*
X43370000Y-33850000D01*
X46030000Y-31310000D02*
X43370000Y-31310000D01*
X46030000Y-28710000D02*
X43370000Y-28710000D01*
X43370000Y-36450000D02*
X46030000Y-36450000D01*
X43370000Y-35500000D02*
X37370000Y-35500000D01*
X43370000Y-35440000D02*
X37370000Y-35440000D01*
X43370000Y-35320000D02*
X37370000Y-35320000D01*
X43370000Y-35200000D02*
X37370000Y-35200000D01*
X43370000Y-35080000D02*
X37370000Y-35080000D01*
X43370000Y-34960000D02*
X37370000Y-34960000D01*
X43370000Y-34840000D02*
X37370000Y-34840000D01*
X43370000Y-32960000D02*
X37370000Y-32960000D01*
X43370000Y-30420000D02*
X37370000Y-30420000D01*
X43370000Y-28710000D02*
X43370000Y-36450000D01*
X37370000Y-35500000D02*
X37370000Y-34740000D01*
X37370000Y-34740000D02*
X43370000Y-34740000D01*
X37370000Y-32960000D02*
X37370000Y-32200000D01*
X37370000Y-32200000D02*
X43370000Y-32200000D01*
X37370000Y-30420000D02*
X37370000Y-29660000D01*
X37370000Y-29660000D02*
X43370000Y-29660000D01*
%TO.C,D4*%
X48300000Y-37190000D02*
X45000000Y-37190000D01*
X48300000Y-37190000D02*
X48300000Y-42700000D01*
X45000000Y-37190000D02*
X45000000Y-42700000D01*
%TO.C,D3*%
X81760955Y-70941077D02*
X81871263Y-71051386D01*
X83398614Y-72578736D02*
X83508923Y-72689045D01*
X81761297Y-70941420D02*
G75*
G02*
X84157854Y-68766763I1976729J229446D01*
G01*
X82238279Y-70684369D02*
G75*
G02*
X83710656Y-69212223I1499747J-27605D01*
G01*
X85237776Y-70739344D02*
G75*
G02*
X83765630Y-72211720I-1499750J27370D01*
G01*
X85683236Y-70292146D02*
G75*
G02*
X83508581Y-72688702I-1945210J-419828D01*
G01*
%TO.C,D2*%
X89374000Y-50780000D02*
X89530000Y-50780000D01*
X91690000Y-50780000D02*
X91846000Y-50780000D01*
X89374484Y-50780000D02*
G75*
G02*
X89531392Y-47547665I1235516J1560000D01*
G01*
X89530000Y-50260961D02*
G75*
G02*
X89530163Y-48178870I1080000J1040961D01*
G01*
X91689837Y-48178870D02*
G75*
G02*
X91690000Y-50260961I-1079837J-1041130D01*
G01*
X91688608Y-47547665D02*
G75*
G02*
X91845516Y-50780000I-1078608J-1672335D01*
G01*
%TO.C,D1*%
X82972146Y-29336764D02*
G75*
G02*
X85368702Y-31511419I419828J-1945210D01*
G01*
X83419344Y-29782224D02*
G75*
G02*
X84891720Y-31254370I-27370J-1499750D01*
G01*
X83364370Y-32781720D02*
G75*
G02*
X81892224Y-31309344I27604J1499746D01*
G01*
X83621419Y-33258703D02*
G75*
G02*
X81446763Y-30862146I-229445J1976729D01*
G01*
X85258736Y-31621386D02*
X85369045Y-31511077D01*
X83621077Y-33259045D02*
X83731386Y-33148736D01*
%TD*%
%LPC*%
D14*
%TO.C,J1*%
X42300000Y-43025000D03*
X42300000Y-43675000D03*
X42300000Y-44325000D03*
X42300000Y-44975000D03*
X42300000Y-45625000D03*
D15*
X39450000Y-40575000D03*
D16*
X39450000Y-43175000D03*
X39450000Y-45475000D03*
D15*
X39450000Y-48075000D03*
%TD*%
D17*
%TO.C,C1*%
X49560000Y-40725000D03*
X49560000Y-38650000D03*
%TD*%
D18*
%TO.C,D5*%
X38780000Y-50767500D03*
X38780000Y-52817500D03*
%TD*%
D19*
%TO.C,U1*%
X53147500Y-27535000D03*
X53147500Y-74485000D03*
X77657500Y-27535000D03*
X77657500Y-74485000D03*
D20*
X52727500Y-35495000D03*
D21*
X52727500Y-38035000D03*
X52727500Y-40575000D03*
X52727500Y-43115000D03*
X52727500Y-45655000D03*
X52727500Y-48195000D03*
X52727500Y-50735000D03*
X52727500Y-53275000D03*
X52727500Y-55815000D03*
X52727500Y-58355000D03*
X52727500Y-60895000D03*
X52727500Y-63435000D03*
X52727500Y-65975000D03*
X52727500Y-68515000D03*
X52727500Y-71055000D03*
X78127500Y-71055000D03*
X78127500Y-68515000D03*
X78127500Y-65975000D03*
X78127500Y-63435000D03*
X78127500Y-60895000D03*
X78127500Y-58355000D03*
X78127500Y-55815000D03*
X78127500Y-53275000D03*
X78127500Y-50735000D03*
X78127500Y-48195000D03*
X78127500Y-45655000D03*
X78127500Y-43115000D03*
X78127500Y-40575000D03*
X78127500Y-38035000D03*
X78127500Y-35495000D03*
%TD*%
D22*
%TO.C,R9*%
X48050000Y-47600000D03*
X48050000Y-45600000D03*
%TD*%
%TO.C,R8*%
X52380000Y-32700000D03*
X52380000Y-30700000D03*
%TD*%
D23*
%TO.C,R7*%
X62150000Y-34370000D03*
X64150000Y-34370000D03*
%TD*%
%TO.C,R6*%
X66600000Y-34370000D03*
X68600000Y-34370000D03*
%TD*%
D24*
%TO.C,R5*%
X83790000Y-66100000D03*
X85790000Y-66100000D03*
%TD*%
D23*
%TO.C,R4*%
X86270000Y-47730000D03*
X84270000Y-47730000D03*
%TD*%
%TO.C,R3*%
X83390000Y-35910000D03*
X81390000Y-35910000D03*
%TD*%
%TO.C,R2*%
X83830000Y-58790000D03*
X81830000Y-58790000D03*
%TD*%
D22*
%TO.C,R1*%
X81630000Y-56590000D03*
X81630000Y-54590000D03*
%TD*%
D25*
%TO.C,Q1*%
X85905000Y-55690000D03*
X84030000Y-56640000D03*
X84030000Y-54740000D03*
%TD*%
D26*
%TO.C,J2*%
X47470000Y-35120000D03*
D27*
X47470000Y-32580000D03*
X47470000Y-30040000D03*
%TD*%
D28*
%TO.C,D4*%
X46650000Y-38700000D03*
X46650000Y-42700000D03*
%TD*%
D29*
%TO.C,D3*%
X82840000Y-71610000D03*
D30*
X84636051Y-69813949D03*
%TD*%
D31*
%TO.C,D2*%
X90610000Y-50490000D03*
D30*
X90610000Y-47950000D03*
%TD*%
%TO.C,D1*%
X82493949Y-30383949D03*
D32*
X84290000Y-32180000D03*
%TD*%
%LPD*%
M02*
