%TF.GenerationSoftware,KiCad,Pcbnew,8.0.2*%
%TF.CreationDate,2024-08-15T08:28:16+02:00*%
%TF.ProjectId,ir-blaster,69722d62-6c61-4737-9465-722e6b696361,rev?*%
%TF.SameCoordinates,Original*%
%TF.FileFunction,Legend,Bot*%
%TF.FilePolarity,Positive*%
%FSLAX46Y46*%
G04 Gerber Fmt 4.6, Leading zero omitted, Abs format (unit mm)*
G04 Created by KiCad (PCBNEW 8.0.2) date 2024-08-15 08:28:16*
%MOMM*%
%LPD*%
G01*
G04 APERTURE LIST*
G04 Aperture macros list*
%AMRotRect*
0 Rectangle, with rotation*
0 The origin of the aperture is its center*
0 $1 length*
0 $2 width*
0 $3 Rotation angle, in degrees counterclockwise*
0 Add horizontal line*
21,1,$1,$2,0,0,$3*%
G04 Aperture macros list end*
%ADD10C,0.250000*%
%ADD11C,0.300000*%
%ADD12R,1.700000X1.700000*%
%ADD13O,1.700000X1.700000*%
%ADD14R,1.800000X1.800000*%
%ADD15C,1.800000*%
%ADD16RotRect,1.800000X1.800000X135.000000*%
%ADD17C,1.904000*%
%ADD18RotRect,1.800000X1.800000X45.000000*%
G04 APERTURE END LIST*
D10*
G36*
X76239644Y-45400000D02*
G01*
X75909427Y-45400000D01*
X75859357Y-45398664D01*
X75806044Y-45394109D01*
X75754577Y-45386322D01*
X75718826Y-45378186D01*
X75668978Y-45361573D01*
X75623663Y-45339672D01*
X75602998Y-45326531D01*
X75564115Y-45292110D01*
X75533293Y-45249546D01*
X75514382Y-45206564D01*
X75503320Y-45156541D01*
X75500076Y-45104954D01*
X75500301Y-45100314D01*
X75742854Y-45100314D01*
X75746288Y-45137637D01*
X75767278Y-45183356D01*
X75785888Y-45200670D01*
X75831514Y-45221702D01*
X75867518Y-45228381D01*
X75917243Y-45231472D01*
X76004193Y-45231472D01*
X76004193Y-44958897D01*
X75907229Y-44958897D01*
X75884607Y-44959648D01*
X75832654Y-44968634D01*
X75787794Y-44989672D01*
X75770283Y-45005401D01*
X75748164Y-45051095D01*
X75742854Y-45100314D01*
X75500301Y-45100314D01*
X75501712Y-45071188D01*
X75512131Y-45020263D01*
X75534270Y-44975017D01*
X75543044Y-44963007D01*
X75578260Y-44927043D01*
X75620488Y-44900523D01*
X75630251Y-44895950D01*
X75676039Y-44878412D01*
X75725512Y-44866573D01*
X75681553Y-44851208D01*
X75637441Y-44826317D01*
X75597773Y-44793056D01*
X75594407Y-44789616D01*
X75564434Y-44747054D01*
X75548406Y-44700849D01*
X75545240Y-44669225D01*
X75780223Y-44669225D01*
X75786768Y-44718606D01*
X75814417Y-44762037D01*
X75826052Y-44770199D01*
X75873264Y-44786385D01*
X75924326Y-44790369D01*
X76004193Y-44790369D01*
X76004193Y-44555896D01*
X75931653Y-44555896D01*
X75912873Y-44556312D01*
X75864181Y-44562552D01*
X75817103Y-44582519D01*
X75788326Y-44620249D01*
X75780223Y-44669225D01*
X75545240Y-44669225D01*
X75543063Y-44647487D01*
X75543270Y-44635257D01*
X75549326Y-44584306D01*
X75565888Y-44535534D01*
X75596064Y-44491416D01*
X75599394Y-44487892D01*
X75640371Y-44453440D01*
X75684535Y-44428982D01*
X75735282Y-44411060D01*
X75768272Y-44403009D01*
X75819882Y-44394055D01*
X75874043Y-44388849D01*
X75924326Y-44387369D01*
X76239644Y-44387369D01*
X76239644Y-45400000D01*
G37*
G36*
X75028819Y-44602846D02*
G01*
X75079017Y-44606302D01*
X75132063Y-44616835D01*
X75180500Y-44634390D01*
X75224326Y-44658967D01*
X75263252Y-44689329D01*
X75297233Y-44724485D01*
X75326267Y-44764434D01*
X75350355Y-44809176D01*
X75353000Y-44815073D01*
X75371135Y-44863712D01*
X75383897Y-44914946D01*
X75391285Y-44968775D01*
X75393342Y-45018004D01*
X75393299Y-45025533D01*
X75390564Y-45076714D01*
X75382229Y-45131943D01*
X75368338Y-45183692D01*
X75348890Y-45231960D01*
X75323825Y-45276000D01*
X75293325Y-45315064D01*
X75257390Y-45349151D01*
X75216022Y-45378262D01*
X75204805Y-45384680D01*
X75156636Y-45406211D01*
X75103184Y-45421118D01*
X75052082Y-45428726D01*
X74996936Y-45431263D01*
X74972844Y-45430797D01*
X74921064Y-45426345D01*
X74872646Y-45417179D01*
X74822791Y-45401465D01*
X74777229Y-45381372D01*
X74732235Y-45355523D01*
X74692609Y-45325750D01*
X74783712Y-45199476D01*
X74786540Y-45201266D01*
X74829813Y-45225427D01*
X74877745Y-45245638D01*
X74927449Y-45258461D01*
X74978862Y-45262735D01*
X75009500Y-45260783D01*
X75056910Y-45248355D01*
X75100983Y-45221946D01*
X75132811Y-45183902D01*
X75152573Y-45135933D01*
X75162044Y-45087369D01*
X74668185Y-45087369D01*
X74665010Y-45047069D01*
X74663789Y-45004082D01*
X74663961Y-44988499D01*
X74666618Y-44946685D01*
X74884829Y-44946685D01*
X75164975Y-44946685D01*
X75159129Y-44900935D01*
X75145157Y-44848946D01*
X75119790Y-44803803D01*
X75112575Y-44795815D01*
X75070254Y-44767661D01*
X75021360Y-44759106D01*
X74999693Y-44760358D01*
X74952736Y-44775335D01*
X74917313Y-44810397D01*
X74900497Y-44845746D01*
X74888316Y-44896854D01*
X74884829Y-44946685D01*
X74666618Y-44946685D01*
X74667286Y-44936168D01*
X74674841Y-44887273D01*
X74688656Y-44835600D01*
X74707997Y-44788415D01*
X74722688Y-44761353D01*
X74753551Y-44717810D01*
X74790094Y-44680913D01*
X74832316Y-44650662D01*
X74868661Y-44632009D01*
X74919511Y-44614759D01*
X74968604Y-44605783D01*
X75021360Y-44602791D01*
X75028819Y-44602846D01*
G37*
G36*
X74093970Y-45243684D02*
G01*
X74042991Y-45238043D01*
X74005799Y-45225854D01*
X73962080Y-45203825D01*
X73923733Y-45179692D01*
X73822372Y-45326727D01*
X73863199Y-45358154D01*
X73906054Y-45383281D01*
X73944982Y-45401221D01*
X73991684Y-45417063D01*
X74041725Y-45427038D01*
X74095106Y-45431145D01*
X74106182Y-45431263D01*
X74158188Y-45428855D01*
X74206921Y-45421632D01*
X74258609Y-45407481D01*
X74306023Y-45387041D01*
X74317208Y-45380949D01*
X74358745Y-45353212D01*
X74395183Y-45320560D01*
X74426522Y-45282992D01*
X74452763Y-45240509D01*
X74473493Y-45193767D01*
X74488300Y-45143422D01*
X74497185Y-45089475D01*
X74500100Y-45039316D01*
X74500146Y-45031926D01*
X74497832Y-44981244D01*
X74489520Y-44926385D01*
X74475163Y-44874792D01*
X74454761Y-44826466D01*
X74451786Y-44820655D01*
X74424950Y-44776738D01*
X74393046Y-44737796D01*
X74356073Y-44703831D01*
X74314033Y-44674842D01*
X74267245Y-44651655D01*
X74216275Y-44635092D01*
X74168245Y-44626034D01*
X74117012Y-44622049D01*
X74101786Y-44621842D01*
X74049326Y-44624108D01*
X74000635Y-44630905D01*
X73951428Y-44643617D01*
X73947180Y-44645045D01*
X73901798Y-44663652D01*
X73859013Y-44687570D01*
X73822372Y-44713921D01*
X73920802Y-44850209D01*
X73963305Y-44823690D01*
X74002868Y-44806245D01*
X74052387Y-44793408D01*
X74092505Y-44790369D01*
X74141739Y-44796719D01*
X74187483Y-44818128D01*
X74216336Y-44844103D01*
X74243035Y-44889535D01*
X74256636Y-44939586D01*
X74262498Y-44993808D01*
X74263230Y-45024354D01*
X74260604Y-45077290D01*
X74251748Y-45125558D01*
X74241004Y-45155268D01*
X74212840Y-45198342D01*
X74180432Y-45223412D01*
X74134081Y-45239804D01*
X74093970Y-45243684D01*
G37*
G36*
X73373995Y-44607971D02*
G01*
X73423460Y-44613252D01*
X73471884Y-44621109D01*
X73481873Y-44622996D01*
X73531074Y-44634092D01*
X73579036Y-44647955D01*
X73625757Y-44664584D01*
X73573489Y-44819434D01*
X73555552Y-44812962D01*
X73508917Y-44798423D01*
X73458695Y-44786461D01*
X73415328Y-44778871D01*
X73364417Y-44774738D01*
X73355145Y-44774860D01*
X73298487Y-44782584D01*
X73251393Y-44806123D01*
X73220930Y-44851362D01*
X73213719Y-44900279D01*
X73213719Y-44931053D01*
X73316545Y-44931053D01*
X73338309Y-44931318D01*
X73390004Y-44934291D01*
X73446922Y-44942219D01*
X73498259Y-44954904D01*
X73544014Y-44972347D01*
X73590341Y-44998709D01*
X73602113Y-45007388D01*
X73637332Y-45041266D01*
X73666191Y-45086653D01*
X73682899Y-45139154D01*
X73687550Y-45190928D01*
X73685845Y-45223041D01*
X73674180Y-45276125D01*
X73651464Y-45323144D01*
X73617697Y-45364096D01*
X73574499Y-45396564D01*
X73529776Y-45416504D01*
X73479100Y-45428049D01*
X73429874Y-45431263D01*
X73390126Y-45429195D01*
X73337851Y-45420008D01*
X73290655Y-45405129D01*
X73258003Y-45390443D01*
X73214807Y-45361890D01*
X73178548Y-45325505D01*
X73176865Y-45328519D01*
X73147041Y-45367943D01*
X73105764Y-45398046D01*
X73090749Y-45405102D01*
X73043251Y-45420356D01*
X72991946Y-45428576D01*
X72945296Y-45275191D01*
X72983886Y-45245394D01*
X72990069Y-45230715D01*
X72995610Y-45182135D01*
X72995610Y-45180425D01*
X73213719Y-45180425D01*
X73235625Y-45211420D01*
X73274780Y-45241242D01*
X73302053Y-45253479D01*
X73351716Y-45262735D01*
X73382285Y-45259820D01*
X73426699Y-45238066D01*
X73441995Y-45218856D01*
X73453565Y-45169678D01*
X73443798Y-45123375D01*
X73409113Y-45085170D01*
X73368550Y-45067459D01*
X73318996Y-45058405D01*
X73269651Y-45056106D01*
X73213719Y-45056106D01*
X73213719Y-45180425D01*
X72995610Y-45180425D01*
X72995610Y-44879274D01*
X72995929Y-44862940D01*
X73002063Y-44809619D01*
X73016004Y-44762281D01*
X73041497Y-44715509D01*
X73077187Y-44676552D01*
X73123395Y-44645778D01*
X73172918Y-44626063D01*
X73222119Y-44614522D01*
X73277555Y-44607928D01*
X73328513Y-44606210D01*
X73373995Y-44607971D01*
G37*
G36*
X72549867Y-44634054D02*
G01*
X72549867Y-45164305D01*
X72544077Y-45214135D01*
X72529351Y-45241730D01*
X72483253Y-45262222D01*
X72472198Y-45262735D01*
X72423838Y-45252114D01*
X72401856Y-45240265D01*
X72364137Y-45207898D01*
X72342993Y-45179204D01*
X72342993Y-44634054D01*
X72116092Y-44634054D01*
X72116092Y-45400000D01*
X72314173Y-45400000D01*
X72324431Y-45315736D01*
X72356843Y-45354650D01*
X72396192Y-45385665D01*
X72426280Y-45401953D01*
X72474514Y-45419814D01*
X72524328Y-45429431D01*
X72558415Y-45431263D01*
X72610180Y-45427202D01*
X72659911Y-45412927D01*
X72704610Y-45385011D01*
X72722791Y-45366294D01*
X72751127Y-45321171D01*
X72767656Y-45273096D01*
X72775212Y-45224427D01*
X72776524Y-45191172D01*
X72776524Y-44634054D01*
X72549867Y-44634054D01*
G37*
G36*
X71610020Y-45262735D02*
G01*
X71558852Y-45258217D01*
X71518674Y-45244661D01*
X71485930Y-45207155D01*
X71483747Y-45190195D01*
X71497424Y-45148918D01*
X71538415Y-45121696D01*
X71549937Y-45116922D01*
X71597930Y-45100252D01*
X71646268Y-45085747D01*
X71664731Y-45080530D01*
X71714678Y-45064929D01*
X71765031Y-45043655D01*
X71809200Y-45018441D01*
X71835212Y-44999441D01*
X71869860Y-44961498D01*
X71891674Y-44913918D01*
X71900336Y-44862857D01*
X71900914Y-44844103D01*
X71895601Y-44794796D01*
X71876925Y-44744654D01*
X71844803Y-44700154D01*
X71815917Y-44673621D01*
X71768580Y-44644129D01*
X71719421Y-44625235D01*
X71671536Y-44614176D01*
X71618344Y-44607856D01*
X71569965Y-44606210D01*
X71520566Y-44607935D01*
X71468935Y-44614000D01*
X71416461Y-44625859D01*
X71392156Y-44633810D01*
X71346837Y-44652514D01*
X71301615Y-44676450D01*
X71261242Y-44703907D01*
X71351612Y-44840439D01*
X71394474Y-44816490D01*
X71440142Y-44797216D01*
X71453705Y-44792568D01*
X71501503Y-44780379D01*
X71553027Y-44774895D01*
X71563370Y-44774738D01*
X71616146Y-44779433D01*
X71661885Y-44802790D01*
X71672547Y-44834089D01*
X71658625Y-44867794D01*
X71615134Y-44893146D01*
X71605868Y-44896859D01*
X71558058Y-44913468D01*
X71510419Y-44928168D01*
X71492295Y-44933496D01*
X71443697Y-44948716D01*
X71395880Y-44967097D01*
X71363579Y-44982100D01*
X71320263Y-45009636D01*
X71284435Y-45047127D01*
X71278583Y-45055617D01*
X71257879Y-45101452D01*
X71249362Y-45149743D01*
X71248297Y-45177006D01*
X71253139Y-45226870D01*
X71269650Y-45275606D01*
X71297878Y-45317934D01*
X71335665Y-45353653D01*
X71376728Y-45380214D01*
X71424184Y-45401147D01*
X71429281Y-45402930D01*
X71476542Y-45416626D01*
X71526276Y-45425840D01*
X71578483Y-45430571D01*
X71608555Y-45431263D01*
X71662258Y-45429248D01*
X71712725Y-45423203D01*
X71765631Y-45411585D01*
X71803949Y-45399023D01*
X71849632Y-45379147D01*
X71895724Y-45353301D01*
X71936902Y-45323495D01*
X71948297Y-45313782D01*
X71833991Y-45182379D01*
X71792851Y-45210315D01*
X71747224Y-45233857D01*
X71733363Y-45239776D01*
X71685788Y-45254641D01*
X71634747Y-45261928D01*
X71610020Y-45262735D01*
G37*
G36*
X70725261Y-44602846D02*
G01*
X70775458Y-44606302D01*
X70828504Y-44616835D01*
X70876941Y-44634390D01*
X70920767Y-44658967D01*
X70959693Y-44689329D01*
X70993674Y-44724485D01*
X71022708Y-44764434D01*
X71046796Y-44809176D01*
X71049441Y-44815073D01*
X71067576Y-44863712D01*
X71080338Y-44914946D01*
X71087726Y-44968775D01*
X71089783Y-45018004D01*
X71089740Y-45025533D01*
X71087005Y-45076714D01*
X71078670Y-45131943D01*
X71064779Y-45183692D01*
X71045331Y-45231960D01*
X71020266Y-45276000D01*
X70989766Y-45315064D01*
X70953831Y-45349151D01*
X70912463Y-45378262D01*
X70901246Y-45384680D01*
X70853077Y-45406211D01*
X70799626Y-45421118D01*
X70748523Y-45428726D01*
X70693377Y-45431263D01*
X70669285Y-45430797D01*
X70617505Y-45426345D01*
X70569087Y-45417179D01*
X70519232Y-45401465D01*
X70473670Y-45381372D01*
X70428676Y-45355523D01*
X70389050Y-45325750D01*
X70480153Y-45199476D01*
X70482981Y-45201266D01*
X70526254Y-45225427D01*
X70574187Y-45245638D01*
X70623890Y-45258461D01*
X70675303Y-45262735D01*
X70705941Y-45260783D01*
X70753351Y-45248355D01*
X70797424Y-45221946D01*
X70829252Y-45183902D01*
X70849014Y-45135933D01*
X70858485Y-45087369D01*
X70364626Y-45087369D01*
X70361451Y-45047069D01*
X70360230Y-45004082D01*
X70360402Y-44988499D01*
X70363059Y-44946685D01*
X70581270Y-44946685D01*
X70861416Y-44946685D01*
X70855570Y-44900935D01*
X70841598Y-44848946D01*
X70816231Y-44803803D01*
X70809016Y-44795815D01*
X70766695Y-44767661D01*
X70717801Y-44759106D01*
X70696134Y-44760358D01*
X70649177Y-44775335D01*
X70613754Y-44810397D01*
X70596938Y-44845746D01*
X70584757Y-44896854D01*
X70581270Y-44946685D01*
X70363059Y-44946685D01*
X70363727Y-44936168D01*
X70371282Y-44887273D01*
X70385097Y-44835600D01*
X70404438Y-44788415D01*
X70419129Y-44761353D01*
X70449992Y-44717810D01*
X70486535Y-44680913D01*
X70528757Y-44650662D01*
X70565102Y-44632009D01*
X70615952Y-44614759D01*
X70665045Y-44605783D01*
X70717801Y-44602791D01*
X70725261Y-44602846D01*
G37*
G36*
X68647355Y-45359455D02*
G01*
X68690017Y-45383965D01*
X68735995Y-45403543D01*
X68755310Y-45410258D01*
X68804804Y-45423058D01*
X68854095Y-45429601D01*
X68897215Y-45431263D01*
X68950564Y-45428532D01*
X69005967Y-45418444D01*
X69054008Y-45400923D01*
X69099895Y-45371797D01*
X69119232Y-45353593D01*
X69150861Y-45311171D01*
X69173454Y-45261819D01*
X69185809Y-45212951D01*
X69191245Y-45158776D01*
X69191528Y-45142323D01*
X69191528Y-44790369D01*
X69351751Y-44790369D01*
X69351751Y-44634054D01*
X69191528Y-44634054D01*
X69191528Y-44466992D01*
X68964870Y-44439148D01*
X68964870Y-44634054D01*
X68719162Y-44634054D01*
X68741388Y-44790369D01*
X68964870Y-44790369D01*
X68964870Y-45137683D01*
X68958398Y-45186531D01*
X68938981Y-45219260D01*
X68894597Y-45240249D01*
X68856427Y-45243684D01*
X68806583Y-45239582D01*
X68782909Y-45234159D01*
X68736564Y-45216482D01*
X68722826Y-45209246D01*
X68647355Y-45359455D01*
G37*
G36*
X68246308Y-44302616D02*
G01*
X68246308Y-44708304D01*
X68209328Y-44673608D01*
X68163233Y-44642202D01*
X68113959Y-44620567D01*
X68061506Y-44608703D01*
X68022093Y-44606210D01*
X67968609Y-44610963D01*
X67918110Y-44627392D01*
X67877008Y-44655556D01*
X67866510Y-44666294D01*
X67838046Y-44708641D01*
X67821441Y-44754951D01*
X67813376Y-44809027D01*
X67812533Y-44835554D01*
X67812533Y-45399755D01*
X68039434Y-45399755D01*
X68039434Y-44899057D01*
X68041974Y-44849632D01*
X68054822Y-44802337D01*
X68097723Y-44775708D01*
X68112707Y-44774738D01*
X68160574Y-44787321D01*
X68181339Y-44801360D01*
X68217884Y-44837295D01*
X68246308Y-44873900D01*
X68246308Y-45399755D01*
X68472965Y-45399755D01*
X68472965Y-44325087D01*
X68246308Y-44302616D01*
G37*
G36*
X67283503Y-44227634D02*
G01*
X67233042Y-44236006D01*
X67189628Y-44263392D01*
X67187271Y-44265736D01*
X67159244Y-44308234D01*
X67149938Y-44356505D01*
X67149902Y-44360013D01*
X67158113Y-44409111D01*
X67184972Y-44452609D01*
X67187271Y-44455024D01*
X67230013Y-44483784D01*
X67279845Y-44493333D01*
X67283503Y-44493370D01*
X67334597Y-44484944D01*
X67378568Y-44457383D01*
X67380956Y-44455024D01*
X67409166Y-44412098D01*
X67418532Y-44363537D01*
X67418569Y-44360013D01*
X67410304Y-44311198D01*
X67383270Y-44268120D01*
X67380956Y-44265736D01*
X67337663Y-44237159D01*
X67287206Y-44227671D01*
X67283503Y-44227634D01*
G37*
G36*
X67146482Y-44634054D02*
G01*
X67146482Y-45243684D01*
X66952554Y-45243684D01*
X66952554Y-45400000D01*
X67589295Y-45400000D01*
X67589295Y-45243684D01*
X67373384Y-45243684D01*
X67373384Y-44790369D01*
X67582212Y-44790369D01*
X67582212Y-44634054D01*
X67146482Y-44634054D01*
G37*
G36*
X66445750Y-45262735D02*
G01*
X66394581Y-45258217D01*
X66354403Y-45244661D01*
X66321659Y-45207155D01*
X66319476Y-45190195D01*
X66333154Y-45148918D01*
X66374144Y-45121696D01*
X66385666Y-45116922D01*
X66433660Y-45100252D01*
X66481997Y-45085747D01*
X66500460Y-45080530D01*
X66550408Y-45064929D01*
X66600760Y-45043655D01*
X66644930Y-45018441D01*
X66670942Y-44999441D01*
X66705589Y-44961498D01*
X66727404Y-44913918D01*
X66736065Y-44862857D01*
X66736643Y-44844103D01*
X66731331Y-44794796D01*
X66712655Y-44744654D01*
X66680532Y-44700154D01*
X66651646Y-44673621D01*
X66604309Y-44644129D01*
X66555150Y-44625235D01*
X66507265Y-44614176D01*
X66454074Y-44607856D01*
X66405694Y-44606210D01*
X66356296Y-44607935D01*
X66304664Y-44614000D01*
X66252190Y-44625859D01*
X66227885Y-44633810D01*
X66182567Y-44652514D01*
X66137344Y-44676450D01*
X66096971Y-44703907D01*
X66187341Y-44840439D01*
X66230203Y-44816490D01*
X66275871Y-44797216D01*
X66289434Y-44792568D01*
X66337232Y-44780379D01*
X66388756Y-44774895D01*
X66399099Y-44774738D01*
X66451875Y-44779433D01*
X66497614Y-44802790D01*
X66508276Y-44834089D01*
X66494354Y-44867794D01*
X66450864Y-44893146D01*
X66441598Y-44896859D01*
X66393787Y-44913468D01*
X66346148Y-44928168D01*
X66328025Y-44933496D01*
X66279426Y-44948716D01*
X66231610Y-44967097D01*
X66199309Y-44982100D01*
X66155992Y-45009636D01*
X66120164Y-45047127D01*
X66114312Y-45055617D01*
X66093609Y-45101452D01*
X66085091Y-45149743D01*
X66084026Y-45177006D01*
X66088868Y-45226870D01*
X66105379Y-45275606D01*
X66133607Y-45317934D01*
X66171394Y-45353653D01*
X66212457Y-45380214D01*
X66259913Y-45401147D01*
X66265010Y-45402930D01*
X66312271Y-45416626D01*
X66362005Y-45425840D01*
X66414212Y-45430571D01*
X66444284Y-45431263D01*
X66497987Y-45429248D01*
X66548454Y-45423203D01*
X66601361Y-45411585D01*
X66639678Y-45399023D01*
X66685362Y-45379147D01*
X66731453Y-45353301D01*
X66772631Y-45323495D01*
X66784026Y-45313782D01*
X66669720Y-45182379D01*
X66628581Y-45210315D01*
X66582953Y-45233857D01*
X66569092Y-45239776D01*
X66521518Y-45254641D01*
X66470476Y-45261928D01*
X66445750Y-45262735D01*
G37*
G36*
X75890621Y-45907634D02*
G01*
X75840160Y-45916006D01*
X75796745Y-45943392D01*
X75794389Y-45945736D01*
X75766362Y-45988234D01*
X75757056Y-46036505D01*
X75757020Y-46040013D01*
X75765231Y-46089111D01*
X75792090Y-46132609D01*
X75794389Y-46135024D01*
X75837131Y-46163784D01*
X75886963Y-46173333D01*
X75890621Y-46173370D01*
X75941715Y-46164944D01*
X75985686Y-46137383D01*
X75988073Y-46135024D01*
X76016284Y-46092098D01*
X76025650Y-46043537D01*
X76025687Y-46040013D01*
X76017422Y-45991198D01*
X75990388Y-45948120D01*
X75988073Y-45945736D01*
X75944781Y-45917159D01*
X75894324Y-45907671D01*
X75890621Y-45907634D01*
G37*
G36*
X75753600Y-46314054D02*
G01*
X75753600Y-46923684D01*
X75559672Y-46923684D01*
X75559672Y-47080000D01*
X76196413Y-47080000D01*
X76196413Y-46923684D01*
X75980502Y-46923684D01*
X75980502Y-46470369D01*
X76189330Y-46470369D01*
X76189330Y-46314054D01*
X75753600Y-46314054D01*
G37*
G36*
X75052868Y-46942735D02*
G01*
X75001699Y-46938217D01*
X74961521Y-46924661D01*
X74928777Y-46887155D01*
X74926594Y-46870195D01*
X74940272Y-46828918D01*
X74981262Y-46801696D01*
X74992784Y-46796922D01*
X75040778Y-46780252D01*
X75089115Y-46765747D01*
X75107578Y-46760530D01*
X75157526Y-46744929D01*
X75207878Y-46723655D01*
X75252048Y-46698441D01*
X75278060Y-46679441D01*
X75312707Y-46641498D01*
X75334522Y-46593918D01*
X75343183Y-46542857D01*
X75343761Y-46524103D01*
X75338449Y-46474796D01*
X75319773Y-46424654D01*
X75287650Y-46380154D01*
X75258764Y-46353621D01*
X75211427Y-46324129D01*
X75162268Y-46305235D01*
X75114383Y-46294176D01*
X75061192Y-46287856D01*
X75012812Y-46286210D01*
X74963414Y-46287935D01*
X74911782Y-46294000D01*
X74859308Y-46305859D01*
X74835003Y-46313810D01*
X74789684Y-46332514D01*
X74744462Y-46356450D01*
X74704089Y-46383907D01*
X74794459Y-46520439D01*
X74837321Y-46496490D01*
X74882989Y-46477216D01*
X74896552Y-46472568D01*
X74944350Y-46460379D01*
X74995874Y-46454895D01*
X75006217Y-46454738D01*
X75058993Y-46459433D01*
X75104732Y-46482790D01*
X75115394Y-46514089D01*
X75101472Y-46547794D01*
X75057981Y-46573146D01*
X75048715Y-46576859D01*
X75000905Y-46593468D01*
X74953266Y-46608168D01*
X74935143Y-46613496D01*
X74886544Y-46628716D01*
X74838727Y-46647097D01*
X74806427Y-46662100D01*
X74763110Y-46689636D01*
X74727282Y-46727127D01*
X74721430Y-46735617D01*
X74700727Y-46781452D01*
X74692209Y-46829743D01*
X74691144Y-46857006D01*
X74695986Y-46906870D01*
X74712497Y-46955606D01*
X74740725Y-46997934D01*
X74778512Y-47033653D01*
X74819575Y-47060214D01*
X74867031Y-47081147D01*
X74872128Y-47082930D01*
X74919389Y-47096626D01*
X74969123Y-47105840D01*
X75021330Y-47110571D01*
X75051402Y-47111263D01*
X75105105Y-47109248D01*
X75155572Y-47103203D01*
X75208478Y-47091585D01*
X75246796Y-47079023D01*
X75292480Y-47059147D01*
X75338571Y-47033301D01*
X75379749Y-47003495D01*
X75391144Y-46993782D01*
X75276838Y-46862379D01*
X75235699Y-46890315D01*
X75190071Y-46913857D01*
X75176210Y-46919776D01*
X75128636Y-46934641D01*
X75077594Y-46941928D01*
X75052868Y-46942735D01*
G37*
G36*
X72950914Y-47039455D02*
G01*
X72993576Y-47063965D01*
X73039554Y-47083543D01*
X73058869Y-47090258D01*
X73108363Y-47103058D01*
X73157654Y-47109601D01*
X73200774Y-47111263D01*
X73254123Y-47108532D01*
X73309526Y-47098444D01*
X73357567Y-47080923D01*
X73403454Y-47051797D01*
X73422791Y-47033593D01*
X73454420Y-46991171D01*
X73477013Y-46941819D01*
X73489368Y-46892951D01*
X73494804Y-46838776D01*
X73495087Y-46822323D01*
X73495087Y-46470369D01*
X73655310Y-46470369D01*
X73655310Y-46314054D01*
X73495087Y-46314054D01*
X73495087Y-46146992D01*
X73268429Y-46119148D01*
X73268429Y-46314054D01*
X73022721Y-46314054D01*
X73044947Y-46470369D01*
X73268429Y-46470369D01*
X73268429Y-46817683D01*
X73261957Y-46866531D01*
X73242540Y-46899260D01*
X73198156Y-46920249D01*
X73159986Y-46923684D01*
X73110142Y-46919582D01*
X73086468Y-46914159D01*
X73040123Y-46896482D01*
X73026385Y-46889246D01*
X72950914Y-47039455D01*
G37*
G36*
X72453557Y-46286261D02*
G01*
X72502469Y-46289446D01*
X72554446Y-46299155D01*
X72602242Y-46315336D01*
X72645854Y-46337990D01*
X72675547Y-46358850D01*
X72714998Y-46395549D01*
X72748345Y-46438740D01*
X72772861Y-46482581D01*
X72778184Y-46494273D01*
X72796045Y-46543442D01*
X72808409Y-46596458D01*
X72814721Y-46646002D01*
X72816824Y-46698492D01*
X72814445Y-46757436D01*
X72807307Y-46812146D01*
X72795411Y-46862623D01*
X72778757Y-46908865D01*
X72752490Y-46958768D01*
X72719371Y-47002575D01*
X72693734Y-47028048D01*
X72650726Y-47059890D01*
X72602257Y-47084091D01*
X72548327Y-47100649D01*
X72499214Y-47108609D01*
X72446308Y-47111263D01*
X72414155Y-47110294D01*
X72363601Y-47104378D01*
X72307942Y-47090179D01*
X72257745Y-47068234D01*
X72213008Y-47038544D01*
X72173733Y-47001109D01*
X72140531Y-46956856D01*
X72114199Y-46906713D01*
X72097502Y-46860427D01*
X72085577Y-46810051D01*
X72078421Y-46755584D01*
X72076036Y-46697027D01*
X72076041Y-46696538D01*
X72310020Y-46696538D01*
X72310543Y-46728011D01*
X72314726Y-46784157D01*
X72324431Y-46836482D01*
X72343482Y-46884849D01*
X72354751Y-46901525D01*
X72395757Y-46933182D01*
X72446308Y-46942735D01*
X72467178Y-46941322D01*
X72516225Y-46922328D01*
X72549378Y-46884849D01*
X72564018Y-46851465D01*
X72575487Y-46803287D01*
X72581239Y-46751023D01*
X72582840Y-46698004D01*
X72582317Y-46667386D01*
X72578134Y-46612584D01*
X72568429Y-46561186D01*
X72549378Y-46513112D01*
X72538039Y-46496295D01*
X72496900Y-46464372D01*
X72446308Y-46454738D01*
X72425444Y-46456151D01*
X72376477Y-46475145D01*
X72343482Y-46512623D01*
X72328842Y-46545825D01*
X72317373Y-46593359D01*
X72311622Y-46644661D01*
X72310020Y-46696538D01*
X72076041Y-46696538D01*
X72076207Y-46681641D01*
X72079494Y-46629746D01*
X72086966Y-46580889D01*
X72100628Y-46528774D01*
X72119755Y-46480628D01*
X72134366Y-46452784D01*
X72165443Y-46407745D01*
X72202664Y-46369236D01*
X72246029Y-46337257D01*
X72251223Y-46334116D01*
X72295248Y-46312581D01*
X72343669Y-46297427D01*
X72396486Y-46288653D01*
X72446308Y-46286210D01*
X72453557Y-46286261D01*
G37*
G36*
X71610020Y-46942735D02*
G01*
X71558852Y-46938217D01*
X71518674Y-46924661D01*
X71485930Y-46887155D01*
X71483747Y-46870195D01*
X71497424Y-46828918D01*
X71538415Y-46801696D01*
X71549937Y-46796922D01*
X71597930Y-46780252D01*
X71646268Y-46765747D01*
X71664731Y-46760530D01*
X71714678Y-46744929D01*
X71765031Y-46723655D01*
X71809200Y-46698441D01*
X71835212Y-46679441D01*
X71869860Y-46641498D01*
X71891674Y-46593918D01*
X71900336Y-46542857D01*
X71900914Y-46524103D01*
X71895601Y-46474796D01*
X71876925Y-46424654D01*
X71844803Y-46380154D01*
X71815917Y-46353621D01*
X71768580Y-46324129D01*
X71719421Y-46305235D01*
X71671536Y-46294176D01*
X71618344Y-46287856D01*
X71569965Y-46286210D01*
X71520566Y-46287935D01*
X71468935Y-46294000D01*
X71416461Y-46305859D01*
X71392156Y-46313810D01*
X71346837Y-46332514D01*
X71301615Y-46356450D01*
X71261242Y-46383907D01*
X71351612Y-46520439D01*
X71394474Y-46496490D01*
X71440142Y-46477216D01*
X71453705Y-46472568D01*
X71501503Y-46460379D01*
X71553027Y-46454895D01*
X71563370Y-46454738D01*
X71616146Y-46459433D01*
X71661885Y-46482790D01*
X71672547Y-46514089D01*
X71658625Y-46547794D01*
X71615134Y-46573146D01*
X71605868Y-46576859D01*
X71558058Y-46593468D01*
X71510419Y-46608168D01*
X71492295Y-46613496D01*
X71443697Y-46628716D01*
X71395880Y-46647097D01*
X71363579Y-46662100D01*
X71320263Y-46689636D01*
X71284435Y-46727127D01*
X71278583Y-46735617D01*
X71257879Y-46781452D01*
X71249362Y-46829743D01*
X71248297Y-46857006D01*
X71253139Y-46906870D01*
X71269650Y-46955606D01*
X71297878Y-46997934D01*
X71335665Y-47033653D01*
X71376728Y-47060214D01*
X71424184Y-47081147D01*
X71429281Y-47082930D01*
X71476542Y-47096626D01*
X71526276Y-47105840D01*
X71578483Y-47110571D01*
X71608555Y-47111263D01*
X71662258Y-47109248D01*
X71712725Y-47103203D01*
X71765631Y-47091585D01*
X71803949Y-47079023D01*
X71849632Y-47059147D01*
X71895724Y-47033301D01*
X71936902Y-47003495D01*
X71948297Y-46993782D01*
X71833991Y-46862379D01*
X71792851Y-46890315D01*
X71747224Y-46913857D01*
X71733363Y-46919776D01*
X71685788Y-46934641D01*
X71634747Y-46941928D01*
X71610020Y-46942735D01*
G37*
G36*
X70828443Y-45982616D02*
G01*
X70828443Y-46388304D01*
X70791463Y-46353608D01*
X70745368Y-46322202D01*
X70696094Y-46300567D01*
X70643641Y-46288703D01*
X70604228Y-46286210D01*
X70550744Y-46290963D01*
X70500245Y-46307392D01*
X70459144Y-46335556D01*
X70448646Y-46346294D01*
X70420181Y-46388641D01*
X70403576Y-46434951D01*
X70395511Y-46489027D01*
X70394668Y-46515554D01*
X70394668Y-47079755D01*
X70621570Y-47079755D01*
X70621570Y-46579057D01*
X70624109Y-46529632D01*
X70636957Y-46482337D01*
X70679859Y-46455708D01*
X70694842Y-46454738D01*
X70742709Y-46467321D01*
X70763475Y-46481360D01*
X70800020Y-46517295D01*
X70828443Y-46553900D01*
X70828443Y-47079755D01*
X71055101Y-47079755D01*
X71055101Y-46005087D01*
X70828443Y-45982616D01*
G37*
G36*
X69508066Y-47039455D02*
G01*
X69550729Y-47063965D01*
X69596707Y-47083543D01*
X69616022Y-47090258D01*
X69665515Y-47103058D01*
X69714807Y-47109601D01*
X69757927Y-47111263D01*
X69811276Y-47108532D01*
X69866679Y-47098444D01*
X69914719Y-47080923D01*
X69960607Y-47051797D01*
X69979944Y-47033593D01*
X70011573Y-46991171D01*
X70034166Y-46941819D01*
X70046521Y-46892951D01*
X70051957Y-46838776D01*
X70052240Y-46822323D01*
X70052240Y-46470369D01*
X70212463Y-46470369D01*
X70212463Y-46314054D01*
X70052240Y-46314054D01*
X70052240Y-46146992D01*
X69825582Y-46119148D01*
X69825582Y-46314054D01*
X69579874Y-46314054D01*
X69602100Y-46470369D01*
X69825582Y-46470369D01*
X69825582Y-46817683D01*
X69819110Y-46866531D01*
X69799692Y-46899260D01*
X69755309Y-46920249D01*
X69717138Y-46923684D01*
X69667295Y-46919582D01*
X69643621Y-46914159D01*
X69597276Y-46896482D01*
X69583538Y-46889246D01*
X69508066Y-47039455D01*
G37*
G36*
X75229399Y-41564371D02*
G01*
X75229399Y-41817163D01*
X75537145Y-41817163D01*
X75537145Y-42812208D01*
X75229399Y-42812208D01*
X75229399Y-43065000D01*
X76198433Y-43065000D01*
X76198433Y-42812208D01*
X75890321Y-42812208D01*
X75890321Y-41817163D01*
X76198433Y-41817163D01*
X76198433Y-41564371D01*
X75229399Y-41564371D01*
G37*
G36*
X74944002Y-43052909D02*
G01*
X74590826Y-43052909D01*
X74590826Y-42478817D01*
X74490443Y-42478817D01*
X74167676Y-43052909D01*
X73767972Y-43052909D01*
X74158883Y-42416901D01*
X74128240Y-42403569D01*
X74063605Y-42367837D01*
X73998790Y-42318821D01*
X73946758Y-42266325D01*
X73917125Y-42226393D01*
X73884172Y-42158429D01*
X73865013Y-42080785D01*
X73859563Y-42003642D01*
X73859642Y-42002177D01*
X74223729Y-42002177D01*
X74224674Y-42030490D01*
X74240790Y-42108749D01*
X74284180Y-42172903D01*
X74308643Y-42190956D01*
X74380751Y-42218555D01*
X74459302Y-42226025D01*
X74590826Y-42226025D01*
X74590826Y-41798845D01*
X74473224Y-41798845D01*
X74428938Y-41800558D01*
X74353272Y-41814262D01*
X74286744Y-41847571D01*
X74271975Y-41860566D01*
X74234129Y-41925406D01*
X74223729Y-42002177D01*
X73859642Y-42002177D01*
X73863356Y-41933577D01*
X73877919Y-41857362D01*
X73908713Y-41779286D01*
X73954374Y-41712885D01*
X74014902Y-41658161D01*
X74024734Y-41651263D01*
X74089855Y-41614478D01*
X74165486Y-41585575D01*
X74236541Y-41567511D01*
X74314894Y-41554921D01*
X74400546Y-41547805D01*
X74474323Y-41546053D01*
X74944002Y-41546053D01*
X74944002Y-43052909D01*
G37*
G36*
X73286936Y-41916081D02*
G01*
X73286936Y-42711458D01*
X73278251Y-42786202D01*
X73256161Y-42827595D01*
X73187015Y-42858334D01*
X73170432Y-42859103D01*
X73097892Y-42843172D01*
X73064919Y-42825397D01*
X73008341Y-42776848D01*
X72976625Y-42733806D01*
X72976625Y-41916081D01*
X72636273Y-41916081D01*
X72636273Y-43065000D01*
X72933394Y-43065000D01*
X72948782Y-42938604D01*
X72997399Y-42996976D01*
X73056424Y-43043498D01*
X73101556Y-43067930D01*
X73173907Y-43094721D01*
X73248628Y-43109146D01*
X73299759Y-43111894D01*
X73377405Y-43105803D01*
X73452003Y-43084390D01*
X73519050Y-43042516D01*
X73546322Y-43014441D01*
X73588826Y-42946757D01*
X73613620Y-42874645D01*
X73624954Y-42801641D01*
X73626922Y-42751758D01*
X73626922Y-41916081D01*
X73286936Y-41916081D01*
G37*
G36*
X71329294Y-41748086D02*
G01*
X71395701Y-41783957D01*
X71465006Y-41817896D01*
X71488960Y-41828414D01*
X71561168Y-41854060D01*
X71635000Y-41872850D01*
X71704131Y-41884114D01*
X71781056Y-41890702D01*
X71857749Y-41892634D01*
X71894420Y-41893424D01*
X71973162Y-41900978D01*
X72046687Y-41916531D01*
X72122264Y-41943192D01*
X72189755Y-41978941D01*
X72252755Y-42027852D01*
X72303981Y-42086807D01*
X72341317Y-42154817D01*
X72363156Y-42231399D01*
X72369560Y-42308457D01*
X72367298Y-42355355D01*
X72352899Y-42428737D01*
X72322299Y-42498234D01*
X72286450Y-42545425D01*
X72227373Y-42596670D01*
X72164762Y-42634888D01*
X72213358Y-42673086D01*
X72260383Y-42732707D01*
X72282206Y-42781125D01*
X72294089Y-42855806D01*
X72290074Y-42895413D01*
X72261316Y-42963110D01*
X72210191Y-43018838D01*
X72161763Y-43049292D01*
X72092227Y-43073152D01*
X72017036Y-43085116D01*
X71940914Y-43088447D01*
X71758831Y-43088447D01*
X71705095Y-43091997D01*
X71632801Y-43118489D01*
X71621297Y-43128333D01*
X71592868Y-43197257D01*
X71614117Y-43261004D01*
X71624989Y-43272928D01*
X71692152Y-43306067D01*
X71707162Y-43310017D01*
X71783457Y-43320550D01*
X71857749Y-43322920D01*
X71871014Y-43322863D01*
X71947539Y-43319700D01*
X72022247Y-43308265D01*
X72035785Y-43304436D01*
X72098817Y-43263203D01*
X72102352Y-43257284D01*
X72118600Y-43184801D01*
X72420118Y-43184801D01*
X72417874Y-43233479D01*
X72403586Y-43309995D01*
X72373224Y-43383004D01*
X72336795Y-43431490D01*
X72274284Y-43479850D01*
X72206528Y-43511964D01*
X72174929Y-43522611D01*
X72102389Y-43539647D01*
X72028698Y-43549895D01*
X71945470Y-43555796D01*
X71866542Y-43557393D01*
X71810912Y-43556485D01*
X71724049Y-43550936D01*
X71644502Y-43540342D01*
X71558704Y-43520971D01*
X71483442Y-43494335D01*
X71408953Y-43454078D01*
X71390275Y-43440914D01*
X71334394Y-43390171D01*
X71288604Y-43323292D01*
X71262094Y-43246934D01*
X71254713Y-43172344D01*
X71256607Y-43136572D01*
X71273700Y-43064368D01*
X71308569Y-42999420D01*
X71334217Y-42967767D01*
X71392919Y-42917074D01*
X71459877Y-42879619D01*
X71466004Y-42876914D01*
X71538068Y-42852829D01*
X71611018Y-42839949D01*
X71691053Y-42835655D01*
X71878265Y-42835655D01*
X71911294Y-42834639D01*
X71982313Y-42814406D01*
X72004295Y-42766046D01*
X71994769Y-42728677D01*
X71966559Y-42700833D01*
X71911131Y-42709349D01*
X71834302Y-42713290D01*
X71806763Y-42712852D01*
X71728359Y-42706283D01*
X71648654Y-42689739D01*
X71576748Y-42663464D01*
X71519483Y-42632510D01*
X71460198Y-42586728D01*
X71408953Y-42526810D01*
X71380263Y-42475851D01*
X71356615Y-42401954D01*
X71349602Y-42328241D01*
X71350911Y-42296367D01*
X71674933Y-42296367D01*
X71683278Y-42376595D01*
X71713251Y-42444154D01*
X71773027Y-42489395D01*
X71849323Y-42502264D01*
X71912244Y-42492306D01*
X71976451Y-42450240D01*
X71982307Y-42443560D01*
X72015555Y-42377339D01*
X72024811Y-42300764D01*
X72014427Y-42223248D01*
X71977550Y-42156416D01*
X71921680Y-42116849D01*
X71849323Y-42103660D01*
X71781372Y-42112881D01*
X71718531Y-42151837D01*
X71683278Y-42221279D01*
X71674933Y-42296367D01*
X71350911Y-42296367D01*
X71350988Y-42294483D01*
X71367569Y-42216507D01*
X71406388Y-42148356D01*
X71442153Y-42111381D01*
X71502371Y-42067580D01*
X71570153Y-42032951D01*
X71537261Y-42032710D01*
X71457852Y-42029822D01*
X71382208Y-42023060D01*
X71315289Y-42011769D01*
X71240792Y-41990453D01*
X71320659Y-41743157D01*
X71329294Y-41748086D01*
G37*
G36*
X70038227Y-41748086D02*
G01*
X70104634Y-41783957D01*
X70173939Y-41817896D01*
X70197892Y-41828414D01*
X70270100Y-41854060D01*
X70343932Y-41872850D01*
X70413064Y-41884114D01*
X70489988Y-41890702D01*
X70566681Y-41892634D01*
X70603352Y-41893424D01*
X70682094Y-41900978D01*
X70755619Y-41916531D01*
X70831196Y-41943192D01*
X70898687Y-41978941D01*
X70961688Y-42027852D01*
X71012913Y-42086807D01*
X71050250Y-42154817D01*
X71072088Y-42231399D01*
X71078492Y-42308457D01*
X71076231Y-42355355D01*
X71061831Y-42428737D01*
X71031231Y-42498234D01*
X70995382Y-42545425D01*
X70936306Y-42596670D01*
X70873695Y-42634888D01*
X70922291Y-42673086D01*
X70969316Y-42732707D01*
X70991139Y-42781125D01*
X71003021Y-42855806D01*
X70999007Y-42895413D01*
X70970249Y-42963110D01*
X70919124Y-43018838D01*
X70870695Y-43049292D01*
X70801159Y-43073152D01*
X70725969Y-43085116D01*
X70649846Y-43088447D01*
X70467763Y-43088447D01*
X70414027Y-43091997D01*
X70341734Y-43118489D01*
X70330229Y-43128333D01*
X70301800Y-43197257D01*
X70323049Y-43261004D01*
X70333921Y-43272928D01*
X70401085Y-43306067D01*
X70416094Y-43310017D01*
X70492389Y-43320550D01*
X70566681Y-43322920D01*
X70579946Y-43322863D01*
X70656471Y-43319700D01*
X70731179Y-43308265D01*
X70744717Y-43304436D01*
X70807749Y-43263203D01*
X70811285Y-43257284D01*
X70827533Y-43184801D01*
X71129050Y-43184801D01*
X71126806Y-43233479D01*
X71112518Y-43309995D01*
X71082156Y-43383004D01*
X71045727Y-43431490D01*
X70983216Y-43479850D01*
X70915460Y-43511964D01*
X70883861Y-43522611D01*
X70811321Y-43539647D01*
X70737630Y-43549895D01*
X70654403Y-43555796D01*
X70575474Y-43557393D01*
X70519844Y-43556485D01*
X70432981Y-43550936D01*
X70353435Y-43540342D01*
X70267637Y-43520971D01*
X70192375Y-43494335D01*
X70117885Y-43454078D01*
X70099208Y-43440914D01*
X70043326Y-43390171D01*
X69997536Y-43323292D01*
X69971026Y-43246934D01*
X69963646Y-43172344D01*
X69965539Y-43136572D01*
X69982632Y-43064368D01*
X70017501Y-42999420D01*
X70043149Y-42967767D01*
X70101851Y-42917074D01*
X70168810Y-42879619D01*
X70174936Y-42876914D01*
X70247000Y-42852829D01*
X70319951Y-42839949D01*
X70399986Y-42835655D01*
X70587198Y-42835655D01*
X70620226Y-42834639D01*
X70691245Y-42814406D01*
X70713227Y-42766046D01*
X70703702Y-42728677D01*
X70675491Y-42700833D01*
X70620063Y-42709349D01*
X70543234Y-42713290D01*
X70515695Y-42712852D01*
X70437292Y-42706283D01*
X70357586Y-42689739D01*
X70285680Y-42663464D01*
X70228415Y-42632510D01*
X70169130Y-42586728D01*
X70117885Y-42526810D01*
X70089195Y-42475851D01*
X70065547Y-42401954D01*
X70058534Y-42328241D01*
X70059843Y-42296367D01*
X70383866Y-42296367D01*
X70392210Y-42376595D01*
X70422183Y-42444154D01*
X70481960Y-42489395D01*
X70558255Y-42502264D01*
X70621177Y-42492306D01*
X70685383Y-42450240D01*
X70691239Y-42443560D01*
X70724487Y-42377339D01*
X70733743Y-42300764D01*
X70723359Y-42223248D01*
X70686482Y-42156416D01*
X70630612Y-42116849D01*
X70558255Y-42103660D01*
X70490304Y-42112881D01*
X70427463Y-42151837D01*
X70392210Y-42221279D01*
X70383866Y-42296367D01*
X70059843Y-42296367D01*
X70059920Y-42294483D01*
X70076502Y-42216507D01*
X70115321Y-42148356D01*
X70151085Y-42111381D01*
X70211303Y-42067580D01*
X70279085Y-42032951D01*
X70246193Y-42032710D01*
X70166785Y-42029822D01*
X70091140Y-42023060D01*
X70024222Y-42011769D01*
X69949724Y-41990453D01*
X70029591Y-41743157D01*
X70038227Y-41748086D01*
G37*
G36*
X69258959Y-41869269D02*
G01*
X69334255Y-41874453D01*
X69413825Y-41890252D01*
X69486479Y-41916585D01*
X69552219Y-41953450D01*
X69610608Y-41998994D01*
X69661578Y-42051728D01*
X69705130Y-42111651D01*
X69741263Y-42178764D01*
X69745230Y-42187610D01*
X69772432Y-42260568D01*
X69791575Y-42337419D01*
X69802657Y-42418162D01*
X69805743Y-42492006D01*
X69805678Y-42503299D01*
X69801575Y-42580071D01*
X69789073Y-42662915D01*
X69768236Y-42740538D01*
X69739064Y-42812941D01*
X69701466Y-42879001D01*
X69655717Y-42937596D01*
X69601815Y-42988727D01*
X69539762Y-43032393D01*
X69522937Y-43042020D01*
X69450683Y-43074317D01*
X69370506Y-43096677D01*
X69293853Y-43108090D01*
X69211133Y-43111894D01*
X69174995Y-43111196D01*
X69097326Y-43104517D01*
X69024698Y-43090768D01*
X68949916Y-43067198D01*
X68881573Y-43037058D01*
X68814082Y-42998285D01*
X68754644Y-42953625D01*
X68891297Y-42764214D01*
X68895539Y-42766900D01*
X68960449Y-42803141D01*
X69032348Y-42833457D01*
X69106903Y-42852691D01*
X69184023Y-42859103D01*
X69229979Y-42856175D01*
X69301094Y-42837533D01*
X69367205Y-42797920D01*
X69414947Y-42740853D01*
X69444589Y-42668899D01*
X69458796Y-42596053D01*
X68718007Y-42596053D01*
X68713244Y-42535603D01*
X68711413Y-42471123D01*
X68711672Y-42447749D01*
X68715656Y-42385027D01*
X69042972Y-42385027D01*
X69463192Y-42385027D01*
X69454422Y-42316403D01*
X69433465Y-42238420D01*
X69395415Y-42170704D01*
X69384592Y-42158723D01*
X69321110Y-42116492D01*
X69247770Y-42103660D01*
X69215269Y-42105538D01*
X69144833Y-42128003D01*
X69091699Y-42180596D01*
X69066475Y-42233619D01*
X69048203Y-42310281D01*
X69042972Y-42385027D01*
X68715656Y-42385027D01*
X68716658Y-42369252D01*
X68727991Y-42295909D01*
X68748713Y-42218400D01*
X68777725Y-42147623D01*
X68799762Y-42107030D01*
X68846056Y-42041715D01*
X68900870Y-41986370D01*
X68964204Y-41940994D01*
X69018721Y-41913014D01*
X69094996Y-41887138D01*
X69168635Y-41873674D01*
X69247770Y-41869187D01*
X69258959Y-41869269D01*
G37*
G36*
X67812355Y-41982027D02*
G01*
X67853622Y-41945422D01*
X67921899Y-41904715D01*
X67997827Y-41881048D01*
X68071741Y-41874316D01*
X68097912Y-41875014D01*
X68172290Y-41885495D01*
X68247660Y-41911892D01*
X68315373Y-41953817D01*
X68346161Y-41980013D01*
X68395765Y-42034560D01*
X68437893Y-42098612D01*
X68472543Y-42172170D01*
X68475924Y-42180888D01*
X68499108Y-42253491D01*
X68515423Y-42331177D01*
X68524868Y-42413947D01*
X68527498Y-42490540D01*
X68527319Y-42513711D01*
X68523875Y-42591903D01*
X68516049Y-42665571D01*
X68501738Y-42744225D01*
X68481702Y-42816971D01*
X68472700Y-42842599D01*
X68440709Y-42912953D01*
X68396395Y-42979635D01*
X68342850Y-43034225D01*
X68324905Y-43048105D01*
X68258902Y-43084513D01*
X68183383Y-43105750D01*
X68107278Y-43111894D01*
X68059987Y-43109580D01*
X67986339Y-43094845D01*
X67917135Y-43063534D01*
X67902640Y-43054299D01*
X67842232Y-43006775D01*
X67790739Y-42947763D01*
X67773520Y-43075258D01*
X67472002Y-43075258D01*
X67472002Y-42226025D01*
X67812355Y-42226025D01*
X67812355Y-42725013D01*
X67843815Y-42771264D01*
X67895886Y-42823199D01*
X67926161Y-42842133D01*
X67999567Y-42859103D01*
X68021749Y-42857595D01*
X68091524Y-42827595D01*
X68124916Y-42787249D01*
X68153806Y-42716221D01*
X68167648Y-42647579D01*
X68174724Y-42568817D01*
X68176521Y-42493105D01*
X68175679Y-42445838D01*
X68168947Y-42361712D01*
X68153327Y-42283656D01*
X68122665Y-42212103D01*
X68112265Y-42196914D01*
X68055724Y-42145783D01*
X67980516Y-42127107D01*
X67958049Y-42128369D01*
X67887826Y-42153485D01*
X67863297Y-42171746D01*
X67812355Y-42226025D01*
X67472002Y-42226025D01*
X67472002Y-41452630D01*
X67812355Y-41416727D01*
X67812355Y-41982027D01*
G37*
D11*
X54304510Y-39039400D02*
X55447368Y-39039400D01*
X54875939Y-39610828D02*
X54875939Y-38467971D01*
%LPC*%
D12*
%TO.C,J2*%
X79970000Y-44050000D03*
D13*
X79970000Y-41510000D03*
X79970000Y-38970000D03*
%TD*%
D14*
%TO.C,D2*%
X84960000Y-43855000D03*
D15*
X84960000Y-41315000D03*
%TD*%
D16*
%TO.C,D1*%
X81821561Y-34591561D03*
D15*
X80025510Y-32795510D03*
%TD*%
D17*
%TO.C,U1*%
X73730000Y-35090000D03*
X71190000Y-35090000D03*
X68650000Y-35090000D03*
X66110000Y-35090000D03*
X61030000Y-35090000D03*
X63570000Y-35090000D03*
X55950000Y-50330000D03*
X55950000Y-35090000D03*
X58490000Y-50330000D03*
X61030000Y-50330000D03*
X63570000Y-50330000D03*
X66110000Y-50330000D03*
X68650000Y-50330000D03*
X71190000Y-50330000D03*
X73730000Y-50330000D03*
X58490000Y-35090000D03*
%TD*%
D18*
%TO.C,D3*%
X80418439Y-52311562D03*
D15*
X82214490Y-50515511D03*
%TD*%
D12*
%TO.C,J1*%
X58415000Y-37815000D03*
D13*
X55875000Y-37815000D03*
%TD*%
%LPD*%
M02*
